<svg width="95" height="95" viewBox="0 0 95 95" fill="none" xmlns="http://www.w3.org/2000/svg">
<path d="M47.6481 0.14209C21.7236 0.14209 0.701172 21.2954 0.701172 47.3813C0.701172 73.4988 21.7236 94.6521 47.6481 94.6521C73.5726 94.6521 94.595 73.4988 94.595 47.4129C94.6264 21.2954 73.604 0.14209 47.6481 0.14209Z" fill="white"/>
<path d="M21.1893 20.505C21.8178 20.505 22.4148 20.5366 23.0747 20.5682C29.6423 14.7819 38.2524 11.3038 47.648 11.3038C58.3949 11.3038 68.0734 15.8569 74.8923 23.161C75.4894 20.7579 73.6668 17.5644 69.3618 14.7186C63.077 10.6714 55.6296 8.33154 47.648 8.33154C36.3041 8.33154 26.06 13.0428 18.7383 20.6314C19.2411 20.5682 19.7753 20.5366 20.3095 20.505C20.5923 20.505 20.8751 20.505 21.1893 20.505Z" fill="#242122"/>
<path d="M47.2707 36.4094C45.3853 36.5675 43.7827 37.8638 43.657 39.3183C43.5313 40.7728 44.9768 41.8479 46.8622 41.6898C48.7477 41.5317 50.3503 40.2353 50.476 38.7808C50.6017 37.3263 49.1562 36.2513 47.2707 36.4094Z" fill="#242122"/>
<path d="M65.1191 36.2515C69.3613 36.0618 73.0064 34.9551 75.5203 33.1212C77.3429 31.7616 78.537 30.0225 78.8826 27.9672C79.2911 25.5958 78.4741 23.1295 76.7458 20.8529C77.1543 21.9596 77.28 23.0979 77.0915 24.2045C76.4316 28.1253 72.0008 30.6549 66.2503 30.8762C52.1725 31.4138 32.6584 23.0663 20.3718 23.4141C16.6638 23.5405 13.2701 24.9318 11.039 27.24C9.90772 28.4099 9.05928 29.8328 8.61935 31.4454C8.27369 32.7418 8.24227 34.0698 8.46223 35.3345C8.83932 37.7376 10.9133 40.0142 13.9928 40.6782C15.0612 40.8995 16.161 40.8679 17.0723 40.6782C15.2183 39.3818 14.1185 37.6111 14.2128 35.714C14.3385 33.4058 16.2239 31.477 18.9263 30.4652C20.0576 30.0541 21.3774 29.7695 22.76 29.7063C35.2038 29.2636 50.947 36.8523 65.1191 36.2515Z" fill="#242122"/>
<path d="M83.5339 38.8758L84.4766 34.2594C84.6337 33.5638 85.0108 32.6468 86.1735 32.2674L86.2363 31.9196L82.9997 32.299C80.0773 32.6468 78.0976 35.5558 77.532 38.275L77.2806 39.603L75.3637 39.8244L74.7981 42.6701L76.7149 42.4488L74.7038 52.5037C74.641 52.9464 74.5781 53.3891 74.5781 53.7685C73.9497 54.4641 73.2269 55.0016 72.5042 55.3178C70.713 56.0451 69.5504 55.0649 69.896 53.0729L71.3729 45.7056C71.5615 44.757 71.4672 43.8716 71.2158 43.1128C70.8387 41.9113 69.9903 41.0259 68.8276 40.6149C68.1363 40.3619 67.3507 40.2987 66.5023 40.4251C64.2712 40.7413 62.48 41.9745 61.2859 43.6187C61.066 43.9033 60.8774 44.2195 60.6889 44.5357C60.5946 43.6187 60.3118 42.8282 59.6833 42.3539C59.1806 41.9745 58.5521 41.8164 58.0493 41.8796L54.1528 42.3223L54.0899 42.6701C54.1842 42.6701 54.247 42.6701 54.3099 42.6701C54.5299 42.7017 54.687 42.765 54.7812 42.8915C54.8441 42.9863 54.9069 43.0812 54.9384 43.2076C55.1269 43.7768 54.9698 44.6621 54.8755 45.0416L52.6759 55.9186C51.9845 56.8039 51.1047 57.5628 50.1934 57.9422C48.4022 58.6695 47.2396 57.6893 47.5852 55.6973L48.8736 49.2469C49.2821 47.2233 49.5021 44.757 48.1194 43.7136C47.6167 43.3341 46.9882 43.176 46.4854 43.2393L42.5889 43.6819L42.526 44.0297C43.8458 43.8716 43.4687 45.7688 43.343 46.3696L41.3005 56.4245C41.2377 56.7091 41.2062 56.962 41.2062 57.215C40.4835 58.132 39.6036 58.9224 38.6609 59.3019C36.8698 60.0291 35.7071 59.0489 36.0528 57.0569L38.7238 43.8084C39.1323 41.7848 39.3522 39.3185 37.9696 38.275C37.4668 37.8956 36.8383 37.7375 36.3356 37.8007L32.439 38.2434L32.3762 38.5912C33.696 38.4331 33.3189 40.2987 33.1932 40.9311V40.9627C33.1932 40.9627 33.1932 40.9627 33.1932 40.9311L29.7994 57.7841C29.3595 60.2821 29.9251 62.0527 31.2449 62.9381C32.3133 63.6653 33.9159 63.7918 35.8642 63.2227C38.001 62.6219 39.855 61.1358 41.3319 59.3019C41.5519 60.3137 42.0547 61.1042 42.7774 61.5785C43.8458 62.3057 45.4484 62.4322 47.3967 61.863C49.2193 61.3571 50.8219 60.2188 52.1417 58.7643L51.796 60.535L58.0493 59.8078L60.5318 47.4762C60.9403 45.8953 62.2286 44.6305 63.2028 44.2195C64.5854 43.6503 65.5596 44.4092 65.2139 45.9269L63.6113 53.8633C63.1714 56.3613 63.737 58.132 65.0568 59.0173C66.1252 59.7445 67.7278 59.871 69.6761 59.3019C71.6557 58.7327 73.384 57.4363 74.7981 55.7921C75.0495 56.6458 75.5209 57.3098 76.1493 57.7209C77.2177 58.4481 78.8203 58.5746 80.7686 58.0055C80.9257 57.9739 81.1143 57.9106 81.3028 57.8158C82.9054 57.1834 84.9479 55.3811 85.0736 53.231C84.2881 54.0847 83.2196 54.2744 82.6854 54.306C82.654 54.306 82.654 54.306 82.6226 54.306C82.5912 54.306 82.5597 54.306 82.5283 54.306C81.3656 54.306 80.7372 53.3574 80.9886 51.8081L82.9997 41.7532L85.8278 41.437L86.3934 38.5912L83.5339 38.8758Z" fill="#242122"/>
<path d="M81.4597 60.7563C81.0198 60.8828 80.5798 60.9777 80.1713 61.0409C75.0807 74.1313 62.4484 83.3958 47.6479 83.3958C35.3298 83.3958 24.4886 76.9454 18.2982 67.2383L17.8268 67.3015L14.9673 67.6177C21.5662 78.8742 33.7272 86.4312 47.6479 86.4312C64.6481 86.4312 79.0715 75.1431 83.8479 59.618C83.3451 59.9342 82.8109 60.2188 82.3081 60.4085C82.0253 60.5666 81.7425 60.6615 81.4597 60.7563Z" fill="#242122"/>
<path d="M24.3319 45.7056C24.3319 45.7056 26.0602 37.0419 26.123 36.7889C26.2802 36.0933 26.6572 35.1763 27.8199 34.7969L27.8828 34.4491L24.6147 34.8285C21.6923 35.1763 19.744 38.0853 19.1784 40.8046L18.0472 46.4328L16.1303 46.6541L15.5647 49.4999L17.4815 49.2786L14.3706 64.7404L20.6239 64.0132L23.7348 48.5513L29.0769 47.9189L29.6425 45.0732L24.3319 45.7056Z" fill="#242122"/>
<path d="M27.4424 66.6691C27.788 66.2897 28.3851 66.2897 28.7622 66.6691C29.1392 67.0169 29.1392 67.6177 28.7622 67.9971C28.4165 68.3765 27.8194 68.3765 27.4424 67.9971C27.0967 67.6493 27.0967 67.0485 27.4424 66.6691Z" fill="#242122"/>
<path d="M29.7676 68.9455C30.4275 68.0285 31.6531 67.8388 32.5958 68.5344C33.2243 69.0087 33.4128 69.5779 33.4128 70.147L32.4072 70.1786C32.4072 69.8308 32.2815 69.5146 31.9987 69.3249C31.5588 69.0087 30.9932 69.1352 30.6475 69.6095C30.3018 70.0838 30.3333 70.6845 30.7732 71.0007C31.0874 71.2537 31.4017 71.2221 31.7473 71.1272L32.0616 72.0758C31.4645 72.2655 30.8675 72.2655 30.1761 71.7596C29.2963 71.1272 29.0763 69.8941 29.7676 68.9455Z" fill="#242122"/>
<path d="M33.0986 73.3724L33.8214 72.8665C33.9157 73.0246 34.0413 73.1195 34.167 73.1827C34.2613 73.2143 34.387 73.2459 34.5441 73.1827L34.4499 69.9259L35.5183 70.4634V72.4871L37.058 71.2223L38.095 71.7282L35.424 73.7202C34.7955 74.1945 34.3556 74.2894 33.8214 74.0048C33.4757 73.8467 33.2558 73.6254 33.0986 73.3724Z" fill="#242122"/>
<path d="M39.5403 74.1943L38.8176 72.0126L40.0117 72.3288L40.3574 73.5619L41.3315 72.7082L42.4941 73.0244L40.7659 74.5105L41.4886 76.7871L40.2945 76.4709L39.9174 75.1429L38.8804 76.0598L37.7178 75.712L39.5403 74.1943Z" fill="#242122"/>
<path d="M45.6998 75.7755L45.3542 74.6372L44.82 75.7123L45.6998 75.7755ZM44.9771 73.3092L46.0141 73.4041L47.3338 77.4513L46.2026 77.3565L45.9826 76.6292L44.5057 76.5028L44.1601 77.1668L43.0288 77.0719L44.9771 73.3092Z" fill="#242122"/>
<path d="M50.3193 75.301C50.6964 75.2694 50.9163 75.0481 50.8849 74.7319C50.8535 74.3841 50.6021 74.2576 50.225 74.2892L49.7222 74.3208L49.8165 75.3326L50.3193 75.301ZM48.5596 73.4987L50.225 73.3406C51.1991 73.2458 51.859 73.6884 51.9533 74.5738C52.0475 75.4907 51.3877 76.0283 50.4135 76.1231L49.8793 76.1864L49.9736 77.2931L48.9052 77.3879L48.5596 73.4987Z" fill="#242122"/>
<path d="M52.7393 73.0564L53.7448 72.7718L54.3419 74.8903L55.1903 72.3607L56.1644 72.1078L57.17 75.8705L56.1644 76.1551L55.5988 74.0366L54.719 76.5345L53.7448 76.7875L52.7393 73.0564Z" fill="#242122"/>
<path d="M57.3584 71.6648L58.3325 71.1905L59.0239 72.6134L59.5266 70.6214L60.6893 70.0522L60.0923 72.2024L62.3862 73.5304L61.2235 74.0995L59.7466 73.2142L59.5895 73.7833L59.998 74.7003L59.0553 75.1429L57.3584 71.6648Z" fill="#242122"/>
<path d="M61.5054 69.5465L62.3538 68.9141L63.6422 70.6848L63.5479 68.0287L64.3649 67.428L66.6588 70.5899L65.779 71.1907L64.522 69.42L64.5849 72.076L63.7679 72.6768L61.5054 69.5465Z" fill="#242122"/>
<path d="M66.5639 67.9654C66.2183 67.5859 66.2183 67.0168 66.5639 66.6373C66.941 66.2895 67.5066 66.2579 67.8837 66.6373C68.2294 67.0168 68.2294 67.5859 67.8837 67.9654C67.5381 68.3448 66.941 68.3448 66.5639 67.9654Z" fill="#242122"/>
<path d="M39.7923 21.4218L40.955 19.999C41.2378 19.6511 41.3321 19.4298 41.2692 19.2085C41.2064 18.9555 41.0179 18.8607 40.7665 18.9239C40.5151 18.9871 40.358 19.1768 40.138 19.5879L39.2896 19.1768C39.5724 18.5445 39.8866 18.165 40.6408 18.0069C41.4578 17.8172 42.1491 18.165 42.3062 18.8923C42.4633 19.493 42.2119 19.9041 41.7406 20.4416L41.2064 21.0424L42.7461 20.663L42.9661 21.5167L39.9809 22.2439L39.7923 21.4218Z" fill="#242122"/>
<path d="M45.9507 19.2086C45.8879 18.6078 45.5737 18.1651 45.1337 18.1968C44.7252 18.2284 44.4738 18.7027 44.5053 19.335C44.5681 19.9674 44.8823 20.3785 45.3223 20.3469C45.7936 20.2836 46.0136 19.841 45.9507 19.2086ZM43.4683 19.3983C43.374 18.2916 44.0025 17.3114 45.0709 17.2166C46.1707 17.1217 46.9249 17.9754 47.0191 19.0821C47.1134 20.1888 46.5164 21.169 45.3851 21.2638C44.3167 21.3587 43.5626 20.5366 43.4683 19.3983Z" fill="#242122"/>
<path d="M50.5395 19.3032C50.571 18.7024 50.3196 18.2281 49.9111 18.1965C49.4711 18.1649 49.1883 18.5759 49.1255 19.2083C49.0626 19.8407 49.3454 20.2834 49.7539 20.315C50.1939 20.3466 50.5081 19.9356 50.5395 19.3032ZM48.0571 19.1135C48.1513 18.0068 48.9055 17.1531 50.0053 17.2479C51.1052 17.3428 51.7022 18.2914 51.6394 19.398C51.5451 20.5047 50.7909 21.3584 49.6911 21.2636C48.5598 21.1687 47.9628 20.2201 48.0571 19.1135Z" fill="#242122"/>
<path d="M52.2045 20.6315L53.8699 19.8726C54.2785 19.6829 54.467 19.5248 54.4984 19.3035C54.5613 19.0505 54.4356 18.8924 54.1528 18.8292C53.9014 18.766 53.6814 18.8608 53.3043 19.1454L52.7387 18.3865C53.2729 17.9439 53.7128 17.7541 54.467 17.9439C55.284 18.1336 55.7554 18.766 55.5668 19.4932C55.4411 20.094 55.064 20.3469 54.4041 20.6315L53.65 20.9477L55.2212 21.2955L55.0326 22.1492L52.0474 21.4536L52.2045 20.6315Z" fill="#242122"/>
</svg>
