<svg width="33" height="40" viewBox="0 0 33 40" fill="none" xmlns="http://www.w3.org/2000/svg">
<path d="M33 16.4034C29.7561 16.4116 26.5918 15.3387 23.9541 13.3362V27.3022C23.9532 29.8889 23.2077 32.4136 21.8173 34.5388C20.427 36.664 18.458 38.2884 16.1737 39.1947C13.8893 40.1011 11.3986 40.2462 9.03437 39.6106C6.67018 38.9751 4.54529 37.5893 2.9438 35.6384C1.34232 33.6875 0.340591 31.2645 0.0725564 28.6935C-0.195478 26.1225 0.282961 23.526 1.4439 21.2512C2.60483 18.9764 4.39293 17.1317 6.5691 15.9637C8.74527 14.7958 11.2058 14.3603 13.6216 14.7154V21.7399C12.5161 21.3711 11.329 21.3822 10.2298 21.7716C9.13065 22.161 8.1756 22.9089 7.50106 23.9083C6.82652 24.9077 6.46699 26.1076 6.47381 27.3367C6.48064 28.5658 6.85347 29.7611 7.53906 30.752C8.22466 31.743 9.18795 32.4788 10.2914 32.8545C11.3948 33.2301 12.582 33.2264 13.6833 32.8438C14.7846 32.4613 15.7438 31.7194 16.4238 30.7242C17.1039 29.729 17.4701 28.5313 17.47 27.3022V0H23.9541C23.9495 0.580725 23.9954 1.16066 24.0911 1.73247C24.3164 3.00895 24.7849 4.22326 25.4679 5.30113C26.1509 6.37901 27.034 7.29778 28.0633 8.00124C29.5277 9.02814 31.2445 9.57547 33 9.57508V16.4034Z" fill="white"/>
</svg>
