<svg width="97" height="99" viewBox="0 0 97 99" fill="none" xmlns="http://www.w3.org/2000/svg">
<g clip-path="url(#clip0_9_1661)">
<path d="M93.9047 76.1435C95.187 77.8422 95.9289 80.1565 96.602 82.2098C96.6413 82.3329 96.489 82.4412 96.4349 82.3033C96.0468 81.3186 95.6194 80.3584 95.1772 79.4031C94.7006 78.379 94.0914 77.404 93.6983 76.3404C93.6541 76.2173 93.8064 76.0105 93.9047 76.1435Z" fill="#F28B2F" fill-opacity="0.7"/>
<path d="M93.6491 81.3383C94.6121 82.717 95.2311 84.4797 95.806 86.0899C95.8551 86.2277 95.6782 86.4345 95.6045 86.2671C94.9118 84.6767 94.0127 83.1355 93.4427 81.486C93.3985 81.353 93.5607 81.2152 93.6491 81.3383Z" fill="#F28B2F" fill-opacity="0.7"/>
<path d="M92.3373 82.6185C92.5781 83.4162 92.6911 84.268 92.9171 85.0756C93.1676 85.9816 93.541 86.8383 93.8063 87.7345C93.8555 87.9068 93.6196 88.0349 93.5214 87.8921C93.0694 87.2126 92.7697 86.4198 92.5044 85.632C92.2096 84.7555 91.8853 83.6279 91.959 82.6825C91.9737 82.4954 92.2833 82.4215 92.3422 82.6136L92.3373 82.6185Z" fill="#F28B2F" fill-opacity="0.7"/>
<path d="M88.7652 83.9085C88.7898 83.7706 89.0011 83.6327 89.0699 83.81C89.4383 84.7357 89.5268 85.8239 89.8265 86.789C90.1262 87.7442 90.5536 88.6305 90.873 89.5759C90.9319 89.7532 90.6814 89.9305 90.5733 89.7778C89.9886 88.9506 89.6005 87.956 89.291 86.9712C89.0109 86.0849 88.5884 84.8588 88.7652 83.9085Z" fill="#F28B2F" fill-opacity="0.7"/>
<path d="M85.7782 84.8195C85.9305 85.9717 86.2842 87.1141 86.3677 88.2712C86.3776 88.3894 86.2154 88.5125 86.1516 88.3844C85.6406 87.3504 85.5522 86.0554 85.5129 84.8983C85.5079 84.721 85.7536 84.6078 85.7831 84.8195H85.7782Z" fill="#F28B2F" fill-opacity="0.7"/>
<path d="M83.1448 84.9081C83.3315 86.144 83.5428 87.37 83.8474 88.5715C84.1225 89.6547 84.5106 90.6937 84.8251 91.7671C84.8644 91.9001 84.6826 92.1118 84.5942 91.9542C83.4641 89.9305 82.9188 87.37 82.8009 85.0065C82.791 84.8243 83.1104 84.6914 83.1399 84.9031L83.1448 84.9081Z" fill="#F28B2F" fill-opacity="0.7"/>
<path d="M80.4768 85.8142C80.5653 86.8827 81.0566 87.8133 81.1991 88.8621C81.2138 88.9852 81.0811 89.1576 80.9927 89.0098C80.4375 88.0989 80.2066 86.9467 80.241 85.8536C80.2459 85.6812 80.4621 85.6221 80.4768 85.8142Z" fill="#F28B2F" fill-opacity="0.7"/>
<path d="M77.3032 86.597C78.0058 89.5415 78.7772 92.4663 79.4994 95.4059C79.5338 95.5487 79.3618 95.6964 79.2931 95.534C78.1286 92.7618 77.4556 89.7385 77.0527 86.725C77.033 86.5822 77.259 86.4246 77.2983 86.597H77.3032Z" fill="#F28B2F" fill-opacity="0.7"/>
<path d="M75.1167 87.3011C75.3132 88.0742 75.4754 88.8078 75.5687 89.6055C75.5785 89.6892 75.4704 89.7532 75.4361 89.6597C75.1609 88.926 74.989 88.2022 74.8268 87.4242C74.7875 87.2371 75.0627 87.0894 75.1167 87.2962V87.3011Z" fill="#F28B2F" fill-opacity="0.7"/>
<path d="M72.4687 89.379C72.6406 90.7085 73.0484 92.1118 73.0238 93.461C73.0238 93.5742 72.8617 93.7121 72.8027 93.5693C72.2623 92.3186 72.2721 90.7873 72.2427 89.4283C72.2427 89.2608 72.4441 89.1919 72.4687 89.379Z" fill="#F28B2F" fill-opacity="0.7"/>
<path d="M69.4079 89.0443C69.516 91.4669 69.9582 93.855 70.6657 96.1446C70.7001 96.2579 70.5822 96.376 70.5232 96.248C69.5013 94.0273 69.064 91.5752 69.1475 89.0886C69.1525 88.931 69.3981 88.8572 69.4079 89.0443Z" fill="#F28B2F" fill-opacity="0.7"/>
<path d="M66.1747 90.5952C66.3761 91.452 66.7446 92.2693 66.9067 93.136C66.9264 93.2394 66.7937 93.4265 66.7053 93.3083C66.1845 92.5845 65.9978 91.6243 65.8602 90.7331C65.8357 90.5607 66.1255 90.4032 66.1747 90.6001V90.5952Z" fill="#F28B2F" fill-opacity="0.7"/>
<path d="M62.5787 91.2551C62.8587 92.2153 63.1486 93.1705 63.4237 94.1307C63.6988 95.081 64.0329 96.0313 64.2 97.0161C64.2246 97.1638 64.0329 97.3017 63.9592 97.1491C63.124 95.3961 62.7113 93.3182 62.274 91.4028C62.2347 91.2354 62.5197 91.0729 62.5737 91.2551H62.5787Z" fill="#F28B2F" fill-opacity="0.7"/>
<path d="M58.9083 92.0478C59.0017 92.939 59.0557 93.8352 59.149 94.7264C59.262 95.8343 59.4831 96.9471 59.4733 98.0649C59.4733 98.2077 59.2817 98.3603 59.2129 98.1781C58.5398 96.3513 58.4219 94.0716 58.4907 92.1167C58.5005 91.8952 58.8837 91.8016 58.9083 92.0478Z" fill="#F28B2F" fill-opacity="0.7"/>
<path d="M56.2061 91.8854C56.4222 92.8456 56.7416 93.8501 56.6679 94.8496C56.663 94.9432 56.5254 95.0466 56.4714 94.9383C56.0439 94.0519 55.9751 92.9687 55.8278 91.9888C55.7934 91.7525 56.152 91.6441 56.2061 91.8903V91.8854Z" fill="#F28B2F" fill-opacity="0.7"/>
<path d="M52.099 90.0437C52.9981 91.6637 53.9119 93.7613 53.8923 95.7112C53.8923 95.8294 53.7105 95.9574 53.6564 95.8097C53.3518 94.9431 53.2093 94.0075 52.9489 93.1212C52.6591 92.1266 52.3004 91.1467 51.9074 90.2013C51.8582 90.0831 52.0253 89.9157 52.099 90.0487V90.0437Z" fill="#F28B2F" fill-opacity="0.7"/>
<path d="M49.2148 85.4644C49.2786 85.3069 49.4653 85.3857 49.4309 85.5482C49.2148 86.6068 49.5538 87.6359 49.8731 88.6207C50.163 89.5119 50.502 90.3835 50.8066 91.2698C51.3716 92.9095 51.9022 94.6181 51.7598 96.3956C51.7499 96.5384 51.5731 96.5827 51.5485 96.4252C51.2537 94.3128 50.6543 92.3678 49.9566 90.3835C49.426 88.8669 48.5761 87.0844 49.2099 85.4644H49.2148Z" fill="#F28B2F" fill-opacity="0.7"/>
<path d="M46.493 83.7165C46.5225 83.4998 46.8664 83.4259 46.8566 83.6869C46.8074 85.1001 47.0875 86.4296 47.171 87.828C47.1808 87.9707 46.999 88.1185 46.9253 87.956C46.3407 86.7004 46.3259 85.0952 46.4979 83.7214L46.493 83.7165Z" fill="#F28B2F" fill-opacity="0.7"/>
<path d="M43.4224 84.7111C43.5796 85.4399 43.6828 86.1785 43.7614 86.922C43.8351 87.6114 43.9825 88.3992 43.8155 89.0787C43.7811 89.2215 43.5502 89.3446 43.4912 89.1526C43.2849 88.4337 43.2996 87.6311 43.2357 86.8826C43.1719 86.1834 43.0982 85.4891 43.0392 84.7899C43.0146 84.5437 43.3733 84.46 43.4273 84.7111H43.4224Z" fill="#F28B2F" fill-opacity="0.7"/>
<path d="M38.5829 84.4207C38.6074 84.2139 38.9464 84.1154 38.9366 84.3715C38.7941 87.8133 40.4351 91.3635 39.4574 94.7463C39.4083 94.9087 39.197 94.894 39.2068 94.7118C39.31 92.9441 39.1331 91.2256 38.8777 89.4875C38.6271 87.7936 38.3863 86.1392 38.5878 84.4207H38.5829Z" fill="#F28B2F" fill-opacity="0.7"/>
<path d="M35.2614 84.3074C35.2614 84.3074 35.2614 84.2681 35.2762 84.2631C35.3253 84.1548 35.4825 84.1302 35.4874 84.2877C35.5415 85.8289 35.6053 87.4194 35.5267 88.9606C35.5218 89.0788 35.3548 89.2216 35.3105 89.0492C34.9126 87.5474 34.9617 85.8289 35.2614 84.3074Z" fill="#F28B2F" fill-opacity="0.7"/>
<path d="M32.1957 84.8933C32.235 84.6619 32.6035 84.6324 32.5789 84.9032C32.4954 85.7107 32.4905 86.6118 32.1859 87.3602C32.1367 87.4833 31.9599 87.5375 31.9353 87.3602C31.8223 86.5626 32.0679 85.6763 32.2006 84.8884L32.1957 84.8933Z" fill="#F28B2F" fill-opacity="0.7"/>
<path d="M29.803 84.204C29.7784 85.4596 29.8128 86.7202 29.8226 87.9758C29.8374 89.3397 29.97 90.7184 29.8718 92.0824C29.8619 92.2202 29.6408 92.3876 29.5966 92.1858C29.0414 89.6401 29.2478 86.8285 29.4394 84.2434C29.4541 84.0268 29.803 83.948 29.7981 84.204H29.803Z" fill="#F28B2F" fill-opacity="0.7"/>
<path d="M25.0618 83.9873C25.0913 83.7707 25.4745 83.746 25.4647 83.9873C25.3959 85.6368 25.4401 87.4735 24.9242 89.0393C24.8849 89.1525 24.713 89.2313 24.6835 89.0639C24.4378 87.4242 24.8309 85.6073 25.0618 83.9873Z" fill="#F28B2F" fill-opacity="0.7"/>
<path d="M21.3429 86.6956C21.4461 86.0702 21.451 85.4301 21.5444 84.8047C21.5886 84.4995 21.9915 84.5192 22.0259 84.8195C22.0996 85.4793 22.0357 86.149 21.9472 86.8039C21.8637 87.4391 21.7753 88.2614 21.3773 88.7538C21.284 88.8719 21.0285 88.8719 21.0285 88.6701C21.0285 88.0102 21.2398 87.3504 21.3478 86.7005L21.3429 86.6956Z" fill="#F28B2F" fill-opacity="0.7"/>
<path d="M0.397925 84.4749C0.943281 82.5939 1.90625 80.8065 2.65305 79.0142C3.45388 77.084 4.22034 75.1341 5.06048 73.2236C5.14892 73.0267 5.51739 73.0956 5.43878 73.3418C4.79025 75.3114 4.06803 77.2465 3.30158 79.1669C2.56461 81.0084 1.81291 83.0125 0.668148 84.598C0.56006 84.7457 0.334057 84.6915 0.393015 84.4798L0.397925 84.4749Z" fill="#F28B2F" fill-opacity="0.7"/>
<path d="M5.38982 78.3987C5.47334 78.1919 5.82217 78.2165 5.73865 78.4725C5.35542 79.6149 5.03607 80.841 4.43667 81.8701C4.3728 81.9784 4.1861 81.9784 4.21067 81.811C4.39245 80.6292 4.95746 79.4869 5.39473 78.3938L5.38982 78.3987Z" fill="#F28B2F" fill-opacity="0.7"/>
<path d="M8.23963 81.3137C8.27402 81.0724 8.65233 81.0626 8.62776 81.3334C8.52459 82.4511 8.33789 83.4605 7.80727 84.4256C7.73357 84.5586 7.61075 84.47 7.6304 84.337C7.78762 83.3128 8.10206 82.3379 8.23963 81.3137Z" fill="#F28B2F" fill-opacity="0.7"/>
<path d="M11.7967 82.8105C11.8704 82.5643 12.2732 82.6184 12.1995 82.8991C11.9146 83.9922 11.7131 85.1247 11.5461 86.2523C11.3938 87.2913 11.379 88.3598 11.1678 89.3889C11.1334 89.5464 10.8484 89.6302 10.8239 89.4283C10.5487 87.2519 11.1776 84.8588 11.7917 82.8105H11.7967Z" fill="#F28B2F" fill-opacity="0.7"/>
<path d="M14.6657 83.3817C14.7444 83.1897 15.1128 83.2291 15.0391 83.4605C14.8082 84.204 14.7296 85.0066 14.4545 85.7354C14.4103 85.8535 14.2432 85.9225 14.2137 85.7551C14.0565 84.9525 14.3857 84.1055 14.6707 83.3817H14.6657Z" fill="#F28B2F" fill-opacity="0.7"/>
<path d="M18.1394 83.1307C18.1935 82.9189 18.5227 82.914 18.4735 83.1651C18.0068 85.7748 17.7759 88.4436 17.5941 91.0927C17.5843 91.2306 17.3976 91.2847 17.3828 91.1222C17.1814 88.4091 17.4909 85.7551 18.1394 83.1307Z" fill="#F28B2F" fill-opacity="0.7"/>
<path d="M37.4429 81.2495C37.2807 81.2495 37.1235 81.2791 36.9663 81.3037C36.9614 81.2889 36.9516 81.2741 36.9417 81.2643C37.1039 81.2545 37.266 81.2397 37.4281 81.2249C37.4281 81.2348 37.438 81.2397 37.4429 81.2495Z" fill="#F28B2F" fill-opacity="0.7"/>
<path d="M19.7803 76.6851C19.8098 76.7098 19.8343 76.7295 19.8589 76.7541C19.8098 76.7738 19.7606 76.7935 19.7164 76.8181C19.7311 76.7984 19.741 76.7787 19.7459 76.7688C19.7606 76.7393 19.7705 76.7147 19.7754 76.6851H19.7803Z" fill="#F28B2F" fill-opacity="0.7"/>
<path d="M78.6444 74.2871C78.4331 74.3511 78.2169 74.4151 78.0056 74.4792C77.9614 74.1 77.9713 73.7209 77.814 73.3516C77.6912 73.066 77.4259 72.9035 77.1508 72.7952C77.249 72.6475 77.3768 72.5342 77.5536 72.4456C77.7551 72.3422 77.8189 72.1304 77.6863 71.9236C77.6323 71.835 76.969 70.6631 77.2441 70.668C77.6372 70.668 78.0253 70.6237 78.4134 70.5843C78.5952 70.5646 78.7131 70.343 78.6591 70.1559C78.5952 69.9393 78.5314 69.7226 78.4675 69.506C78.7279 69.4272 78.9834 69.3287 79.2339 69.2105C79.455 69.506 79.6417 69.8162 79.8186 70.151C79.8726 70.2495 80.0102 70.3184 80.1085 70.3086C80.4475 70.279 80.7423 70.2003 81.0272 70.0525C81.155 70.3381 81.2778 70.6286 81.4055 70.9142C81.4792 71.0767 81.6856 71.1013 81.8182 71.0373C82.0541 70.9339 82.2801 70.8256 82.511 70.7123C82.6879 70.9585 82.8598 71.2097 83.017 71.4706C82.9974 72.2437 82.9876 73.0561 83.1055 73.8243C82.7222 73.7504 82.3292 73.7652 82 74.0311C81.6168 74.3413 81.5873 74.6564 81.5578 75.0306C81.0665 74.7204 80.531 74.5333 79.9463 74.7204C79.7154 74.7943 79.5336 74.9322 79.3961 75.1144C79.3027 74.9223 79.2094 74.7303 79.1209 74.5383C79.0227 74.3364 78.8409 74.2428 78.6394 74.3019L78.6444 74.2871ZM80.2215 73.7455C80.5163 73.7898 81.2188 73.7652 81.3024 73.322C81.3417 73.1202 81.3024 72.9823 81.15 72.8986C81.1107 72.6868 81.0763 72.4751 81.0518 72.2585C81.0518 72.2585 81.0518 72.2535 81.0518 72.2486C81.0862 72.1107 81.0763 72.027 80.9977 71.9138C80.9044 71.7759 80.7226 71.7759 80.6047 71.8547C80.5506 71.8399 80.4475 71.8301 80.4278 71.8301C80.3296 71.8301 80.2362 71.8399 80.1379 71.8695C79.9365 71.9286 79.7007 72.0566 79.6319 72.2929C79.5435 72.5933 79.6221 72.8838 79.7793 73.1152C79.7351 73.4057 79.8825 73.6913 80.2116 73.7406L80.2215 73.7455Z" fill="#F28B2F" fill-opacity="0.7"/>
<path d="M39.3496 76.3208C39.2906 75.9072 39.1531 76.0746 39.664 76.0401C39.8016 76.0303 39.9392 75.922 39.9539 75.7644C39.9588 75.6856 39.9686 75.6117 39.9736 75.533C40.0669 75.5231 40.1652 75.5133 40.2585 75.4985C40.455 75.4739 40.5779 75.2228 40.4698 75.0307C40.5091 75.0652 40.5484 75.0947 40.5926 75.1292C40.7449 75.2228 41.0102 75.1095 41.0299 74.9027C41.0397 74.7894 41.0495 74.6811 41.0544 74.5679C41.1822 74.558 41.305 74.5531 41.4328 74.5433C41.5654 74.5334 41.6588 74.4546 41.7079 74.3217C41.816 74.0361 41.3001 73.588 41.8602 73.8539C41.9388 73.8933 42.0223 73.8342 42.0715 73.7554C42.6021 74.0853 43.3833 74.4398 43.3341 74.5974C43.2899 74.7353 43.3783 74.8879 43.511 74.9076C43.8353 74.9519 44.0171 75.1883 44.2775 75.208C44.2873 75.3409 44.3217 75.464 44.3806 75.6068C44.4248 75.7152 44.5231 75.7693 44.6312 75.7496C44.641 75.7496 44.6459 75.7496 44.6558 75.7496C44.6263 75.8136 44.6017 75.8776 44.5722 75.9367C44.5477 75.9269 44.5231 75.917 44.4936 75.9072C44.3413 75.853 44.022 75.9269 44.0711 76.1829C44.1841 76.7541 44.2676 77.9162 43.3784 77.2219C43.2457 77.1185 42.9607 77.1234 42.8969 77.3302C42.72 77.9112 42.72 78.4381 42.9509 78.9453C42.9509 78.9453 42.946 78.9453 42.9411 78.9502C42.8625 78.8123 42.7102 78.7335 42.5579 78.7975C42.4006 78.8616 42.2483 78.9305 42.0911 78.9945C41.9978 78.8222 41.8602 78.6794 41.6637 78.6597C41.2018 78.6104 41.3984 78.5563 41.192 78.1525C41.1085 77.9851 40.853 77.8965 40.7105 78.0393C40.686 78.0639 40.6614 78.0885 40.6368 78.1131C40.5926 77.926 40.5582 77.7389 40.5337 77.537C40.5189 77.4041 40.4403 77.2908 40.3126 77.2662C39.9343 77.1973 39.6051 77.0052 39.2513 76.9068C39.3005 76.8132 39.3496 76.7196 39.3545 76.7147C39.4085 76.5916 39.3692 76.4439 39.3496 76.3208ZM41.418 76.3848C41.4868 77.0249 42.1059 77.148 42.5923 77.0988C42.7495 77.084 42.8723 76.9954 42.892 76.8083C42.9165 76.5522 42.8674 76.2863 42.7839 76.0352C42.8133 76.0057 42.8379 75.9712 42.8526 75.9269C42.887 75.8235 42.8477 75.6758 42.7446 75.6364C42.6905 75.6167 42.6365 75.597 42.5824 75.5822C42.548 75.5527 42.5038 75.5428 42.4596 75.5576C42.2434 75.5231 42.0223 75.5477 41.8258 75.6659C41.5998 75.7989 41.3836 76.0746 41.418 76.3799V76.3848Z" fill="#F28B2F" fill-opacity="0.7"/>
<path d="M29.5033 75.5426C29.4689 75.3358 29.4493 75.0847 29.5574 75.0994C29.5918 75.0994 29.6261 75.1093 29.6507 75.129C29.6802 75.1536 29.7195 75.1487 29.7588 75.1191C29.7588 75.1487 29.7686 75.1782 29.7784 75.2028C29.8178 75.2718 29.8669 75.2767 29.916 75.257C29.916 75.3752 29.9111 75.4835 29.8865 75.5918C29.7588 75.5623 29.6311 75.5475 29.5033 75.5524V75.5426Z" fill="#F28B2F" fill-opacity="0.7"/>
<path d="M58.4661 78.7432C58.6676 78.7826 58.8837 78.5364 58.8592 78.3198C58.8248 77.9948 58.7658 77.7043 58.6676 77.4138C59.1048 77.3005 59.5372 77.1922 59.9744 77.0789C60.1513 77.0297 60.2447 76.8426 60.2398 76.6505C60.2398 76.4043 60.2004 76.1877 60.1218 75.9858C60.51 75.8775 60.8932 75.7692 61.2813 75.6608C61.4336 75.9907 61.5565 76.3305 61.6596 76.6899C61.7284 76.9361 62.033 77.0248 62.2197 76.9017C62.372 76.7835 62.5391 76.6899 62.716 76.6111C63.2466 76.9607 63.3105 77.33 62.9125 77.719C62.6963 78.0391 62.9714 78.4872 63.3203 78.3985C63.4775 78.3592 63.6347 78.3198 63.7919 78.2853C63.8411 78.3936 63.8951 78.4921 63.959 78.5906C63.6986 78.822 63.4333 79.0534 63.1729 79.2849C62.8978 79.5311 63.1581 79.9841 63.4382 80.0235C63.4235 80.0235 63.5266 80.4321 63.6102 80.698C63.3989 80.7965 63.1827 80.8753 62.9371 80.9147C62.716 80.9492 62.6472 81.2298 62.7897 81.348C62.6374 81.5203 62.5587 81.7222 62.5391 81.993C62.49 82.6381 61.8611 82.2442 61.5466 82.0521C61.4042 81.9684 61.242 82.0423 61.1241 82.1358C60.8981 82.3279 60.338 82.2835 60.0825 82.1801C59.6944 82.0176 59.8172 81.5696 59.7386 81.2495C59.601 80.6882 59.3308 80.4814 58.81 80.57C58.4366 80.634 58.5054 80.9541 58.1566 80.4961C57.9109 80.1712 57.9208 79.7822 57.7242 79.4424C57.6554 79.3242 57.5916 79.2258 57.5179 79.1322C57.8323 78.9057 58.1517 78.6841 58.471 78.7432H58.4661ZM60.5837 80.3386C60.7065 80.5602 60.9522 80.6094 61.1389 80.4666C61.3894 80.2746 61.6646 80.1761 61.9544 80.0776C62.1264 80.0185 62.2296 79.8363 62.1608 79.6394C62.0576 79.3489 61.9348 79.083 61.7481 78.8417C61.7088 78.7925 61.6646 78.7678 61.6154 78.7531C61.6154 78.7481 61.6154 78.7432 61.6154 78.7383C61.4877 78.369 61.0406 78.3887 60.7556 78.4872C60.0825 78.7235 60.3085 79.8314 60.5886 80.3337L60.5837 80.3386Z" fill="#F28B2F" fill-opacity="0.7"/>
<path d="M16.7048 73.0413C16.8178 73.0216 16.9455 72.9871 17.0684 72.9329C17.0487 72.997 17.029 73.056 17.0094 73.1151C16.9259 73.0462 16.803 73.0216 16.7048 73.0364V73.0413Z" fill="#F28B2F" fill-opacity="0.7"/>
<path d="M18.1151 74.0852C17.9234 74.4594 17.9038 74.8681 17.9824 75.262C17.7417 75.1783 17.5157 75.0601 17.2897 74.9075C17.1226 74.7942 16.7443 74.7942 16.7541 75.1094C16.7541 75.2522 16.7394 75.4048 16.6952 75.5476C16.6411 75.4245 16.5527 75.3112 16.4741 75.2078C16.2039 74.8435 15.855 74.5874 15.4767 74.3905C15.2655 74.2821 15.0001 74.3314 14.9707 74.6317C14.9707 74.6465 14.9707 74.6662 14.9658 74.681C14.9215 74.6662 14.8773 74.6514 14.8282 74.6367C15.1082 74.2821 15.3097 73.8931 15.403 73.386C15.4374 73.1939 15.2311 73.0265 15.0837 73.0068C14.9559 72.9921 14.8233 72.9773 14.6955 72.9576C14.6366 72.7409 14.5776 72.5243 14.5187 72.3076C14.3516 71.958 14.3811 71.8891 14.612 72.0959C14.7299 72.1944 14.9559 72.1648 15.0394 72.027C15.2409 71.7069 15.1475 71.4656 15.0542 71.116C15.0051 70.9289 15.2507 70.8009 15.349 70.7123C15.3588 70.7024 15.3686 70.6926 15.3785 70.6827C15.4865 70.7615 15.5799 70.8551 15.6831 70.9683C15.8108 71.1062 16.1007 71.116 16.194 70.9191C16.1646 70.9831 17.0047 71.0569 17.1767 70.7763C17.3437 70.5104 17.3781 70.2543 17.3486 69.9934C17.5844 70.0475 17.7613 70.2002 17.8891 70.4612C17.6139 70.5744 17.6974 70.9585 17.948 70.988C18.1593 71.2834 18.6801 71.9186 18.5572 72.2141C18.4688 72.4307 18.6506 72.6769 18.8471 72.6966C18.9061 72.7015 18.965 72.7114 19.024 72.7163C19.1763 73.0019 19.4318 73.1102 19.7266 73.125C19.7266 73.2727 19.7167 73.4204 19.7118 73.5632C19.1959 73.6272 18.3411 73.6568 18.1249 74.0803L18.1151 74.0852ZM17.7171 72.3618C17.6287 72.1895 17.3928 72.1747 17.2847 72.3322C17.2405 72.3126 17.1914 72.2978 17.1374 72.3027C16.8131 72.3322 16.081 72.4947 16.0368 72.9527C15.9975 73.3515 16.2579 73.578 16.5625 73.6519C16.6657 73.8439 16.8475 73.9719 17.0489 74.0261C17.1767 74.0606 17.3388 74.0162 17.4027 73.8784C17.5107 73.6666 17.6139 73.4155 17.6827 73.1595C17.7662 73.1546 17.8645 73.0462 17.8596 72.9527C17.8498 72.736 17.8104 72.5489 17.7122 72.3618H17.7171Z" fill="#F28B2F" fill-opacity="0.7"/>
<path d="M4.47111 74.4939C8.88309 64.8331 13.3245 55.192 17.7562 45.541C22.0503 36.1855 26.2215 26.7315 30.8005 17.5385C31.9109 15.308 33.0606 13.0971 34.2495 10.9158C35.3402 8.91175 36.4162 6.82892 37.7821 5.03167C37.7968 5.01198 37.8115 4.99721 37.8263 4.97751C37.8017 3.95825 38.126 2.95869 38.9514 2.47122C39.6785 2.04284 40.4204 2.05268 41.1132 2.31365C41.3588 2.20533 41.6143 2.10685 41.8747 2.02806C42.4397 1.0285 43.6729 0.585345 44.7538 0.782303C45.6136 0.93987 46.3358 1.42242 46.9843 2.03299C47.343 2.12654 47.7017 2.23487 48.0505 2.35304C51.5585 3.55941 54.4032 6.46947 56.7467 9.48293C59.4637 12.974 61.709 16.9279 64.0231 20.7489C74.2866 37.6529 84.0489 55.064 92.6027 73.1053C93.4281 74.8435 94.1994 76.5866 94.9315 78.369C95.074 78.438 95.187 78.5807 95.2017 78.8023C95.3245 80.9492 93.7573 82.1802 92.1507 82.9631C90.1068 83.9528 87.8271 84.4698 85.6899 85.1444C81.047 86.6166 76.4041 88.0889 71.7612 89.5612C67.3296 90.9645 62.8832 92.4417 58.255 92.6239C56.2603 92.7026 54.187 92.4811 52.4281 91.383C50.9296 90.4475 49.8684 88.8718 49.1019 87.1977C48.6843 86.2818 48.3453 85.3216 48.0554 84.3368C39.2757 85.2921 30.3878 85.169 21.6081 84.4747C19.407 84.3024 17.2108 84.071 15.0196 83.8001C12.9561 83.5441 10.9171 83.1945 9.01574 82.2392C6.7164 81.0821 4.63815 78.2558 4.90346 75.4048C4.55954 75.3162 4.27949 74.9469 4.48584 74.4889L4.47111 74.4939ZM16.0906 67.7136C15.9825 67.5314 15.8745 67.3541 15.7664 67.172C15.8155 66.975 15.5944 66.8568 15.4519 66.8814C15.4323 66.8814 15.4126 66.8864 15.393 66.8913C15.3537 66.65 15.3242 66.4038 15.3144 66.1527C15.3045 65.8917 15.0048 65.8868 14.8722 66.0296C14.6314 66.2856 14.7739 66.1133 14.6511 65.8868C14.5577 65.7095 14.5086 65.6357 14.3858 65.488C14.2531 65.3304 14.0419 65.3649 13.919 65.5027C13.7422 65.2959 13.5211 64.8971 13.4326 64.7838C13.3442 64.6804 13.2066 64.646 13.0838 64.6706C12.902 64.5278 12.735 64.3407 12.5728 64.193C12.3616 64.0009 12.0029 64.193 12.057 64.5032C12.1847 65.2762 12.3517 66.0444 12.6171 66.778C12.622 66.7977 12.6318 66.8125 12.6416 66.8322C12.6908 67.1227 12.7006 67.4034 12.4647 67.6594C12.3517 67.7825 12.3911 67.9598 12.4647 68.0829C12.6564 68.4128 13.3147 68.8559 13.3688 69.2154C13.4081 69.4665 13.7274 69.6192 13.919 69.4616C13.978 69.3927 14.037 69.3188 14.0959 69.2499C14.204 69.4665 14.4546 69.5354 14.6216 69.3877C14.7444 69.4567 14.8918 69.5995 15.0245 69.6093C15.3045 69.6339 15.4814 69.5699 15.7025 69.3828C15.845 69.2548 15.8155 69.0726 15.7123 68.9495C16.125 68.8018 16.3461 68.5014 16.4002 68.009C16.4198 67.8465 16.2282 67.7136 16.1005 67.7284L16.0906 67.7136ZM20.3798 72.7951C20.3798 72.5538 20.1292 72.4603 19.9573 72.4849C19.8295 72.4406 19.7018 72.3963 19.574 72.352C19.5396 72.1944 19.4119 72.1008 19.2743 72.0762C19.2596 71.5493 18.7978 71.0914 18.444 70.7172C18.5668 70.5547 18.6111 70.343 18.4981 70.1116C18.1934 69.4961 17.54 69.4074 16.975 69.2203C16.7686 69.1514 16.4984 69.3434 16.5869 69.6044C16.69 69.9146 16.7293 70.4464 16.3166 70.2642C16.2233 70.2248 16.0955 70.2297 15.9973 70.2494C15.9482 70.2593 15.9039 70.274 15.8597 70.2987C15.7074 70.1903 15.5502 70.1165 15.3635 70.0328C15.1964 69.9589 15.0147 70.0623 14.9606 70.2494C14.8869 70.5055 14.4988 70.5104 14.4251 70.8452C14.3907 70.9979 14.484 71.2047 14.5332 71.3869C14.3416 71.3327 14.145 71.3573 13.9731 71.5247C13.5702 71.9137 14.0271 72.9477 14.1205 73.3318C14.1598 73.4943 14.3023 73.578 14.4398 73.5977C14.5037 73.6076 14.5627 73.6174 14.6265 73.6273C14.4595 74.0162 14.1893 74.3117 13.8896 74.6268C13.7029 74.8238 13.9043 75.1832 14.1205 75.2029C14.484 75.2374 14.8083 75.3211 15.1473 75.4737C15.334 75.5574 15.56 75.4393 15.5846 75.2078C15.8401 75.39 16.1005 75.6412 15.9875 75.8824C15.8794 76.1138 15.8646 76.1779 15.8843 76.4191C15.9039 76.6358 16.0906 76.8229 16.2872 76.8131C16.916 76.7983 17.2796 76.3256 17.3877 75.7347C17.7267 75.907 18.0805 76.0301 18.4637 76.0991C18.6848 76.1385 18.9353 75.907 18.8125 75.6461C18.5914 75.198 18.4195 74.5283 18.9992 74.4299C19.3824 74.3658 19.7607 74.3018 20.144 74.2477C20.2914 74.228 20.3847 74.0606 20.3798 73.903C20.365 73.5386 20.37 73.1693 20.3749 72.805L20.3798 72.7951ZM40.4057 50.4108C40.3123 50.2385 40.1158 50.1154 39.934 50.1892C39.1184 50.5044 38.3569 50.8835 37.6298 51.3858C37.276 50.7506 36.9174 50.1203 36.5685 49.4851C36.4457 49.2635 36.1509 49.2291 35.9888 49.4113C35.5073 49.948 34.9325 50.2385 34.2741 50.3173C33.9646 49.8052 33.6501 49.2882 33.3406 48.7761C33.2423 48.6136 33.0065 48.4511 32.8296 48.589C32.2401 49.0469 31.6014 49.3276 30.8988 49.431C30.5745 48.5988 30.1373 47.8602 29.5968 47.1758C29.4592 47.0034 29.1841 47.0231 29.0564 47.1955C28.7026 47.6731 27.6954 48.717 27.3466 47.747C27.1648 47.2447 27.0322 46.7326 26.6588 46.3633C26.3541 46.0679 25.8284 45.9743 25.4452 46.1221C24.9244 46.3239 24.3005 46.9641 23.7404 46.8311C23.3473 46.7376 23.1999 47.289 23.5438 47.486C24.1924 47.8553 24.7476 47.5303 25.347 47.1807C25.5828 47.0428 26.0299 46.6932 26.2559 47.0133C26.4966 47.353 26.5359 47.8011 26.7079 48.1803C27.3269 49.5344 28.565 49.0272 29.3708 48.1606C29.7786 48.7318 30.093 49.362 30.3338 50.0514C30.3976 50.2286 30.5794 50.3419 30.7465 50.3271C31.5424 50.2582 32.2794 49.9972 32.9476 49.5393C33.1785 49.9184 33.4045 50.2976 33.6354 50.6767C33.8712 51.0706 33.9695 51.2233 34.4313 51.1691C35.1142 51.0854 35.7038 50.8047 36.2148 50.337C36.539 50.9672 36.8584 51.5975 37.1925 52.2228C37.2908 52.405 37.5364 52.5921 37.7329 52.4444C38.4011 51.9471 39.1135 51.5236 39.88 51.2528C40.1797 51.8831 40.5187 52.4838 40.8872 53.0698C41.0002 53.247 41.2262 53.2864 41.3932 53.1978C41.8698 52.9467 42.2628 52.6315 42.5969 52.213C43.0391 52.6069 43.4666 53.0353 43.8743 53.4735C43.9775 53.5818 44.061 53.3603 44.007 53.2667C43.6483 52.6512 43.2602 52.1096 42.7984 51.5827C42.6559 51.4202 42.4544 51.3907 42.2923 51.5384C41.9975 51.8092 41.7077 52.0111 41.3686 52.1539C41.0444 51.5827 40.725 51.0066 40.4155 50.4207L40.4057 50.4108ZM30.1323 77.852C30.3239 77.8717 30.5057 77.9111 30.6875 77.98C30.9577 78.1031 31.1985 78.241 31.4441 78.4133C31.5424 78.4773 31.6947 78.4774 31.7831 78.3936C32.2106 77.98 32.8198 77.9456 32.4956 77.1528C32.3924 76.9066 32.0092 76.7195 32.1762 76.3994C32.4071 75.9711 32.5791 75.7593 33.0311 75.7199C33.2669 75.7002 33.3947 75.3703 33.2178 75.1832C33.0163 74.9616 32.8591 74.7351 32.7265 74.4594C32.638 74.2723 32.4464 74.2231 32.2745 74.2772C32.0239 74.3511 31.7733 74.4249 31.5178 74.4939C31.4884 74.1689 31.4491 73.8439 31.4392 73.514C31.4294 73.1693 31.4491 72.8443 31.3115 72.5292C31.2574 72.4012 31.0413 72.2732 30.9184 72.2732C30.4713 72.2732 30.2011 72.3815 29.7884 72.0762C29.6558 71.9777 29.4789 72.0368 29.3806 72.155C28.5405 71.958 27.8625 72.3027 27.8232 73.2826C27.6807 73.2481 27.5235 73.2973 27.4645 73.4648C27.435 73.5386 27.4203 73.5977 27.4105 73.647C27.1992 73.6913 26.9978 73.7159 26.7718 73.7257C26.644 73.7307 26.5114 73.8242 26.4917 73.9719C26.4721 74.1098 26.4278 75.1143 26.4328 75.1192C26.2805 74.9912 25.9955 75.0306 25.9267 75.2522C25.8776 75.4146 25.8235 75.5771 25.7744 75.7347C25.7253 75.8824 25.794 76.0449 25.907 76.1286C26.2952 76.3994 26.6981 76.429 27.1255 76.5816C27.4449 76.6949 27.3466 77.5763 27.4547 77.8865C27.5284 78.0933 27.8183 78.1819 27.9755 78.049C28.0787 77.9653 28.5012 78.6398 28.6977 78.7235C29.0711 78.8811 29.2185 78.5266 29.5329 78.9648C29.7049 79.2012 30.1323 79.1618 30.1274 78.7974C30.1274 78.4872 30.093 78.1573 30.1127 77.8471L30.1323 77.852ZM32.1811 65.2959C32.1713 65.2024 32.1172 65.1433 32.0386 65.1088C31.567 64.902 31.6112 64.4539 31.7782 63.9911C31.8765 63.7203 31.4736 63.6513 31.3754 63.8729C31.3017 64.0354 30.3092 66.0394 30.4075 66.1527C30.265 65.9951 29.9407 66.0985 29.9358 66.3398C29.9211 66.8864 29.6459 66.9701 29.2725 67.3541C29.1546 67.4772 29.1055 67.6643 29.0269 67.8367C28.7911 67.8121 28.5847 67.8318 28.3489 67.9401C28.1523 68.0336 28.1081 68.2798 28.2457 68.4571C28.3489 68.59 28.4471 68.7279 28.5454 68.8609C28.5651 68.9495 28.6142 69.0283 28.7026 69.0972C28.7124 69.1071 28.7223 69.1169 28.737 69.1218C29.1546 69.7275 29.5379 70.3578 29.8572 71.0373C29.9358 71.2047 30.1815 71.3278 30.3387 71.2244C30.3633 71.2096 30.3927 71.1899 30.4173 71.1751C30.5008 71.121 30.5696 71.0373 30.5843 70.9289C30.5942 70.9289 30.5991 70.9339 30.6089 70.9388C30.6187 70.9486 30.6237 70.9634 30.6335 70.9732C30.663 71.0914 30.7956 71.1407 30.8988 71.0816C31.3901 70.8058 31.7635 70.3528 32.1664 69.9441C32.3285 69.7816 32.1762 69.5256 31.9944 69.5059C31.9109 69.4961 31.4245 69.5059 31.9404 69.2893C32.1074 69.2154 32.1467 69.0234 32.0485 68.8707C31.847 68.5113 31.906 68.2109 32.2253 67.9746C32.4366 67.8268 32.3138 67.5216 32.0976 67.4969C32.0878 67.4969 32.073 67.4969 32.0632 67.4969C32.1074 67.2458 32.2204 67.0193 32.412 66.8174C32.5152 66.7042 32.5398 66.4826 32.3776 66.4087C32.2794 66.3644 32.1811 66.3201 32.0779 66.2758C32.1369 65.9557 32.2106 65.616 32.186 65.3008L32.1811 65.2959ZM71.2748 44.2017C70.6312 43.9752 70.0121 43.6896 69.4373 43.2957C69.2752 43.1874 68.9214 43.276 68.9706 43.5518C69.0639 44.0491 69.0197 44.4922 68.774 44.9009C68.042 44.5907 67.305 44.3593 66.5287 44.2017C66.3617 44.1672 66.229 44.2953 66.1897 44.4627C65.9539 45.5016 64.8386 44.8024 64.3915 44.5119C64.2147 44.3987 63.9788 44.4479 63.9002 44.6695C63.7184 45.1767 63.4973 45.6494 63.237 46.1122C62.1806 45.7971 60.8197 45.7183 60.4217 46.9936C60.0729 46.9099 59.7486 46.7868 59.4195 46.6145C59.2868 46.5455 59.1247 46.5701 59.0215 46.6883C58.653 47.1167 58.2845 47.55 57.916 47.9784C57.4886 47.8061 56.7565 47.4712 56.4568 47.6731C56.0392 47.9488 55.6609 48.2541 55.3023 48.6087C54.8257 48.2738 54.0691 47.7814 53.6564 47.9981C53.3468 48.1606 53.0471 48.5545 52.7867 48.8007C52.5116 49.0617 52.2365 49.3029 52.0056 49.6131C51.7648 49.9381 52.2021 50.1942 52.4527 50.0464C52.998 49.7264 53.4746 49.1995 53.9512 48.7465C54.3982 48.9041 54.8257 49.101 55.2384 49.362C55.3661 49.4408 55.5381 49.3965 55.6364 49.2832C55.9655 48.9041 56.3144 48.5742 56.7123 48.2837C57.1349 48.4412 57.5623 48.5988 57.9897 48.7367C58.0978 48.7711 58.2354 48.7367 58.3091 48.648C58.6727 48.2147 59.0411 47.7814 59.4047 47.3432C59.8076 47.5254 60.2154 47.6485 60.6526 47.7223C60.8295 47.7519 60.9867 47.6337 61.0162 47.4368C61.198 46.2058 62.5884 46.5701 63.3057 46.8163C63.4335 46.8607 63.6054 46.8459 63.689 46.708C63.969 46.2402 64.2048 45.7577 64.4014 45.2456C65.2268 45.6592 66.288 45.8463 66.7056 44.8468C67.3984 45.0043 68.0764 45.2161 68.7347 45.4967C68.887 45.5607 69.0344 45.5164 69.1327 45.3736C69.4177 44.96 69.57 44.5169 69.5798 44.0392C70.0613 44.31 70.5624 44.507 71.1078 44.6301C71.319 44.6744 71.5106 44.2756 71.2699 44.1919L71.2748 44.2017ZM55.4595 74.9075C55.4447 75.0897 55.5528 75.2571 55.7002 75.3309C55.8673 75.4147 55.9754 75.4146 56.1522 75.3556C56.2161 75.3211 56.2751 75.2817 56.3291 75.2374C56.3537 75.2226 56.3733 75.2128 56.393 75.198C56.4274 75.2325 56.4667 75.2571 56.5109 75.2768C56.4274 75.4688 56.5748 75.7495 56.8204 75.7446C57.3363 75.7347 57.8129 75.8381 58.3189 75.9464C58.4368 75.9711 58.6088 75.8381 58.6334 75.7101C58.7414 75.715 58.8544 75.6707 58.8987 75.5525C59.3408 74.4348 58.4909 72.8887 57.4935 72.5883C57.2724 72.5194 57.1005 72.6819 57.0464 72.9084C57.1103 72.6425 56.9629 72.4258 56.8106 72.2239C56.6337 71.9925 56.3045 72.0664 56.1915 72.3076C56.1522 72.3076 56.0834 72.3224 55.9852 72.3667C55.9017 72.3766 55.8181 72.3815 55.7346 72.3913C55.5086 72.411 55.2777 72.4209 55.0517 72.416C54.7127 72.4061 54.3786 72.3667 54.0445 72.347C53.7841 72.3323 53.6416 72.5588 53.6809 72.8296C53.7252 73.0856 53.7448 73.3417 53.735 73.6026C53.735 73.8439 53.9266 74.0015 54.1231 74.0359C54.2361 74.0556 54.3393 74.0655 54.4474 74.0704C54.467 74.223 54.4867 74.3708 54.5014 74.5234C54.5309 74.8435 54.8453 74.9764 55.0812 74.8533C55.2089 74.7795 55.3465 74.7253 55.484 74.6908C55.484 74.7647 55.4742 74.8385 55.4644 74.9124L55.4595 74.9075ZM65.3791 68.334C65.3054 68.5851 65.5265 68.7969 65.7279 68.8264C65.8999 68.8559 66.0473 68.9101 66.1799 68.9938C66.1308 69.0234 66.0816 69.0529 66.0325 69.0775C65.6935 69.2646 65.9293 69.7472 66.234 69.7718C67.3591 69.8654 68.0076 70.4365 68.7593 71.2835C68.892 71.4361 69.0934 71.2835 69.1327 71.1111C69.3194 71.2391 69.6289 71.2096 69.624 70.924C69.6142 70.4464 69.6682 70.0771 69.8254 69.629C69.8648 69.5256 69.8205 69.3286 69.7665 69.2351C69.6584 69.0381 69.4373 68.9446 69.2064 68.9003C69.2997 68.7033 69.4177 68.531 69.5847 68.3734C69.7419 68.2208 69.6928 67.9647 69.5208 67.8515C69.1671 67.62 69.0393 67.3295 69.005 66.9061C68.9755 66.5318 68.4645 66.5368 68.3761 66.8667C68.5038 66.3989 68.9411 65.6898 68.2434 65.4535C68.1402 65.419 68.0027 65.419 67.8995 65.4535C67.8946 65.4535 67.8897 65.4535 67.8799 65.4535C67.9192 65.3402 67.9192 65.1876 67.8946 65.0891C67.7914 64.71 67.3591 64.513 67.0299 64.5524C66.5042 64.6115 66.4108 64.4293 66.1504 64.0305C66.0522 63.8827 65.9244 63.7941 65.7819 63.7104C65.6051 63.607 65.271 63.6907 65.2955 63.9763C65.3643 64.7444 65.4331 65.5175 65.497 66.2856C65.1236 66.5958 64.5095 67.1916 64.6667 67.6791C64.7502 67.9302 64.8288 68.0139 65.0204 68.1715C65.1334 68.2651 65.2759 68.2552 65.4184 68.2503C65.4036 68.2798 65.3889 68.3094 65.3791 68.3389V68.334ZM85.7734 68.531C85.3313 66.9011 84.6189 65.3452 83.9802 63.804C83.4053 62.4154 82.801 61.0416 82.1869 59.6777C80.9635 56.9597 79.7549 54.1481 78.2171 51.627C78.0893 51.4202 77.7159 51.627 77.8093 51.8585C78.9491 54.7242 80.4624 57.4275 81.7299 60.2292C82.3834 61.6768 83.0221 63.1343 83.651 64.5967C84.2504 65.9853 84.781 67.428 85.4787 68.7673C85.5818 68.9692 85.8226 68.7033 85.7784 68.5359L85.7734 68.531ZM82.742 66.3644C82.9926 66.4186 83.2481 66.1428 83.1154 65.8622C82.801 65.1974 82.6978 64.5327 82.7813 63.7892C82.8207 63.4544 82.408 63.2574 82.1819 63.4347C82.0198 63.5627 81.9068 63.7055 81.8184 63.868C81.7152 63.7941 81.612 63.7252 81.5088 63.6513C81.3467 63.4347 80.9291 63.4987 80.9291 63.8237C80.9291 63.9271 80.9291 64.0305 80.9291 64.129C80.8603 64.0699 80.7964 64.0157 80.7473 64.0059C80.6147 63.9714 80.428 64.0305 80.3297 64.129C80.1528 64.3111 80.1872 64.6804 80.2609 65.0251C80.1479 65.0448 80.0497 65.1187 80.0447 65.2615C80.0349 65.5618 80.0693 65.8326 80.143 66.0936C80.1086 66.1281 80.0791 66.1675 80.0546 66.2118C80.0546 66.2118 80.0398 66.2118 80.0349 66.2019C79.8286 66.1182 79.578 66.3349 79.6713 66.5762C79.8433 67.0292 80.0349 67.4625 80.256 67.8859C80.3051 67.9795 80.3837 67.9992 80.4574 67.9795C80.4574 67.9795 80.4673 67.9844 80.4673 67.9893C80.5803 68.0336 80.6982 68.0829 80.8112 68.1272C80.9438 68.1814 81.1551 68.0977 81.2042 67.9401C81.3074 67.8712 81.4106 67.7973 81.5138 67.7284C81.7152 67.7924 81.8724 67.6299 81.9166 67.4329C81.9412 67.3197 81.9658 67.2064 81.9903 67.0932C82.521 67.0932 82.6241 66.8519 82.5504 66.3201C82.6094 66.3349 82.6733 66.3447 82.7322 66.3595L82.742 66.3644ZM79.8335 76.04C79.8138 75.4639 80.4673 75.3309 80.8063 75.5033C81.1158 75.6805 81.4057 75.8873 81.6759 76.1286C81.8921 76.3108 82.1672 76.1286 82.236 75.8775C82.3048 75.6165 82.2753 75.4048 82.2949 75.1389C82.3539 74.4102 83.253 74.7647 83.538 74.8582C83.8229 74.9518 84.1079 74.6564 84.0096 74.3314C83.7198 73.3614 83.7738 72.3175 83.7001 71.313C83.6804 71.0668 83.4053 70.9388 83.2088 70.9929C83.1056 70.732 82.9877 70.4809 82.8403 70.2297C82.7813 70.1263 82.6487 70.0919 82.5455 70.1263C82.3048 70.2051 82.0739 70.2937 81.838 70.3873C81.7152 70.0869 81.5875 69.7866 81.4646 69.4862C81.386 69.2942 81.1502 69.1957 80.9782 69.3139C80.7375 69.4813 80.5164 69.5896 80.2511 69.6388C80.0398 69.2597 79.804 68.9101 79.5338 68.5753C79.4404 68.462 79.2537 68.4473 79.1358 68.5113C78.7624 68.7131 78.389 68.851 77.9763 68.92C77.8191 68.9446 77.6619 69.1071 77.711 69.2991C77.7601 69.4862 77.8093 69.6733 77.8584 69.8654C77.372 69.8801 76.748 69.9244 76.5171 70.3577C76.296 70.7714 76.6645 71.4903 76.9446 71.9728C76.6449 72.1895 76.4434 72.48 76.296 72.8936C76.2272 73.0856 76.3992 73.322 76.5564 73.3663C77.3818 73.5928 77.1706 74.3215 77.3769 75.0109C77.4555 75.2669 77.6521 75.395 77.8879 75.326C78.1335 75.2571 78.3743 75.1881 78.615 75.1192C78.787 75.4787 78.9589 75.8332 79.126 76.1926C79.3078 76.5718 79.8384 76.5472 79.8187 76.0548L79.8335 76.04ZM76.5417 81.2003C76.635 81.4219 76.9053 81.6582 77.1313 81.4613C77.2492 81.3382 77.3818 81.2446 77.5341 81.1855C77.6914 81.1018 77.7159 80.8458 77.6668 80.6833C77.6177 80.5208 78.3694 80.6488 78.4332 80.6291C78.674 80.5503 78.7772 80.4272 78.8607 80.1761C78.9344 79.9545 78.8607 79.7477 78.7428 79.5655C78.9245 79.5311 79.0818 79.3538 79.0572 79.1372C79.0277 78.9057 78.9884 78.7235 78.8509 78.5315C78.6396 78.2312 78.6592 78.3395 78.9688 78.3099C79.3766 78.2755 79.2685 77.66 79.0474 77.4778C78.7428 77.2217 78.6642 76.9165 78.7428 76.4979C78.7673 76.365 78.6248 76.2616 78.5217 76.3157C78.502 76.3256 78.4873 76.3354 78.4676 76.3453C78.3202 76.2419 78.1041 76.2566 78.0107 76.4585C77.8142 76.8771 76.8119 76.5324 76.5564 77.0002C76.4483 77.1971 76.4434 77.2661 76.468 77.4926C76.4827 77.6009 76.5859 77.7535 76.6301 77.8865C76.4778 77.9259 76.3304 77.9751 76.1683 78.044C76.0455 78.0933 75.9963 78.2607 75.9914 78.3887C75.957 79.3686 76.1683 80.314 76.5368 81.1954L76.5417 81.2003ZM72.5375 79.4178C72.7831 79.1815 72.6701 78.7777 72.4048 78.6546C72.4687 78.6546 72.5326 78.6497 72.5964 78.6201C72.6996 78.5906 72.8323 78.5217 72.8519 78.3838C72.9109 77.9456 72.9698 77.7732 73.2253 77.4335C73.2892 77.3498 73.2941 77.2661 73.2646 77.1971C73.6036 77.1331 73.9279 77.0593 74.2669 76.946C74.6403 76.8229 74.4094 76.2911 74.1834 76.168C73.9918 76.0597 74.0163 75.4934 73.9132 75.2965C73.8247 75.1241 73.7412 75.0355 73.5938 74.9272C73.4169 74.7992 73.1467 74.8533 72.8912 74.9469C72.8912 74.7598 72.8912 74.5727 72.8716 74.3806C72.8568 74.2132 72.7045 74.031 72.5522 74.0162C72.2378 73.9818 71.9234 73.9473 71.6089 73.9178C71.5352 73.4992 71.378 73.1299 71.1422 72.7705C71.0439 72.6228 70.867 72.5637 70.7147 72.6129C69.9237 72.8739 69.1425 72.864 68.3663 72.5588C68.0616 72.4406 67.6784 72.805 67.9634 73.125C67.8062 73.4697 67.5752 73.6322 67.2657 73.6125C67.1134 73.6273 66.9906 73.77 66.9906 73.9375C66.9906 74.228 67.0938 74.4397 67.3099 74.6022C67.6391 74.8533 67.6784 74.745 67.3296 75.454C67.2018 75.715 67.0741 75.976 66.9513 76.232C66.8039 76.5324 67.1036 76.8918 67.3836 76.8377C67.3247 77.0888 67.4671 77.3645 67.7374 77.3941C67.7963 77.399 67.8553 77.4088 67.9142 77.4138C67.816 77.7141 67.5802 78.0046 67.6489 78.3641C67.6932 78.5857 67.8307 78.7383 67.983 78.8811C68.0567 78.95 68.3319 79.1618 68.2975 78.9993C68.3663 79.2996 68.666 79.5065 68.9214 79.3095C69.1524 79.1273 69.4521 79.1667 69.5749 79.4769C69.6633 79.7083 69.8648 79.8117 70.076 79.7527C70.9506 79.5311 71.7858 80.1613 72.5522 79.4178H72.5375ZM64.3424 82.5002C64.4161 83.1797 64.3768 84.1251 65.099 84.3221C65.2169 84.3516 65.384 84.2778 65.4528 84.1596C65.4577 84.1694 65.4626 84.1793 65.4675 84.1891C65.5412 84.3122 65.6935 84.4255 65.836 84.4009C66.1799 84.4747 66.4305 84.6618 66.5926 84.9622C66.7204 85.1592 67.0201 85.2675 67.1969 85.0705C67.4819 84.7505 67.3099 84.6766 67.4917 85.1247C67.5605 85.2921 67.703 85.3955 67.87 85.4152C68.3564 85.4644 68.4891 85.0459 68.887 84.9031C69.4422 84.7012 69.8746 84.3861 70.2824 83.9232C70.3855 83.8051 70.415 83.549 70.3512 83.4062C70.0416 82.707 68.9657 82.0177 68.2926 82.3968C68.2287 82.3033 68.1648 82.2048 68.1059 82.1112C68.0666 81.7222 67.7472 81.4662 67.4328 81.7222C67.1331 81.9684 66.5238 82.6824 66.288 81.9389C66.2389 81.7862 66.121 81.6336 65.9981 81.5499C65.5265 81.2495 65.2562 81.934 64.8386 81.9931C64.5979 81.9241 64.3031 82.126 64.3424 82.5101V82.5002ZM57.4247 80.8408C57.5574 81.0969 57.7834 81.2889 57.9996 81.4465C58.1814 81.5844 58.5253 81.7616 58.7513 81.6434C59.0755 81.476 58.9478 81.9093 59.0166 82.1555C59.3114 83.1945 60.5593 83.5293 61.4093 83.0911C61.8858 83.3619 62.3722 83.5195 62.893 83.1945C63.1092 83.0566 63.2124 82.8498 63.3156 82.6085C63.3549 82.515 63.3352 82.1014 63.3696 82.0718C63.5416 81.9093 63.5612 81.6533 63.4875 81.4465C63.8069 81.4366 64.1213 81.3677 64.4259 81.2052C64.7256 81.0526 64.5881 80.506 64.2933 80.4519C64.2441 80.442 64.1213 79.9398 64.0181 79.6443C64.2638 79.4326 64.5045 79.2258 64.7453 79.0141C64.9565 78.8269 64.8681 78.502 64.6961 78.3346C64.5144 78.177 64.3964 77.9751 64.3424 77.724C64.2884 77.527 64.1017 77.3498 63.9051 77.3892C64.0181 76.9755 64.0034 76.5472 63.7184 76.1385C63.3401 75.5968 62.6965 75.7446 62.1757 75.9957C62.0578 75.651 61.9202 75.3162 61.7483 74.9863C61.6648 74.8336 61.483 74.7302 61.3208 74.7745C60.687 74.9469 60.0532 75.1291 59.4145 75.2965C59.1296 75.3703 59.0461 75.7396 59.2426 75.976C59.277 76.0794 59.3114 76.1877 59.3458 76.2911C58.8938 76.4044 58.4368 76.5225 57.9848 76.6407C57.7195 76.7096 57.6556 77.0642 57.7736 77.2956C57.862 77.4729 57.9308 77.6452 57.9799 77.8274C57.4739 77.9554 57.1643 78.4823 56.6337 78.7186C56.2161 78.9008 56.3979 79.4621 56.7909 79.5163C57.1398 79.5606 57.2528 80.5208 57.4198 80.8408H57.4247ZM50.227 59.0425C50.281 60.6428 50.3302 62.2381 50.3941 63.8384C50.5267 67.1375 50.6741 70.4365 50.8166 73.7307C50.9541 76.9017 51.2145 80.1072 52.2758 83.0812C52.885 84.7899 54.3786 88.9309 56.6681 87.6507C56.9531 87.4882 56.8155 87.114 56.5158 87.1484C54.7176 87.3503 53.7988 84.4009 53.2879 82.8695C52.8752 81.6336 52.5607 80.3681 52.374 79.0682C51.9564 76.1926 51.9417 73.253 51.8238 70.3479C51.7009 67.4083 51.5732 64.4736 51.4405 61.539C51.3128 58.7766 51.2637 55.9355 50.8362 53.2076C50.7822 52.8728 50.2516 52.8433 50.2172 53.2076C50.0403 55.1181 50.1582 57.132 50.2221 59.0524L50.227 59.0425ZM49.8782 11.8563C50.7281 14.0474 51.5437 16.2632 52.3249 18.4888C53.1749 20.9213 53.8382 23.4719 54.8503 25.8206C54.924 25.9979 55.1156 25.8452 55.091 25.6926C54.7029 23.2355 53.8283 20.8474 52.998 18.5381C52.153 16.1894 51.2047 13.8997 50.173 11.6495C50.0747 11.4328 49.8094 11.6642 49.8831 11.8563H49.8782ZM55.6265 14.2936C56.1522 15.175 59.1099 19.5918 59.1099 19.5918C59.1099 19.5918 58.9871 18.287 56.7958 14.7565C54.6046 11.226 51.8827 7.07511 51.8827 7.07511C51.8827 7.07511 49.8389 3.98287 48.9889 3.44124C48.1389 2.8996 44.9208 2.82082 47.176 3.7416C49.4311 4.6673 55.1057 13.4073 55.6314 14.2887L55.6265 14.2936ZM45.8347 72.1993C45.7806 71.9728 45.9575 71.6084 45.9182 71.3228C45.9182 71.313 45.9182 71.2982 45.9182 71.2884C46.0312 70.988 46.0656 70.663 45.9526 70.3331C45.7364 69.7029 44.8815 70.0968 44.8717 70.663C44.8717 70.668 44.8717 70.6729 44.8717 70.6827C44.7931 70.7911 44.7341 70.9043 44.6948 71.0373C44.4787 71.0816 44.2772 71.2293 44.174 71.4459C44.1495 71.4952 44.1298 71.5395 44.1053 71.5887C44.0021 71.8005 44.0414 72.0122 44.1642 72.1993C44.174 72.2141 44.179 72.2239 44.1888 72.2387C44.2183 72.2879 44.2576 72.3273 44.292 72.3569C44.292 72.4012 44.292 72.4554 44.292 72.5046C44.287 72.5243 44.2821 72.5489 44.2772 72.5686C44.2821 72.5686 44.292 72.5686 44.2969 72.5686C44.2969 72.6622 44.3116 72.7656 44.3313 72.8788C44.4197 72.9724 44.5622 72.9379 44.6752 72.8739C44.685 72.8837 44.6997 72.8936 44.7194 72.9084C45.1419 73.3712 46.0017 72.8197 45.8494 72.1895L45.8347 72.1993ZM40.2485 78.9796C40.3271 79.2307 40.7201 79.2455 40.8233 79.0091C40.8429 79.0535 40.8724 79.0978 40.9068 79.1372C41.0002 79.2406 41.5848 79.3587 41.6045 79.4424C41.6438 79.6542 41.86 79.7576 42.0417 79.6886C42.1842 79.6295 42.3267 79.5705 42.4741 79.5114C42.5625 79.7083 42.764 79.7625 42.9507 79.664C43.1521 79.5606 43.3536 79.4523 43.555 79.3489C43.7073 79.2701 43.7319 79.0535 43.6434 78.9156C43.4518 78.6103 43.3535 78.2902 43.3929 77.9357C43.7466 78.0982 44.1347 78.1277 44.4443 77.7634C44.7243 77.4285 44.7882 77.0592 44.7489 76.6653C44.8324 76.6407 44.9061 76.5865 44.9356 76.5028C45.0486 76.1631 45.1714 75.848 45.3237 75.523C45.4023 75.3506 45.2942 75.1241 45.1026 75.1635C45.0093 75.1832 44.9208 75.198 44.8275 75.2177C44.8078 75.1192 44.7833 75.0207 44.7636 74.9223C44.7734 74.7253 44.5917 74.617 44.4344 74.7056C44.4885 74.6761 44.1249 74.553 43.8793 74.4742C43.8694 74.2526 43.7466 74.0606 43.5157 73.9818C43.2111 73.8784 43.1226 73.6174 42.8819 73.4598C42.7001 73.3367 42.1449 73.2235 42.0761 73.1053C41.9484 72.8936 41.5848 73.0364 41.5947 73.2777C41.3195 73.2136 41.0395 73.2875 40.9117 73.6519C40.8626 73.7848 40.8724 73.8931 40.9117 73.9965C40.8724 73.9965 40.8331 73.9965 40.7938 73.9965C40.6366 73.9965 40.4941 74.0803 40.4695 74.2723C40.4597 74.3363 40.4548 74.4052 40.445 74.4693C40.1305 74.4496 39.8259 74.5776 39.7866 74.8582C39.7277 74.8582 39.6687 74.8632 39.6098 74.8681C39.4722 74.8779 39.3395 74.9912 39.3248 75.1488C39.3199 75.2177 39.3101 75.2817 39.3051 75.3506C38.9317 75.3556 38.5682 75.395 38.5387 75.907C38.524 76.1926 38.6566 76.3847 38.5387 76.6949C38.4404 76.9558 38.4306 77.0445 38.519 77.3104C38.5682 77.463 38.7303 77.5763 38.8777 77.5664C39.2904 77.5418 39.6147 77.7929 39.9881 77.8372C40.047 78.2262 40.1355 78.6004 40.2534 78.9796H40.2485ZM9.41862 76.685C10.0524 77.5566 10.9171 78.1573 11.885 78.4872C13.1968 78.9353 14.5823 79.1175 15.9383 79.3489C17.2747 79.5803 18.616 79.797 19.9573 80.0038C19.9867 80.0038 20.0211 80.0136 20.0506 80.0185C20.0604 80.0235 20.0703 80.0333 20.0801 80.0382C20.3601 80.2254 20.6991 79.9939 20.8662 80.4715C20.9104 80.5996 21.0234 80.6931 21.1512 80.6833C21.7899 80.6488 22.2664 80.8802 22.7725 81.3086C22.9592 81.4662 23.1459 81.4465 23.3522 81.3776C23.5193 81.3185 23.5782 81.1067 23.4996 80.9541C23.5242 80.9098 23.5438 80.8655 23.5635 80.8162C23.6028 80.7128 23.5979 80.6193 23.5733 80.5306C27.3171 81.0427 31.0757 81.4317 34.844 81.609C34.8735 81.801 35.1241 81.9192 35.2813 81.865C35.5073 81.7862 35.979 82.0915 36.2443 82.0817C36.6717 82.0669 37.0746 81.9241 37.4971 81.9192C37.954 82.6036 39.2069 82.2589 39.4673 81.5203C39.5754 81.2101 39.8554 80.6143 39.7277 80.245C39.595 79.8708 39.6147 79.3243 39.4624 78.9894C39.315 78.6645 39.2658 78.3542 39.2167 77.9997C39.1823 77.7437 38.8237 77.8077 38.7647 78.0145C38.7303 78.1327 38.7057 78.2558 38.7008 78.3789C38.4601 78.1819 38.1997 78.0194 37.9393 77.852C37.7673 77.7388 37.5217 77.7781 37.4431 78.0046C37.3743 78.1967 37.3497 78.369 37.3645 78.5364C37.3546 78.5364 37.3448 78.5364 37.3301 78.5364C37.1925 78.5217 37.0549 78.6103 37.0107 78.758C36.9812 78.8614 36.9518 78.9648 36.9174 79.0682C36.7601 78.9894 36.598 78.9156 36.4408 78.8368C36.2099 78.7235 35.9691 78.9107 35.9937 79.1864C36.0428 79.733 36.1313 79.6985 35.6301 79.6345C35.5073 79.6197 35.3157 79.6542 35.2715 79.8167C35.1683 80.1958 35.0848 80.575 34.9865 80.9541C30.8742 80.3928 26.7521 79.9004 22.6447 79.3144C22.6153 79.2849 22.5809 79.2603 22.5465 79.2406C22.2517 79.0928 22.065 78.8269 21.8242 78.6054C21.613 78.4084 21.3477 78.3296 21.0775 78.3099C21.0087 77.9899 20.7139 77.8175 20.4633 77.5861C20.4731 77.5664 20.483 77.5566 20.483 77.5467C20.483 77.5369 20.483 77.5319 20.4879 77.5221C20.6746 77.5319 20.876 77.3399 20.7728 77.1282C20.5763 76.7096 20.3012 76.4487 19.9229 76.2468C19.7853 76.1729 19.6379 76.3157 19.6232 76.4585C19.5691 76.4487 19.5053 76.4684 19.4561 76.5275C19.0975 76.9657 18.444 77.7831 18.5521 78.4576C18.5668 78.5512 18.616 78.6398 18.6749 78.7186C17.201 78.4823 15.7221 78.2361 14.2531 77.9751C11.9783 77.5664 9.54144 76.7786 9.46283 73.775C9.45301 73.4155 9.02065 73.322 8.86343 73.6273C8.38686 74.5628 8.84378 75.9169 9.40388 76.69L9.41862 76.685Z" fill="#F28B2F" fill-opacity="0.7"/>
<path d="M68.7543 78.4133C68.7101 78.369 68.381 78.236 68.4006 78.1819C68.5677 77.7633 68.7445 77.4531 68.6659 76.9854C68.6364 76.8032 68.4694 76.6456 68.3073 76.6308C68.2925 76.6308 68.2778 76.6308 68.2679 76.6308C68.2532 76.5521 68.2188 76.4782 68.1648 76.4142C68.0714 76.296 67.9879 76.2024 67.8995 76.1335C68.1402 75.7002 68.4055 75.1783 68.3367 74.8188C68.2925 74.6022 68.209 74.4594 68.0518 74.3117C68.0419 74.3018 68.0125 74.2821 67.9781 74.2575C68.3613 74.1098 68.6757 73.8193 68.7445 73.4647C69.398 73.6174 70.0514 73.6174 70.7147 73.445C70.8473 73.706 70.9063 73.9719 70.9309 74.3018C70.9456 74.4692 71.1028 74.6465 71.2551 74.6613C71.5597 74.6957 71.8594 74.7253 72.1641 74.7597C72.1641 74.9961 72.1493 75.2226 72.1149 75.4688C72.0707 75.7691 72.3753 76.0055 72.621 75.9267C72.6554 75.9169 73.2793 75.7002 73.2892 75.7544C73.3137 75.9267 73.3236 76.104 73.3825 76.2665C73.3972 76.3108 73.412 76.3502 73.4316 76.3896C73.2204 76.493 73.014 76.6062 72.8077 76.7392C72.6652 76.8278 72.6554 76.9952 72.7242 77.1134C72.4883 77.3596 72.336 77.6107 72.2279 77.9357C71.8594 78.0588 71.5106 78.3394 71.604 78.8417C71.6089 78.8712 71.6187 78.8958 71.6285 78.9254C71.1667 79.0337 70.5968 78.8712 70.0956 78.886C69.7763 78.4281 69.2506 78.236 68.7593 78.4182L68.7543 78.4133ZM70.5034 77.0888C70.7147 77.0346 70.921 76.9854 71.1323 76.9312C71.2306 76.9066 71.3534 76.8475 71.378 76.7244C71.4615 76.3157 71.3632 75.9119 71.1176 75.6263C71.1176 75.6214 71.1176 75.6165 71.1176 75.6067C71.1176 75.6067 71.1176 75.6165 71.1126 75.6214C71.1126 75.6214 71.1077 75.6165 71.1028 75.6116C71.1372 75.4983 71.1028 75.3654 70.98 75.3309C70.754 75.2718 70.4494 75.2275 70.2135 75.3063C70.017 75.3703 69.9482 75.6411 69.7419 75.7199C69.6387 75.7593 69.5257 75.8331 69.5159 75.971C69.4815 76.3846 69.5945 76.749 69.8647 77.0395C70.0465 77.2365 70.2971 77.1331 70.5083 77.0789L70.5034 77.0888Z" fill="#F28B2F" fill-opacity="0.7"/>
<path d="M80.3741 72.5047C80.4723 72.4653 80.5755 72.4949 80.6738 72.5047C80.7327 72.6229 80.7868 72.7411 80.8408 72.8593C80.7622 72.8789 80.6885 72.9233 80.5853 72.9577C80.5608 72.9676 80.5362 72.9725 80.5116 72.9774C80.4772 72.8888 80.4183 72.8051 80.3544 72.7608C80.2562 72.6918 80.2463 72.554 80.3692 72.5096L80.3741 72.5047Z" fill="#F28B2F" fill-opacity="0.7"/>
<path d="M29.9213 77.1775C29.5381 77.2562 29.4546 77.6255 29.4546 78.0195C29.1549 77.9604 28.9632 78.2312 28.7618 77.8668C28.6144 77.6009 28.3442 77.4237 28.0641 77.3892C28.0838 77.2119 28.1477 77.0347 28.1084 76.8574C28.0494 76.6063 27.961 76.4487 27.7939 76.2714C27.4844 75.9465 27.0914 75.912 26.718 75.7938C26.7917 75.7643 26.8653 75.72 26.9292 75.656C27.3075 75.2719 27.1405 74.7943 27.1307 74.3117C27.3911 74.2772 27.6416 74.2182 27.8971 74.1394C27.9708 74.1197 28.0347 74.0409 28.0592 73.9572C28.0838 73.9572 28.1084 73.9572 28.1378 73.9621C28.3295 73.972 28.4916 73.8439 28.4769 73.6174C28.4572 73.3318 28.354 72.677 28.8159 72.6376C29.1008 72.613 29.3465 72.6819 29.6167 72.7607C29.6609 72.7754 29.71 72.7705 29.7494 72.7557C29.9999 72.8985 30.2701 72.9429 30.5797 72.9084C30.9285 72.869 30.845 73.194 30.8745 73.5337C30.9088 73.9818 30.8843 74.425 30.9039 74.873C30.9138 75.1537 31.1398 75.3261 31.3854 75.2522C31.6851 75.1586 31.9897 75.07 32.2943 74.9814C32.3238 75.0306 32.3533 75.0848 32.3877 75.134C32.2059 75.1931 32.034 75.2817 31.862 75.4245C31.6262 75.6215 31.6507 75.9366 31.523 76.1828C31.4051 76.4093 31.4444 76.7638 31.5967 76.9608C31.7244 77.1233 32.1371 77.4483 31.8276 77.6649C31.7343 77.7339 31.6704 77.7782 31.6065 77.8373C31.1398 77.5172 30.4274 77.0741 29.9262 77.1775H29.9213ZM30.3242 75.9071C30.3291 75.6116 30.2701 75.3014 30.1817 75.0257C30.167 74.9764 30.1375 74.9469 30.108 74.9371C29.995 74.5333 29.543 74.5284 29.2629 74.745C28.9387 74.9961 28.9092 75.5033 28.9878 75.8874C29.0173 76.04 29.1598 76.1385 29.3023 76.104C29.5135 76.0548 29.715 76.0646 29.9164 76.1483C30.0736 76.2173 30.3193 76.1336 30.3242 75.9071Z" fill="#F28B2F" fill-opacity="0.7"/>
<path d="M70.5426 75.9859C70.5868 75.9859 70.6261 75.976 70.6703 75.9711C70.7293 76.0696 70.7637 76.1877 70.7637 76.3108C70.5868 76.3404 70.4099 76.3699 70.238 76.4044C70.2232 76.3748 70.2134 76.3404 70.2085 76.3059C70.3411 76.2222 70.4492 76.1188 70.5475 75.9908L70.5426 75.9859Z" fill="#F28B2F" fill-opacity="0.7"/>
<path d="M80.8756 64.838C80.8756 64.838 80.9048 64.8575 80.9194 64.8624C80.9097 64.8721 80.8951 64.8819 80.8854 64.8916C80.8854 64.8721 80.8805 64.8526 80.8756 64.838Z" fill="#F28B2F" fill-opacity="0.7"/>
<path d="M61.3112 79.1372C61.3112 79.1372 61.3161 79.1519 61.321 79.1568C61.3799 79.2602 61.4193 79.3587 61.4487 79.4671C61.3406 79.5114 61.2129 79.536 61.1245 79.5852C61.0999 79.6 61.0753 79.6148 61.0508 79.6246C61.0262 79.4868 61.0262 79.3489 61.0508 79.2061C61.1294 79.1815 61.2227 79.1569 61.3062 79.1322L61.3112 79.1372Z" fill="#F28B2F" fill-opacity="0.7"/>
<path d="M42.1449 76.0942C42.1989 76.0745 42.253 76.0695 42.3119 76.0745C42.3119 76.0745 42.3168 76.0843 42.3218 76.0892C42.3365 76.2419 42.3316 76.3896 42.3218 76.5422C42.194 76.5422 42.0712 76.5127 42.0221 76.4093C41.9729 76.3059 42.0564 76.1286 42.1498 76.0942H42.1449Z" fill="#F28B2F" fill-opacity="0.7"/>
<path d="M30.4766 66.6794C30.4766 66.6794 30.4909 66.6794 30.5005 66.6746C30.4909 66.6842 30.4814 66.6985 30.4719 66.7081C30.4719 66.6985 30.4719 66.689 30.4719 66.6794H30.4766Z" fill="#F28B2F" fill-opacity="0.7"/>
<path d="M31.2719 65.35C31.2818 65.3205 31.2965 65.291 31.3063 65.2614C31.3211 65.286 31.3358 65.3107 31.3555 65.3353C31.3456 65.3353 31.3309 65.3353 31.3211 65.3353C31.3063 65.3353 31.2867 65.3402 31.2719 65.3451V65.35Z" fill="#F28B2F" fill-opacity="0.7"/>
<path d="M44.2623 19.3408C44.2623 19.3408 46.3209 36.3334 46.6943 46.1665C47.0726 56.0046 47.5541 81.0921 48.0405 84.3419C48.5269 87.5917 47.1659 87.8231 47.1659 87.8231C47.1659 87.8231 46.8122 81.8602 46.7041 76.1681C46.596 70.4761 45.6134 44.9749 45.1565 38.3719C44.6996 31.7639 44.2623 19.3408 44.2623 19.3408Z" fill="#F28B2F" fill-opacity="0.7"/>
<path d="M41.2212 7.36572C41.2212 7.36572 41.7665 5.31244 40.9117 4.89882C40.0568 4.49014 39.7472 7.07029 38.9513 9.24667C38.1554 11.4231 35.178 21.9554 35.178 21.9554L40.0273 10.6943L41.2212 7.3608V7.36572Z" fill="#F28B2F" fill-opacity="0.7"/>
<path d="M45.0488 7.46432C45.0488 7.46432 47.2941 16.8297 47.7461 18.3955C48.1981 19.9613 45.7612 13.5602 45.3141 11.7383C44.867 9.91645 43.8451 6.13977 43.8451 6.13977C43.8451 6.13977 44.6066 5.38149 45.0488 7.46432Z" fill="#F28B2F" fill-opacity="0.7"/>
<path d="M42.752 5.47085C41.8649 5.44882 41.1587 4.91084 41.1746 4.26926C41.1905 3.62767 41.9224 3.12543 42.8094 3.14746C43.6965 3.1695 44.4027 3.70747 44.3868 4.34906C44.3709 4.99065 43.639 5.49289 42.752 5.47085Z" fill="#F28B2F" fill-opacity="0.7"/>
<path d="M59.5621 39.5241C59.8618 39.7506 60.191 39.9328 60.5349 40.0854C60.3777 40.0165 60.5938 40.1051 60.6479 40.1248C60.7412 40.1593 60.8346 40.1938 60.9279 40.2233C61.1048 40.2824 61.2866 40.3415 61.4684 40.3956C62.2348 40.6271 63.0013 40.8388 63.7186 41.2032C64.1018 41.3952 64.2394 41.9664 64.0085 42.3209C63.7579 42.7099 63.301 42.8182 62.8932 42.6114C62.8146 42.572 62.736 42.5376 62.6573 42.4982C62.4657 42.4095 62.7556 42.5326 62.6426 42.4883C62.6033 42.4736 62.5591 42.4539 62.5198 42.4391C62.3429 42.3702 62.166 42.3111 61.9892 42.2569C61.6305 42.1436 61.2669 42.0402 60.9034 41.9319C60.1418 41.7005 59.3754 41.4198 58.7367 40.9373C58.3977 40.6812 58.1864 40.2233 58.4468 39.8195C58.663 39.4847 59.1985 39.2533 59.5621 39.529V39.5241Z" fill="#F28B2F" fill-opacity="0.7"/>
<path d="M62.5247 39.2828C62.1317 40.1002 61.8222 40.6763 61.5814 41.4986C61.3407 42.3209 61.1835 43.1973 60.7167 43.9507C60.4907 44.3151 59.9797 44.4874 59.6014 44.2412C59.2231 43.995 59.0659 43.5125 59.3116 43.1235C59.5572 42.7345 59.6014 42.5769 59.7341 42.1288C59.852 41.7201 59.9355 41.3065 60.0633 40.9028C60.3286 40.0558 60.7364 39.2582 61.1196 38.4605C61.3063 38.0764 61.886 37.9435 62.2349 38.17C62.6279 38.426 62.7262 38.8741 62.5247 39.2877V39.2828Z" fill="#F28B2F" fill-opacity="0.7"/>
<path d="M53.5977 41.927C53.8974 42.1535 54.2266 42.3357 54.5705 42.4884C54.4133 42.4194 54.6295 42.5081 54.6835 42.5278C54.7769 42.5622 54.8702 42.5967 54.9636 42.6262C55.1404 42.6853 55.3222 42.7444 55.504 42.7986C56.2705 43.03 57.0369 43.2417 57.7542 43.6061C58.1374 43.7981 58.275 44.3693 58.0441 44.7238C57.7935 45.1128 57.3366 45.2212 56.9288 45.0144C56.8502 44.975 56.7716 44.9405 56.693 44.9011C56.5014 44.8125 56.7913 44.9356 56.6782 44.8913C56.6389 44.8765 56.5947 44.8568 56.5554 44.842C56.3785 44.7731 56.2017 44.714 56.0248 44.6598C55.6661 44.5466 55.3026 44.4432 54.939 44.3349C54.1775 44.1034 53.411 43.8228 52.7723 43.3402C52.4333 43.0842 52.222 42.6262 52.4824 42.2225C52.6986 41.8877 53.2341 41.6562 53.5977 41.932V41.927Z" fill="#F28B2F" fill-opacity="0.7"/>
<path d="M56.5555 41.6857C56.1624 42.5031 55.8529 43.0792 55.6122 43.9015C55.3714 44.7238 55.2142 45.6003 54.7475 46.3536C54.5215 46.718 54.0105 46.8903 53.6322 46.6441C53.2539 46.3979 53.0967 45.9154 53.3423 45.5264C53.588 45.1374 53.6322 44.9798 53.7648 44.5318C53.8828 44.1231 53.9663 43.7095 54.094 43.3057C54.3593 42.4588 54.7671 41.6611 55.1503 40.8634C55.337 40.4793 55.9168 40.3464 56.2656 40.5729C56.6587 40.829 56.7569 41.277 56.5555 41.6906V41.6857Z" fill="#F28B2F" fill-opacity="0.7"/>
<path d="M65.4874 37.0819C65.7871 37.3084 66.1163 37.4905 66.4602 37.6432C66.3029 37.5743 66.5191 37.6629 66.5732 37.6826C66.6665 37.717 66.7599 37.7515 66.8532 37.7811C67.0301 37.8401 67.2119 37.8992 67.3937 37.9534C68.1601 38.1848 68.9266 38.3966 69.6439 38.7609C70.0271 38.953 70.1647 39.5241 69.9337 39.8787C69.6832 40.2677 69.2263 40.376 68.8185 40.1692C68.7399 40.1298 68.6612 40.0953 68.5826 40.0559C68.391 39.9673 68.6809 40.0904 68.5679 40.0461C68.5286 40.0313 68.4844 40.0116 68.4451 39.9968C68.2682 39.9279 68.0913 39.8688 67.9145 39.8147C67.5558 39.7014 67.1922 39.598 66.8287 39.4897C66.0671 39.2582 65.3007 38.9776 64.662 38.495C64.323 38.239 64.1117 37.7811 64.3721 37.3773C64.5883 37.0425 65.1238 36.811 65.4874 37.0868V37.0819Z" fill="#F28B2F" fill-opacity="0.7"/>
<path d="M68.4451 36.8356C68.0521 37.6529 67.7426 38.229 67.5018 39.0513C67.2611 39.8736 67.1039 40.7501 66.6371 41.5035C66.4111 41.8678 65.9001 42.0402 65.5218 41.794C65.1435 41.5478 64.9863 41.0652 65.232 40.6762C65.4776 40.2872 65.5218 40.1297 65.6545 39.6816C65.7724 39.2729 65.8559 38.8593 65.9837 38.4555C66.249 37.6086 66.6568 36.8109 67.04 36.0133C67.2267 35.6292 67.8064 35.4962 68.1553 35.7227C68.5483 35.9788 68.6466 36.4269 68.4451 36.8405V36.8356Z" fill="#F28B2F" fill-opacity="0.7"/>
<path d="M34.5935 42.4439C34.6181 42.5326 34.6426 42.6163 34.6721 42.7049C34.6869 42.7542 34.7065 42.7985 34.7212 42.8477C34.7605 42.9659 34.736 42.8329 34.7065 42.8182C34.7409 42.8329 34.8146 43.0496 34.8342 43.089C34.8736 43.1678 34.9178 43.2465 34.962 43.3253C35.1438 43.6503 35.355 43.9556 35.5712 44.2609C36.0036 44.8616 36.4605 45.4525 36.7798 46.1221C36.9665 46.5062 36.8978 47.0232 36.49 47.2399C36.1264 47.4319 35.5712 47.3581 35.3747 46.9494C35.0455 46.26 34.5689 45.6593 34.1317 45.0389C33.66 44.3741 33.2375 43.6749 33.0213 42.8822C32.9083 42.4686 33.1589 41.9762 33.5912 41.8777C34.0236 41.7792 34.4707 42.0057 34.5935 42.4489V42.4439Z" fill="#F28B2F" fill-opacity="0.7"/>
<path d="M37.1581 43.9212C36.3769 44.3151 35.581 44.6893 34.8735 45.2113C34.8342 45.2408 34.7949 45.2704 34.7507 45.3048C34.6524 45.3787 34.844 45.231 34.7507 45.3048C34.6672 45.3688 34.5836 45.4378 34.5001 45.5018C34.3036 45.6544 34.112 45.8071 33.9105 45.9499C33.5322 46.2207 33.1293 46.4324 32.697 46.5949C32.299 46.7426 31.7881 46.4275 31.6947 46.0237C31.5915 45.5609 31.8372 45.1768 32.2646 45.0192C32.3334 44.9946 32.3432 44.9897 32.2646 45.0192C32.3089 44.9995 32.3531 44.9799 32.3924 44.9602C32.4857 44.9158 32.5791 44.8617 32.6724 44.8075C32.8346 44.709 32.9918 44.6056 33.1441 44.4924C33.2325 44.4284 33.316 44.3644 33.3996 44.3003C33.3357 44.3496 33.3455 44.3397 33.3996 44.3003C33.4389 44.2708 33.4733 44.2413 33.5126 44.2117C33.7091 44.0541 33.9105 43.9015 34.112 43.7538C34.8047 43.2565 35.5761 42.8921 36.3376 42.5129C36.7159 42.3209 37.2367 42.3997 37.4529 42.8035C37.6494 43.1728 37.5659 43.7144 37.163 43.9212H37.1581Z" fill="#F28B2F" fill-opacity="0.7"/>
<path d="M28.408 40.691C28.4325 40.7797 28.4571 40.8634 28.4866 40.952C28.5013 41.0012 28.521 41.0456 28.5357 41.0948C28.575 41.213 28.5504 41.08 28.521 41.0652C28.5553 41.08 28.629 41.2967 28.6487 41.3361C28.688 41.4148 28.7322 41.4936 28.7764 41.5724C28.9582 41.8974 29.1695 42.2027 29.3857 42.508C29.818 43.1087 30.2749 43.6996 30.5943 44.3692C30.781 44.7533 30.7122 45.2703 30.3044 45.487C29.9408 45.679 29.3857 45.6051 29.1891 45.1964C28.86 44.5071 28.3834 43.9064 27.9461 43.286C27.4745 42.6212 27.0519 41.922 26.8358 41.1293C26.7228 40.7156 26.9733 40.2232 27.4057 40.1248C27.838 40.0263 28.2851 40.2528 28.408 40.696V40.691Z" fill="#F28B2F" fill-opacity="0.7"/>
<path d="M30.9726 42.1683C30.1914 42.5622 29.3954 42.9364 28.688 43.4584C28.6487 43.4879 28.6093 43.5175 28.5651 43.5519C28.4669 43.6258 28.6585 43.4781 28.5651 43.5519C28.4816 43.6159 28.3981 43.6849 28.3146 43.7489C28.118 43.9015 27.9264 44.0542 27.725 44.197C27.3467 44.4678 26.9438 44.6795 26.5114 44.842C26.1135 44.9897 25.6025 44.6746 25.5092 44.2708C25.406 43.808 25.6516 43.4239 26.0791 43.2664C26.1479 43.2417 26.1577 43.2368 26.0791 43.2664C26.1233 43.2467 26.1675 43.227 26.2068 43.2073C26.3002 43.1629 26.3935 43.1088 26.4869 43.0546C26.649 42.9561 26.8062 42.8527 26.9585 42.7395C27.047 42.6755 27.1305 42.6115 27.214 42.5475C27.1501 42.5967 27.16 42.5868 27.214 42.5475C27.2533 42.5179 27.2877 42.4884 27.327 42.4588C27.5235 42.3013 27.725 42.1486 27.9264 42.0009C28.6192 41.5036 29.3905 41.1392 30.1521 40.7601C30.5304 40.568 31.0512 40.6468 31.2673 41.0506C31.4639 41.4199 31.3803 41.9615 30.9775 42.1683H30.9726Z" fill="#F28B2F" fill-opacity="0.7"/>
<path d="M40.7742 44.128C40.7987 44.2167 40.8233 44.3004 40.8528 44.389C40.8675 44.4383 40.8872 44.4826 40.9019 44.5318C40.9412 44.65 40.9166 44.517 40.8872 44.5023C40.9216 44.517 40.9953 44.7337 41.0149 44.7731C41.0542 44.8519 41.0984 44.9307 41.1426 45.0094C41.3244 45.3344 41.5357 45.6397 41.7519 45.945C42.1842 46.5457 42.6412 47.1366 42.9605 47.8062C43.1472 48.1903 43.0784 48.7073 42.6706 48.924C42.3071 49.116 41.7519 49.0421 41.5554 48.6335C41.2262 47.9441 40.7496 47.3434 40.3123 46.723C39.8407 46.0582 39.4181 45.359 39.202 44.5663C39.089 44.1527 39.3395 43.6603 39.7719 43.5618C40.2042 43.4633 40.6513 43.6898 40.7742 44.133V44.128Z" fill="#F28B2F" fill-opacity="0.7"/>
<path d="M43.3388 45.6051C42.5576 45.999 41.7617 46.3732 41.0542 46.8952C41.0149 46.9247 40.9756 46.9543 40.9313 46.9887C40.8331 47.0626 41.0247 46.9149 40.9313 46.9887C40.8478 47.0527 40.7643 47.1217 40.6808 47.1857C40.4842 47.3383 40.2926 47.491 40.0912 47.6338C39.7129 47.9046 39.31 48.1163 38.8777 48.2788C38.4797 48.4265 37.9687 48.1114 37.8754 47.7076C37.7722 47.2448 38.0179 46.8607 38.4453 46.7031C38.5141 46.6785 38.5239 46.6736 38.4453 46.7031C38.4895 46.6834 38.5337 46.6637 38.573 46.6441C38.6664 46.5997 38.7597 46.5456 38.8531 46.4914C39.0152 46.3929 39.1724 46.2895 39.3247 46.1763C39.4132 46.1123 39.4967 46.0483 39.5802 45.9842C39.5164 46.0335 39.5262 46.0236 39.5802 45.9842C39.6195 45.9547 39.6539 45.9252 39.6932 45.8956C39.8898 45.738 40.0912 45.5854 40.2926 45.4377C40.9854 44.9404 41.7567 44.576 42.5183 44.1968C42.8966 44.0048 43.4174 44.0836 43.6336 44.4874C43.8301 44.8567 43.7466 45.3983 43.3437 45.6051H43.3388Z" fill="#F28B2F" fill-opacity="0.7"/>
</g>
<defs>
<clipPath id="clip0_9_1661">
<rect width="96.2235" height="97.5238" fill="white" transform="matrix(-1 0 0 1 96.6118 0.738113)"/>
</clipPath>
</defs>
</svg>
