<svg width="505" height="854" viewBox="0 0 505 854" fill="none" xmlns="http://www.w3.org/2000/svg">
<g opacity="0.4" clip-path="url(#clip0_1_8050)">
<path d="M271.34 369.987C249.793 357.54 241.609 368.932 237.55 373.054C235.228 375.407 231.071 375.018 227.921 374.239C227.856 374.206 227.807 374.19 227.743 374.158C216.019 368.948 208.599 358.352 208.631 346.717V342.935H209.557C212.106 342.935 214.184 340.858 214.184 338.311C214.184 335.763 212.106 333.686 209.557 333.686H207.641C207.04 332.972 206.325 332.047 205.416 330.846C202.071 326.318 203.743 324.387 198.71 322.456C197.801 322.099 196.631 321.823 195.349 321.58C196.177 320.72 196.664 319.73 196.664 318.675C196.664 315.494 192.345 312.898 187.019 312.898C181.693 312.898 177.374 315.478 177.374 318.675C177.374 319.86 177.975 320.947 178.981 321.872C177.699 322.781 175.929 323.998 174.126 325.036C170.781 326.967 170.213 330.846 170.213 330.846V333.686H169.369C166.819 333.686 164.741 335.763 164.741 338.311C164.741 340.858 166.641 342.725 169.028 342.903V343.195C168.979 355.366 160.747 366.222 148.244 371.123V370.815C148.244 370.815 137.819 373.979 133.24 372.827C128.645 371.675 129.23 366.839 123.238 359.666C117.246 352.494 104.76 349.037 104.76 349.037L87.9375 357.118C87.9375 357.118 96.4622 358.822 101.106 363.593C105.75 368.364 101.918 373.849 98.7355 379.318C95.5529 384.803 89.545 401.728 90.6492 406.597C92.9387 416.593 98.9465 420.39 102.129 421.737C99.1576 431.945 98.1509 441.779 98.1509 449.454C98.1509 470.258 113.528 506.414 152.888 519.428H152.741C152.741 519.428 152.839 519.428 152.985 519.461C154.934 520.093 156.914 520.694 158.977 521.213C159.431 521.473 159.756 521.781 159.886 522.089C160.519 523.777 161.266 525.546 158.1 526.228C154.934 526.893 145.159 528.662 145.159 528.662C145.159 528.662 136.553 529.814 130.87 533.53C125.186 537.23 139.443 537.912 139.443 537.912L185.931 537.587L232.419 537.912C232.419 537.912 246.675 537.246 240.992 533.53C235.309 529.83 226.703 528.662 226.703 528.662C226.703 528.662 218.52 527.136 215.353 526.455C212.187 525.789 212.187 524.443 212.82 522.755C213.015 522.236 213.908 521.83 215.077 521.489H218.487C219.543 521.148 220.598 520.791 221.621 520.402C221.637 520.402 221.67 520.402 221.67 520.402H221.637C254.145 508.393 274.328 480.043 274.588 451.499C274.669 442.509 273.532 433.405 271.048 424.642C274.003 423.717 280.076 420.958 285.987 412.877C293.553 402.54 292.887 382.434 271.34 369.987ZM184.892 490.299C149.656 490.299 136.699 462.096 136.699 447.685C136.699 432.058 144.103 400.544 184.535 400.479C221.832 400.43 236.267 425.372 236.04 448.821C235.845 470.55 215.954 490.283 184.875 490.283L184.892 490.299ZM277.316 403.903C276.374 407.603 270.691 413.153 266.696 410.897C266.307 410.686 265.933 410.508 265.576 410.362C261.322 401.712 255.476 393.761 247.877 387.026C247.845 386.945 247.812 386.896 247.763 386.815C243.525 379.772 249.679 375.131 253.934 374.937C258.188 374.742 265.219 377.939 271.129 383.099C277.04 388.259 278.241 400.203 277.299 403.903H277.316Z" fill="#F2522E" fill-opacity="0.7"/>
<path d="M184.964 425.45C185.154 425.178 185.343 424.906 185.541 424.642C186.659 423.134 187.902 421.708 189.237 420.391C189.543 420.085 189.857 419.795 190.176 419.501C186.459 421.205 182.692 423.547 179.076 426.476C178.786 426.924 178.499 427.376 178.217 427.824C179.555 427.173 180.918 426.614 182.309 426.168C183.19 425.882 184.075 425.643 184.964 425.45Z" fill="#F28B2F" fill-opacity="0.7"/>
<path d="M172.37 439.495C172.337 439.596 172.308 439.701 172.275 439.802C172.392 439.744 172.514 439.681 172.636 439.627C173.463 439.233 174.307 438.863 175.152 438.527C176 438.196 176.862 437.902 177.72 437.647C178.422 437.437 179.128 437.256 179.843 437.1C180.019 436.23 180.245 435.359 180.509 434.493C181.036 432.761 181.733 431.056 182.577 429.406C180.194 430.195 177.826 431.224 175.491 432.422C175.055 433.249 174.639 434.072 174.252 434.908C173.895 435.664 173.559 436.424 173.244 437.188C172.928 437.953 172.647 438.726 172.387 439.495L172.37 439.495Z" fill="#F28B2F" fill-opacity="0.7"/>
<path d="M167.831 442.424C168.144 442.201 168.462 441.983 168.785 441.768C168.973 440.884 169.204 439.999 169.48 439.118C169.744 438.259 170.062 437.411 170.405 436.563C170.629 436.007 170.874 435.456 171.127 434.905C170.693 435.174 170.262 435.447 169.827 435.725C167.022 439.242 164.77 442.885 163.118 446.482C163.261 446.34 163.407 446.193 163.554 446.046C164.875 444.726 166.316 443.517 167.835 442.428L167.831 442.424Z" fill="#F28B2F" fill-opacity="0.7"/>
<path d="M192.491 418.478C191.847 419.449 191.212 420.403 190.61 421.365C189.857 422.545 189.142 423.729 188.46 424.922C189.875 424.839 191.277 424.902 192.617 425.138C194.241 425.431 195.781 425.976 197.1 426.793C198.419 427.61 199.529 428.687 200.283 429.993C198.981 429.243 197.633 428.665 196.21 428.296C194.795 427.926 193.325 427.746 191.823 427.741C190.123 427.723 188.395 427.919 186.654 428.269C185.554 430.441 184.601 432.634 183.845 434.847C183.661 435.4 183.494 435.944 183.335 436.496C184.888 436.376 186.416 436.423 187.877 436.67C189.488 436.943 191.012 437.455 192.339 438.222C193.666 438.988 194.797 440.01 195.631 441.237C193.181 439.566 190.297 438.748 187.262 438.7C185.768 438.67 184.24 438.807 182.709 439.083C182.383 440.723 182.204 442.36 182.205 443.975C182.218 445.47 182.374 446.947 182.743 448.362C183.108 449.781 183.678 451.138 184.428 452.44C183.122 451.686 182.041 450.58 181.22 449.265C180.403 447.946 179.837 446.418 179.548 444.782C179.396 443.97 179.321 443.124 179.282 442.274C179.265 441.487 179.286 440.696 179.356 439.897C178.9 440.035 178.448 440.177 177.996 440.336C177.222 440.599 176.456 440.896 175.695 441.222C174.933 441.539 174.172 441.882 173.418 442.259C172.699 442.618 171.983 442.99 171.268 443.371C170.892 445.162 170.692 446.945 170.722 448.699C170.748 450.205 170.95 451.687 171.353 453.094C171.755 454.5 172.371 455.836 173.18 457.088C170.667 455.471 169.067 452.59 168.529 449.359C168.29 447.965 168.235 446.512 168.334 445.031C167.067 445.788 165.807 446.57 164.544 447.398C163.807 447.874 163.071 448.368 162.326 448.861C162.234 448.92 162.146 448.983 162.058 449.037C158.761 457.812 159.18 466.021 164.029 470.87C172.296 479.137 186.15 470.384 200.097 456.437C214.044 442.49 222.792 428.641 214.525 420.374C209.634 415.483 201.338 415.093 192.491 418.478Z" fill="#F28B2F" fill-opacity="0.7"/>
<path d="M20.8616 764.769C30.6127 751.867 28.1514 739.887 28.1514 739.887C28.1514 739.887 18.6821 737.178 10.171 748.425C5.51155 754.594 3.57635 761.723 2.78724 766.914V741.485C4.98547 741.655 13.6093 741.636 20.8616 732.044C30.6127 719.142 28.1514 707.161 28.1514 707.161C28.1514 707.161 18.6821 704.453 10.171 715.7C5.51155 721.869 3.57635 728.997 2.78724 734.188L2.78724 715.437C5.02305 712.747 10.0207 705.356 10.0207 693.375C10.0207 675.451 1.7351 669 1.7351 669C1.7351 669 -6.55053 675.432 -6.55053 691.062C-6.55053 706.691 1.69752 716.527 1.7351 716.584L1.7351 734.827C1.00236 729.599 -0.876471 722.113 -5.74263 715.681C-14.2537 704.434 -23.723 707.142 -23.723 707.142C-23.723 707.142 -26.1843 719.123 -16.4332 732.025C-9.06816 741.768 -0.294035 741.636 1.7351 741.448V767.534C1.00236 762.306 -0.876471 754.82 -5.74263 748.388C-14.2537 737.141 -23.723 739.849 -23.723 739.849C-23.723 739.849 -26.1843 751.83 -16.4332 764.732C-9.06816 774.474 -0.294035 774.343 1.7351 774.155V796.705C1.00236 791.477 -0.876471 783.991 -5.74263 777.559C-14.2537 766.312 -23.723 769.02 -23.723 769.02C-23.723 769.02 -26.1843 781.001 -16.4332 793.903C-9.06816 803.645 -0.294035 803.514 1.7351 803.326V825.143C1.00236 819.914 -0.876471 812.429 -5.74263 805.996C-14.2537 794.749 -23.723 797.458 -23.723 797.458C-23.723 797.458 -26.1843 809.438 -16.4332 822.34C-9.06816 832.083 -0.294035 831.951 1.7351 831.763V852.188H2.78724V831.782C4.98547 831.951 13.6093 831.932 20.8616 822.34C30.6127 809.438 28.1514 797.458 28.1514 797.458C28.1514 797.458 18.6821 794.749 10.171 805.996C5.51155 812.165 3.57635 819.293 2.78724 824.484V803.326C4.98547 803.495 13.6093 803.476 20.8616 793.884C30.6127 780.982 28.1514 769.001 28.1514 769.001C28.1514 769.001 18.6821 766.293 10.171 777.54C5.51155 783.709 3.57635 790.837 2.78724 796.028V774.136C4.98547 774.305 13.6093 774.286 20.8616 764.694V764.769Z" fill="#F2522E" fill-opacity="0.7"/>
<path d="M20.8616 578.769C30.6127 565.867 28.1514 553.887 28.1514 553.887C28.1514 553.887 18.6821 551.178 10.171 562.425C5.51155 568.594 3.57635 575.723 2.78724 580.914V555.485C4.98547 555.655 13.6093 555.636 20.8616 546.044C30.6127 533.142 28.1514 521.161 28.1514 521.161C28.1514 521.161 18.6821 518.453 10.171 529.7C5.51155 535.869 3.57635 542.997 2.78724 548.188L2.78724 529.437C5.02305 526.747 10.0207 519.356 10.0207 507.375C10.0207 489.451 1.7351 483 1.7351 483C1.7351 483 -6.55053 489.432 -6.55053 505.062C-6.55053 520.691 1.69752 530.527 1.7351 530.584L1.7351 548.827C1.00236 543.599 -0.876471 536.113 -5.74263 529.681C-14.2537 518.434 -23.723 521.142 -23.723 521.142C-23.723 521.142 -26.1843 533.123 -16.4332 546.025C-9.06816 555.768 -0.294035 555.636 1.7351 555.448V581.534C1.00236 576.306 -0.876471 568.82 -5.74263 562.388C-14.2537 551.141 -23.723 553.849 -23.723 553.849C-23.723 553.849 -26.1843 565.83 -16.4332 578.732C-9.06816 588.474 -0.294035 588.343 1.7351 588.155V610.705C1.00236 605.477 -0.876471 597.991 -5.74263 591.559C-14.2537 580.312 -23.723 583.02 -23.723 583.02C-23.723 583.02 -26.1843 595.001 -16.4332 607.903C-9.06816 617.645 -0.294035 617.514 1.7351 617.326V639.143C1.00236 633.914 -0.876471 626.429 -5.74263 619.996C-14.2537 608.749 -23.723 611.458 -23.723 611.458C-23.723 611.458 -26.1843 623.438 -16.4332 636.34C-9.06816 646.083 -0.294035 645.951 1.7351 645.763V666.188H2.78724V645.782C4.98547 645.951 13.6093 645.932 20.8616 636.34C30.6127 623.438 28.1514 611.458 28.1514 611.458C28.1514 611.458 18.6821 608.749 10.171 619.996C5.51155 626.165 3.57635 633.293 2.78724 638.484V617.326C4.98547 617.495 13.6093 617.476 20.8616 607.884C30.6127 594.982 28.1514 583.001 28.1514 583.001C28.1514 583.001 18.6821 580.293 10.171 591.54C5.51155 597.709 3.57635 604.837 2.78724 610.028V588.136C4.98547 588.305 13.6093 588.286 20.8616 578.694V578.769Z" fill="#F2522E" fill-opacity="0.7"/>
<path d="M20.8616 392.769C30.6127 379.867 28.1514 367.887 28.1514 367.887C28.1514 367.887 18.6821 365.178 10.171 376.425C5.51155 382.594 3.57635 389.723 2.78724 394.914V369.485C4.98547 369.655 13.6093 369.636 20.8616 360.044C30.6127 347.142 28.1514 335.161 28.1514 335.161C28.1514 335.161 18.6821 332.453 10.171 343.7C5.51155 349.869 3.57635 356.997 2.78724 362.188L2.78724 343.437C5.02305 340.747 10.0207 333.356 10.0207 321.375C10.0207 303.451 1.7351 297 1.7351 297C1.7351 297 -6.55053 303.432 -6.55053 319.062C-6.55053 334.691 1.69752 344.527 1.7351 344.584L1.7351 362.827C1.00236 357.599 -0.876471 350.113 -5.74263 343.681C-14.2537 332.434 -23.723 335.142 -23.723 335.142C-23.723 335.142 -26.1843 347.123 -16.4332 360.025C-9.06816 369.768 -0.294035 369.636 1.7351 369.448V395.534C1.00236 390.306 -0.876471 382.82 -5.74263 376.388C-14.2537 365.141 -23.723 367.849 -23.723 367.849C-23.723 367.849 -26.1843 379.83 -16.4332 392.732C-9.06816 402.474 -0.294035 402.343 1.7351 402.155V424.705C1.00236 419.477 -0.876471 411.991 -5.74263 405.559C-14.2537 394.312 -23.723 397.02 -23.723 397.02C-23.723 397.02 -26.1843 409.001 -16.4332 421.903C-9.06816 431.645 -0.294035 431.514 1.7351 431.326V453.143C1.00236 447.914 -0.876471 440.429 -5.74263 433.996C-14.2537 422.749 -23.723 425.458 -23.723 425.458C-23.723 425.458 -26.1843 437.438 -16.4332 450.34C-9.06816 460.083 -0.294035 459.951 1.7351 459.763V480.188H2.78724V459.782C4.98547 459.951 13.6093 459.932 20.8616 450.34C30.6127 437.438 28.1514 425.458 28.1514 425.458C28.1514 425.458 18.6821 422.749 10.171 433.996C5.51155 440.165 3.57635 447.293 2.78724 452.484V431.326C4.98547 431.495 13.6093 431.476 20.8616 421.884C30.6127 408.982 28.1514 397.001 28.1514 397.001C28.1514 397.001 18.6821 394.293 10.171 405.54C5.51155 411.709 3.57635 418.837 2.78724 424.028V402.136C4.98547 402.305 13.6093 402.286 20.8616 392.694V392.769Z" fill="#F2522E" fill-opacity="0.7"/>
<path d="M20.8616 206.769C30.6127 193.867 28.1514 181.887 28.1514 181.887C28.1514 181.887 18.6821 179.178 10.171 190.425C5.51155 196.594 3.57635 203.723 2.78724 208.914V183.485C4.98547 183.655 13.6093 183.636 20.8616 174.044C30.6127 161.142 28.1514 149.161 28.1514 149.161C28.1514 149.161 18.6821 146.453 10.171 157.7C5.51155 163.869 3.57635 170.997 2.78724 176.188L2.78724 157.437C5.02305 154.747 10.0207 147.356 10.0207 135.375C10.0207 117.451 1.7351 111 1.7351 111C1.7351 111 -6.55053 117.432 -6.55053 133.062C-6.55053 148.691 1.69752 158.527 1.7351 158.584L1.7351 176.827C1.00236 171.599 -0.876471 164.113 -5.74263 157.681C-14.2537 146.434 -23.723 149.142 -23.723 149.142C-23.723 149.142 -26.1843 161.123 -16.4332 174.025C-9.06816 183.768 -0.294035 183.636 1.7351 183.448V209.534C1.00236 204.306 -0.876471 196.82 -5.74263 190.388C-14.2537 179.141 -23.723 181.849 -23.723 181.849C-23.723 181.849 -26.1843 193.83 -16.4332 206.732C-9.06816 216.474 -0.294035 216.343 1.7351 216.155V238.705C1.00236 233.477 -0.876471 225.991 -5.74263 219.559C-14.2537 208.312 -23.723 211.02 -23.723 211.02C-23.723 211.02 -26.1843 223.001 -16.4332 235.903C-9.06816 245.645 -0.294035 245.514 1.7351 245.326V267.143C1.00236 261.914 -0.876471 254.429 -5.74263 247.996C-14.2537 236.749 -23.723 239.458 -23.723 239.458C-23.723 239.458 -26.1843 251.438 -16.4332 264.34C-9.06816 274.083 -0.294035 273.951 1.7351 273.763V294.188H2.78724V273.782C4.98547 273.951 13.6093 273.932 20.8616 264.34C30.6127 251.438 28.1514 239.458 28.1514 239.458C28.1514 239.458 18.6821 236.749 10.171 247.996C5.51155 254.165 3.57635 261.293 2.78724 266.484V245.326C4.98547 245.495 13.6093 245.476 20.8616 235.884C30.6127 222.982 28.1514 211.001 28.1514 211.001C28.1514 211.001 18.6821 208.293 10.171 219.54C5.51155 225.709 3.57635 232.837 2.78724 238.028V216.136C4.98547 216.305 13.6093 216.286 20.8616 206.694V206.769Z" fill="#F2522E" fill-opacity="0.7"/>
<path d="M86.1576 484.674C89.3614 476.777 86.4745 471.014 86.4745 471.014C86.4745 471.014 81.285 470.927 78.4866 477.813C76.9563 481.588 76.9434 485.481 77.2498 488.231L73.7815 475.287C74.9236 475.073 79.3107 473.888 81.6941 468.016C84.8978 460.118 82.0109 454.356 82.0109 454.356C82.0109 454.356 76.8214 454.269 74.0231 461.155C72.4927 464.93 72.4799 468.823 72.7862 471.573L70.2287 462.028C70.9999 460.354 72.5357 455.91 70.9017 449.811C68.457 440.688 63.3595 438.534 63.3595 438.534C63.3595 438.534 60.0193 442.938 62.151 450.894C64.2827 458.85 69.8228 462.732 69.8496 462.755L72.3379 472.042C71.2518 469.48 69.2744 465.926 65.9201 463.316C60.0538 458.751 55.6031 461.421 55.6031 461.421C55.6031 461.421 55.9843 467.856 62.7076 473.093C67.7854 477.048 72.2336 475.784 73.2409 475.411L76.7988 488.69C75.7127 486.129 73.7354 482.575 70.3811 479.964C64.5147 475.4 60.064 478.07 60.064 478.07C60.064 478.07 60.4453 484.504 67.1686 489.742C72.2463 493.696 76.6946 492.433 77.7018 492.06L80.7775 503.539C79.6914 500.977 77.7141 497.423 74.3598 494.813C68.4934 490.249 64.0427 492.919 64.0427 492.919C64.0427 492.919 64.424 499.353 71.1473 504.59C76.225 508.545 80.6733 507.281 81.6805 506.909L84.6562 518.014C83.5701 515.453 81.5927 511.899 78.2384 509.288C72.3721 504.724 67.9214 507.394 67.9214 507.394C67.9214 507.394 68.3026 513.828 75.0259 519.066C80.1037 523.02 84.5519 521.756 85.5592 521.384L88.345 531.781L88.8806 531.637L86.0973 521.25C87.2393 521.036 91.6265 519.851 94.0098 513.979C97.2136 506.081 94.3267 500.319 94.3267 500.319C94.3267 500.319 89.1372 500.232 86.3389 507.118C84.8085 510.893 84.7956 514.786 85.102 517.536L82.2161 506.765C83.3581 506.552 87.7453 505.366 90.1286 499.494C93.3324 491.597 90.4455 485.834 90.4455 485.834C90.4455 485.834 85.256 485.747 82.4576 492.633C80.9273 496.408 80.9144 500.301 81.2208 503.051L78.2348 491.907C79.3768 491.693 83.764 490.507 86.1473 484.636L86.1576 484.674Z" fill="#F2522E" fill-opacity="0.7"/>
<path d="M279.301 484.674C276.098 476.777 278.985 471.014 278.985 471.014C278.985 471.014 284.174 470.927 286.972 477.813C288.503 481.588 288.516 485.481 288.209 488.231L291.677 475.287C290.535 475.073 286.148 473.888 283.765 468.016C280.561 460.118 283.448 454.356 283.448 454.356C283.448 454.356 288.638 454.269 291.436 461.155C292.966 464.93 292.979 468.823 292.673 471.573L295.23 462.028C294.459 460.354 292.923 455.91 294.557 449.811C297.002 440.688 302.099 438.534 302.099 438.534C302.099 438.534 305.44 442.938 303.308 450.894C301.176 458.85 295.636 462.732 295.609 462.755L293.121 472.042C294.207 469.48 296.185 465.926 299.539 463.316C305.405 458.751 309.856 461.421 309.856 461.421C309.856 461.421 309.475 467.856 302.751 473.093C297.674 477.048 293.225 475.784 292.218 475.411L288.66 488.69C289.746 486.129 291.724 482.575 295.078 479.964C300.944 475.4 305.395 478.07 305.395 478.07C305.395 478.07 305.014 484.504 298.29 489.742C293.213 493.696 288.764 492.433 287.757 492.06L284.681 503.539C285.768 500.977 287.745 497.423 291.099 494.813C296.966 490.249 301.416 492.919 301.416 492.919C301.416 492.919 301.035 499.353 294.312 504.59C289.234 508.545 284.786 507.281 283.778 506.909L280.803 518.014C281.889 515.453 283.866 511.899 287.221 509.288C293.087 504.724 297.538 507.394 297.538 507.394C297.538 507.394 297.156 513.828 290.433 519.066C285.355 523.02 280.907 521.756 279.9 521.384L277.114 531.781L276.578 531.637L279.362 521.25C278.22 521.036 273.832 519.851 271.449 513.979C268.245 506.081 271.132 500.319 271.132 500.319C271.132 500.319 276.322 500.232 279.12 507.118C280.651 510.893 280.663 514.786 280.357 517.536L283.243 506.765C282.101 506.552 277.714 505.366 275.33 499.494C272.127 491.597 275.014 485.834 275.014 485.834C275.014 485.834 280.203 485.747 283.001 492.633C284.532 496.408 284.545 500.301 284.238 503.051L287.224 491.907C286.082 491.693 281.695 490.507 279.312 484.636L279.301 484.674Z" fill="#F2522E" fill-opacity="0.7"/>
<path d="M175.189 675.289C175.665 672.1 174.047 668.198 173.032 666.136C173.032 666.12 173.032 666.088 173.016 666.072L165.592 651.955C165.465 651.701 165.163 651.59 164.925 651.701C164.687 651.812 164.608 652.097 164.735 652.335L171.525 665.263C170.858 665.85 169.875 666.897 169.002 668.468L160.277 651.859C160.103 651.51 159.754 651.32 159.532 651.431C159.31 651.542 159.246 651.907 159.437 652.24L168.511 669.483C168.241 670.07 168.003 670.72 167.797 671.418C167.543 670.657 167.226 669.832 166.829 668.96C165.227 665.438 160.531 662.424 158.992 661.504L152.695 649.543C152.52 649.194 152.171 649.004 151.949 649.115C151.711 649.226 151.663 649.591 151.854 649.924L158.183 661.964C157.707 663.455 157.073 667.056 159.294 671.561C159.865 672.719 160.642 673.75 161.467 674.67C160.801 674.385 160.15 674.147 159.516 673.956L150.014 655.873C149.839 655.524 149.49 655.333 149.268 655.444C149.046 655.555 148.983 655.92 149.173 656.253L158.31 673.639C156.169 673.179 154.455 673.258 153.472 673.385L146.682 660.473C146.555 660.219 146.254 660.108 146.016 660.203C145.778 660.314 145.699 660.6 145.826 660.854L152.52 673.576C152.52 673.576 155.423 679.937 159.722 682.253C165.528 685.393 169.209 685.124 170.43 684.902C170.462 684.949 170.478 684.981 170.478 684.981C170.478 684.981 170.541 684.933 170.668 684.854C170.811 684.822 170.89 684.791 170.89 684.791C170.89 684.791 170.89 684.759 170.858 684.711C171.794 683.966 174.301 681.444 175.205 675.273L175.189 675.289ZM167.606 679.302C167.701 679.35 167.781 679.381 167.844 679.413C167.876 679.508 167.892 679.603 167.924 679.699C167.828 679.572 167.717 679.429 167.606 679.302Z" fill="#F2522E" fill-opacity="0.7"/>
<path d="M229.252 652.669C229.014 652.573 228.681 652.795 228.538 653.144L220.781 670.927C220.13 671.133 219.448 671.403 218.75 671.736C219.194 671.054 219.638 670.276 220.067 669.42C221.828 665.962 221.098 660.711 220.796 659.045L226.174 646.704C226.333 646.355 226.254 645.99 226.016 645.895C225.778 645.8 225.444 646.022 225.302 646.371L219.892 658.792C218.369 659.474 215.054 661.441 212.944 665.993C212.405 667.167 212.087 668.389 211.913 669.578C211.691 668.928 211.437 668.325 211.167 667.77L219.305 649.115C219.464 648.766 219.385 648.401 219.147 648.306C218.909 648.211 218.576 648.433 218.433 648.782L210.612 666.707C209.549 664.931 208.344 663.804 207.566 663.201L213.372 649.877C213.483 649.623 213.372 649.337 213.134 649.242C212.896 649.147 212.611 649.29 212.5 649.544L206.773 662.662C206.773 662.662 203.632 668.912 204.647 673.417C206.012 679.508 208.693 681.856 209.692 682.554C209.676 682.602 209.66 682.633 209.66 682.633C209.66 682.633 209.74 682.649 209.882 682.681C210.009 682.76 210.073 682.792 210.073 682.792C210.073 682.792 210.089 682.76 210.12 682.713C211.358 682.855 215.054 682.887 220.606 679.382C223.477 677.573 225.524 673.845 226.507 671.767C226.507 671.752 226.539 671.736 226.539 671.72L232.884 657.158C232.996 656.904 232.884 656.618 232.647 656.539C232.409 656.444 232.123 656.587 232.012 656.84L226.206 670.165C225.302 670.102 223.795 670.134 221.939 670.578L229.41 653.446C229.569 653.097 229.49 652.732 229.252 652.637V652.669ZM212.309 676.923C212.325 677.018 212.357 677.097 212.373 677.161C212.309 677.24 212.262 677.319 212.198 677.399C212.23 677.24 212.278 677.081 212.309 676.923Z" fill="#F2522E" fill-opacity="0.7"/>
<path d="M194.336 657.634C192.416 660.076 191.655 663.043 191.353 665.279C191.052 663.043 190.275 660.076 188.371 657.634C184.199 652.304 179.027 651.844 179.027 651.891C179.027 651.891 179.17 658.792 182.216 662.424C186.451 667.484 190.053 668.436 191.179 668.611C191.179 668.626 191.179 668.658 191.179 668.658C191.179 668.658 191.242 668.658 191.353 668.658C191.464 668.658 191.528 668.658 191.528 668.658C191.528 668.658 191.528 668.626 191.528 668.611C192.638 668.436 196.255 667.484 200.491 662.424C203.537 658.776 203.679 651.891 203.679 651.891C203.679 651.859 198.508 652.304 194.336 657.634Z" fill="#F2522E" fill-opacity="0.7"/>
<path d="M194.336 669.53C192.416 671.973 191.655 674.94 191.353 677.176C191.052 674.94 190.275 671.973 188.371 669.53C184.199 664.201 179.027 663.741 179.027 663.788C179.027 663.788 179.17 670.688 182.216 674.321C186.451 679.381 190.053 680.333 191.179 680.508C191.179 680.523 191.179 680.555 191.179 680.555C191.179 680.555 191.242 680.555 191.353 680.555C191.464 680.555 191.528 680.555 191.528 680.555C191.528 680.555 191.528 680.523 191.528 680.508C192.638 680.333 196.255 679.381 200.491 674.321C203.537 670.673 203.679 663.788 203.679 663.788C203.679 663.756 198.508 664.201 194.336 669.53Z" fill="#F2522E" fill-opacity="0.7"/>
<path d="M238.404 616.216C240.815 622.021 243.877 623.941 244.972 624.48C244.972 624.528 244.972 624.575 244.972 624.575C244.972 624.575 245.051 624.575 245.194 624.575C245.321 624.639 245.4 624.655 245.4 624.655C245.4 624.655 245.4 624.623 245.432 624.575C246.669 624.528 250.334 624.004 255.204 619.721C257.726 617.5 259.106 613.519 259.709 611.33C259.709 611.314 259.725 611.298 259.741 611.266L263.469 595.943C263.532 595.673 263.373 595.419 263.12 595.356C262.866 595.308 262.612 595.483 262.533 595.737L259.122 609.759C258.218 609.839 256.727 610.077 254.982 610.806L259.376 592.786C259.471 592.405 259.328 592.072 259.074 592.009C258.821 591.961 258.535 592.215 258.456 592.596L253.903 611.314C253.3 611.615 252.681 611.98 252.047 612.424C252.364 611.679 252.666 610.854 252.951 609.95C254.077 606.27 252.443 601.209 251.857 599.591L255.013 586.616C255.109 586.235 254.966 585.902 254.712 585.838C254.458 585.791 254.173 586.044 254.093 586.425L250.905 599.496C249.525 600.4 246.59 602.827 245.305 607.634C244.972 608.871 244.877 610.124 244.908 611.33C244.575 610.711 244.226 610.156 243.861 609.648L248.636 590.026C248.731 589.645 248.589 589.312 248.335 589.249C248.081 589.201 247.795 589.455 247.716 589.836L243.116 608.697C241.767 607.094 240.371 606.174 239.515 605.698L242.925 591.676C242.989 591.406 242.846 591.136 242.592 591.089C242.338 591.041 242.085 591.216 242.005 591.485L238.642 605.286C238.642 605.286 236.628 611.933 238.404 616.231V616.216ZM246.685 618.706C246.637 618.801 246.606 618.88 246.558 618.976C246.558 618.817 246.574 618.643 246.574 618.484C246.606 618.563 246.653 618.643 246.669 618.706H246.685Z" fill="#F2522E" fill-opacity="0.7"/>
<path d="M248.352 625.717C245.909 627.716 244.45 630.444 243.625 632.57C243.863 630.318 243.815 627.272 242.53 624.496C239.738 618.452 234.789 616.945 234.789 616.993C234.789 616.993 233.282 623.75 235.392 627.922C238.311 633.728 241.61 635.378 242.657 635.774C242.657 635.79 242.657 635.822 242.657 635.822C242.657 635.822 242.721 635.822 242.832 635.838C242.943 635.87 243.006 635.885 243.006 635.885C243.006 635.885 243.006 635.854 243.006 635.838C244.133 635.901 247.876 635.711 253.207 631.634C257.046 628.7 258.822 622.005 258.822 622.005C258.822 621.974 253.683 621.355 248.352 625.717Z" fill="#F2522E" fill-opacity="0.7"/>
<path d="M239.992 647.45C240.103 647.481 240.167 647.497 240.167 647.497C240.167 647.497 240.167 647.465 240.167 647.45C241.293 647.513 245.037 647.323 250.367 643.246C254.206 640.311 255.982 633.617 255.982 633.617C255.982 633.586 250.843 632.967 245.513 637.329C243.07 639.328 241.61 642.056 240.785 644.182C241.023 641.929 240.976 638.884 239.691 636.108C236.899 630.064 231.949 628.557 231.949 628.605C231.949 628.605 230.442 635.362 232.552 639.534C235.471 645.34 238.771 646.99 239.818 647.386C239.818 647.402 239.818 647.434 239.818 647.434C239.818 647.434 239.881 647.434 239.992 647.45Z" fill="#F2522E" fill-opacity="0.7"/>
<path d="M275.304 638.598C275.304 638.598 275.368 638.646 275.495 638.709C275.59 638.82 275.637 638.868 275.637 638.868C275.637 638.868 275.669 638.852 275.701 638.804C276.811 639.312 280.301 640.438 286.789 638.804C290.137 637.948 293.389 635.045 295.038 633.379C295.054 633.379 295.07 633.363 295.086 633.332L306.206 621.466C306.397 621.26 306.397 620.959 306.206 620.8C306.016 620.641 305.699 620.689 305.493 620.895L295.324 631.761C294.483 631.428 293.056 631 291.152 630.873L304.223 616.914C304.493 616.628 304.557 616.263 304.35 616.105C304.16 615.946 303.779 616.057 303.51 616.343L289.946 630.841C289.264 630.841 288.519 630.889 287.741 631C288.408 630.476 289.09 629.889 289.803 629.207C292.675 626.463 293.817 621.276 294.134 619.61L303.541 609.553C303.811 609.268 303.874 608.903 303.668 608.744C303.478 608.586 303.097 608.697 302.827 608.982L293.357 619.103C291.691 619.293 287.852 620.15 284.267 623.83C283.347 624.782 282.617 625.844 282.03 626.907C282.062 626.225 282.03 625.575 281.967 624.972L296.197 609.775C296.466 609.49 296.53 609.125 296.323 608.966C296.133 608.808 295.752 608.919 295.483 609.204L281.808 623.814C281.428 621.815 280.682 620.388 280.158 619.594L290.327 608.728C290.517 608.522 290.517 608.221 290.327 608.062C290.137 607.904 289.803 607.951 289.613 608.157L279.603 618.849C279.603 618.849 274.432 623.814 273.813 628.382C272.972 634.553 274.686 637.583 275.384 638.535C275.352 638.582 275.336 638.614 275.336 638.614L275.304 638.598ZM279.794 634.188C279.714 634.252 279.635 634.315 279.556 634.363C279.651 634.22 279.73 634.077 279.825 633.934C279.825 634.03 279.809 634.109 279.794 634.172V634.188Z" fill="#F2522E" fill-opacity="0.7"/>
<path d="M267.498 647.497C267.498 647.497 267.546 647.529 267.641 647.593C267.72 647.672 267.768 647.719 267.768 647.719C267.768 647.719 267.784 647.704 267.799 647.688C268.767 648.227 272.162 649.702 278.936 648.449C283.806 647.545 288.803 642.421 288.803 642.421C288.835 642.39 284.599 639.598 277.682 641.105C274.51 641.803 271.829 643.563 270.004 645.07C271.353 643.199 272.876 640.486 273.161 637.472C273.78 630.921 270.195 627.431 270.179 627.463C270.179 627.463 265.404 632.761 265.134 637.361C264.754 643.754 266.816 646.657 267.53 647.466L267.498 647.497Z" fill="#F2522E" fill-opacity="0.7"/>
<path d="M261.757 636.457C261.757 636.457 256.982 641.755 256.712 646.355C256.332 652.748 258.394 655.651 259.108 656.46L259.076 656.491C259.076 656.491 259.124 656.523 259.219 656.586C259.298 656.666 259.346 656.713 259.346 656.713L259.378 656.682C260.345 657.221 263.74 658.696 270.514 657.443C275.384 656.539 280.381 651.415 280.381 651.415C280.413 651.383 276.177 648.592 269.261 650.099C266.088 650.796 263.407 652.557 261.583 654.064C262.931 652.192 264.454 649.48 264.739 646.466C265.358 639.915 261.773 636.425 261.757 636.457Z" fill="#F2522E" fill-opacity="0.7"/>
<path d="M295.879 666.961C292.706 666.247 289.454 666.707 287.106 667.294C289.232 666.183 291.897 664.407 293.626 661.837C297.386 656.253 295.879 651.653 295.847 651.669C295.847 651.669 289.01 654.397 286.503 658.379C283.045 663.915 283.458 667.373 283.711 668.388L283.664 668.404C283.664 668.404 283.696 668.452 283.743 668.547C283.775 668.658 283.791 668.706 283.791 668.706C283.791 668.706 283.822 668.706 283.838 668.706C284.441 669.594 286.741 672.338 293.404 674.051C298.195 675.289 305.143 672.798 305.143 672.798C305.175 672.798 302.779 668.531 295.863 666.961H295.879Z" fill="#F2522E" fill-opacity="0.7"/>
<path d="M283.982 671.45C280.81 670.736 277.558 671.196 275.21 671.783C277.335 670.673 280.001 668.896 281.73 666.326C285.489 660.743 283.982 656.142 283.951 656.158C283.951 656.158 277.113 658.887 274.607 662.868C271.149 668.404 271.561 671.862 271.815 672.878L271.767 672.894C271.767 672.894 271.799 672.941 271.847 673.036C271.878 673.147 271.894 673.195 271.894 673.195C271.894 673.195 271.926 673.195 271.942 673.195C272.545 674.083 274.845 676.827 281.508 678.541C286.298 679.778 293.247 677.287 293.247 677.287C293.278 677.287 290.883 673.02 283.966 671.45H283.982Z" fill="#F2522E" fill-opacity="0.7"/>
<path d="M271.465 675.987C268.293 675.273 265.041 675.733 262.693 676.32C264.819 675.209 267.484 673.433 269.213 670.863C272.925 665.343 271.513 660.806 271.434 660.695C271.465 660.663 267.23 657.871 260.313 659.378C257.141 660.076 254.46 661.837 252.635 663.344C253.984 661.472 255.507 658.76 255.792 655.746C256.395 649.385 253.048 645.927 252.826 645.752V645.705C252.826 645.673 247.686 645.054 242.356 649.417C239.913 651.415 238.453 654.144 237.628 656.269C237.866 654.017 237.819 650.971 236.534 648.195C233.742 642.151 228.793 640.644 228.793 640.692C228.793 640.692 227.285 647.45 229.395 651.621C231.68 656.158 234.202 658.157 235.693 658.998L238.675 667.722C238.675 667.722 238.596 667.802 238.549 667.849L218.37 693.119C216.911 692.865 212.77 692.548 207.964 695.339C205.203 696.942 203.284 699.432 202.094 701.399C202.713 699.21 203.205 696.212 202.411 693.277C201.745 690.787 200.635 688.947 199.54 687.614C199.778 687.345 200.032 687.075 200.286 686.773C200.302 686.742 200.333 686.71 200.349 686.694C202.189 691.231 204.553 692.928 205.394 693.404V693.452C205.394 693.452 205.457 693.468 205.568 693.499C205.663 693.547 205.727 693.579 205.727 693.579C205.727 693.579 205.727 693.563 205.743 693.547C206.853 693.769 210.581 694.15 216.546 690.914C220.845 688.598 223.764 682.253 223.764 682.253C223.78 682.221 218.798 680.841 212.786 684.346C210.185 685.853 208.329 688.154 207.139 690.057C207.757 687.9 208.17 685.029 207.25 682.284C205.394 676.716 203.506 676.241 203.49 676.272C203.49 676.241 198.319 676.685 194.147 682.015C192.227 684.457 191.466 687.424 191.164 689.66C190.863 687.424 190.085 684.457 188.182 682.015C184.01 676.685 179.044 676.13 179.044 676.177C178.172 676.764 174.777 677.716 173.54 684.204C172.969 687.186 173.683 690.152 174.46 692.294C173.127 690.406 171.033 688.058 168.162 686.631C161.896 683.522 157.026 685.219 157.042 685.251C157.042 685.251 160.421 691.39 164.894 693.436C171.097 696.275 174.777 695.657 175.872 695.371L175.888 695.403C175.888 695.403 175.951 695.371 176.046 695.308C176.157 695.276 176.221 695.244 176.221 695.244C176.221 695.244 176.221 695.212 176.205 695.212C177.125 694.61 179.917 692.294 181.345 686.028C181.345 685.98 181.345 685.917 181.376 685.869C181.583 686.202 181.805 686.52 182.043 686.821C182.233 687.059 182.423 687.265 182.614 687.471C181.265 688.867 179.647 691.215 178.981 694.752C178.41 697.735 179.124 700.701 179.901 702.842C178.569 700.955 176.475 698.607 173.603 697.179C168.337 694.578 164.069 695.339 162.848 695.672L140.147 668.468L142.844 660.616C144.335 659.775 146.841 657.776 149.142 653.239C151.251 649.068 149.744 642.31 149.744 642.31C149.744 642.278 144.795 643.769 142.003 649.813C140.718 652.589 140.67 655.635 140.908 657.887C140.084 655.762 138.624 653.033 136.181 651.035C130.851 646.688 125.695 647.291 125.711 647.323C125.711 647.323 125.711 647.354 125.711 647.37C125.489 647.545 122.142 650.987 122.745 657.364C123.03 660.378 124.537 663.074 125.902 664.962C124.093 663.455 121.412 661.678 118.224 660.996C111.307 659.489 107.071 662.281 107.103 662.313C107.04 662.408 105.612 666.961 109.324 672.481C111.053 675.051 113.718 676.827 115.844 677.938C113.496 677.351 110.244 676.891 107.072 677.605C100.171 679.159 97.7596 683.426 97.7913 683.442C97.7913 683.442 104.74 685.933 109.53 684.695C113.988 683.553 116.494 681.935 117.843 680.73C117.986 680.777 118.144 680.809 118.303 680.809C118.366 680.809 118.446 680.809 118.509 680.809L128.471 679.572L159.009 716.897C158.961 716.992 158.898 717.087 158.866 717.198L124.728 850.367C124.537 851.144 125.045 851.921 125.886 852.096C126.108 852.143 126.33 852.143 126.536 852.096L149.078 852.413C149.855 852.413 150.538 851.873 150.617 851.128L162.895 749.384H169.05C169.05 749.384 169.05 749.432 169.05 749.447L165.1 851.318C165.069 852.111 165.735 852.778 166.607 852.809C166.623 852.809 166.639 852.809 166.671 852.809C167.512 852.809 168.194 852.191 168.225 851.413L172.175 749.543C172.175 749.543 172.175 749.432 172.175 749.368H179.267C179.235 749.479 179.203 749.606 179.203 749.733V851.366C179.203 852.159 179.901 852.809 180.758 852.809C180.789 852.809 180.805 852.809 180.837 852.809V853H204.41V852.682C204.95 852.445 205.314 851.937 205.299 851.366L204.41 806.109V749.4H210.407C210.407 749.4 210.407 749.527 210.407 749.59L215.308 851.461C215.34 852.238 216.038 852.841 216.863 852.841C216.879 852.841 216.911 852.841 216.927 852.841C217.783 852.809 218.449 852.127 218.418 851.334L213.516 749.463C213.516 749.463 213.516 749.432 213.516 749.4H219.1L230.569 851.54C230.649 852.286 231.331 852.825 232.108 852.825C232.156 852.825 232.219 852.825 232.267 852.825L253.603 852.794C253.603 852.794 253.746 852.825 253.825 852.825C253.936 852.825 254.063 852.825 254.174 852.794C255.015 852.619 255.538 851.842 255.348 851.064L222.479 717.198C222.479 717.198 222.447 717.119 222.431 717.087L249.907 677.97L260.028 679.239C260.028 679.239 260.171 679.239 260.234 679.239C260.393 679.239 260.551 679.207 260.71 679.159C262.058 680.365 264.565 681.967 269.022 683.109C273.813 684.346 280.761 681.856 280.761 681.856C280.793 681.856 278.398 677.589 271.481 676.018L271.465 675.987ZM261.582 666.723C262.011 666.644 262.423 666.517 262.852 666.39C262.566 666.723 262.312 667.056 262.09 667.405C259.52 671.529 259.092 674.48 259.139 676.161L245.259 674.432L251.937 666.596C253.682 667.151 256.776 667.627 261.582 666.739V666.723ZM247.226 655.349C247.448 655.191 247.654 655 247.861 654.81C247.813 655.08 247.781 655.365 247.765 655.635C247.48 660.52 248.606 663.376 249.479 664.803L243.387 671.958L239.072 659.378C240.912 659.029 243.72 658.03 247.226 655.349ZM239.834 671.101L240.881 674.163L210.2 716.009H199.08C200.904 715.739 203.363 715.025 206.393 713.391C210.121 711.377 212.659 705.809 213.278 704.349L239.818 671.101H239.834ZM154.551 746.449L155.804 741.548H225.255L226.461 746.449H154.567H154.551ZM158.485 731.078L159.691 726.399H221.527L222.669 731.078H158.485ZM190.942 710.568C192.592 713.931 194.464 715.342 195.273 715.834C195.257 715.898 195.241 715.929 195.241 715.929C195.241 715.929 195.352 715.961 195.543 716.009H187.087C187.88 715.438 189.594 713.915 190.958 710.568H190.942ZM170.319 703.937C176.522 706.776 180.202 706.158 181.297 705.872L181.313 705.904C181.313 705.904 181.376 705.872 181.472 705.809C181.583 705.777 181.646 705.745 181.646 705.745C181.646 705.745 181.646 705.714 181.63 705.714C182.55 705.111 185.342 702.795 186.77 696.529C187.167 694.768 186.929 692.754 186.5 690.945C188.658 692.436 190.308 692.849 190.99 692.96C190.99 692.976 190.99 693.008 190.99 693.008C190.99 693.008 191.053 693.008 191.164 693.008C191.275 693.008 191.339 693.008 191.339 693.008C191.339 693.008 191.339 692.976 191.339 692.96C191.878 692.881 192.973 692.611 194.432 691.818C194.353 693.119 194.432 694.435 194.781 695.609C196.653 701.764 199.619 703.889 200.587 704.445V704.492C200.587 704.492 200.651 704.508 200.762 704.54C200.857 704.587 200.92 704.619 200.92 704.619C200.92 704.619 200.92 704.603 200.936 704.587C201.999 704.809 205.505 705.143 211.089 702.287L209.851 703.842C207.995 704.254 205.521 705.174 202.634 706.856C200.048 708.363 198.208 710.615 197.018 712.519C197.589 710.377 197.97 707.538 197.224 704.794C195.511 698.401 190.894 696.196 190.894 696.228C190.894 696.228 190.72 696.656 190.482 697.37C190.181 696.656 189.959 696.212 189.959 696.212C189.959 696.18 185.501 698.686 184.279 705.158C183.708 708.141 184.422 711.107 185.199 713.248C183.867 711.361 181.773 709.013 178.902 707.585C175.888 706.094 173.191 705.714 171.208 705.714L169.304 703.429C169.637 703.636 169.97 703.826 170.319 703.985V703.937ZM168.035 706.586C168.892 708.014 171.874 712.614 175.634 714.343C177.426 715.168 178.997 715.691 180.377 716.024H170.066L137.641 675.733L138.989 671.783L168.035 706.602V706.586ZM139.433 660.933L135.118 673.512L129.027 666.358C129.899 664.93 131.041 662.075 130.74 657.189C130.724 656.92 130.692 656.634 130.645 656.364C130.851 656.555 131.057 656.729 131.279 656.904C134.769 659.569 137.577 660.568 139.433 660.933ZM126.584 668.151L133.262 675.987L119.382 677.716C119.429 676.05 119.001 673.084 116.431 668.96C116.209 668.611 115.955 668.277 115.67 667.944C116.098 668.087 116.51 668.198 116.939 668.277C121.745 669.166 124.839 668.69 126.584 668.135V668.151ZM135.531 678.62C135.689 678.604 135.832 678.557 135.975 678.493L166.179 716.024H162.039C161.991 715.802 161.912 715.58 161.753 715.39L132.025 679.048L135.531 678.604V678.62ZM219.385 716.009H213.96L242.594 676.938C242.721 676.986 242.848 677.018 242.975 677.034L246.449 677.462L219.385 715.993V716.009Z" fill="#F2522E" fill-opacity="0.7"/>
<path d="M130.167 627.272C124.837 622.926 119.681 623.528 119.697 623.56C119.697 623.56 121.474 630.254 125.313 633.189C130.643 637.265 134.387 637.456 135.513 637.392V637.44C135.513 637.44 135.577 637.44 135.688 637.392C135.799 637.392 135.862 637.377 135.862 637.377C135.862 637.377 135.862 637.345 135.862 637.329C136.909 636.932 140.209 635.267 143.128 629.477C145.238 625.305 143.731 618.547 143.731 618.547C143.731 618.516 138.781 620.007 135.989 626.05C134.704 628.826 134.657 631.872 134.895 634.125C134.07 631.999 132.61 629.271 130.167 627.272Z" fill="#F2522E" fill-opacity="0.7"/>
<path d="M145.968 641.089C148.077 636.917 146.57 630.159 146.57 630.159C146.57 630.127 141.621 631.619 138.829 637.662C137.544 640.438 137.496 643.484 137.734 645.736C136.91 643.611 135.45 640.882 133.007 638.884C127.677 634.537 122.521 635.14 122.537 635.172C122.537 635.172 124.314 641.866 128.153 644.801C133.483 648.877 137.227 649.068 138.353 649.004V649.052C138.353 649.052 138.417 649.052 138.528 649.004C138.639 649.004 138.702 648.988 138.702 648.988C138.702 648.988 138.702 648.957 138.702 648.941C139.749 648.544 143.049 646.879 145.968 641.089Z" fill="#F2522E" fill-opacity="0.7"/>
<path d="M118.779 612.837C118.779 612.837 118.795 612.869 118.811 612.9C119.413 615.105 120.793 619.087 123.316 621.292C128.186 625.575 131.834 626.098 133.088 626.146C133.104 626.193 133.119 626.225 133.119 626.225C133.119 626.225 133.199 626.193 133.326 626.146C133.468 626.146 133.548 626.146 133.548 626.146C133.548 626.146 133.548 626.114 133.548 626.051C134.658 625.511 137.704 623.592 140.115 617.786C141.908 613.487 139.877 606.841 139.877 606.841L136.514 593.04C136.451 592.77 136.181 592.596 135.927 592.644C135.673 592.691 135.515 592.961 135.594 593.23L139.005 607.253C138.132 607.729 136.752 608.665 135.404 610.251L130.803 591.39C130.708 591.01 130.439 590.756 130.185 590.803C129.931 590.851 129.804 591.2 129.883 591.581L134.658 611.203C134.293 611.711 133.944 612.266 133.611 612.884C133.643 611.679 133.548 610.426 133.215 609.188C131.914 604.382 128.995 601.939 127.615 601.051L124.426 587.98C124.331 587.599 124.061 587.345 123.808 587.393C123.554 587.441 123.427 587.79 123.506 588.17L126.663 601.146C126.076 602.764 124.442 607.824 125.568 611.504C125.854 612.424 126.155 613.233 126.473 613.979C125.838 613.551 125.219 613.186 124.617 612.869L120.064 594.15C119.969 593.77 119.699 593.516 119.445 593.564C119.191 593.611 119.064 593.96 119.144 594.341L123.538 612.361C121.793 611.647 120.318 611.393 119.397 611.314L115.987 597.291C115.923 597.022 115.67 596.847 115.416 596.911C115.162 596.958 115.003 597.228 115.067 597.498L118.795 612.821L118.779 612.837ZM131.946 620.546C131.914 620.451 131.866 620.372 131.819 620.277C131.85 620.213 131.882 620.134 131.914 620.054C131.914 620.213 131.914 620.388 131.93 620.546H131.946Z" fill="#F2522E" fill-opacity="0.7"/>
<path d="M108.482 646.625C106.674 645.118 103.993 643.341 100.804 642.659C93.8876 641.152 89.652 643.944 89.6838 643.975C89.6838 643.975 94.6649 649.099 99.5509 650.003C106.325 651.256 109.719 649.797 110.687 649.242L110.719 649.274C110.719 649.274 110.766 649.226 110.846 649.147C110.941 649.083 110.989 649.052 110.989 649.052C110.989 649.052 110.973 649.036 110.957 649.02C111.671 648.211 113.733 645.308 113.352 638.915C113.083 634.315 108.308 629.017 108.308 629.017C108.292 628.985 104.691 632.459 105.325 639.026C105.611 642.04 107.118 644.737 108.482 646.625Z" fill="#F2522E" fill-opacity="0.7"/>
<path d="M116.906 655.619C115.097 654.112 112.417 652.335 109.228 651.653C102.311 650.146 98.0759 652.938 98.1076 652.97C98.1076 652.97 103.089 658.093 107.975 658.997C114.748 660.251 118.143 658.791 119.111 658.236L119.143 658.268C119.143 658.268 119.19 658.22 119.27 658.141C119.365 658.077 119.412 658.046 119.412 658.046C119.412 658.046 119.396 658.03 119.381 658.014C120.094 657.205 122.157 654.302 121.776 647.909C121.506 643.309 116.731 638.011 116.731 638.011C116.716 637.979 113.115 641.453 113.749 648.02C114.035 651.034 115.542 653.731 116.906 655.619Z" fill="#F2522E" fill-opacity="0.7"/>
<path d="M83.419 634.902C83.419 634.902 83.4508 634.934 83.4666 634.95C85.1164 636.631 88.3685 639.534 91.7157 640.375C98.188 642.025 101.678 640.882 102.804 640.375C102.852 640.407 102.868 640.438 102.868 640.438C102.868 640.438 102.915 640.375 103.011 640.28C103.137 640.216 103.201 640.169 103.201 640.169C103.201 640.169 103.185 640.137 103.153 640.089C103.851 639.138 105.565 636.108 104.724 629.937C104.105 625.369 98.9336 620.404 98.9336 620.404L88.9237 609.712C88.7333 609.506 88.4002 609.458 88.2098 609.617C88.0195 609.776 88.0195 610.077 88.2098 610.283L98.3784 621.149C97.8549 621.942 97.1093 623.37 96.7286 625.369L83.0542 610.759C82.7845 610.473 82.4038 610.362 82.2134 610.521C82.023 610.68 82.0706 611.045 82.3403 611.33L96.5699 626.527C96.5065 627.129 96.4906 627.78 96.5065 628.462C95.9195 627.383 95.1898 626.32 94.2697 625.385C90.6687 621.72 86.8456 620.848 85.1799 620.657L75.7094 610.537C75.4397 610.251 75.059 610.14 74.8686 610.299C74.6782 610.458 74.7258 610.822 74.9955 611.108L84.4026 621.165C84.704 622.846 85.8462 628.018 88.7333 630.762C89.4472 631.444 90.1293 632.031 90.7956 632.554C90.0183 632.443 89.2727 632.396 88.5906 632.396L75.0272 617.897C74.7575 617.612 74.3768 617.501 74.1865 617.659C73.9961 617.818 74.0437 618.183 74.3134 618.468L87.3849 632.428C85.4813 632.554 84.0377 632.983 83.2128 633.316L73.0443 622.45C72.8539 622.244 72.5366 622.196 72.3304 622.355C72.1401 622.513 72.1242 622.815 72.3304 623.021L83.4508 634.886L83.419 634.902ZM98.9495 635.933C98.8701 635.87 98.7908 635.806 98.7115 635.759C98.7115 635.695 98.7115 635.6 98.6798 635.521C98.775 635.664 98.8543 635.806 98.9495 635.949V635.933Z" fill="#F2522E" fill-opacity="0.7"/>
<path d="M73.3931 670.292C79.9765 669.039 82.5305 666.58 83.2761 665.66C83.3395 665.66 83.3713 665.692 83.3713 665.692C83.3713 665.692 83.3871 665.613 83.4188 665.486C83.4982 665.375 83.5458 665.311 83.5458 665.311C83.5458 665.311 83.514 665.295 83.4664 665.264C83.6251 664.121 83.6727 660.695 79.913 655.54C77.121 651.717 70.0935 649.448 70.0935 649.448L55.9432 644.103C55.6576 643.992 55.3562 644.103 55.2611 644.325C55.1659 644.547 55.3086 644.816 55.5942 644.928L69.9666 650.353C69.8872 651.288 69.919 652.875 70.5535 654.81L51.2158 647.497C50.8351 647.355 50.4385 647.418 50.3434 647.64C50.2482 647.862 50.4703 648.164 50.851 648.306L70.966 655.905C71.2039 656.476 71.5053 657.063 71.8543 657.665C70.8073 656.952 69.6493 656.317 68.3485 655.857C63.3515 654.096 59.5125 654.921 57.9261 655.46L44.5214 650.4C44.1407 650.257 43.7441 650.321 43.6489 650.543C43.5538 650.765 43.7758 651.066 44.1566 651.209L57.4661 656.238C58.5607 657.602 62.1141 661.742 66.0165 662.995C66.9842 663.312 67.8884 663.55 68.7292 663.725C67.9836 663.963 67.3015 664.217 66.6828 664.502L47.5038 657.253C47.1231 657.11 46.7265 657.174 46.6313 657.396C46.5361 657.618 46.7582 657.919 47.1389 658.062L65.6199 665.042C63.986 665.946 62.9073 666.929 62.3203 667.58L47.948 662.155C47.6783 662.043 47.3769 662.155 47.2658 662.377C47.1706 662.599 47.3134 662.868 47.5831 662.964L63.288 668.896C63.288 668.896 63.3356 668.896 63.3515 668.896C65.6517 669.705 69.9507 670.927 73.3614 670.292H73.3931ZM77.3748 663.249C77.3748 663.249 77.2797 663.122 77.2321 663.043C77.3748 663.138 77.5335 663.217 77.6762 663.312C77.5811 663.297 77.47 663.281 77.3748 663.249Z" fill="#F2522E" fill-opacity="0.7"/>
<path d="M94.649 670.26H94.6966C94.6966 670.26 94.7125 670.196 94.7442 670.101C94.8077 670.006 94.8235 669.958 94.8235 669.958C94.8235 669.958 94.7918 669.958 94.776 669.943C95.0298 668.911 95.4422 665.469 91.984 659.933C89.4934 655.952 82.6403 653.223 82.6403 653.223C82.6086 653.207 81.1016 657.808 84.8612 663.391C86.5904 665.961 89.2554 667.738 91.3812 668.848C89.0333 668.261 85.7813 667.801 82.6086 668.515C75.708 670.069 73.2967 674.337 73.3284 674.352C73.3284 674.352 80.2767 676.843 85.0675 675.606C91.7302 673.892 94.0304 671.148 94.6332 670.26H94.649Z" fill="#F2522E" fill-opacity="0.7"/>
<path d="M106.563 674.765H106.611C106.611 674.765 106.627 674.702 106.658 674.607C106.722 674.511 106.738 674.464 106.738 674.464C106.738 674.464 106.706 674.464 106.69 674.448C106.944 673.417 107.356 669.975 103.898 664.439C101.407 660.457 94.5544 657.729 94.5544 657.729C94.5227 657.713 93.0156 662.313 96.7753 667.897C98.5044 670.466 101.17 672.243 103.295 673.353C100.947 672.767 97.6954 672.306 94.5227 673.02C87.622 674.575 85.2108 678.842 85.2425 678.858C85.2425 678.858 92.1907 681.348 96.9815 680.111C103.644 678.398 105.944 675.654 106.547 674.765H106.563Z" fill="#F2522E" fill-opacity="0.7"/>
<path d="M161.864 605.143C160.627 603.208 158.644 600.765 155.836 599.226C149.729 595.864 144.779 597.355 144.795 597.386C144.795 597.386 147.888 603.668 152.251 605.889C158.311 608.982 162.023 608.522 163.117 608.268V608.3C163.117 608.3 163.197 608.268 163.292 608.221C163.403 608.189 163.466 608.173 163.466 608.173C163.466 608.173 163.466 608.141 163.45 608.141C164.402 607.57 167.305 605.381 169.019 599.179C170.256 594.721 167.416 588.345 167.416 588.345C167.416 588.313 162.848 590.629 161.325 597.053C160.627 600.004 161.182 603.002 161.864 605.175V605.143Z" fill="#F2522E" fill-opacity="0.7"/>
<path d="M166.972 616.073C165.734 614.138 163.751 611.695 160.943 610.156C154.836 606.793 149.887 608.284 149.902 608.316C149.902 608.316 152.996 614.598 157.358 616.819C163.418 619.912 167.13 619.452 168.225 619.198L168.241 619.23C168.241 619.23 168.304 619.198 168.399 619.15C168.51 619.119 168.574 619.103 168.574 619.103C168.574 619.103 168.574 619.071 168.558 619.071C169.51 618.5 172.413 616.311 174.126 610.109C175.363 605.651 172.524 599.274 172.524 599.274C172.524 599.243 167.955 601.558 166.432 607.983C165.734 610.933 166.289 613.931 166.972 616.105V616.073Z" fill="#F2522E" fill-opacity="0.7"/>
<path d="M172.128 627.558C170.89 625.622 168.908 623.18 166.1 621.641C159.992 618.278 155.043 619.769 155.059 619.801C155.059 619.801 158.152 626.082 162.515 628.303C167.178 630.683 170.446 630.952 172.207 630.841C172.239 631.047 172.334 631.254 172.477 631.428L179.996 641.089C180.044 643.309 180.393 647.64 182.376 650.4C186.104 655.571 189.546 656.825 190.752 657.126C190.752 657.173 190.752 657.221 190.752 657.221C190.752 657.221 190.831 657.221 190.974 657.189C191.116 657.221 191.196 657.221 191.196 657.221C191.196 657.221 191.196 657.189 191.196 657.126C192.401 656.825 195.844 655.571 199.572 650.4C201.095 648.306 201.65 645.276 201.856 642.976L212.929 630.159C214.721 629.953 217.815 629.096 221.797 626.146C225.683 623.259 227.555 616.596 227.555 616.596C227.555 616.565 222.431 615.883 217.022 620.166C214.547 622.133 213.04 624.845 212.183 626.955C212.453 624.718 212.453 621.673 211.216 618.865C208.503 612.774 203.601 611.219 203.585 611.251C203.585 611.251 201.983 617.992 204.029 622.18C205.996 626.241 208.186 628.287 209.677 629.318L201.967 638.233V625.511C201.967 625.242 201.761 625.02 201.491 625.02C201.222 625.02 201.015 625.242 201.015 625.511V639.328L200.333 640.121C199.492 640.422 198.414 640.946 197.224 641.755V623.291C197.224 622.91 197.018 622.593 196.748 622.593C196.478 622.593 196.272 622.91 196.272 623.291V642.469C195.749 642.897 195.241 643.373 194.718 643.928C194.844 643.135 194.955 642.278 195.003 641.327C195.146 638.963 194.131 636.314 193.099 634.268V618.69C194.813 618.056 197.509 616.549 200.524 612.932C203.569 609.284 203.712 602.399 203.712 602.399C203.712 602.368 198.541 602.812 194.368 608.142C192.449 610.584 191.688 613.551 191.386 615.787C191.085 613.551 190.307 610.584 188.404 608.142C184.232 602.812 179.06 602.352 179.06 602.399C179.06 602.399 179.203 609.3 182.249 612.932C185.279 616.565 187.991 618.072 189.705 618.706V632.523C188.547 634.046 187.103 636.71 187.008 640.613C186.976 641.898 187.182 643.135 187.5 644.293C187.024 643.754 186.564 643.294 186.088 642.865V622.751C186.088 622.371 185.882 622.053 185.612 622.053C185.342 622.053 185.136 622.371 185.136 622.751V642.088C184.723 641.771 184.311 641.501 183.914 641.263L180.9 637.393V625.527C180.9 625.242 180.694 625.02 180.424 625.02C180.155 625.02 179.949 625.242 179.949 625.527V636.171L174.936 629.731C174.936 629.731 174.872 629.667 174.84 629.62C176.141 628.414 177.997 626.035 179.235 621.562C180.472 617.104 177.632 610.727 177.632 610.727C177.632 610.695 173.064 613.011 171.541 619.436C170.843 622.386 171.398 625.384 172.08 627.558H172.128ZM191.005 651.415C190.974 651.257 190.942 651.098 190.91 650.924C190.974 651.003 191.021 651.066 191.069 651.13C191.053 651.225 191.037 651.32 191.005 651.415Z" fill="#F2522E" fill-opacity="0.7"/>
<path d="M140.464 585.823C140.464 585.823 143.066 592.295 147.254 594.785C152.901 598.148 156.597 598.037 157.819 597.863C157.85 597.91 157.866 597.942 157.866 597.942C157.866 597.942 157.93 597.91 158.057 597.831C158.199 597.799 158.279 597.783 158.279 597.783C158.279 597.783 158.279 597.752 158.247 597.704C159.231 596.99 161.832 594.579 163.038 588.456C163.656 585.283 162.245 581.334 161.325 579.224C161.325 579.208 161.325 579.176 161.325 579.16L154.583 564.741C154.471 564.487 154.17 564.36 153.932 564.456C153.694 564.551 153.599 564.836 153.71 565.09L159.881 578.272C159.199 578.827 158.152 579.842 157.2 581.365L149.268 564.424C149.11 564.075 148.776 563.869 148.538 563.964C148.301 564.059 148.237 564.424 148.396 564.773L156.629 582.381C156.343 582.952 156.058 583.586 155.836 584.284C155.614 583.507 155.344 582.682 154.979 581.794C153.551 578.209 148.999 575.004 147.507 574.021L141.796 561.806C141.638 561.457 141.305 561.251 141.067 561.346C140.829 561.442 140.765 561.806 140.924 562.155L146.682 574.449C146.143 575.924 145.318 579.493 147.349 584.078C147.872 585.268 148.586 586.33 149.379 587.282C148.713 586.965 148.078 586.711 147.46 586.489L138.814 568.025C138.655 567.676 138.322 567.469 138.084 567.565C137.846 567.66 137.783 568.025 137.942 568.374L146.238 586.108C144.128 585.553 142.415 585.569 141.416 585.648L135.245 572.466C135.118 572.212 134.832 572.086 134.594 572.181C134.356 572.276 134.261 572.561 134.372 572.815L140.448 585.807L140.464 585.823ZM155.582 592.564C155.487 592.422 155.392 592.295 155.28 592.152C155.36 592.2 155.439 592.247 155.503 592.279C155.518 592.374 155.55 592.469 155.566 592.564H155.582Z" fill="#F2522E" fill-opacity="0.7"/>
<path d="M220.068 595.245V595.34C220.068 595.34 220.147 595.34 220.29 595.34C220.417 595.404 220.496 595.42 220.496 595.42C220.496 595.42 220.496 595.388 220.528 595.34C221.765 595.309 225.43 594.833 230.363 590.613C232.917 588.424 234.361 584.474 234.995 582.269C234.995 582.253 235.011 582.238 235.027 582.206L238.993 566.93C239.056 566.66 238.914 566.407 238.66 566.343C238.406 566.28 238.152 566.454 238.073 566.724L234.44 580.699C233.536 580.762 232.045 580.984 230.284 581.682L234.948 563.726C235.043 563.361 234.916 563.012 234.662 562.948C234.408 562.885 234.123 563.155 234.028 563.52L229.189 582.174C228.586 582.476 227.952 582.825 227.301 583.253C227.635 582.507 227.952 581.698 228.237 580.794C229.427 577.13 227.873 572.054 227.301 570.436L230.665 557.492C230.76 557.127 230.633 556.778 230.379 556.714C230.125 556.651 229.84 556.921 229.744 557.285L226.366 570.309C224.97 571.181 222.003 573.592 220.639 578.367C220.29 579.604 220.163 580.858 220.179 582.047C219.861 581.429 219.512 580.858 219.163 580.35L224.24 560.791C224.335 560.426 224.208 560.077 223.954 560.014C223.7 559.95 223.415 560.22 223.32 560.585L218.434 579.382C217.101 577.764 215.721 576.813 214.864 576.337L218.497 562.362C218.561 562.092 218.418 561.822 218.164 561.775C217.91 561.711 217.641 561.886 217.577 562.155L214.008 575.908C214.008 575.908 211.882 582.523 213.611 586.838C215.927 592.675 218.957 594.642 220.052 595.182L220.068 595.245ZM221.844 589.503C221.797 589.598 221.765 589.677 221.717 589.772C221.717 589.614 221.733 589.439 221.749 589.281C221.781 589.36 221.813 589.439 221.844 589.503Z" fill="#F2522E" fill-opacity="0.7"/>
<path d="M217.545 606.508V606.555C217.545 606.555 217.608 606.555 217.719 606.571C217.83 606.603 217.894 606.619 217.894 606.619C217.894 606.619 217.894 606.587 217.894 606.571C219.02 606.634 222.764 606.508 228.157 602.494C232.044 599.607 233.916 592.945 233.916 592.945C233.916 592.913 228.792 592.231 223.382 596.514C220.908 598.481 219.401 601.194 218.544 603.303C218.814 601.067 218.814 598.021 217.576 595.213C214.864 589.122 209.962 587.567 209.946 587.599C209.946 587.599 208.344 594.341 210.374 598.529C213.214 604.366 216.482 606.063 217.529 606.476L217.545 606.508Z" fill="#F2522E" fill-opacity="0.7"/>
<path d="M214.547 618.087V618.135C214.547 618.135 214.61 618.135 214.721 618.151C214.832 618.183 214.896 618.198 214.896 618.198C214.896 618.198 214.896 618.167 214.896 618.151C216.022 618.214 219.766 618.087 225.159 614.074C229.046 611.187 230.918 604.525 230.918 604.525C230.918 604.493 225.794 603.811 220.384 608.094C217.91 610.061 216.403 612.773 215.546 614.883C215.816 612.646 215.816 609.601 214.578 606.793C211.866 600.702 206.964 599.147 206.948 599.179C206.948 599.179 205.346 605.921 207.376 610.108C210.216 615.946 213.484 617.643 214.531 618.056L214.547 618.087Z" fill="#F2522E" fill-opacity="0.7"/>
<path d="M191.053 583.269V583.364C191.053 583.364 191.133 583.364 191.275 583.332C191.418 583.364 191.498 583.364 191.498 583.364C191.498 583.364 191.498 583.332 191.498 583.269C192.703 582.967 196.146 581.714 199.873 576.543C201.809 573.862 202.205 569.706 202.269 567.437C202.269 567.422 202.269 567.39 202.269 567.374V551.67C202.269 551.4 202.063 551.178 201.793 551.178C201.523 551.178 201.317 551.4 201.317 551.67V566.042C200.445 566.295 199.064 566.851 197.526 567.898V549.433C197.526 549.053 197.319 548.735 197.05 548.735C196.78 548.735 196.574 549.053 196.574 549.433V568.611C196.05 569.04 195.543 569.516 195.019 570.071C195.146 569.278 195.257 568.421 195.305 567.469C195.527 563.646 192.735 559.046 191.783 557.587V544.294C191.783 543.913 191.577 543.596 191.307 543.596C191.037 543.596 190.831 543.913 190.831 544.294V557.682C189.705 558.84 187.421 561.806 187.294 566.771C187.262 568.056 187.468 569.293 187.785 570.451C187.31 569.912 186.85 569.452 186.374 569.024V548.91C186.374 548.529 186.167 548.212 185.898 548.212C185.628 548.212 185.422 548.529 185.422 548.91V568.246C183.724 566.962 182.138 566.343 181.186 566.057V551.686C181.186 551.4 180.98 551.178 180.71 551.178C180.441 551.178 180.234 551.4 180.234 551.686V565.835C180.234 565.835 179.838 572.72 182.614 576.559C186.342 581.73 189.784 582.983 190.99 583.284L191.053 583.269ZM191.355 577.304C191.339 577.399 191.323 577.495 191.291 577.59C191.26 577.431 191.228 577.272 191.196 577.098C191.26 577.177 191.307 577.241 191.355 577.304Z" fill="#F2522E" fill-opacity="0.7"/>
<path d="M191.466 594.769V594.817C191.466 594.817 191.529 594.817 191.64 594.817C191.751 594.817 191.815 594.817 191.815 594.817C191.815 594.817 191.815 594.785 191.815 594.769C192.925 594.595 196.542 593.643 200.778 588.583C203.824 584.934 203.966 578.05 203.966 578.05C203.966 578.018 198.795 578.462 194.623 583.792C192.703 586.235 191.942 589.201 191.64 591.438C191.339 589.201 190.562 586.235 188.658 583.792C184.486 578.462 179.314 578.002 179.314 578.05C179.314 578.05 179.457 584.95 182.503 588.583C186.739 593.643 190.34 594.595 191.466 594.769Z" fill="#F2522E" fill-opacity="0.7"/>
<path d="M191.466 606.666V606.714C191.466 606.714 191.529 606.714 191.64 606.714C191.751 606.714 191.815 606.714 191.815 606.714C191.815 606.714 191.815 606.682 191.815 606.666C192.925 606.492 196.542 605.54 200.778 600.48C203.824 596.831 203.966 589.947 203.966 589.947C203.966 589.915 198.795 590.359 194.623 595.689C192.703 598.132 191.942 601.098 191.64 603.335C191.339 601.098 190.562 598.132 188.658 595.689C184.486 590.359 179.314 589.899 179.314 589.947C179.314 589.947 179.457 596.847 182.503 600.48C186.739 605.54 190.34 606.492 191.466 606.666Z" fill="#F2522E" fill-opacity="0.7"/>
<g clip-path="url(#clip1_1_8050)">
<path d="M106.649 239.38C107.732 240.028 108.814 240.675 109.912 241.312L110.004 241.18C111.143 241.379 112.282 241.577 113.415 241.734L114.372 236.383L113.669 234.86C113.915 234.92 114.165 234.885 114.303 234.722C114.473 234.537 114.459 234.25 114.324 233.955L117.527 233.307L158.303 203.235L158.5 203.19L158.526 203.127L158.615 203.158L158.584 203.179L161.083 254.032L162.565 256.957C162.217 257.014 161.938 257.205 161.9 257.482C161.861 257.691 161.983 257.903 162.21 258.067L160.394 258.378L156.584 262.359C157.376 263.115 158.173 263.844 158.98 264.589L158.93 264.715C159.029 264.76 159.144 264.795 159.244 264.841C159.276 264.887 159.313 264.908 159.36 264.944L159.407 264.912C160.413 265.315 161.434 265.708 162.456 266.101L162.573 265.838L162.579 266.313C163.845 266.264 165.111 266.216 166.367 266.152L166.37 265.99C167.427 265.538 168.489 265.06 169.526 264.577L167.39 259.571L165.976 258.673C166.236 258.586 166.4 258.427 166.429 258.203C166.462 257.952 166.302 257.72 166.035 257.562L168.371 255.252L185.952 207.985L211.286 250.258L213.974 252.15C213.68 252.352 213.538 252.677 213.641 252.926C213.711 253.129 213.916 253.261 214.177 253.31L212.722 254.445L211.223 259.735C212.264 260.023 213.336 260.29 214.393 260.568L214.41 260.692C214.519 260.686 214.644 260.668 214.754 260.662C214.806 260.672 214.843 260.692 214.895 260.702L214.905 260.649C215.993 260.541 217.086 260.406 218.179 260.272L218.149 259.996L218.384 260.404C219.475 259.769 220.567 259.134 221.637 258.468L221.552 258.344C222.275 257.438 222.988 256.516 223.685 255.605L219.454 252.196L217.774 252.073C217.959 251.878 218.029 251.647 217.958 251.445C217.882 251.201 217.609 251.069 217.301 251.053L218.261 247.933L212.575 205.989L211.061 203.783L215.385 200.816L215.931 201.612L252.893 222.327L256.16 222.637C256.018 222.962 256.049 223.306 256.244 223.491C256.408 223.63 256.648 223.647 256.897 223.545L256.2 225.253L257.531 230.583C258.596 230.308 259.635 230.028 260.69 229.738L260.764 229.846C260.857 229.782 260.95 229.719 261.059 229.644C261.09 229.623 261.157 229.622 261.199 229.616L261.167 229.57C262.071 228.927 262.964 228.268 263.831 227.605L263.672 227.373L264.071 227.623C264.708 226.525 265.33 225.438 265.93 224.319L265.783 224.238C265.956 223.094 266.129 221.95 266.275 220.802L260.905 219.952L259.392 220.67C259.441 220.409 259.402 220.186 259.227 220.032C259.043 219.862 258.756 219.876 258.472 220.026L257.768 216.841L228.034 178.088L276.959 178.631L279.971 177.34C280.012 177.699 280.188 177.988 280.449 178.037C280.658 178.076 280.881 177.968 281.04 177.768L281.252 179.605L284.975 183.636C285.778 182.88 286.566 182.134 287.343 181.373L287.453 181.434C287.499 181.335 287.544 181.235 287.606 181.125C287.652 181.093 287.683 181.072 287.719 181.024L287.687 180.978C288.154 179.997 288.61 179 289.066 178.004L288.804 177.888L289.273 177.907C289.319 176.645 289.339 175.378 289.332 174.107L289.171 174.104C288.766 173.015 288.371 171.941 287.95 170.863L282.839 172.683L281.856 174.041C281.78 173.797 281.626 173.606 281.407 173.552C281.161 173.493 280.928 173.652 280.744 173.915L278.58 171.458L233.785 151.652L275.85 128.01L277.812 125.387C278.014 125.682 278.323 125.834 278.567 125.758C278.77 125.687 278.903 125.482 278.962 125.236L280.05 126.723L285.3 128.361C285.615 127.325 285.919 126.273 286.223 125.222L286.359 125.22C286.352 125.11 286.335 124.986 286.328 124.876C286.338 124.824 286.358 124.787 286.368 124.735L286.316 124.725C286.234 123.642 286.141 122.544 286.033 121.456L285.747 121.47L286.166 121.251C285.562 120.138 284.943 119.036 284.324 117.935L284.2 118.02C283.314 117.26 282.423 116.527 281.517 115.804L277.99 119.933L277.825 121.619C277.63 121.434 277.404 121.338 277.202 121.408C276.958 121.485 276.815 121.742 276.798 122.05L273.709 121.002L224.688 126.266L249.875 83.3058L250.238 80.0485C250.563 80.19 250.902 80.1854 251.077 79.9746C251.215 79.8112 251.233 79.5712 251.157 79.3272L252.845 80.0602L258.198 78.8256C257.95 77.7656 257.675 76.7009 257.411 75.6516L257.519 75.5771C257.456 75.4842 257.392 75.3912 257.317 75.2827C257.296 75.2518 257.295 75.184 257.289 75.1424L257.243 75.1743C256.616 74.2602 255.973 73.3567 255.326 72.4794L255.093 72.6389L255.343 72.2394C254.261 71.5921 253.179 70.9447 252.081 70.308L251.989 70.4396C250.85 70.2412 249.721 70.0584 248.562 69.8968L247.605 75.2471L248.308 76.77C248.062 76.7108 247.813 76.7454 247.674 76.9089C247.504 77.0936 247.503 77.3907 247.653 77.6753L244.45 78.3232L204.521 107.769L204.619 58.2101L203.298 55.2205C203.657 55.1792 203.946 55.0033 203.995 54.742C204.034 54.533 203.927 54.3103 203.727 54.1515L205.564 53.939L209.565 50.1687C208.819 49.3813 208.048 48.589 207.272 47.8229L207.322 47.6971C207.222 47.6515 207.112 47.5905 206.997 47.5555C206.965 47.5091 206.944 47.4781 206.896 47.4422L206.85 47.4741C205.853 47.0185 204.857 46.5628 203.871 46.1227L203.755 46.3849L203.764 45.9C202.497 45.8806 201.23 45.8612 199.969 45.8835L199.966 46.0451C198.876 46.4507 197.813 46.8612 196.734 47.2823L198.595 52.386L199.968 53.3578C199.724 53.4341 199.533 53.5878 199.479 53.8075C199.419 54.0532 199.589 54.3011 199.842 54.4697L197.394 56.6502L177.6 102.519L152.433 59.0606L149.776 57.1472C150.07 56.9451 150.222 56.6355 150.136 56.3761C150.065 56.1738 149.86 56.041 149.599 55.9924L151.075 54.8884L152.638 49.6238C151.586 49.32 150.545 49.0318 149.477 48.7387L149.476 48.6032C149.366 48.6099 149.241 48.6272 149.132 48.6339C149.08 48.6242 149.043 48.6038 148.991 48.5941L148.981 48.6463C147.893 48.7548 146.794 48.8479 145.717 48.9719L145.731 49.2583L145.496 48.8498C144.394 49.4692 143.292 50.0888 142.211 50.7392L142.296 50.8632C141.547 51.7646 140.823 52.6708 140.116 53.5665L144.295 57.0335L145.971 57.1829C145.786 57.3782 145.689 57.6037 145.76 57.806C145.836 58.0499 146.093 58.1924 146.401 58.2091L145.389 61.3188L151.471 111.879L151.269 112.017L107.724 86.5228L104.466 86.1603C104.608 85.8352 104.603 85.4964 104.393 85.3221C104.229 85.1836 103.989 85.1659 103.745 85.2422L104.479 83.554L103.246 78.202C102.186 78.4509 101.121 78.7259 100.071 78.9902L99.9435 78.8043C99.8505 78.8681 99.7575 78.9319 99.6645 78.9957C99.6335 79.017 99.5658 79.0179 99.5241 79.0237L99.556 79.0702C98.6416 79.6976 97.7378 80.3404 96.8601 80.9882L97.0196 81.2206L96.6201 80.9706C95.9723 82.053 95.3245 83.1355 94.6873 84.2334L94.8189 84.3255C94.6201 85.4644 94.4369 86.5928 94.2749 87.7521L99.6255 88.7066L101.149 88.0033C101.09 88.249 101.124 88.4987 101.288 88.6373C101.472 88.8068 101.769 88.808 102.054 88.6582L102.701 91.8602L132.906 132.796L83.2252 132.247L80.2135 133.538C80.1723 133.179 79.9964 132.89 79.7351 132.841C79.5261 132.802 79.3034 132.91 79.1444 133.11L78.9325 131.273L75.199 127.226C74.4112 127.972 73.6079 128.728 72.8308 129.489L72.705 129.439C72.6594 129.538 72.5983 129.649 72.5527 129.748C72.5062 129.78 72.4752 129.801 72.4393 129.849L72.4712 129.895C72.0046 130.876 71.5485 131.873 71.0925 132.869L71.3391 132.996L70.8697 132.977C70.8238 134.238 70.8039 135.505 70.8103 136.777L70.9719 136.78C71.3772 137.869 71.7719 138.943 72.1927 140.021L77.319 138.19L78.302 136.832C78.3782 137.076 78.5318 137.267 78.7515 137.321C78.9973 137.381 79.2298 137.221 79.414 136.958L81.5784 139.415L127.097 159.545L84.5768 183.454L82.6147 186.076C82.4128 185.782 82.1032 185.63 81.8592 185.706C81.6568 185.777 81.5133 185.966 81.4646 186.227L80.3764 184.741L75.1263 183.102C74.8115 184.139 74.5074 185.19 74.2032 186.242L74.0677 186.244C74.0744 186.353 74.0916 186.478 74.0983 186.587C74.0886 186.64 74.0682 186.677 74.0584 186.729L74.1107 186.738C74.2034 187.837 74.2854 188.92 74.3935 190.008L74.6801 189.994L74.2607 190.213C74.8644 191.325 75.4836 192.427 76.1028 193.529L76.2268 193.444C77.1126 194.204 78.0032 194.937 78.9093 195.66L82.4363 191.531L82.6018 189.845C82.7971 190.03 83.0225 190.126 83.2249 190.055C83.4689 189.979 83.6114 189.722 83.6282 189.414L86.7177 190.462L137.368 185.014L111.967 228.326L111.603 231.584C111.278 231.442 110.939 231.447 110.765 231.658C110.626 231.821 110.609 232.061 110.685 232.305L108.997 231.572L103.644 232.807C103.892 233.867 104.167 234.931 104.431 235.981C104.495 236.074 104.558 236.167 104.633 236.275C104.654 236.306 104.655 236.374 104.661 236.415L104.707 236.384C105.334 237.298 105.977 238.201 106.624 239.078L106.857 238.919L106.607 239.318L106.649 239.38ZM81.9776 187.972L81.9989 188.003L81.9466 187.993L81.9776 187.972ZM78.6818 134.794L78.6663 134.805L78.6556 134.789L78.6866 134.768L78.6818 134.794ZM147.83 56.2717L147.84 56.2195L147.861 56.2504L147.83 56.2717ZM201.955 53.43L201.986 53.4087L201.981 53.4349L201.966 53.4455L201.955 53.43ZM249.901 77.7961L249.932 77.7749L249.922 77.8271L249.901 77.7961ZM278.603 123.318L278.582 123.287L278.634 123.297L278.603 123.318ZM281.641 175.92L281.657 175.91L281.667 175.925L281.636 175.946L281.641 175.92ZM215.99 252.795L215.98 252.848L215.959 252.817L215.99 252.795ZM164.035 258.501L164.004 258.522L163.993 258.506L164.009 258.496L164.035 258.501ZM107.719 184.393L134.841 177.975L135.484 179.311C135.65 179.653 136.173 179.75 136.634 179.525C136.634 179.525 136.634 179.525 136.649 179.514L137.223 180.716L137.148 180.607C136.851 180.174 136.26 180.077 135.826 180.375C135.485 180.609 135.355 181.017 135.459 181.402L107.719 184.393ZM103.63 181.456L131.974 170.508L132.034 170.695C132.143 171.053 132.651 171.229 133.139 171.076C133.155 171.066 133.17 171.055 133.186 171.044L134.221 173.251C134.059 173.248 133.851 173.277 133.685 173.368C133.209 173.603 132.964 174.044 133.126 174.412L133.147 174.443L103.619 181.441L103.63 181.456ZM159.626 199.98L159.595 200.001L167.533 175.756L166.965 173.366C167.222 173.509 167.442 173.563 167.529 173.458C167.616 173.352 167.535 173.135 167.365 172.887L167.83 172.933L176.089 163.21L173.677 175.574L174.005 175.919C173.629 175.903 173.354 176.001 173.34 176.147C173.327 176.293 173.553 176.457 173.883 176.572L171.859 177.642L159.311 201.381L159.185 201.331L159.652 199.985L159.626 199.98ZM167.492 202.741L162.905 202.401L170.983 187.13L167.492 202.741ZM174.639 188.107L175.211 204.19C175.211 204.19 175.1 204.129 175.033 204.129L171.129 203.823L174.639 188.107ZM192.584 201.339L188.617 203.331L188.478 186.815L192.579 201.365L192.584 201.339ZM192.188 185.911L199.686 198.699L196.273 200.403L192.188 185.911ZM184.947 201.337L179.11 178.842L177.346 177.135C177.633 177.121 177.851 177.04 177.86 176.92C177.879 176.816 177.752 176.697 177.543 176.591L177.869 176.435L180.428 163.354L185.164 175.44L185.708 175.568C185.476 175.728 185.326 175.876 185.37 176.006C185.413 176.135 185.69 176.173 186.039 176.116L184.766 178.015L184.968 201.301L184.947 201.337ZM197.514 167.127L187.173 158.499L200.335 160.839L200.633 160.543C200.627 160.867 200.688 161.121 200.829 161.161C200.96 161.185 201.123 160.959 201.25 160.644L202.19 162.779L217.004 172.576L200.183 167.164L197.914 167.809C198.056 167.552 198.1 167.317 198.005 167.245C197.911 167.174 197.708 167.244 197.471 167.43L197.498 167.137L197.514 167.127ZM214.312 191.079L214.355 191.141L214.268 191.247C214.293 191.184 214.313 191.147 214.312 191.079ZM218.551 184.001C218.551 184.001 218.427 184.086 218.376 184.144L216.034 187.21L205.298 175.914L218.366 183.832L218.546 184.027L218.551 184.001ZM209.049 173.773L221.624 177.815L220.31 180.584L209.049 173.773ZM170.241 107.773L174.18 106.438L173.802 122.465L170.251 107.789L170.241 107.773ZM170.176 123.494L162.591 109.581L162.536 109.368L166.433 108.038L170.176 123.494ZM177.685 109.023L181.087 131.389L182.684 133.119C182.387 133.118 182.158 133.184 182.134 133.314C182.124 133.367 182.14 133.424 182.188 133.459L181.82 133.621L179.598 145.034L176.699 133.898L176.144 133.687C176.407 133.506 176.577 133.322 176.529 133.218C176.485 133.088 176.219 133.066 175.881 133.138L177.184 131.15L177.696 109.038L177.685 109.023ZM199.689 146.243C199.575 146.276 199.525 146.47 199.555 146.745L199.46 146.674L185.89 150.949L195.147 140.587L195.036 140.093C195.315 140.267 195.571 140.341 195.659 140.236C195.746 140.13 195.67 139.887 195.463 139.618L197.813 139.92L215.426 131.937L200.769 144.363L200.116 146.634C199.962 146.375 199.803 146.21 199.674 146.254L199.689 146.243ZM188.326 132.871L200.475 115.262L192.378 134.922L192.856 137.214C192.588 137.056 192.368 137.002 192.297 137.097C192.209 137.202 192.286 137.446 192.503 137.73L191.986 137.674L183.566 147.097L186.023 134.497L185.991 134.451C186.351 134.477 186.621 134.406 186.645 134.275C186.685 134.134 186.459 133.97 186.144 133.844L188.321 132.897L188.326 132.871ZM195.379 109.462L199.821 109.923L190.27 123.744L195.368 109.446L195.379 109.462ZM186.675 122.657L187.842 108.344L191.632 108.751L186.68 122.63L186.675 122.657ZM205.012 113.767L207.826 115.277L199.794 126.462L205.012 113.767ZM210.745 117.672L213.861 120.319L201.674 130.298L210.745 117.672ZM216.59 122.935C216.59 122.935 216.675 123.059 216.718 123.121L220.049 125.917L204.192 133.105L216.59 122.935ZM222.014 131.04L223.621 133.948L211.038 140.325L222.003 131.025L222.014 131.04ZM225.199 137.377L226.431 141.431L210.897 144.638L225.199 137.377ZM227.245 145.11L228.569 149.398L211.742 148.296L227.245 145.11ZM228.406 161.586L227.198 165.673L212.277 160.803L228.406 161.586ZM214.554 157.145L228.391 154.555L228.554 157.816L214.543 157.129L214.554 157.145ZM203.648 155.535L201.949 157.179C201.951 156.882 201.87 156.664 201.765 156.645C201.635 156.621 201.491 156.81 201.385 157.088L201.16 156.627L188.965 154.467L200.708 150.785L200.828 150.429C200.935 150.584 201.056 150.66 201.144 150.623C201.274 150.579 201.322 150.318 201.266 149.97L203.145 151.346L220.133 152.451L203.664 155.525L203.648 155.535ZM195.692 170.518L195.514 172.851L204.183 189.074L191.72 175.659L189.344 174.988C189.592 174.817 189.742 174.67 189.698 174.54C189.633 174.379 189.247 174.348 188.806 174.468L189.164 173.927L184.395 161.727L194.747 170.37L195.131 170.265C195.035 170.491 195.001 170.674 195.096 170.745C195.201 170.833 195.45 170.73 195.708 170.508L195.692 170.518ZM206.013 196.226L203.635 198.109L196.59 186.08L206.013 196.226ZM162.074 142.383L173.018 152.055L158.755 150.403L158.652 150.519C158.638 150.3 158.589 150.129 158.485 150.109C158.354 150.085 158.195 150.285 158.054 150.61L157.186 148.449L138.731 135.271L159.45 142.247L161.715 141.627C161.572 141.884 161.518 142.104 161.612 142.176C161.707 142.248 161.879 142.198 162.096 142.049L162.068 142.342L162.074 142.383ZM142.958 126.15L145.042 122.875L154.717 133.554L142.974 126.139L142.958 126.15ZM150.949 135.638L138.498 131.443L140.1 128.795L150.96 135.653L150.949 135.638ZM136.38 173.342L134.685 169.742L149.168 166.664L136.38 173.342ZM149.058 170.955L138.911 179.854L137.554 176.979L149.068 170.971L149.058 170.955ZM133.746 166.08L131.773 161.942L148.255 163.007L133.746 166.08ZM133.19 149.19L133.503 145.26L147.273 150.214L133.205 149.179L133.19 149.19ZM144.912 153.816L131.69 156.006L131.94 152.85L144.902 153.801L144.912 153.816ZM155.555 155.674L157.26 154.072C157.258 154.369 157.313 154.582 157.429 154.617C157.57 154.656 157.734 154.43 157.88 154.079L158.216 154.668L170.747 156.12L158.828 160.743C158.828 160.743 158.707 160.666 158.65 160.683C158.52 160.726 158.498 160.992 158.544 161.325L156.68 159.938L137.287 158.683L155.56 155.648L155.555 155.674ZM162.073 170.821L141.199 182.591L159.081 166.926L159.693 164.661C159.847 164.92 160.006 165.084 160.125 165.025C160.213 164.988 160.248 164.873 160.267 164.7L160.34 164.741L173.509 159.648L164.623 170.12L164.7 170.431C164.443 170.289 164.234 170.25 164.162 170.345C164.075 170.45 164.162 170.71 164.379 170.993L162.088 170.811L162.073 170.821ZM156.224 178.343L145.814 188.653L142.703 185.979L156.224 178.343ZM130.289 163.234L130.98 164.674C130.592 164.872 130.351 165.219 130.455 165.535L130.879 166.885L101.881 178.076L128.546 163.085C128.656 163.511 129.056 163.829 129.509 163.792C129.879 163.766 130.178 163.538 130.304 163.223L130.289 163.234ZM102.764 144.544L129.24 152.469L129.143 153.424C129.101 153.795 129.46 154.119 129.946 154.195L129.866 155.275C129.761 154.823 129.361 154.506 128.897 154.527C128.376 154.566 127.981 155.019 128.019 155.54L128.026 155.717L102.764 144.544ZM100.707 139.985L130.576 144.648L130.526 144.842C130.432 145.203 130.761 145.615 131.278 145.739C131.383 145.758 131.461 145.773 131.555 145.777L131.389 147.827C131.236 147.637 130.989 147.51 130.67 147.477C130.154 147.422 129.698 147.689 129.667 148.075L129.612 148.659L100.702 140.012L100.707 139.985ZM132.403 136.514L132.327 136.702C132.13 137.179 132.351 137.734 132.839 137.946C132.902 137.971 132.954 137.981 133.006 137.991L132.744 139.105C132.306 139.064 131.918 139.262 131.833 139.57L131.497 140.941L100.865 136.163L132.403 136.514ZM148.43 146.617L134.141 141.473L135.127 137.128L148.43 146.617ZM137.962 127.14L137.363 128.029C137.159 128.329 137.305 128.775 137.685 129.062L136.96 130.265C136.976 129.89 136.763 129.512 136.375 129.345C136.013 129.183 135.602 129.283 135.35 129.547L118.515 106.736L137.951 127.124L137.962 127.14ZM119.023 101.762L142.672 120.65L142.507 120.808C142.229 121.067 142.267 121.588 142.627 121.979C142.796 122.16 142.98 122.261 143.158 122.321L142.014 124.109C141.964 123.87 141.789 123.648 141.536 123.48C141.105 123.183 140.574 123.206 140.364 123.532L140.103 123.916L119.007 101.773L119.023 101.762ZM148.21 114.435C148.099 114.739 148.13 115.082 148.337 115.351C148.507 115.598 148.784 115.704 149.05 115.727L147.766 117.542C147.766 117.542 147.713 117.465 147.691 117.434C147.332 117.042 146.825 116.935 146.547 117.194L145.557 118.078L121.081 98.5495L148.231 114.466L148.21 114.435ZM150.48 116.979L157.435 130.937L147.94 120.453C148.033 120.39 148.104 120.295 148.192 120.189L150.495 116.968L150.48 116.979ZM170.313 133.86L172.598 134.433C172.35 134.603 172.196 134.778 172.229 134.892C172.267 134.98 172.382 135.015 172.544 135.018L176.239 149.208L164.92 139.223L164.525 139.311C164.668 139.054 164.707 138.845 164.612 138.773C164.507 138.686 164.258 138.789 164 139.011L164.267 136.709L153.595 115.274L170.297 133.87L170.313 133.86ZM155.66 112.104L158.771 110.425L165.913 123.526L155.67 112.119L155.66 112.104ZM151.765 81.9409L158.252 107.841L157.24 108.194C156.892 108.318 156.737 108.79 156.889 109.278L155.807 109.86C155.807 109.86 155.744 109.767 155.712 109.721C155.563 109.504 155.301 109.388 155.05 109.354L151.739 81.936L151.765 81.9409ZM154.651 77.8416L165.754 105.52L165.39 105.587C165.026 105.655 164.823 106.09 164.882 106.574L163.325 107.095C163.325 107.095 163.325 107.095 163.314 107.08C163.135 106.587 162.704 106.291 162.356 106.415L161.864 106.594L154.662 77.8571L154.651 77.8416ZM158.016 76.0344L173.591 102.922C173.28 103.067 173.065 103.352 173.039 103.712C173.018 104.113 173.236 104.465 173.583 104.637L171.548 105.327C171.437 104.833 171.068 104.494 170.704 104.562L169.539 104.791L158.016 76.0344ZM181.03 106.888L184.193 106.746L183.079 120.339L181.03 106.888ZM192.447 77.6128L184.659 104.535L183.98 104.476C183.74 104.459 183.508 104.618 183.381 104.865L182.031 104.925C182.181 104.777 182.287 104.567 182.305 104.327C182.335 103.805 181.948 103.341 181.426 103.312L181.358 103.313L192.452 77.5867L192.447 77.6128ZM197.002 75.5133L192.547 105.799L192.275 105.735C191.898 105.651 191.496 105.996 191.388 106.503C191.353 106.618 191.36 106.727 191.367 106.837L189.686 106.646C189.85 106.487 189.977 106.24 190.005 105.948C190.05 105.416 189.779 104.987 189.397 104.929L188.52 104.847L197.017 75.5027L197.002 75.5133ZM200.741 107.377L200.594 107.296C200.127 107.047 199.567 107.226 199.307 107.678C199.261 107.778 199.231 107.867 199.212 107.971L198.006 107.842C198.031 107.414 197.839 107.067 197.515 106.993L196.234 106.688L200.788 75.6498L200.726 107.388L200.741 107.377ZM229.501 93.9115L209.155 113.294L208.381 112.731C208.118 112.547 207.739 112.625 207.429 112.906L206.778 112.555C207.07 112.514 207.344 112.349 207.491 112.066C207.741 111.598 207.577 111.027 207.11 110.778L206.826 110.631L229.501 93.9115ZM234.496 94.3809L215.521 118.155L215.236 117.872C214.972 117.62 214.473 117.689 214.123 118.043L212.873 116.986C213.139 116.576 213.122 116.086 212.822 115.882L212.333 115.534L234.518 94.4119L234.496 94.3809ZM221.74 123.663L221.58 123.431C221.314 122.976 220.733 122.827 220.289 123.11C220.165 123.195 220.056 123.269 219.99 123.406L219.068 122.626C219.323 122.268 219.349 121.84 219.106 121.619L218.246 120.797L237.698 96.4226L221.724 123.674L221.74 123.663ZM252.862 126.897L226.234 133.204L225.969 132.519C225.834 132.156 225.332 132.022 224.839 132.201C224.839 132.201 224.839 132.201 224.824 132.211L224.199 131.068C224.482 131.215 224.832 131.226 225.121 131.05C225.535 130.789 225.684 130.277 225.481 129.847L252.846 126.908L252.862 126.897ZM256.94 129.818L229.239 140.507L229.094 139.831C229.016 139.452 228.529 139.24 228.019 139.361C227.936 139.373 227.874 139.415 227.802 139.442L227.491 138.425C227.801 138.212 227.974 137.866 227.861 137.602L227.553 136.787L256.925 129.829L256.94 129.818ZM231.311 148.61L231.233 147.501C231.195 146.98 230.757 146.574 230.237 146.613C230.059 146.62 229.883 146.696 229.754 146.807L229.504 145.976C229.987 145.85 230.31 145.491 230.232 145.112L230.054 144.254L258.72 133.177L231.315 148.584L231.311 148.61ZM257.559 166.17L231.146 158.271L231.24 157.477C231.297 157.096 230.917 156.741 230.39 156.67L230.347 155.811C230.484 155.877 230.625 155.916 230.776 155.904C231.297 155.866 231.703 155.428 231.665 154.907L231.657 154.73L257.544 166.181L257.559 166.17ZM259.616 170.729L229.695 166.056L229.879 165.428C229.959 165.146 229.799 164.846 229.494 164.667L229.863 163.412C230.238 163.36 230.548 163.147 230.575 162.855L230.675 162.103L259.622 170.771L259.616 170.729ZM227.774 174.187L228.215 173.201C228.427 172.714 228.217 172.175 227.745 171.952C227.519 171.856 227.279 171.838 227.061 171.919L227.321 171.035C227.823 171.169 228.316 170.99 228.426 170.619L228.674 169.719L259.463 174.526L227.779 174.161L227.774 174.187ZM211.199 164.414L225.852 169.194L224.666 173.312L211.199 164.414ZM222.526 182.619L223.017 181.872C223.226 181.546 223.048 181.053 222.601 180.767C222.517 180.711 222.443 180.67 222.354 180.64L223.424 178.379L223.744 178.479L223.44 179.166C223.217 179.638 223.448 180.208 223.91 180.416C224.298 180.583 224.724 180.473 224.991 180.198L241.773 202.066L222.515 182.603L222.526 182.619ZM241.406 207.08L218.404 189.434L218.763 189.028C219.02 188.738 218.914 188.218 218.519 187.874C218.392 187.756 218.234 187.659 218.078 187.63L218.938 186.493C219.358 186.706 219.822 186.684 220.027 186.384L220.369 185.853L241.38 207.075L241.406 207.08ZM212.543 195.278L213.214 194.727C213.626 194.398 213.67 193.798 213.342 193.386C213.236 193.231 213.052 193.129 212.884 193.085L213.622 192.1C213.584 192.377 213.713 192.698 214.003 192.955C214.399 193.299 214.916 193.354 215.173 193.064L215.887 192.278L239.442 210.364L212.543 195.278ZM210.425 193.154L202.627 178.566L212.808 189.286L213.005 189.971C212.875 190.015 212.756 190.074 212.679 190.195L210.425 193.154ZM211.665 227.189L204.509 200.38L205.368 199.905C205.653 199.755 205.742 199.352 205.611 198.963L205.947 198.688C205.934 198.901 206.015 199.119 206.158 199.295C206.502 199.696 207.087 199.751 207.499 199.422L207.866 199.126L211.665 227.189ZM208.852 231.329L197.275 203.657L198.365 203.252C198.728 203.116 198.862 202.614 198.683 202.121C198.586 201.846 198.417 201.666 198.222 201.549L200.605 200.37L200.626 200.401L199.736 200.898C199.405 201.08 199.333 201.607 199.585 202.073C199.851 202.528 200.323 202.751 200.655 202.569L201.12 202.318L208.858 231.371L208.852 231.329ZM205.52 233.183L189.349 206.224L190.004 206.116C190.519 206.037 190.867 205.547 190.788 205.032C190.759 204.824 190.642 204.654 190.494 204.505L192.415 203.551C192.225 203.772 192.168 204.154 192.314 204.532C192.492 205.025 192.939 205.311 193.302 205.175L193.722 205.024L205.515 233.209L205.52 233.183ZM181.93 203.75L178.956 204.765L178.443 190.328L181.93 203.75ZM172.301 233.871L178.536 207.309L180.471 207.371C180.846 207.387 181.169 206.96 181.183 206.449C181.181 206.314 181.164 206.189 181.131 206.075L181.796 205.847C181.637 206.047 181.562 206.303 181.607 206.569C181.653 206.902 181.901 207.164 182.19 207.285L172.281 233.908L172.301 233.871ZM167.854 236.193L170.678 206.388L171.227 206.49C171.567 206.553 171.922 206.241 172.047 205.791L174.431 205.978C174.431 205.978 174.387 206.145 174.383 206.239C174.372 206.588 174.495 206.868 174.695 207.027L167.854 236.193ZM162.497 204.664L162.586 204.694C163 204.865 163.462 204.708 163.718 204.35L165.409 204.489C165.409 204.489 165.409 204.489 165.394 204.499C165.296 205.022 165.547 205.488 165.913 205.556L166.948 205.735L164.055 236.27L162.497 204.664ZM153.891 197.17L154.053 196.376L160.754 185.079L156.148 199.131L153.891 197.17ZM151.088 194.08L148.214 191.586L158.773 181.129L151.088 194.08ZM132.521 217.552L151.966 199.015L153.208 199.895C153.434 200.058 153.767 200.012 154.035 199.805L155.153 200.77C155.138 200.781 155.128 200.833 155.123 200.859L132.51 217.536L132.521 217.552ZM127.526 217.082L145.952 194.004L146.005 194.081C146.295 194.338 146.815 194.232 147.18 193.867C147.299 193.741 147.396 193.583 147.435 193.442L149.413 195.161C149.174 195.211 148.941 195.371 148.762 195.608C148.465 196.039 148.462 196.566 148.772 196.786L127.484 217.088L127.526 217.082ZM124.298 215.036L140.129 188.042C140.434 188.22 140.84 188.214 141.15 188.002C141.352 187.863 141.484 187.658 141.523 187.449L143.121 188.814C142.844 188.776 142.523 188.906 142.271 189.17C141.916 189.55 141.845 190.077 142.119 190.345L143.222 191.388L124.319 215.067L124.298 215.036Z" fill="#F2522E" fill-opacity="0.7"/>
<path fill-rule="evenodd" clip-rule="evenodd" d="M77.1944 187.677C82.2923 205.871 124.182 246.925 146.912 264.872C148.123 265.84 149.236 267.629 150.387 267.546L158.469 266.9C160.198 266.762 155.984 263.41 154.764 261.831C153.587 260.315 152.401 258.918 151.252 257.61C123.368 226.27 100.334 249.843 78.4517 188.546C77.0767 184.681 75.4321 181.321 77.2099 187.666L77.1944 187.677Z" fill="#F2522E" fill-opacity="0.7"/>
<path fill-rule="evenodd" clip-rule="evenodd" d="M164.778 257.625C164.826 259.256 166.346 260.309 167.082 261.581C173.982 273.664 167.822 289.306 174.912 299.572C187.814 318.245 220.425 313.781 232.791 331.706C233.844 333.239 239.191 343.06 238.925 342.673C237.873 341.139 239.94 335.779 238.632 333.873C215.798 300.823 176.305 317.118 174.533 270.78C174.348 265.825 171.071 264.04 168.045 261.423C167.417 260.873 164.434 257.223 164.789 257.641L164.778 257.625Z" fill="#F2522E" fill-opacity="0.7"/>
<path fill-rule="evenodd" clip-rule="evenodd" d="M280.489 176.3C284.385 187.527 331.928 235.958 338.449 234.697L346.467 233.161C347.741 232.925 345.429 231.116 344.859 230.186C328.272 202.92 283.035 216.822 280.025 177.85C279.565 171.83 278.257 169.857 280.489 176.3Z" fill="#F2522E" fill-opacity="0.7"/>
<path fill-rule="evenodd" clip-rule="evenodd" d="M249.391 76.7554C254.572 83.8418 267.87 112.726 294.194 129.232C297.316 131.191 325.87 133.339 336.14 142.129C336.947 142.806 337.403 144.202 338.459 144.047L347.117 142.778C348.147 142.618 346.911 140.618 346.081 139.774C314.753 108.199 263.199 144.39 248.742 77.3375C248.281 75.1703 247.873 74.6754 249.402 76.7709L249.391 76.7554Z" fill="#F2522E" fill-opacity="0.7"/>
<path fill-rule="evenodd" clip-rule="evenodd" d="M219.529 254.697C234.669 269.921 248.314 306.952 253.378 318.585C254.431 320.984 255.105 322.299 255.353 322.128C256.175 321.565 257.226 316.286 259.267 308.597C259.892 306.185 250.285 289.193 241.784 276.204C235.363 266.414 229.836 259.587 219.947 253.247C212.571 248.51 215.208 250.393 219.524 254.723L219.529 254.697Z" fill="#F2522E" fill-opacity="0.7"/>
</g>
<g clip-path="url(#clip2_1_8050)">
<path d="M42.812 15.7269L39.0597 23.5545C39.0597 23.5545 36.5498 15.8932 29.8674 13.5273C26.6838 12.4017 18.1723 11.7233 19.7157 11.858C18.9482 11.8568 16.396 18.4232 16.0592 21.4529C15.2712 28.4897 20.1204 34.4271 20.1204 34.4271L11.4531 33.7261C11.4531 33.7261 13.0141 41.5876 17.876 44.8693C26.8999 50.9651 39.3213 48.2497 40.4813 47.9765L40.4919 47.9988C40.4919 47.9988 40.5007 47.9863 40.5239 47.9689C40.553 47.9594 40.5665 47.9613 40.5665 47.9613L40.5559 47.9391C41.3727 47.0776 49.9723 37.732 49.2329 26.8836C48.8317 21.0338 42.81 15.7404 42.81 15.7404L42.812 15.7269Z" fill="#F28B2F" fill-opacity="0.7"/>
<path d="M29.9733 73.3975C29.6672 73.0769 29.3058 72.8035 28.8892 72.5772C29.0676 70.2562 29.6368 66.2939 31.4132 61.7339C33.0368 57.5591 35.3448 53.7667 38.2683 50.4504C41.9194 46.3149 46.5416 42.9211 52.0087 40.375C56.0739 38.4811 60.4019 37.6331 64.8708 37.8618C65.585 37.8966 66.302 37.9594 67.0287 38.0513C67.5755 37.62 68.1484 37.1994 68.7377 36.8087C74.1773 33.168 79.8504 31.5354 85.5935 31.9424C90.3022 32.2819 94.1147 33.9338 96.5664 35.1462L96.0667 36.1573C92.6086 34.4465 82.0854 29.2442 69.3696 37.7428C69.1021 37.9179 68.8471 38.1017 68.5922 38.2855C70.9653 38.7065 73.3649 39.4212 75.7658 40.4123C81.9754 42.9856 85.9715 46.5142 86.1366 46.6624L85.3847 47.5057C85.348 47.4727 81.3452 43.9432 75.3047 41.4428C73.2558 40.5996 70.8119 39.8093 68.0904 39.3584C68.0774 39.5429 68.0731 39.7149 68.0611 39.8926C67.907 42.6175 67.8486 43.6376 69.4985 48.9373C71.332 54.8297 73.7622 58.3308 73.7854 58.3618L72.8606 59.0142C72.7574 58.8681 70.2973 55.335 68.4129 49.2695C66.7082 43.7755 66.7717 42.625 66.9289 39.8315C66.9329 39.7562 66.938 39.6741 66.943 39.592C62.6492 43.2958 60.0299 48.2302 59.1386 54.3132C58.3582 59.6806 59.2836 63.9707 59.298 64.0142L58.1902 64.2604C58.1471 64.0816 57.2063 59.7547 58.0084 54.1903C58.4851 50.9117 59.4771 47.8944 60.9532 45.2098C62.2213 42.9091 63.8547 40.8549 65.8214 39.0769C61.7303 38.7236 57.162 39.226 52.4961 41.3985C40.4487 47.0122 34.9629 55.7751 32.4818 62.1378C30.5622 67.0635 30.093 71.3372 29.9878 73.3927L29.9733 73.3975Z" fill="#F28B2F" fill-opacity="0.7"/>
<path d="M83.1877 55.7283C79.5534 53.5451 78.3787 48.8352 80.5639 45.2085C82.7491 41.5819 87.4668 40.4117 91.1011 42.595C94.7354 44.7782 95.9102 49.4881 93.725 53.1148C91.5397 56.7414 86.8221 57.9116 83.1877 55.7283Z" fill="#F28B2F" fill-opacity="0.7"/>
<path d="M93.8288 41.9008C91.6508 39.6775 91.6899 36.1136 93.9161 33.9407C96.1423 31.7678 99.7125 31.8088 101.89 34.0321C104.068 36.2555 104.029 39.8193 101.803 41.9922C99.577 44.1651 96.0067 44.1242 93.8288 41.9008Z" fill="#F28B2F" fill-opacity="0.7"/>
<path d="M86.7899 70.3657C83.7078 69.9176 81.5718 67.0604 82.0191 63.9841C82.4664 60.9077 85.3275 58.7771 88.4096 59.2252C91.4917 59.6733 93.6276 62.5305 93.1804 65.6068C92.7331 68.6832 89.8719 70.8138 86.7899 70.3657Z" fill="#F28B2F" fill-opacity="0.7"/>
<path d="M96.7745 61.6353C94.5377 61.31 92.9876 59.2365 93.3122 57.0039C93.6368 54.7713 95.7132 53.2251 97.95 53.5503C100.187 53.8755 101.737 55.949 101.412 58.1816C101.088 60.4142 99.0112 61.9605 96.7745 61.6353Z" fill="#F28B2F" fill-opacity="0.7"/>
<path d="M101.478 52.4963C99.2408 52.1711 97.6907 50.0976 98.0154 47.865C98.34 45.6324 100.416 44.0862 102.653 44.4114C104.89 44.7366 106.44 46.8101 106.115 49.0427C105.791 51.2753 103.714 52.8215 101.478 52.4963Z" fill="#F28B2F" fill-opacity="0.7"/>
<path d="M72.2054 66.2777C68.0086 65.6675 65.1002 61.7771 65.7093 57.5882C66.3183 53.3992 70.2142 50.4981 74.4109 51.1083C78.6076 51.7185 81.516 55.6089 80.907 59.7978C80.2979 63.9867 76.4021 66.8879 72.2054 66.2777Z" fill="#F28B2F" fill-opacity="0.7"/>
<path d="M54.0202 67.0778C52.7872 64.2223 54.1061 60.911 56.966 59.6817C59.8259 58.4524 63.1438 59.7707 64.3768 62.6261C65.6098 65.4816 64.291 68.7929 61.4311 70.0222C58.5712 71.2515 55.2532 69.9332 54.0202 67.0778Z" fill="#F28B2F" fill-opacity="0.7"/>
<path d="M77.3507 75.1643C75.1139 74.8391 73.5638 72.7656 73.8884 70.533C74.213 68.3004 76.2894 66.7541 78.5262 67.0794C80.7629 67.4046 82.313 69.4781 81.9884 71.7107C81.6638 73.9433 79.5874 75.4895 77.3507 75.1643Z" fill="#F28B2F" fill-opacity="0.7"/>
<path d="M65.6845 76.12C63.7376 74.973 63.09 72.4682 64.2381 70.5253C65.3862 68.5825 67.8951 67.9374 69.842 69.0845C71.7889 70.2315 72.4365 72.7363 71.2884 74.6792C70.1404 76.622 67.6314 77.2671 65.6845 76.12Z" fill="#F28B2F" fill-opacity="0.7"/>
<path d="M42.214 54.0755C47.4645 51.4496 55.0902 53.9389 55.0902 53.9389L50.2399 61.1375C50.2399 61.1375 51.4531 60.9273 53.2774 60.9372C53.0123 61.3335 52.7907 61.7638 52.6068 62.2202C51.1586 65.8546 52.9389 69.9721 56.5737 71.4187C58.6266 72.2349 60.8289 72.0236 62.6177 71.0412C61.8124 73.6783 63.1532 76.5378 65.7689 77.5739C65.7892 77.5768 65.8086 77.5865 65.8279 77.5962C65.0729 78.5081 64.3326 79.3186 63.7227 79.8511C58.3902 84.5153 50.4721 82.943 50.4721 82.943L55.4774 90.0421C55.4774 90.0421 47.9002 92.6886 42.6011 90.1787C32.761 85.5105 28.7955 73.4475 28.4419 72.3124L28.4148 72.3084C28.4148 72.3084 28.4168 72.2949 28.4207 72.2679C28.4111 72.2389 28.4063 72.2244 28.4063 72.2244L28.4334 72.2283C28.7659 71.0825 32.461 58.9391 42.2014 54.0668L42.214 54.0755Z" fill="#F28B2F" fill-opacity="0.7"/>
</g>
<path d="M333.382 63.5964C345.436 65.2934 350.502 72.9835 350.502 72.9835C350.502 72.9835 346.918 79.4536 336.414 77.974C330.655 77.1607 325.835 74.3873 322.655 72.0451L336.192 85.5819C337.27 84.3246 341.851 79.7574 350.805 81.0196C362.859 82.7165 367.925 90.4067 367.925 90.4067C367.925 90.4067 364.341 96.8767 353.837 95.3972C348.079 94.5838 343.259 91.8105 340.078 89.4682L350.067 99.4569C352.684 99.7114 359.277 100.988 365.655 107.367C375.181 116.893 374.217 124.719 374.217 124.719C374.217 124.719 366.39 125.684 358.065 117.359C349.74 109.034 348.883 99.4263 348.876 99.3781L339.156 89.6587C341.554 92.8252 344.534 97.8109 345.382 103.824C346.862 114.328 340.392 117.913 340.392 117.913C340.392 117.913 332.709 112.839 331.005 100.792C329.722 91.7072 334.447 87.1197 335.622 86.1381L321.733 72.2493C324.13 75.4158 327.111 80.4016 327.959 86.4147C329.446 96.9119 322.976 100.496 322.976 100.496C322.976 100.496 315.292 95.423 313.589 83.3761C312.305 74.2909 317.031 69.7035 318.206 68.7219L306.195 56.7107C308.592 59.8772 311.572 64.8629 312.421 70.8761C313.907 81.3732 307.444 84.9647 307.444 84.9647C307.444 84.9647 299.761 79.8913 298.057 67.8444C296.774 58.7592 301.499 54.1718 302.674 53.1902L291.056 41.5724C293.454 44.7389 296.434 49.7247 297.282 55.7378C298.762 66.2281 292.292 69.8127 292.292 69.8127C292.292 69.8127 284.609 64.7392 282.905 52.6923C281.622 43.6072 286.347 39.0197 287.522 38.0381L276.65 27.1659L277.206 26.6096L288.078 37.4818C289.156 36.2245 293.737 31.6574 302.691 32.9195C314.745 34.6165 319.812 42.3066 319.812 42.3066C319.812 42.3066 316.227 48.7767 305.723 47.2971C299.965 46.4837 295.145 43.7104 291.965 41.3682L303.23 52.6339C304.308 51.3766 308.889 46.8094 317.843 48.0716C329.897 49.7685 334.964 57.4587 334.964 57.4587C334.964 57.4587 331.379 63.9287 320.875 62.4492C315.117 61.6358 310.297 58.8625 307.117 56.5202L318.776 68.1794C319.854 66.9221 324.435 62.3549 333.389 63.6171L333.382 63.5964Z" fill="#F28B2F" fill-opacity="0.7"/>
<path d="M365.805 741.935C367.591 742.122 369.162 741.065 369.321 739.568C369.48 738.081 368.161 736.715 366.375 736.528C364.589 736.341 363.018 737.398 362.859 738.895C362.7 740.382 364.018 741.748 365.805 741.935Z" fill="#F28B2F" fill-opacity="0.7"/>
<path d="M355.432 735.602C356.48 733.628 358.743 731.075 363.578 729.784C369.544 728.194 374.099 729.541 376.858 730.953C378.457 731.776 379.645 732.693 380.421 733.385C380.889 730.738 381.02 726.959 381.235 726.267C381.534 725.312 372.808 717.866 356.629 724.031C349.325 726.809 351.532 728.474 352.982 731.542C353.702 733.058 354.787 734.424 355.432 735.602Z" fill="#F28B2F" fill-opacity="0.7"/>
<path d="M381.834 741.935C378.832 739.662 378.626 737.286 379.711 735.696C379.916 735.396 380.085 734.901 380.234 734.302C378.57 732.637 372.977 728.063 363.868 730.495C358.65 731.889 356.639 734.807 355.872 736.669C355.975 737.062 355.984 737.426 355.853 737.763C355.788 737.941 355.629 738.119 355.414 738.296C355.414 738.334 355.414 738.352 355.414 738.352H355.358C354.058 739.363 350.869 740.364 350.869 740.364C350.869 740.364 349.447 721.066 325.814 721C301.882 720.935 290.94 733.292 286.938 737.642C282.944 741.991 285.226 744.377 288.434 747.501C291.642 750.625 299.161 759.297 299.161 759.297C299.161 759.297 300.788 760.616 302.257 759.783C303.715 758.951 304.669 756.846 310.309 757.435C315.948 758.024 319.726 762.842 319.492 768.707C319.24 774.741 314.227 778.445 308.251 777.332C302.285 776.219 297.104 773.085 291.922 772.018C286.573 770.915 285.806 770.756 284.17 773.216C282.533 775.676 280.719 779.558 281.037 780.25C281.355 780.942 282.318 781.167 286.218 781.429C290.117 781.691 299.947 784.076 303.454 789.399C305.137 791.952 306.428 800.137 312.834 804.581C316.911 807.406 323.523 812.588 332.651 815.478C331.211 816.769 330.275 818.406 330.079 820.24C329.808 822.784 331.014 825.244 333.165 827.134C319.184 827.274 308.56 831.203 307.933 837.096C307.176 844.261 321.466 851.623 339.852 853.541C358.238 855.458 373.772 851.193 374.53 844.028C375.175 837.985 365.121 831.811 350.944 828.874C353.356 827.461 354.984 825.347 355.246 822.859C355.47 820.764 354.694 818.734 353.216 817.022C370.069 814.431 374.773 804.132 376.054 797.359C377.391 790.269 376.568 779.324 371.687 770.157C370.63 768.164 371.724 768.773 371.724 768.773C371.724 768.773 379.009 771.504 375.521 763.132C372.893 756.808 369.835 754.704 370.966 749.568C372.098 744.433 374.389 744.124 377.307 744.592C380.225 745.069 380.178 746.191 382.778 746.313C385.378 746.425 384.826 744.218 381.824 741.944L381.834 741.935ZM366.365 735.621C369.274 735.92 371.415 738.137 371.163 740.569C370.901 743.001 368.338 744.723 365.43 744.423C362.521 744.124 360.38 741.907 360.632 739.475C360.894 737.043 363.457 735.322 366.365 735.621ZM311.3 729.428C314.237 728.175 325.665 727.567 333.941 735.35C342.63 743.535 339.169 752.356 339.169 752.356C339.169 752.356 337.692 754.339 337.533 753.347C337.374 752.365 338.402 739.858 324.87 735.331C314.779 731.954 308.532 734.545 308.532 734.545C308.532 734.545 306.867 731.299 311.291 729.419L311.3 729.428ZM307.26 739.475C310.253 737.688 316.107 736.725 323.991 741C332.342 745.527 333.109 753.993 333.109 753.993L331.809 754.844C331.809 754.844 326.881 739.793 305.679 742.693C303.472 742.552 306.437 739.971 307.26 739.484V739.475ZM307.821 752.075C306.399 752.262 308.214 749.877 308.728 749.39C310.589 747.613 314.321 746.098 319.53 748.343C325.048 750.728 325.824 757.164 325.824 757.164L325.02 757.987C325.02 757.987 321.354 747.024 307.821 752.075ZM326.31 790.923C325.15 790.802 324.29 789.913 324.393 788.95C324.496 787.977 325.525 787.285 326.684 787.406C327.844 787.528 328.704 788.416 328.601 789.38C328.499 790.353 327.47 791.045 326.31 790.923ZM333.605 790.343C332.09 790.184 330.977 789.034 331.108 787.771C331.239 786.508 332.576 785.61 334.091 785.769C335.606 785.928 336.719 787.079 336.588 788.342C336.457 789.604 335.12 790.502 333.605 790.343ZM342.648 790.147C340.628 789.941 339.132 788.398 339.31 786.705C339.487 785.012 341.273 783.814 343.294 784.02C345.314 784.226 346.81 785.769 346.632 787.462C346.455 789.155 344.668 790.353 342.648 790.147ZM353.768 791.195C351.336 790.942 349.531 789.09 349.747 787.051C349.962 785.012 352.113 783.571 354.544 783.824C356.976 784.076 358.781 785.928 358.556 787.967C358.341 790.007 356.19 791.447 353.759 791.195H353.768ZM363.382 782.748C362.961 783.272 362.175 783.496 361.446 783.29C343.406 778.239 323.252 784.132 313.965 786.91C313.264 787.116 312.778 786.274 313.423 785.966C333.988 776.293 358.575 776.649 362.793 777.79C366.075 778.679 364.495 781.345 363.382 782.748ZM371.191 767.098C371.191 767.098 370.546 768.258 369.479 766.331C367.955 763.572 367.731 756.762 367.731 756.762C368.769 766.303 371.191 767.107 371.191 767.107V767.098Z" fill="#F28B2F" fill-opacity="0.7"/>
</g>
<defs>
<clipPath id="clip0_1_8050">
<rect width="505" height="854" fill="white"/>
</clipPath>
<clipPath id="clip1_1_8050">
<rect width="253.878" height="382.79" fill="white" transform="translate(29.541 126.993) rotate(-34.4538)"/>
</clipPath>
<clipPath id="clip2_1_8050">
<rect width="95.8748" height="74.8138" fill="white" transform="matrix(-0.989595 -0.143882 -0.143882 0.989595 109.641 24.7947)"/>
</clipPath>
</defs>
</svg>
