<svg width="54" height="457" viewBox="0 0 54 457" fill="none" xmlns="http://www.w3.org/2000/svg">
<g clip-path="url(#clip0_1_349)">
<path d="M-13.0913 234.517C-13.0913 234.517 -12.652 234.361 -11.9774 234.072C-11.3027 233.783 -10.3611 233.426 -9.35786 232.996C-8.35459 232.566 -7.27478 232.126 -6.30185 231.705C-5.47557 231.332 -4.61607 231.038 -3.73472 230.826C-2.40922 230.498 -1.21748 230.957 0.219764 231.398C0.988318 231.634 1.77815 231.794 2.57792 231.876C3.57993 231.98 4.59257 231.908 5.56934 231.66C6.1252 231.516 5.91576 231.773 5.27142 232.23C4.24264 232.878 3.18174 233.474 2.0928 234.014C-0.602697 235.314 -4.01207 236.521 -5.47377 236.647C-6.31933 236.716 -7.17046 236.665 -8.00152 236.494C-8.85189 236.312 -9.68524 236.057 -10.4925 235.734C-11.2464 235.443 -11.8897 235.137 -12.3432 234.913C-12.7966 234.688 -13.0913 234.517 -13.0913 234.517Z" fill="#F2522E" fill-opacity="0.7"/>
<path d="M-2.03841 220.791C-2.47232 221.565 -2.80393 222.393 -3.02488 223.252C-3.1973 223.994 -3.32356 224.745 -3.40293 225.502C-3.59467 226.899 -3.75089 228.143 -4.66876 229.133C-5.32231 229.728 -6.0371 230.253 -6.80111 230.697C-7.74061 231.25 -8.7112 231.747 -9.70802 232.188C-10.6825 232.625 -11.6285 232.939 -12.3 233.195C-12.6664 233.335 -13.0399 233.457 -13.4188 233.559L-13.1155 232.801C-12.9316 232.326 -12.6712 231.664 -12.3385 230.951C-12.0059 230.238 -11.6671 229.504 -11.2875 228.782C-10.9582 228.108 -10.541 227.481 -10.0468 226.918C-9.18471 226.028 -6.84134 224.189 -4.92891 222.683C-3.98469 221.902 -3.15451 221.215 -2.60299 220.851C-2.05146 220.487 -1.80396 220.359 -2.03841 220.791Z" fill="#F2522E" fill-opacity="0.7"/>
<path d="M-2.66887 229.669L-1.65864 229.033C-1.02977 228.651 -0.21745 228.063 0.703143 227.486C2.52252 226.296 4.58981 224.885 5.85029 224.357C7.11076 223.829 8.35488 224.091 9.82428 224.282C11.6067 224.604 13.4435 224.416 15.1244 223.74C15.645 223.525 15.4839 223.804 14.8792 224.374C14.5645 224.634 14.1886 225.006 13.7105 225.394C13.2323 225.782 12.6572 226.174 12.0539 226.596C11.4506 227.018 10.82 227.463 10.1675 227.872C9.51502 228.282 8.84451 228.66 8.21882 229.008C7.65255 229.339 7.06722 229.636 6.46591 229.897C6.03291 230.096 5.5885 230.269 5.13504 230.414C4.7428 230.523 4.3421 230.597 3.93726 230.637C3.50303 230.675 3.06689 230.687 2.63124 230.672C1.78001 230.64 0.932317 230.544 0.0949817 230.388C-0.57478 230.274 -1.23808 230.125 -1.89215 229.941C-2.37619 229.773 -2.66887 229.669 -2.66887 229.669Z" fill="#F2522E" fill-opacity="0.7"/>
<path d="M5.95917 214.158C5.40811 215.725 5.18672 217.39 5.30891 219.047C5.34958 220.474 5.41664 221.756 4.6217 222.867C3.82676 223.979 1.96549 225.565 0.173279 226.779C-0.723122 227.367 -1.54892 227.919 -2.18294 228.267L-3.24215 228.844L-3.09014 228.041C-2.99172 227.537 -2.84034 226.874 -2.67109 226.111C-2.50184 225.348 -2.28836 224.518 -2.03424 223.747C-1.90529 223.364 -1.76128 222.998 -1.62183 222.637C-1.48667 222.301 -1.32226 221.977 -1.13051 221.669C-0.909819 221.328 -0.664061 221.004 -0.395277 220.7C-0.0702129 220.331 0.299082 219.895 0.69654 219.427C1.094 218.96 1.53469 218.48 1.97458 218.009C2.41448 217.537 2.83336 217.021 3.24747 216.556C3.66159 216.09 4.05428 215.673 4.41801 215.295C4.78175 214.917 5.07032 214.578 5.31149 214.34C5.88643 213.819 6.1377 213.695 5.95917 214.158Z" fill="#F2522E" fill-opacity="0.7"/>
<path d="M6.44281 223.298C6.52904 223.235 6.6113 223.167 6.68913 223.094C6.84878 222.962 7.06258 222.747 7.32953 222.503C7.87254 222.007 8.62161 221.334 9.44506 220.629C10.2685 219.925 11.0993 219.099 11.9204 218.42C12.5876 217.811 13.2995 217.252 14.0501 216.75C15.2371 216.068 16.5175 216.169 17.978 216.144C18.7762 216.162 19.5744 216.109 20.3632 215.985C21.3413 215.814 22.2808 215.469 23.137 214.966C24.1151 214.402 22.6589 216.191 20.5043 218.166C18.3497 220.141 15.5369 222.277 14.23 222.851C13.4689 223.184 12.6621 223.401 11.8366 223.493C10.9812 223.587 10.1201 223.619 9.26006 223.588C8.46487 223.554 7.74782 223.494 7.24513 223.434C6.74244 223.373 6.44281 223.298 6.44281 223.298Z" fill="#F2522E" fill-opacity="0.7"/>
<path d="M12.8441 206.632C12.6334 207.509 12.5377 208.41 12.5596 209.311C12.598 210.082 12.6893 210.849 12.8327 211.607C13.0794 213.032 13.2778 214.26 12.6764 215.457C12.2554 216.239 11.7387 216.966 11.1383 217.621C10.438 218.4 9.63216 219.229 8.85928 219.976C8.0864 220.723 7.2937 221.325 6.73641 221.794C6.45817 222.024 6.2301 222.213 6.07501 222.341C5.91992 222.469 5.82869 222.545 5.82869 222.545L5.84446 221.717C5.8596 221.205 5.88923 220.496 5.94644 219.718C6.00365 218.941 6.10053 218.1 6.25253 217.297C6.34509 216.529 6.53262 215.774 6.81084 215.052C7.35671 213.909 9.10467 211.394 10.5137 209.305C11.9227 207.217 13.0673 205.655 12.8441 206.632Z" fill="#F2522E" fill-opacity="0.7"/>
<path d="M14.7625 215.391C14.7625 215.391 15.0723 215.05 15.5392 214.471C16.006 213.893 16.6457 213.133 17.362 212.317C18.6024 210.74 19.9682 209.265 21.446 207.908C23.6258 206.243 26.5313 207.636 30.2342 204.98C30.6903 204.602 30.5941 204.951 30.176 205.635C29.4944 206.619 28.7618 207.567 27.9812 208.474C27.5326 209.037 27.0165 209.602 26.4892 210.154C25.9618 210.706 25.4436 211.25 24.9468 211.745C24.1556 212.535 23.2928 213.249 22.3696 213.878C21.11 214.705 19.1442 215.094 17.5566 215.262C16.7586 215.346 16.054 215.375 15.5442 215.39C15.0344 215.404 14.7625 215.391 14.7625 215.391Z" fill="#F2522E" fill-opacity="0.7"/>
<path d="M19.8671 206.755C19.4584 208.047 17.9967 210.071 16.6547 211.719C15.9588 212.541 15.2958 213.282 14.8079 213.816C14.32 214.351 13.986 214.681 13.986 214.681L13.8957 213.864C13.8388 213.357 13.7677 212.648 13.7242 211.869C13.5729 210.291 13.6663 208.7 14.001 207.15C14.3448 206.222 14.7455 205.315 15.2007 204.436C15.4911 203.857 15.774 203.27 16.0643 202.691C16.3547 202.113 16.68 201.521 16.9393 200.96C17.5238 199.808 18.0477 198.852 18.4108 198.259C18.774 197.666 18.9771 197.475 18.9348 197.964C18.424 201.961 20.7433 204.216 19.8671 206.755Z" fill="#F2522E" fill-opacity="0.7"/>
<path d="M21.9465 206.373L24.0041 203.21C24.588 202.373 25.1564 201.434 25.7235 200.642C26.2028 199.943 26.7363 199.283 27.3191 198.668C28.2282 197.77 29.3994 197.562 30.7491 197.245C32.4005 196.911 33.933 196.142 35.1886 195.016C35.9795 194.3 34.9697 196.212 33.5045 198.493C32.7255 199.614 31.8573 200.832 31.0279 201.864C30.3724 202.674 29.6555 203.432 28.8834 204.131C27.7932 205.033 26.0068 205.612 24.5615 205.962C23.7018 206.167 22.8275 206.304 21.9465 206.373Z" fill="#F2522E" fill-opacity="0.7"/>
<path d="M23.9444 189.614C23.95 191.192 24.3119 192.748 25.003 194.165C25.5073 195.401 25.9805 196.477 25.719 197.724C25.5053 198.528 25.1931 199.303 24.7892 200.031C24.3315 200.963 23.8189 201.867 23.254 202.738C22.7026 203.587 22.1939 204.384 21.7901 204.918C21.5949 205.203 21.4281 205.41 21.304 205.566L21.1173 205.805C21.1173 205.805 20.8337 204.68 20.5227 203.223C20.1971 201.764 20.1073 200.263 20.2568 198.777C20.4646 197.857 20.7485 196.956 21.1057 196.083C21.4998 194.988 21.9311 193.724 22.376 192.626C23.1979 190.393 23.9485 188.688 23.9444 189.614Z" fill="#F2522E" fill-opacity="0.7"/>
<path d="M27.6721 197.144L28.1597 196.172C28.4576 195.603 28.8545 194.744 29.3174 193.853C30.2447 192.102 31.2143 190.039 32.0395 189.095C32.8648 188.151 33.9162 187.788 35.1833 187.324C35.8794 187.089 36.5522 186.79 37.193 186.43C37.9604 185.957 38.649 185.366 39.2337 184.68C39.5733 184.291 39.5538 184.584 39.3114 185.277C38.9425 186.294 38.5015 187.283 37.9917 188.237C36.9447 190.365 35.6559 192.365 34.1508 194.197C32.9887 195.199 31.641 195.961 30.1847 196.441C29.3626 196.728 28.5234 196.962 27.6721 197.144Z" fill="#F2522E" fill-opacity="0.7"/>
<path d="M30.3231 188.38C29.9669 190.154 29.3551 191.867 28.507 193.464C28.0744 194.345 27.6769 195.166 27.319 195.746C26.9612 196.327 26.7688 196.671 26.7688 196.671C26.7688 196.671 26.3531 195.608 25.9644 194.261C25.4663 192.896 25.2124 191.454 25.2144 190.001C25.2726 188.815 26.0027 186.089 26.5436 183.85C26.8553 182.739 27.0946 181.726 27.2804 181.142C27.4663 180.558 27.6385 180.339 27.691 180.802C27.7806 181.624 27.9886 182.428 28.3084 183.19C28.5726 183.832 28.8796 184.457 29.2273 185.058C29.8534 186.162 30.4519 187.158 30.3231 188.38Z" fill="#F2522E" fill-opacity="0.7"/>
<path d="M31.4682 188.038C31.007 187.277 30.6895 186.438 30.5316 185.562C30.2022 183.734 30.4255 181.85 31.1728 180.15C31.5368 179.195 32.7431 177.206 33.8168 175.241C34.3967 174.269 34.913 173.304 35.3657 172.522C35.675 171.946 36.0435 171.404 36.4651 170.905C36.6795 171.523 36.8215 172.164 36.8884 172.815C37.0518 173.883 37.1429 174.96 37.1612 176.041C37.264 178.013 37.1588 179.992 36.8474 181.943C36.4545 183.88 35.3919 185.617 33.8466 186.847C33.1442 187.404 32.3345 187.81 31.4682 188.038Z" fill="#F2522E" fill-opacity="0.7"/>
<path d="M3.27904 192.52C2.96029 191.759 2.69152 190.978 2.47447 190.182C2.22196 189.371 2.01301 188.747 1.99975 188.916C2.4295 190.259 2.62446 191.667 2.57603 193.076C2.52295 194.281 2.39069 195.481 2.18011 196.668C1.99073 197.693 1.90216 198.735 1.91564 199.778C1.9427 200.303 2.02019 200.824 2.14705 201.334C2.29878 201.912 2.50899 202.473 2.77439 203.008C2.88755 203.24 3.48627 202.575 4.02039 201.703C4.48462 200.954 4.84341 200.144 5.08659 199.297C5.54421 197.09 5.23287 195.955 4.84425 195.103C4.45564 194.251 3.86743 193.63 3.27904 192.52Z" fill="#F2522E" fill-opacity="0.7"/>
<path d="M11.8653 194.379C10.7945 195.469 9.95769 195.795 9.10734 196.404C8.25699 197.012 7.39955 197.888 5.91063 199.698C5.62495 200.061 4.95479 201.056 4.36338 201.916C3.77197 202.775 3.24506 203.516 3.4944 203.57C4.10392 203.697 4.73217 203.703 5.3443 203.59C5.94215 203.478 6.51403 203.256 7.03078 202.935C8.19718 202.175 9.17827 201.163 9.90153 199.972C10.8047 198.536 11.5752 197.021 12.2034 195.445C12.911 193.748 13.5842 191.902 14.3449 189.909C14.3629 189.661 14.042 190.538 13.5575 191.588C13.1284 192.594 12.5586 193.534 11.8653 194.379Z" fill="#F2522E" fill-opacity="0.7"/>
<path d="M4.22636 186.653C4.01592 186.368 3.82791 186.068 3.66405 185.754L3.07977 184.655L2.62606 183.792C2.50503 183.589 2.43053 183.488 2.44317 183.571C2.75921 184.177 3.02707 184.807 3.24426 185.455C3.44094 186.062 3.59735 186.681 3.71249 187.308C3.94064 188.517 4.02724 189.662 4.11869 190.7C4.32997 192.799 4.6129 194.485 6.31569 196.138C6.38885 196.226 6.51487 196.075 6.64259 195.796C6.7887 195.425 6.90677 195.043 6.99578 194.654C7.18485 193.883 7.27995 193.092 7.27903 192.298C7.25248 191.85 7.19459 191.404 7.10576 190.964C7.04277 190.624 6.9514 190.29 6.83262 189.965C6.66861 189.488 6.42347 189.044 6.10807 188.651C5.83823 188.325 5.54551 188.018 5.23213 187.733C4.87712 187.392 4.54135 187.031 4.22636 186.653Z" fill="#F2522E" fill-opacity="0.7"/>
<path d="M12.3203 186.641C12.0171 187.11 11.6644 187.545 11.2683 187.939C10.9363 188.28 10.6174 188.563 10.3024 188.914C9.94432 189.318 9.62882 189.758 9.36086 190.227C9.2047 190.511 9.03743 190.832 8.85538 191.202C8.67332 191.572 8.48884 191.996 8.27624 192.475C8.12626 192.856 7.80087 193.891 7.5331 194.799C7.40991 195.189 7.30759 195.585 7.22658 195.986C7.16759 196.291 7.16805 196.477 7.28136 196.462C9.62561 196.119 10.9646 194.307 11.8009 191.776C12.2452 190.377 12.586 188.947 12.8203 187.498L13.2446 185.048C13.325 184.622 13.3857 184.189 13.4652 183.746C13.5447 183.302 13.6508 182.846 13.7157 182.396C13.7004 182.287 13.6661 182.437 13.5979 182.731L13.2862 183.974C13.1668 184.484 13.018 184.988 12.8404 185.481C12.7111 185.886 12.5366 186.275 12.3203 186.641Z" fill="#F2522E" fill-opacity="0.7"/>
<path d="M4.0708 181.057C3.58148 180.541 3.13385 179.987 2.73214 179.4C2.27774 178.818 1.94087 178.366 1.98685 178.5C2.18111 178.763 2.36527 179.025 2.53888 179.291C2.71249 179.557 2.85213 179.832 2.99958 180.106C3.27815 180.632 3.52058 181.177 3.72518 181.736C4.1353 182.794 4.39729 183.858 4.68295 184.805C5.25884 186.704 5.85721 188.225 7.73105 189.325C7.90642 189.436 8.02058 188.703 8.0236 187.852C8.02694 187.427 8.00624 187.002 7.96162 186.579C7.94048 186.274 7.89211 185.971 7.8171 185.674C7.29325 183.872 6.71365 183.104 6.1142 182.576C5.81718 182.325 5.50501 182.092 5.17947 181.88C4.7905 181.633 4.41997 181.358 4.0708 181.057Z" fill="#F2522E" fill-opacity="0.7"/>
<path d="M11.3597 179.762C11.1563 180.226 10.9097 180.669 10.6232 181.087C10.376 181.446 10.1258 181.756 9.90384 182.118C9.45769 182.838 9.09309 183.775 8.71148 185.658C8.67388 185.843 8.63956 186.184 8.5973 186.583C8.55505 186.981 8.52456 187.445 8.4946 187.875C8.44478 188.737 8.42644 189.48 8.62152 189.406C10.6308 188.59 11.447 186.765 11.7496 184.393C12.0521 182.021 11.8955 179.144 11.9741 175.736C11.9204 175.548 11.9016 176.295 11.8416 177.212C11.7815 178.129 11.6137 179.22 11.3597 179.762Z" fill="#F2522E" fill-opacity="0.7"/>
<path d="M3.13374 176.204C2.62509 175.819 2.14924 175.393 1.71113 174.929C1.23392 174.482 0.880304 174.128 0.932747 174.247C1.71672 175.016 2.38207 175.898 2.90695 176.863C3.15713 177.317 3.40369 177.756 3.59659 178.197C3.78949 178.638 4.01822 179.049 4.19653 179.456C4.98775 181.064 5.74956 182.333 7.58597 182.989C7.77795 183.058 7.72917 182.381 7.61181 181.621C7.4981 180.985 7.32633 180.362 7.09866 179.758C6.38012 178.243 5.73817 177.653 5.15122 177.264C4.56426 176.876 3.93499 176.722 3.13374 176.204Z" fill="#F2522E" fill-opacity="0.7"/>
<path d="M9.58162 173.999C9.29422 175.063 8.90497 175.582 8.6235 176.282C8.34203 176.982 8.14037 177.863 8.07422 179.582C8.0884 180.239 8.1376 180.895 8.22162 181.548C8.29123 182.329 8.40833 183.01 8.57598 182.903C10.2024 181.855 10.6469 180.144 10.5783 178.014C10.5097 175.885 9.97982 173.384 9.57414 170.341C9.50529 170.179 9.58803 170.847 9.6534 171.674C9.72831 172.449 9.70418 173.23 9.58162 173.999Z" fill="#F2522E" fill-opacity="0.7"/>
<path d="M2.12078 172.408C1.64096 172.136 1.18339 171.825 0.75233 171.48C0.297778 171.145 -0.0666724 170.907 -0.00360249 170.994C1.64166 172.173 2.56584 173.801 3.42851 175.079C3.63177 175.395 3.85224 175.699 4.08892 175.99C4.30171 176.27 4.54281 176.527 4.80839 176.758C5.36798 177.243 6.04515 177.573 6.77201 177.714C6.93931 177.747 6.83344 177.164 6.61581 176.524C6.44352 175.994 6.21944 175.482 5.94683 174.996C5.15369 173.791 4.52835 173.35 3.97319 173.084C3.41804 172.818 2.86098 172.763 2.12078 172.408Z" fill="#F2522E" fill-opacity="0.7"/>
<path d="M7.22742 169.811C7.10903 170.516 6.92523 171.209 6.67843 171.88C6.49938 172.518 6.45023 173.291 6.60298 174.763C6.64593 175.011 6.78394 175.768 6.96989 176.42C7.15585 177.072 7.30529 177.652 7.43488 177.544C8.02533 177.045 8.42912 176.359 8.58019 175.6C8.65604 175.213 8.6919 174.819 8.6872 174.425C8.66933 173.994 8.62444 173.564 8.5528 173.138C8.23351 171.324 7.48837 169.249 6.77285 166.692C6.67455 166.573 6.86307 167.116 7.00854 167.82C7.16955 168.471 7.24317 169.14 7.22742 169.811Z" fill="#F2522E" fill-opacity="0.7"/>
<path d="M0.683416 169.27C0.475462 169.205 0.274684 169.118 0.0842114 169.012C-0.136075 168.892 -0.371016 168.766 -0.60186 168.65C-1.03194 168.434 -1.35666 168.261 -1.29493 168.335C-0.926622 168.527 -0.573748 168.746 -0.239504 168.992C0.0749157 169.249 0.376492 169.506 0.657423 169.767L1.4208 170.582C1.66872 170.843 1.87803 171.135 2.10584 171.365C3.00039 172.356 3.83318 173.109 5.27019 173.193C5.41921 173.204 5.24111 172.714 4.98743 172.188C4.76887 171.769 4.52083 171.366 4.24519 170.982C3.92444 170.619 3.5651 170.292 3.17357 170.007C2.91862 169.829 2.63513 169.696 2.33533 169.613C2.08478 169.546 1.83057 169.495 1.57399 169.458C1.31638 169.411 1.02851 169.361 0.683416 169.27Z" fill="#F2522E" fill-opacity="0.7"/>
<path d="M4.75014 166.396C4.7649 166.731 4.73788 167.067 4.66971 167.395C4.61717 167.686 4.56471 167.948 4.5269 168.217C4.49334 168.543 4.49515 168.871 4.53228 169.197C4.58945 169.697 4.68792 170.192 4.82671 170.677C4.96665 171.137 5.13619 171.588 5.33426 172.026C5.55532 172.575 5.77746 173.057 5.87498 172.938C6.8224 171.834 6.76962 170.545 6.28079 169.049C5.79195 167.553 4.90968 165.858 3.9651 163.766C3.88052 163.664 4.08619 164.132 4.30765 164.703C4.42765 165.001 4.52575 165.307 4.60118 165.62C4.67446 165.873 4.72433 166.133 4.75014 166.396Z" fill="#F2522E" fill-opacity="0.7"/>
<path d="M-1.88216 163.087C-1.88216 163.087 -1.88216 163.087 -1.87073 163.1C-1.4836 163.377 -1.12186 163.688 -0.789827 164.03C-0.527374 164.341 -0.284359 164.669 -0.0621691 165.01C0.136046 165.34 0.276501 165.661 0.444456 165.988C0.612412 166.314 0.725905 166.598 0.85634 166.89C0.986445 167.177 1.13751 167.453 1.3083 167.717C1.47499 168.001 1.67714 168.263 1.90988 168.495C2.18749 168.765 2.48589 169.013 2.80231 169.236C2.98178 169.357 3.18142 169.48 3.40399 169.603C3.62656 169.726 3.84772 169.864 4.10741 169.998C4.154 169.481 4.12889 168.961 4.03281 168.452C3.96821 168.041 3.83967 167.643 3.65188 167.272C3.48666 166.95 3.28323 166.649 3.046 166.376C2.8066 166.127 2.54516 165.899 2.26486 165.697C1.09472 164.879 -0.237973 164.331 -1.88216 163.087Z" fill="#F2522E" fill-opacity="0.7"/>
<path d="M-4.94939 209.783L-4.59587 209.62C-4.37456 209.51 -4.04679 209.378 -3.67619 209.168C-2.75973 208.688 -1.8798 208.141 -1.04352 207.531C-0.215269 206.916 0.566173 206.241 1.29432 205.51C1.60367 205.22 1.82263 204.945 1.99411 204.77C2.1656 204.595 2.25484 204.483 2.25484 204.483L2.05763 204.307L1.58231 204.767C1.28486 205.065 0.828047 205.464 0.272036 205.916C-1.10538 207.003 -2.61841 207.906 -4.22878 208.602C-5.83246 209.276 -7.50807 209.764 -9.22275 210.056L-10.1807 210.208C-10.4683 210.237 -10.7178 210.268 -10.9233 210.289L-11.5683 210.359L-11.4209 211.588L-10.5552 211.442C-10.0395 211.368 -9.35993 211.2 -8.67672 211.047C-7.9935 210.895 -7.32481 210.679 -6.8323 210.499L-6.23333 210.295L-6.00886 210.206C-5.43214 210.465 -4.82999 210.663 -4.21219 210.797C-3.8909 210.871 -3.5581 210.93 -3.21428 210.98C-2.87046 211.03 -2.52059 211.042 -2.16977 211.044C-0.606544 211.081 0.949632 210.823 2.41846 210.286C4.06105 209.685 5.58227 208.792 6.90952 207.651C8.2851 206.477 9.44005 205.066 10.3198 203.485C11.0285 202.124 11.6298 200.709 12.1183 199.254C10.7595 201.94 8.83902 204.3 6.48759 206.174C6.03817 206.547 5.55823 206.839 5.12966 207.125C4.70109 207.411 4.25524 207.637 3.85532 207.834C3.4554 208.031 3.04452 208.209 2.66444 208.357C2.28436 208.505 1.91444 208.626 1.57666 208.729C1.23888 208.833 0.885572 208.912 0.568508 208.984C0.264438 209.06 -0.0433802 209.12 -0.353693 209.163L-1.1909 209.276C-1.46566 209.304 -1.73035 209.332 -1.98951 209.356C-2.98315 209.444 -3.97126 209.587 -4.94939 209.783Z" fill="#F2522E" fill-opacity="0.7"/>
<path d="M12.1786 244.767C12.1786 244.767 12.3382 244.759 12.5781 244.726C12.8179 244.693 13.1575 244.675 13.4606 244.628C13.7637 244.58 14.102 244.539 14.3448 244.506C14.5875 244.473 14.7459 244.441 14.7459 244.441L14.7407 244.34C14.7407 244.34 14.5822 244.371 14.3424 244.404C14.1026 244.437 13.7819 244.483 13.4611 244.526C13.1403 244.568 12.822 244.602 12.5933 244.626C12.3646 244.65 12.1936 244.664 12.1936 244.664L12.1786 244.767Z" fill="#F2522E" fill-opacity="0.7"/>
<path d="M10.213 235.627L10.2554 235.715L10.5405 235.601C10.7058 235.534 10.9282 235.447 11.147 235.345L11.7412 235.075C11.9033 235.003 12.0079 234.945 12.0079 234.945L11.9599 234.86C11.9599 234.86 11.8552 234.918 11.693 234.987C11.5307 235.057 11.3149 235.158 11.0988 235.257C10.8828 235.356 10.6633 235.443 10.4952 235.513L10.213 235.627Z" fill="#F2522E" fill-opacity="0.7"/>
<path d="M15.7131 234.784C15.482 235.435 15.5561 236.25 15.3624 237.062C15.1687 237.874 14.7192 238.749 13.3733 239.396C13.0901 239.548 12.569 239.77 12.0483 239.998C12.6094 239.931 13.1778 239.893 13.4951 239.839C14.9894 239.641 15.9096 239.935 16.6721 240.385C17.4346 240.835 18.0054 241.406 18.7731 241.62C19.1819 241.723 19.6039 241.764 20.0249 241.742C20.2284 241.737 20.4316 241.722 20.6336 241.696C19.3845 242.617 17.9214 243.204 16.3828 243.4C15.2116 243.534 14.0253 243.407 12.9091 243.027C10.8953 242.35 9.53376 241.12 8.38665 240.716L8.38154 240.617C9.402 239.923 10.2613 238.362 11.3908 236.907C11.9648 236.144 12.6405 235.463 13.3989 234.884C14.3148 234.221 15.3489 233.74 16.4453 233.466C16.3471 233.588 16.2565 233.715 16.174 233.848C15.9891 234.144 15.8347 234.457 15.7131 234.784Z" fill="#F2522E" fill-opacity="0.7"/>
<path d="M20.661 241.744L21.8789 241.266L23.0854 240.737L23.06 240.64L21.8593 241.168L20.647 241.642L20.661 241.744Z" fill="#F2522E" fill-opacity="0.7"/>
<path d="M16.4143 233.43L16.4764 233.505L17.2205 232.928C17.574 232.618 17.9304 232.308 17.9304 232.308L17.8599 232.238L17.1581 232.846L16.4143 233.43Z" fill="#F2522E" fill-opacity="0.7"/>
<path d="M21.211 231.347C21.1831 232.045 21.4487 232.793 21.4978 233.63C21.5469 234.467 21.3225 235.417 20.1856 236.392C19.9344 236.6 19.5144 236.975 19.0542 237.305C19.5919 237.122 20.1134 236.909 20.4272 236.787C21.8174 236.208 22.7858 236.251 23.6445 236.48C24.5032 236.71 25.2166 237.113 26.0041 237.09C26.4297 237.071 26.8506 236.993 27.2551 236.859C27.5981 236.739 27.8252 236.628 27.8252 236.628C26.871 237.88 25.6094 238.862 24.1634 239.48C23.0562 239.924 21.8628 240.111 20.6732 240.026C20.1661 239.994 19.6623 239.923 19.1664 239.812C18.6922 239.703 18.259 239.597 17.8447 239.464C17.4304 239.331 17.0489 239.214 16.6949 239.121C16.3724 239.022 16.0415 238.952 15.7063 238.913L15.6695 238.819C16.495 237.901 16.9438 236.169 17.6631 234.491C18.0181 233.618 18.4864 232.795 19.0557 232.045C19.741 231.184 20.5797 230.459 21.5293 229.905C21.4739 230.05 21.4272 230.199 21.3893 230.349C21.2924 230.674 21.2326 231.009 21.211 231.347Z" fill="#F2522E" fill-opacity="0.7"/>
<path d="M27.8709 236.664C27.8709 236.664 28.0056 236.566 28.2044 236.416C28.4033 236.266 28.6663 236.063 28.9231 235.851C29.1799 235.639 29.4425 235.428 29.6319 235.263L29.9463 234.984L29.895 234.894L29.5837 235.175C29.3972 235.34 29.1344 235.548 28.8776 235.76C28.3673 236.189 27.8284 236.573 27.8284 236.573L27.8709 236.664Z" fill="#F2522E" fill-opacity="0.7"/>
<path d="M21.4897 229.866L21.5712 229.923C21.5712 229.923 21.858 229.562 22.1143 229.172C22.2412 228.982 22.386 228.8 22.4628 228.653L22.6102 228.409L22.5234 228.361L22.3788 228.605C22.2874 228.749 22.1571 228.931 22.0302 229.121C21.9033 229.311 21.7765 229.505 21.67 229.638L21.4897 229.866Z" fill="#F2522E" fill-opacity="0.7"/>
<path d="M25.3285 227.629C25.4388 228.186 25.7367 228.826 25.9141 229.555C26.1497 230.384 26.1303 231.265 25.8585 232.083C26.6783 231.743 27.5538 231.558 28.4407 231.538C29.1679 231.548 29.8942 231.481 30.6071 231.338C31.0119 231.218 31.3953 231.034 31.7431 230.795C31.9151 230.684 32.0809 230.563 32.2395 230.434C31.6941 231.743 30.8466 232.904 29.7665 233.822C28.9211 234.522 27.9335 235.03 26.8723 235.31C24.9605 235.82 23.2607 235.533 21.9949 235.479C22.3655 234.261 22.4285 232.608 22.7548 230.984C22.9157 230.146 23.1826 229.332 23.5491 228.561C23.9966 227.667 24.5819 226.85 25.2834 226.138C25.2649 226.293 25.2545 226.448 25.2522 226.604C25.2461 226.947 25.2716 227.29 25.3285 227.629Z" fill="#F2522E" fill-opacity="0.7"/>
<path d="M32.2715 230.473L32.3426 230.385C32.3892 230.33 32.4549 230.25 32.5254 230.151L33.07 229.426C33.2716 229.161 33.4553 228.887 33.5901 228.678L33.8196 228.334L33.749 228.262L33.5194 228.606C33.3816 228.812 33.2037 229.086 33.002 229.35L32.4574 230.072C32.3795 230.184 32.2956 230.292 32.2063 230.395L32.2715 230.473Z" fill="#F2522E" fill-opacity="0.7"/>
<path d="M25.2322 226.115L25.327 226.148C25.3692 226.059 25.4053 225.968 25.4351 225.874L25.6546 225.28C25.7394 225.062 25.8034 224.837 25.8567 224.686L25.9412 224.408L25.8441 224.386L25.7594 224.662C25.7098 224.828 25.6458 225.053 25.5602 225.255L25.3407 225.85C25.313 225.933 25.2846 226.001 25.2665 226.046L25.2322 226.115Z" fill="#F2522E" fill-opacity="0.7"/>
<path d="M28.4026 224.749C28.5762 225.216 28.711 225.697 28.8057 226.186C28.9263 226.735 28.9932 227.295 29.0057 227.858C29.4839 227.54 29.99 227.267 30.5175 227.042C31.0861 226.782 31.6559 226.545 31.9966 226.382C32.3628 226.198 32.7013 225.963 33.0024 225.685C33.1448 225.551 33.2793 225.409 33.4052 225.259C32.8899 227.618 31.6815 229.124 30.427 229.962C29.8411 230.355 29.1963 230.653 28.5169 230.842C27.9126 231 27.2959 231.105 26.6736 231.157C26.6203 230.576 26.551 229.968 26.5251 229.354C26.4779 228.72 26.481 228.083 26.5342 227.45C26.6589 226.146 27.0684 224.836 28.0875 223.214C28.0966 223.379 28.1148 223.544 28.1421 223.707C28.1891 224.063 28.2765 224.413 28.4026 224.749Z" fill="#F2522E" fill-opacity="0.7"/>
<path d="M33.4498 225.295L33.6328 224.95C33.7472 224.743 33.8987 224.464 34.0177 224.178L34.3845 223.392C34.4275 223.307 34.4657 223.219 34.499 223.129L34.5405 223.031L34.456 222.974L34.4147 223.075C34.3889 223.138 34.3527 223.227 34.303 223.335C34.2005 223.547 34.0698 223.834 33.9361 224.118L33.7393 224.533L33.5539 224.887L33.368 225.232L33.4498 225.295Z" fill="#F2522E" fill-opacity="0.7"/>
<path d="M28.0509 223.208L28.1504 223.22L28.2138 222.925L28.2792 222.616L28.336 222.251L28.4409 221.578C28.4565 221.487 28.4613 221.411 28.4672 221.355L28.4628 221.271L28.3642 221.276L28.354 221.361C28.3483 221.436 28.3385 221.51 28.3248 221.584L28.2227 222.254C28.1889 222.501 28.1433 222.745 28.1032 222.925L28.0509 223.208Z" fill="#F2522E" fill-opacity="0.7"/>
<path d="M33.1453 222.736C33.0186 223.139 32.8431 223.525 32.6227 223.886C32.3989 224.242 32.1358 224.571 31.8383 224.868C31.2813 225.424 30.6281 225.874 29.9106 226.196C29.8345 225.85 29.7423 225.473 29.6792 225.097C29.6161 224.721 29.5762 224.344 29.5388 223.958C29.5113 223.581 29.5102 223.202 29.5355 222.824C29.5556 222.456 29.6198 222.091 29.7267 221.738C29.8547 221.293 30.0596 220.874 30.332 220.5C30.5776 220.129 30.8969 219.777 31.1924 219.356C31.5356 218.895 31.8167 218.39 32.0285 217.855C32.1603 217.523 32.2633 217.18 32.3364 216.83C32.4157 216.412 32.4678 215.99 32.4922 215.565C32.4647 215.991 32.4644 216.417 32.4913 216.843C32.5114 217.232 32.5298 217.587 32.5819 217.919C32.6721 218.511 32.7938 219.098 32.9463 219.676C33.0826 220.172 33.1893 220.676 33.2658 221.184C33.3259 221.705 33.285 222.231 33.1453 222.736Z" fill="#F2522E" fill-opacity="0.7"/>
<path d="M5.74325 240.646C5.42074 240.712 4.87947 240.825 4.30126 240.899C4.86192 240.992 5.42167 241.068 5.75294 241.115C6.09071 241.159 6.42546 241.223 6.75527 241.308C7.02831 241.383 7.29367 241.483 7.54779 241.608C7.9757 241.814 8.36293 242.097 8.69088 242.441C9.30458 243.053 9.72267 243.766 10.4128 244.168C10.7802 244.366 11.1725 244.514 11.5792 244.609C11.7723 244.657 11.9686 244.692 12.1666 244.712C10.7517 245.273 9.21984 245.472 7.70913 245.291C6.54599 245.132 5.43188 244.719 4.44545 244.081C4.01886 243.813 3.61404 243.511 3.23474 243.179C2.87207 242.862 2.54193 242.556 2.24066 242.245C1.93939 241.934 1.65994 241.651 1.39451 241.414C1.15745 241.171 0.899624 240.949 0.623977 240.752C0.623977 240.752 -0.141695 240.689 -1.28013 240.509C-2.6757 240.292 -4.05376 239.974 -5.40353 239.557C-6.75916 239.14 -8.0824 238.624 -9.36255 238.013C-9.62533 237.884 -9.86688 237.771 -10.0761 237.665C-10.2852 237.56 -10.4681 237.455 -10.6179 237.373L-11.0879 237.12L-10.6726 236.428L-10.228 236.697L-9.72023 237.005C-9.51916 237.123 -9.29167 237.246 -9.04295 237.384C-7.82133 238.05 -6.55346 238.626 -5.24919 239.109C-3.93835 239.593 -2.59462 239.982 -1.22831 240.273C-0.668744 240.402 -0.196656 240.47 0.132615 240.535C0.294348 240.567 0.426152 240.584 0.514124 240.597L0.651887 240.616C1.79387 240.189 3.00883 238.867 4.45871 237.753C5.20244 237.158 6.02679 236.672 6.90706 236.309C7.96281 235.894 9.08834 235.687 10.2222 235.699C9.73381 236.043 9.33187 236.496 9.048 237.023C8.81671 237.482 8.61475 237.956 8.44333 238.442C8.27382 238.936 7.99926 239.386 7.63865 239.763C7.41831 239.984 7.16191 240.165 6.88058 240.298C6.5192 240.466 6.1365 240.583 5.74325 240.646Z" fill="#F2522E" fill-opacity="0.7"/>
<path d="M14.572 25.694C14.1108 27.1009 13.9279 28.5792 13.5714 29.9867C13.2541 31.4376 12.5115 32.7645 11.4387 33.7972C10.7873 34.3506 10.0033 34.7244 9.16537 34.8812C8.32743 35.0379 7.46493 34.9722 6.66425 34.6904C6.42262 34.6242 6.19743 34.5093 6.00238 34.3529C5.80733 34.1965 5.64649 34.0018 5.52963 33.7806C5.42179 33.4656 5.38931 33.1292 5.43477 32.7981C5.63658 30.6186 6.38871 28.5214 7.62053 26.7033C8.85236 24.8852 10.5234 23.406 12.4768 22.4046" fill="#F2522E" fill-opacity="0.7"/>
<path d="M13.0176 22.4513C11.4656 23.4143 9.91735 24.3904 8.37277 25.3796C7.33895 26.0246 6.2417 26.6982 5.06344 26.7567C4.51542 26.761 3.9756 26.6937 3.45767 26.5564C2.62474 26.3602 1.67518 26.0357 1.46888 25.2087C1.26259 24.3817 1.92571 23.4893 2.60546 22.8566C5.18377 20.4943 8.45351 19.0743 11.806 18.8611" fill="#F2522E" fill-opacity="0.7"/>
<path d="M11.0638 18.7649C9.76536 19.185 8.48075 19.5916 7.15923 19.9236C4.99906 20.4894 2.68552 20.8986 0.683478 20.0652C-0.188132 19.6836 -1.0217 18.796 -0.678639 17.8718C-0.432141 17.3622 -0.0114716 16.9499 0.503069 16.7138C2.19005 15.7779 4.03462 15.1963 5.91653 15.0071C7.79844 14.8178 9.67544 15.0251 11.4252 15.6155" fill="#F2522E" fill-opacity="0.7"/>
<path d="M10.9004 16.1255L6.77273 15.7183C5.5385 15.6476 4.32616 15.4188 3.16523 15.0376C1.99785 14.6472 1.04722 13.8162 0.509426 12.716C0.381815 12.5117 0.30256 12.2794 0.277375 12.0359C0.25219 11.7924 0.281702 11.5437 0.363776 11.3076C0.44585 11.0716 0.578448 10.8541 0.752033 10.6708C0.925618 10.4875 1.13587 10.343 1.36766 10.2477C2.45453 9.75392 3.64325 9.56751 4.79928 9.70955C7.57943 9.89528 10.2238 10.8191 12.4618 12.3863" fill="#F2522E" fill-opacity="0.7"/>
<path d="M11.8287 11.6508C8.99303 9.86389 6.0342 7.95131 4.39138 5.03066C4.04865 4.47612 3.83033 3.85762 3.7523 3.22012C3.71644 2.90213 3.75383 2.58345 3.86158 2.28871C3.96933 1.99398 4.14455 1.73109 4.3737 1.52037C4.6603 1.31397 4.99662 1.18393 5.35282 1.1418C5.70901 1.09967 6.07408 1.14675 6.41563 1.27885C7.41022 1.6802 8.29608 2.32709 8.98762 3.15704C11.3491 5.56696 13.56 8.43237 13.9657 11.7208" fill="#F2522E" fill-opacity="0.7"/>
<path d="M17.7641 17.7987C23.1714 15.8902 30.5817 17.5957 34.6319 21.7548C35.6572 22.8011 36.4929 24.0162 37.5097 25.0625C39.3263 26.8626 41.6226 28.1013 44.1227 28.6298C46.6227 29.1583 49.2202 28.9542 51.6031 28.0419" stroke="#F2522E" stroke-opacity="0.7" stroke-miterlimit="10"/>
<path d="M28.7199 25.2744C27.5284 26.391 26.4312 27.6042 25.4391 28.902C24.2201 30.5272 22.9383 32.2497 22.7372 34.3039C25.9025 34.5035 28.7579 32.4771 30.8375 30.1252C32.6258 28.1037 34.1225 25.5336 33.7944 22.8138L33.6549 21.1562C33.6022 21.7537 33.3953 22.3241 33.0547 22.812C32.5213 23.4154 30.3559 23.7161 28.7199 25.2744Z" fill="#F2522E" fill-opacity="0.7"/>
<path d="M29.3877 12.731C28.5701 10.4014 28.4386 7.8543 29.0082 5.38113C31.1756 6.85237 32.8834 8.89235 33.9576 11.2933C35.0317 13.6943 35.4339 16.3705 35.1232 19.0495C35.0812 19.5861 34.9287 20.114 34.6754 20.6C34.4767 20.92 34.2476 21.2212 33.9916 21.4991C31.9068 18.9181 30.3453 15.9442 29.3877 12.731Z" fill="#F2522E" fill-opacity="0.7"/>
<path d="M29.0788 17.9135C28.2333 18.1864 27.3674 18.6538 26.5586 19.274C26.0471 19.6238 25.5504 20.0132 25.0767 20.4358C24.4974 20.9948 23.9585 21.593 23.471 22.2184C23.0289 22.7503 22.629 23.2467 22.2065 23.7593" stroke="#F2522E" stroke-opacity="0.7" stroke-width="0.99" stroke-linecap="round" stroke-linejoin="round"/>
<path d="M27.9122 17.6548C25.3595 15.952 23.2951 13.516 22.0781 10.771" stroke="#F2522E" stroke-opacity="0.7" stroke-miterlimit="10"/>
<path d="M22.1708 22.3608C21.2726 22.7581 20.5231 23.3735 19.9729 24.1653C19.4227 24.9571 19.0847 25.907 18.9817 26.9506C18.9279 28.2082 19.0448 29.5106 19.3293 30.8249C20.9255 30.3424 22.1227 29.2106 22.6861 27.6514C23.2277 26.0919 23.0874 24.2224 22.2936 22.4197" fill="#F2522E" fill-opacity="0.7"/>
<path d="M23.0781 11.1925C21.7949 10.8953 20.9591 9.63225 20.5148 8.35847C19.9461 6.66106 19.9591 4.68457 21.0494 3.37981C21.4077 3.42777 21.7563 3.55141 22.0718 3.74244C22.3873 3.93347 22.6624 4.18746 22.8787 4.48738C23.6897 5.4336 24.1827 6.60226 24.2817 7.81287C24.3274 8.4125 24.2537 9.00794 24.0649 9.56445C23.8761 10.121 23.576 10.6274 23.1821 11.0542" fill="#F2522E" fill-opacity="0.7"/>
<path d="M-1.35971 21.1427C-1.15852 21.3521 -1.00469 21.6023 -0.908759 21.8761C-0.812826 22.1499 -0.777045 22.4409 -0.803861 22.7292C-0.830677 23.0175 -0.919456 23.2963 -1.06413 23.5465C-1.20881 23.7967 -1.40597 24.0124 -1.64213 24.1789C-2.0287 24.4493 -2.49908 24.5738 -2.97018 24.5305C-3.44127 24.4872 -3.88277 24.2788 -4.21667 23.9423C-4.45065 23.694 -4.61905 23.3914 -4.7065 23.0621C-4.79394 22.7327 -4.79766 22.3872 -4.7173 22.0569C-4.63694 21.7267 -4.47507 21.4222 -4.24645 21.1714C-4.01784 20.9205 -3.72976 20.7312 -3.40849 20.6207C-3.05308 20.5103 -2.67353 20.5006 -2.3119 20.5927C-1.95027 20.6848 -1.62069 20.8752 -1.35971 21.1427Z" fill="#F2522E" fill-opacity="0.7"/>
<path d="M16.2153 26.1354L14.9623 27.545C14.9623 27.545 10.9935 25.0702 9.66617 19.0068C8.33887 12.9434 12.9082 8.55667 12.9082 8.55667C12.9082 8.55667 16.149 13.345 16.896 15.7769" fill="#F2522E" fill-opacity="0.7"/>
<path d="M14.0152 10.3746C12.697 13.3189 12.2488 16.5561 12.7247 19.6952C12.8968 21.4945 13.5615 23.1972 14.6464 24.6176L14.7485 24.7218C14.8931 24.8693 15.0334 25.0125 15.1737 25.1557C15.3082 25.286 15.4508 25.4076 15.6007 25.5199C16.4513 24.4823 17.7045 22.3525 17.6475 18.9036C17.4762 15.6337 16.3117 12.5232 14.3086 9.98511L14.0152 10.3746Z" fill="#F2522E" fill-opacity="0.7"/>
<path d="M14.8702 26.2364C14.8702 26.2364 6.50207 19.2717 13.6094 9.27075" stroke="#FAF2E1" stroke-linecap="round" stroke-linejoin="round"/>
<path d="M-9.40766 52.6045C-9.62374 54.8193 -4.87864 51.7283 -3.74723 49.812C-3.06475 48.5015 -2.69139 47.0526 -2.65581 45.5764C-2.56482 44.3484 -2.59891 42.9845 -3.42582 42.0663C-3.74308 41.6861 -4.14536 41.3859 -4.60021 41.1898C-5.51904 40.8383 -8.80256 39.0725 -13.09 42.1269C-17.3775 45.1814 -8.61774 44.5775 -9.40766 52.6045Z" fill="#F2522E" fill-opacity="0.7"/>
<path d="M-2.49862 61.2393C-2.48933 61.2481 -2.47806 61.2545 -2.46577 61.2579C-2.24088 60.9988 -2.07531 60.6938 -1.98069 60.3642C-1.7497 59.8956 -1.50351 59.3314 -1.36307 58.9766C-1.1064 58.4867 -0.949959 57.9508 -0.902907 57.4001C-0.859476 56.9955 -0.892435 56.5865 -1.00006 56.1944C-1.09574 55.8276 -1.23119 55.4774 -1.34978 55.128C-1.4781 54.7553 -1.52134 54.3584 -1.47632 53.9665C-1.2849 53.0209 -0.920307 52.1186 -0.40094 51.305C-0.152987 50.8677 0.0955846 50.4829 0.259731 50.224C0.423877 49.9651 0.522416 49.8602 0.446161 49.8952C-0.309851 51.0525 -1.10981 52.2414 -1.7687 53.4493C-2.39433 54.5561 -2.89723 55.7278 -3.26844 56.9434C-3.42453 57.4385 -3.52902 57.9484 -3.58025 58.4649C-3.63943 58.8847 -3.63852 59.3107 -3.57755 59.7301C-3.54138 60.053 -3.42328 60.3611 -3.23445 60.6252C-3.04562 60.8894 -2.79233 61.1008 -2.49862 61.2393Z" fill="#F2522E" fill-opacity="0.7"/>
<path d="M4.06122 59.6702C3.72667 59.5973 3.40027 59.4912 3.08689 59.3535C2.76315 59.2099 2.43155 59.0847 2.09366 58.9784C1.72975 58.8666 1.34419 58.8435 0.969206 58.9111C0.478098 59.0462 0.027456 59.2997 -0.343111 59.6495C-0.60375 59.9102 -0.99693 60.3435 -1.31856 60.7348C-1.53703 60.9845 -1.69702 61.2797 -1.78686 61.5989L-1.75401 61.6175C-1.47983 61.7729 -1.17542 61.8678 -0.861269 61.8957C-0.547117 61.9236 -0.230506 61.8839 0.0672754 61.7793C0.410466 61.6758 0.747746 61.5534 1.07758 61.4129C1.42708 61.2632 1.77036 61.0709 2.15731 60.9164C2.90996 60.548 3.69755 60.2559 4.50825 60.0447C5.30698 59.8394 6.13885 59.7988 6.95316 59.9254C6.99763 59.9158 6.90717 59.8993 6.72954 59.8683L6.00332 59.8179C5.37821 59.7422 4.62694 59.7818 4.06122 59.6702Z" fill="#F2522E" fill-opacity="0.7"/>
<path d="M0.102401 57.5435C0.111233 57.5529 0.122678 57.5593 0.135248 57.5621C0.227124 57.5837 0.523182 57.2605 0.859281 56.8513C1.19538 56.4422 1.6452 55.9932 1.89075 55.6979C2.29888 55.2972 2.63184 54.8266 2.87375 54.3086C3.06316 53.9246 3.19098 53.5133 3.2525 53.0898C3.38231 52.2947 3.32704 51.4818 3.76142 50.7158C3.99786 50.3193 4.27177 49.9464 4.57939 49.6022C4.93558 49.2152 5.31398 48.8493 5.71268 48.5063C6.47098 47.8193 7.11156 47.4087 6.95106 47.4699C6.42331 47.8575 5.87708 48.3388 5.34897 48.7652C5.07697 48.9848 4.80302 49.1772 4.547 49.4145L3.72123 50.0981C3.46565 50.327 3.20395 50.5437 2.96196 50.7716C2.71996 50.9994 2.49163 51.2568 2.25762 51.4935C2.02362 51.7302 1.81864 51.9616 1.60709 52.1894C1.39554 52.4171 1.22438 52.6807 1.04612 52.9186C0.421956 53.7065 -0.0380189 54.6113 -0.306571 55.5795C-0.46719 56.4136 -0.345424 57.0557 0.102401 57.5435Z" fill="#F2522E" fill-opacity="0.7"/>
<path d="M6.98506 57.1812C6.29897 56.9147 5.7669 56.453 5.08534 56.1325C4.72665 55.9585 4.33307 55.868 3.93409 55.8677C3.40829 55.9039 2.89769 56.0609 2.44202 56.3264C2.02191 56.6016 1.61624 56.8982 1.22664 57.2152C0.859471 57.572 0.572288 57.8872 0.603443 57.9699C0.611488 57.9782 0.621746 57.984 0.633002 57.9866C1.17952 58.3463 1.84288 58.484 2.48819 58.3718C3.25711 58.2812 4.01994 58.1443 4.77253 57.9618L5.3886 57.824L6.04275 57.7337C6.25766 57.699 6.474 57.6694 6.69548 57.6383C6.91696 57.6073 7.1451 57.6104 7.38771 57.5957L8.05988 57.5808C8.29195 57.5899 8.52341 57.6107 8.75335 57.6431C9.20948 57.6824 9.66007 57.7699 10.0976 57.9041C9.76122 57.7712 9.40884 57.6828 9.04939 57.6412L7.976 57.4074C7.64044 57.3569 7.30919 57.2813 6.98506 57.1812Z" fill="#F2522E" fill-opacity="0.7"/>
<path d="M4.01903 54.175C4.04122 54.2353 4.17366 54.193 4.3631 54.0961C4.45525 54.0483 4.56515 53.9846 4.68392 53.9128C4.8027 53.841 4.93275 53.78 5.0707 53.6974C5.60156 53.4115 6.15985 53.0542 6.31467 52.9724C6.82516 52.7243 7.28567 52.3842 7.67307 51.9692C7.97084 51.6536 8.21748 51.2935 8.40404 50.9019C8.58568 50.5357 8.7256 50.1589 8.8941 49.7852C8.97688 49.5969 9.0718 49.4142 9.17827 49.2382C9.29077 49.0602 9.42019 48.8934 9.56471 48.7403C9.87837 48.4305 10.2192 48.1496 10.583 47.9007C10.792 47.754 11.0113 47.6045 11.2334 47.4653C11.4555 47.326 11.6674 47.2201 11.8732 47.102C12.7104 46.6507 13.3985 46.3322 13.2356 46.3746C10.9333 47.543 8.31243 48.6919 6.43231 50.0644C5.99326 50.3785 5.57722 50.7236 5.18736 51.0971C4.86271 51.4261 4.57127 51.7864 4.31728 52.1725C4.21057 52.3333 4.11526 52.5014 4.03205 52.6755C3.98002 52.8509 3.94617 53.0311 3.931 53.2133C3.87645 53.5362 3.90679 53.8677 4.01903 54.175Z" fill="#F2522E" fill-opacity="0.7"/>
<path d="M6.66403 53.8557C6.503 53.8949 5.91667 54.1104 5.37578 54.3298C5.24441 54.3802 5.11602 54.4381 4.99123 54.5031C4.87618 54.5683 4.77471 54.6325 4.69055 54.6891C4.52366 54.8074 4.43072 54.9025 4.47208 54.9519C4.67983 55.1986 4.93887 55.397 5.23122 55.5334C5.37676 55.6016 5.52763 55.658 5.68234 55.7017C5.84363 55.7539 6.01709 55.7999 6.19099 55.8375C6.55988 55.9075 6.93367 55.9492 7.30904 55.9619C7.70212 55.9802 8.14117 56.0245 8.57215 56.0295C10.3304 56.1036 12.4219 56.2402 14.2718 57.0479C13.9186 56.8749 13.5517 56.7312 13.1749 56.6184L12.6229 56.406L12.0686 56.2054C11.7268 56.0798 11.3955 55.9273 11.078 55.7492C10.9164 55.6518 10.7622 55.5428 10.6165 55.423C10.4771 55.3094 10.3414 55.1892 10.2042 55.0638C9.93569 54.8014 9.65352 54.5534 9.3589 54.3207C9.03424 54.0655 8.65873 53.8827 8.25746 53.7844C7.72742 53.6959 7.18446 53.7202 6.66403 53.8557Z" fill="#F2522E" fill-opacity="0.7"/>
<path d="M8.13315 52.3336C8.05431 52.6104 10.2507 52.0725 10.6095 52.067C11.6961 51.8799 12.7135 51.4061 13.5567 50.6946C13.9301 50.3804 14.2806 50.0836 14.6442 49.7943C15.0173 49.4979 15.4202 49.2412 15.8463 49.0283C16.2857 48.8203 16.7447 48.6566 17.2165 48.5398C17.7314 48.3968 18.2791 48.2724 18.7702 48.1638C19.7477 47.9699 20.4942 47.8928 20.3377 47.8781C19.0178 48.0867 17.652 48.3302 16.3516 48.4891C15.0973 48.6813 13.8538 48.9388 12.626 49.2605C11.5896 49.5195 10.5972 49.9314 9.68164 50.4826C8.97053 50.9062 8.4244 51.5591 8.13315 52.3336Z" fill="#F2522E" fill-opacity="0.7"/>
<path d="M8.40742 53.2191C9.01264 53.6916 9.73511 53.9908 10.4977 54.0846C11.4101 54.2285 12.3308 54.3142 13.2543 54.3413C14.2578 54.3618 15.3748 54.4727 16.506 54.5741C17.6746 54.7224 18.8273 54.9762 19.9498 55.3324C19.5125 55.1586 19.0625 55.0187 18.6037 54.914C18.185 54.8031 17.7134 54.6709 17.2609 54.5278C16.8085 54.3848 16.3705 54.2239 16.0394 54.0887C15.6368 53.9108 15.2529 53.6936 14.8931 53.4402C14.5264 53.1797 14.1435 52.9428 13.7467 52.7309C12.8127 52.1899 11.7054 52.0301 10.6551 52.2846C10.2936 52.3102 8.17272 53.0515 8.40742 53.2191Z" fill="#F2522E" fill-opacity="0.7"/>
<path d="M21.7065 51.6968C20.9227 51.5533 20.1473 51.3683 19.3833 51.1425C18.7129 50.9493 18.0292 50.8049 17.3378 50.7105C16.9931 50.6599 16.6447 50.6371 16.2963 50.6424C15.9248 50.662 15.5554 50.7099 15.1911 50.7858C14.7822 50.8693 14.3803 50.9846 13.9892 51.1307C13.5338 51.3335 13.0926 51.567 12.6688 51.8297L12.0731 51.9009C11.6868 51.9473 11.1124 52.0653 10.4068 52.2002C8.4233 52.5811 6.50629 53.2526 4.71775 54.1928C2.18541 55.5728 0.0516187 57.5833 -1.4765 60.0292C-2.33814 61.4012 -3.05321 62.8597 -3.60991 64.3807C-3.76714 64.7651 -3.89764 65.1559 -4.02345 65.5537C-4.14925 65.9515 -4.28819 66.3419 -4.40742 66.7434C-4.62059 67.5478 -4.88063 68.343 -5.04267 69.1719C-5.81981 72.4321 -6.3087 75.7423 -6.80106 78.8292C-7.29341 81.9161 -7.78779 84.7847 -8.39543 87.2028C-8.86615 89.1422 -9.48926 91.0418 -10.2589 92.8837C-10.4098 93.2109 -10.5453 93.5034 -10.6584 93.7564C-10.7715 94.0094 -10.8941 94.218 -10.9826 94.3894C-11.169 94.7181 -11.2518 94.9101 -11.2518 94.9101L-10.5391 95.3133L-10.2634 94.7658C-10.1664 94.5949 -10.0452 94.3811 -9.94297 94.109C-9.8407 93.8368 -9.69492 93.5415 -9.54506 93.2007C-8.78722 91.3083 -8.17962 89.3593 -7.72789 87.372C-7.15549 84.9166 -6.69679 82.0191 -6.25459 78.9212C-5.81239 75.8234 -5.37125 72.5208 -4.64889 69.2731C-4.48588 68.4577 -4.25442 67.6594 -4.05484 66.856C-3.9459 66.4574 -3.81352 66.0633 -3.69473 65.6702C-3.57594 65.2771 -3.45387 64.8858 -3.30037 64.508C-2.78201 62.9939 -2.10273 61.5395 -1.2742 60.1697C0.198012 57.7281 2.27726 55.7087 4.76071 54.3083C6.52955 53.3412 8.43033 52.6388 10.4022 52.2237C11.1148 52.084 11.6747 51.9534 12.0614 51.8987L12.665 51.8059C13.1287 51.9565 13.6011 52.0788 14.0798 52.172C14.4754 52.2735 14.878 52.3459 15.2843 52.3888C15.634 52.4407 15.9873 52.4648 16.3408 52.461C16.6741 52.454 17.0068 52.4291 17.3375 52.3865C17.987 52.3197 18.6399 52.1245 19.3427 52.0097C20.1239 51.8592 20.9132 51.7547 21.7065 51.6968Z" fill="#F2522E" fill-opacity="0.7"/>
<path d="M-2.47612 79.2349C-3.71352 80.1243 -5.39178 79.5266 -6.32388 82.0043C-6.59821 82.7176 -7.10337 84.2817 -6.98726 84.4212L-6.95114 84.4416C-5.66434 84.7657 -4.5837 83.6097 -3.51901 81.9539C-2.45433 80.2981 -1.4056 78.1426 -0.0442457 76.5374C0.0669055 76.2573 -1.45097 78.4904 -2.47612 79.2349Z" fill="#F2522E" fill-opacity="0.7"/>
<path d="M-1.79862 74.7936C-3.0338 75.6408 -4.72476 75.0272 -5.63626 77.4992C-5.89745 78.2199 -6.36888 79.7857 -6.23547 79.9177C-6.22535 79.9274 -6.21292 79.9345 -6.19934 79.9381C-4.90331 80.2153 -3.87095 79.045 -2.83006 77.4235C-1.78917 75.8021 -0.732718 73.7248 0.690945 72.2851C0.39453 72.5587 0.119443 72.8546 -0.131902 73.1701C-0.624494 73.7724 -1.18363 74.317 -1.79862 74.7936Z" fill="#F2522E" fill-opacity="0.7"/>
<path d="M-0.963267 70.4638C-2.24469 71.1936 -3.91283 70.5321 -4.89526 72.9379C-5.17944 73.6456 -5.66215 75.2007 -5.52545 75.3345C-5.51544 75.3444 -5.50297 75.3515 -5.48932 75.355C-4.20261 75.6486 -3.17114 74.4952 -2.0879 72.9367C-1.00467 71.3783 0.158203 69.4958 1.65376 68.2966C1.34187 68.5184 1.05319 68.7712 0.792128 69.0511C0.247508 69.5702 -0.339689 70.0428 -0.963267 70.4638Z" fill="#F2522E" fill-opacity="0.7"/>
<path d="M2.89111 64.8276C2.56259 64.9655 2.24834 65.1354 1.95288 65.3346C1.36741 65.7431 0.746496 66.0982 0.0976309 66.3955C-0.559278 66.6666 -1.28648 66.6026 -2.00419 66.7437C-2.7219 66.8849 -3.42071 67.2451 -4.00664 68.4161C-4.33352 69.0997 -4.91236 70.6178 -4.77282 70.7619L-4.73341 70.7842C-3.45034 71.1149 -2.3784 70.0277 -1.20613 68.6412C-0.9059 68.303 -0.620313 67.9218 -0.30046 67.5643C0.0193926 67.2067 0.344395 66.8478 0.674101 66.4958C1.00381 66.1439 1.38473 65.847 1.74364 65.5506L2.01706 65.3362L2.31072 65.1549C2.49776 65.0393 2.69093 64.9358 2.89111 64.8276Z" fill="#F2522E" fill-opacity="0.7"/>
<path d="M-4.44078 65.9777C-4.42715 65.9798 -4.41322 65.9788 -4.40004 65.9747C-4.22808 65.6798 -4.12299 65.3509 -4.09223 65.0111C-3.98596 64.5024 -3.8415 63.911 -3.78033 63.5201C-3.6734 62.9862 -3.65598 62.4384 -3.72877 61.8991C-3.81015 61.5023 -3.96077 61.1232 -4.17373 60.7789C-4.55222 60.1305 -5.07976 59.615 -5.2531 58.7961C-5.33099 58.3721 -5.34408 57.9386 -5.29193 57.5104C-5.25683 57.003 -5.18676 56.4986 -5.08219 56.0007C-4.85588 55.0431 -4.60419 54.2779 -4.69598 54.4474C-4.8613 55.1138 -5.0702 55.773 -5.23694 56.4342C-5.40367 57.0955 -5.55727 57.7642 -5.69409 58.4033C-5.83091 59.0424 -5.93356 59.6748 -6.00912 60.2747C-6.08469 60.8746 -6.12377 61.4561 -6.14519 61.9912C-6.17039 64.1394 -5.73131 65.6602 -4.44078 65.9777Z" fill="#F2522E" fill-opacity="0.7"/>
<path d="M1.70431 62.7668C1.02725 62.8745 0.324026 62.6764 -0.411433 62.6729C-0.789604 62.6649 -1.16394 62.7517 -1.5003 62.9254C-1.96106 63.1703 -2.34597 63.5369 -2.61307 63.9851C-2.87997 64.3982 -3.12274 64.8263 -3.34015 65.2674C-3.50988 65.5535 -3.61184 65.8746 -3.63819 66.2061C-3.62918 66.2172 -3.61627 66.2245 -3.60206 66.2265C-3.29966 66.3278 -2.97834 66.3604 -2.66151 66.3217C-2.34469 66.2831 -2.04034 66.1743 -1.77064 66.0033C-1.61485 65.9177 -1.46418 65.8232 -1.31941 65.7201C-1.16293 65.6175 -1.00492 65.5072 -0.845361 65.389C-0.520985 65.1382 -0.209746 64.8801 0.109838 64.5919L1.13845 63.7495C1.48803 63.4696 1.87331 63.2185 2.23657 62.9681C2.61176 62.7435 3.00077 62.543 3.40125 62.3676C3.78975 62.2186 4.19211 62.1087 4.60232 62.0396C4.67618 61.9859 4.25958 62.0933 3.62664 62.2302C3.31346 62.3006 2.98873 62.4296 2.64421 62.5169C2.29969 62.6043 1.97772 62.7131 1.70431 62.7668Z" fill="#F2522E" fill-opacity="0.7"/>
<path d="M24.1849 433.832C24.9739 434.848 25.557 436.009 25.9014 437.249C26.2499 438.336 26.593 439.231 27.4438 439.842C27.9472 440.169 28.4932 440.425 29.0665 440.602L28.6696 440.512C28.9936 440.606 29.278 440.684 29.5705 440.78C28.8014 440.631 28.0233 440.534 27.2412 440.489C26.1847 440.46 25.3299 441.045 24.3056 441.554C23.0642 442.276 21.6408 442.621 20.2076 442.549C19.7531 442.522 19.95 442.685 20.5451 442.95C20.8406 443.078 21.2321 443.245 21.6988 443.398C22.1654 443.551 22.7049 443.701 23.2702 443.854C23.5546 443.932 23.8425 444.013 24.1417 444.08L25.0526 444.252C25.6585 444.363 26.258 444.474 26.8225 444.551C27.7178 444.665 28.6212 444.701 29.5228 444.66C30.0836 444.576 30.6315 444.42 31.1533 444.198C31.7031 443.978 32.2294 443.704 32.7243 443.378C33.4445 442.913 34.1251 442.39 34.7591 441.812C34.7591 441.812 34.8073 441.817 34.8981 441.834L35.2965 441.873C35.6398 441.9 36.1277 441.943 36.7156 441.999C37.3034 442.054 37.9921 442.065 38.7295 442.087C39.0962 442.093 39.4745 442.121 39.8716 442.112L41.0448 442.063L42.2382 442.026L43.3728 441.905C44.1063 441.819 44.7987 441.768 45.3789 441.643L47.3261 441.297L47.1021 440.349L45.2116 440.788C44.6464 440.938 43.9731 441.021 43.2558 441.144C42.8951 441.201 42.5218 441.259 42.1428 441.324L40.9875 441.428L39.8266 441.539C39.4468 441.562 39.0681 441.563 38.7032 441.576C37.9722 441.588 37.2883 441.628 36.7051 441.588L35.2577 441.532C34.9162 441.523 34.7123 441.488 34.7123 441.488C34.4496 441.102 33.8646 440.274 33.2137 439.456C32.63 438.636 31.9343 437.901 31.1469 437.274C30.5275 436.867 29.8792 436.506 29.2072 436.194C28.8017 435.98 28.3594 435.748 27.9234 435.516L27.2712 435.186L26.6361 434.835C26.2335 434.618 25.8309 434.402 25.487 434.233C25.1431 434.065 24.8427 433.887 24.6099 433.781C24.1562 433.563 23.9437 433.539 24.1849 433.832Z" fill="#F2522E" fill-opacity="0.7"/>
<path d="M25.8282 440.076C25.8282 440.076 25.4955 439.958 24.9844 439.739C24.4733 439.52 23.7599 439.25 22.9999 438.924C22.2399 438.598 21.4218 438.264 20.6848 437.946C20.0588 437.663 19.4077 437.44 18.74 437.28C17.7358 437.031 16.833 437.379 15.7442 437.713C15.1619 437.892 14.5636 438.013 13.9577 438.075C13.1986 438.154 12.4315 438.099 11.6915 437.912C11.2704 437.802 11.4291 437.998 11.9172 438.343C12.6966 438.834 13.5003 439.285 14.3252 439.695C16.3672 440.68 18.9501 441.594 20.0574 441.689C20.698 441.742 21.3428 441.703 21.9724 441.573C22.6166 441.436 23.2479 441.243 23.8595 440.998C24.4306 440.777 24.9179 440.546 25.2615 440.376C25.605 440.206 25.8282 440.076 25.8282 440.076Z" fill="#F2522E" fill-opacity="0.7"/>
<path d="M17.4549 429.678C17.7836 430.264 18.0349 430.891 18.2022 431.542C18.3329 432.104 18.4285 432.673 18.4886 433.247C18.6339 434.305 18.7522 435.247 19.4476 435.997C19.9427 436.448 20.4842 436.845 21.063 437.182C21.7747 437.601 22.51 437.978 23.2652 438.311C24.0035 438.643 24.7201 438.88 25.2288 439.074C25.5064 439.181 25.7893 439.273 26.0764 439.35L25.8466 438.776C25.7073 438.416 25.51 437.915 25.258 437.375C25.006 436.834 24.7493 436.278 24.4617 435.732C24.2123 435.221 23.8963 434.746 23.5219 434.319C22.8688 433.645 21.0935 432.252 19.6447 431.111C18.9294 430.519 18.3005 429.999 17.8826 429.723C17.4648 429.447 17.2773 429.35 17.4549 429.678Z" fill="#F2522E" fill-opacity="0.7"/>
<path d="M17.9327 436.403L17.1674 435.921C16.691 435.632 16.0756 435.187 15.3782 434.75C13.9999 433.848 12.4337 432.779 11.4788 432.379C10.5239 431.979 9.58143 432.178 8.46826 432.322C7.11794 432.566 5.72642 432.424 4.45306 431.912C4.05869 431.749 4.1807 431.96 4.6388 432.392C4.87724 432.589 5.16195 432.871 5.52419 433.165C5.88643 433.459 6.32213 433.755 6.77917 434.075C7.2362 434.395 7.71397 434.732 8.20826 435.042C8.70255 435.352 9.21051 435.639 9.68451 435.903C10.1135 436.153 10.5569 436.378 11.0125 436.576C11.3405 436.727 11.6772 436.858 12.0207 436.968C12.3178 437.05 12.6214 437.106 12.9281 437.137C13.2571 437.166 13.5875 437.174 13.9175 437.163C14.5624 437.139 15.2046 437.067 15.8389 436.948C16.3463 436.862 16.8488 436.749 17.3443 436.609C17.711 436.482 17.9327 436.403 17.9327 436.403Z" fill="#F2522E" fill-opacity="0.7"/>
<path d="M11.396 424.653C11.8134 425.84 11.9812 427.101 11.8886 428.356C11.8578 429.437 11.807 430.409 12.4092 431.251C13.0114 432.092 14.4215 433.294 15.7792 434.214C16.4583 434.659 17.0839 435.078 17.5642 435.341L18.3666 435.778L18.2515 435.17C18.1769 434.788 18.0622 434.286 17.934 433.708C17.8058 433.13 17.6441 432.501 17.4515 431.917C17.3539 431.627 17.2448 431.35 17.1391 431.076C17.0367 430.821 16.9122 430.576 16.7669 430.343C16.5997 430.085 16.4135 429.839 16.2099 429.608C15.9637 429.329 15.6839 428.999 15.3828 428.645C15.0817 428.291 14.7478 427.927 14.4146 427.57C14.0813 427.212 13.764 426.822 13.4503 426.469C13.1366 426.116 12.8391 425.8 12.5635 425.514C12.2879 425.228 12.0693 424.971 11.8866 424.791C11.4511 424.396 11.2607 424.302 11.396 424.653Z" fill="#F2522E" fill-opacity="0.7"/>
<path d="M11.031 431.577C10.9657 431.529 10.9033 431.478 10.8444 431.422C10.7234 431.322 10.5615 431.159 10.3592 430.974C9.94786 430.599 9.38039 430.089 8.75657 429.555C8.13276 429.022 7.50337 428.396 6.88136 427.881C6.3759 427.42 5.83657 426.997 5.2679 426.616C4.36872 426.099 3.39871 426.176 2.29227 426.157C1.68757 426.171 1.08286 426.13 0.485312 426.037C-0.255656 425.907 -0.967424 425.646 -1.61603 425.265C-2.35701 424.838 -1.25386 426.193 0.378409 427.689C2.01068 429.185 4.14157 430.803 5.13163 431.238C5.70822 431.49 6.31945 431.655 6.9448 431.725C7.59287 431.796 8.2452 431.82 8.89672 431.797C9.49913 431.771 10.0424 431.726 10.4232 431.68C10.804 431.634 11.031 431.577 11.031 431.577Z" fill="#F2522E" fill-opacity="0.7"/>
<path d="M6.17948 418.951C6.33909 419.615 6.41155 420.298 6.39501 420.981C6.36588 421.565 6.29674 422.146 6.18807 422.72C6.00117 423.8 5.85091 424.73 6.30652 425.637C6.62545 426.229 7.01688 426.78 7.47174 427.276C8.00227 427.867 8.61273 428.494 9.19824 429.06C9.78375 429.626 10.3843 430.082 10.8065 430.437C11.0173 430.612 11.19 430.755 11.3075 430.852C11.425 430.949 11.4941 431.006 11.4941 431.006L11.4822 430.379C11.4707 429.991 11.4483 429.454 11.4049 428.865C11.3616 428.276 11.2882 427.639 11.173 427.031C11.1029 426.449 10.9608 425.877 10.7501 425.33C10.3365 424.464 9.01234 422.559 7.94492 420.976C6.8775 419.394 6.01038 418.211 6.17948 418.951Z" fill="#F2522E" fill-opacity="0.7"/>
<path d="M4.72578 425.586C4.72578 425.586 4.49109 425.328 4.1374 424.89C3.7837 424.452 3.29914 423.876 2.75644 423.258C1.8168 422.063 0.782114 420.946 -0.337481 419.918C-1.9888 418.656 -4.18996 419.712 -6.99513 417.699C-7.34069 417.413 -7.2678 417.678 -6.95105 418.196C-6.43471 418.941 -5.87971 419.659 -5.28835 420.346C-4.94848 420.773 -4.55753 421.201 -4.15802 421.619C-3.75851 422.037 -3.36591 422.449 -2.98954 422.825C-2.39015 423.423 -1.73653 423.964 -1.03712 424.44C-0.0829441 425.067 1.4063 425.361 2.60905 425.489C3.21357 425.552 3.74734 425.575 4.13358 425.586C4.51982 425.597 4.72578 425.586 4.72578 425.586Z" fill="#F2522E" fill-opacity="0.7"/>
<path d="M0.859081 419.044C1.16868 420.023 2.27605 421.556 3.29265 422.805C3.81988 423.428 4.32217 423.989 4.69178 424.394C5.06139 424.799 5.31441 425.049 5.31441 425.049L5.38283 424.43C5.4259 424.046 5.47977 423.508 5.51274 422.918C5.62736 421.723 5.55661 420.517 5.30302 419.344C5.0426 418.64 4.73907 417.953 4.39418 417.287C4.17419 416.849 3.95991 416.404 3.73992 415.966C3.51993 415.527 3.2735 415.079 3.07709 414.654C2.63426 413.781 2.23742 413.057 1.96229 412.608C1.68717 412.159 1.53332 412.014 1.56536 412.384C1.95228 415.412 0.195279 417.121 0.859081 419.044Z" fill="#F2522E" fill-opacity="0.7"/>
<path d="M-0.715499 418.755L-2.27427 416.359C-2.71662 415.725 -3.14727 415.013 -3.57685 414.413C-3.94 413.884 -4.34417 413.384 -4.78562 412.918C-5.47435 412.238 -6.36162 412.08 -7.3841 411.84C-8.63513 411.587 -9.79616 411.004 -10.7473 410.152C-11.3465 409.609 -10.5815 411.057 -9.47156 412.785C-8.88135 413.635 -8.22369 414.557 -7.59533 415.339C-7.09877 415.953 -6.55561 416.527 -5.9707 417.056C-5.14481 417.74 -3.79149 418.178 -2.6966 418.444C-2.04529 418.599 -1.38293 418.703 -0.715499 418.755Z" fill="#F2522E" fill-opacity="0.7"/>
<path d="M-2.22992 406.059C-2.23417 407.254 -2.50833 408.433 -3.03186 409.507C-3.41392 410.443 -3.77241 411.258 -3.57429 412.203C-3.41246 412.812 -3.17588 413.399 -2.86995 413.95C-2.5232 414.656 -2.13484 415.341 -1.70692 416.001C-1.28921 416.644 -0.903795 417.248 -0.597879 417.653C-0.450027 417.868 -0.323665 418.025 -0.229607 418.144L-0.0882198 418.325C-0.0882198 418.325 0.126649 417.472 0.362218 416.368C0.608887 415.263 0.676911 414.126 0.563696 413C0.406281 412.303 0.191176 411.621 -0.0793877 410.96C-0.377996 410.13 -0.704715 409.173 -1.04178 408.341C-1.66439 406.649 -2.23302 405.357 -2.22992 406.059Z" fill="#F2522E" fill-opacity="0.7"/>
<path d="M-7.06207 405.124C-6.79223 406.468 -6.32877 407.765 -5.68624 408.976C-5.35851 409.643 -5.05737 410.265 -4.78631 410.705C-4.51524 411.144 -4.36948 411.405 -4.36948 411.405C-4.36948 411.405 -4.05456 410.6 -3.76009 409.58C-3.38271 408.546 -3.19037 407.453 -3.19189 406.352C-3.23602 405.453 -3.78912 403.388 -4.19885 401.693C-4.43497 400.851 -4.61624 400.083 -4.75706 399.641C-4.89788 399.198 -5.0283 399.032 -5.06807 399.384C-5.13596 400.006 -5.29351 400.615 -5.5358 401.192C-5.73594 401.679 -5.96851 402.152 -6.23193 402.608C-6.70624 403.444 -7.15969 404.198 -7.06207 405.124Z" fill="#F2522E" fill-opacity="0.7"/>
<path d="M6.68684 447.841C6.68684 447.841 6.56591 447.835 6.38421 447.81C6.20251 447.785 5.94526 447.772 5.71565 447.736C5.48604 447.7 5.2297 447.669 5.0458 447.644C4.86191 447.619 4.74189 447.595 4.74189 447.595L4.74588 447.518C4.74588 447.518 4.8659 447.542 5.0476 447.566C5.22929 447.591 5.47221 447.626 5.71524 447.659C5.95827 447.691 6.19945 447.717 6.37269 447.735C6.54593 447.752 6.67543 447.764 6.67543 447.764L6.68684 447.841Z" fill="#F2522E" fill-opacity="0.7"/>
<path d="M8.17536 440.917L8.14326 440.984L7.92729 440.897C7.80207 440.847 7.63355 440.781 7.46781 440.704L7.01769 440.499C6.89489 440.444 6.8156 440.4 6.8156 440.4L6.85199 440.336C6.85199 440.336 6.93128 440.38 7.0542 440.433C7.17711 440.485 7.34066 440.562 7.50432 440.637C7.66797 440.712 7.83429 440.778 7.9616 440.831L8.17536 440.917Z" fill="#F2522E" fill-opacity="0.7"/>
<path d="M4.00688 440.279C4.18202 440.772 4.12583 441.389 4.27259 442.004C4.41936 442.619 4.75988 443.282 5.77952 443.772C5.99403 443.887 6.38876 444.056 6.78327 444.229C6.3582 444.178 5.92759 444.149 5.68721 444.108C4.55515 443.958 3.85802 444.181 3.28041 444.522C2.7028 444.863 2.27037 445.295 1.68879 445.457C1.37906 445.535 1.05938 445.567 0.740448 445.549C0.586224 445.546 0.432291 445.534 0.279286 445.515C1.22559 446.212 2.33398 446.657 3.49959 446.806C4.38687 446.907 5.28555 446.811 6.13111 446.523C7.65677 446.01 8.68821 445.079 9.55722 444.772L9.5611 444.698C8.78802 444.171 8.13707 442.989 7.28137 441.887C6.84653 441.309 6.33466 440.793 5.76006 440.354C5.06622 439.852 4.28286 439.488 3.45225 439.28C3.52659 439.372 3.59523 439.469 3.65776 439.569C3.79781 439.793 3.91478 440.031 4.00688 440.279Z" fill="#F2522E" fill-opacity="0.7"/>
<path d="M0.261729 445.551L-0.660945 445.19L-1.57497 444.789L-1.55571 444.715L-0.64608 445.115L0.272312 445.474L0.261729 445.551Z" fill="#F2522E" fill-opacity="0.7"/>
<path d="M3.4756 439.253L3.42855 439.31L2.86486 438.872C2.59705 438.638 2.32705 438.403 2.32705 438.403L2.38047 438.35L2.91213 438.811L3.4756 439.253Z" fill="#F2522E" fill-opacity="0.7"/>
<path d="M-0.155776 437.675C-0.13463 438.204 -0.33586 438.77 -0.373065 439.404C-0.410271 440.038 -0.240273 440.758 0.621034 441.497C0.811285 441.654 1.12951 441.938 1.47813 442.188C1.07081 442.05 0.675738 441.888 0.43798 441.796C-0.615172 441.357 -1.3488 441.39 -1.99933 441.564C-2.64987 441.738 -3.19036 442.043 -3.78689 442.025C-4.10933 442.011 -4.42823 441.952 -4.73464 441.85C-4.9945 441.759 -5.16653 441.675 -5.16653 441.675C-4.44363 442.624 -3.48788 443.368 -2.39242 443.836C-1.55367 444.173 -0.649604 444.314 0.251599 444.249C0.635765 444.226 1.01746 444.172 1.39313 444.088C1.75236 444.005 2.08059 443.925 2.39445 443.824C2.7083 443.723 2.99729 443.634 3.26546 443.564C3.50981 443.489 3.76048 443.436 4.01438 443.407L4.04232 443.335C3.41688 442.64 3.07687 441.328 2.53196 440.056C2.26303 439.395 1.90831 438.772 1.47696 438.204C0.957824 437.552 0.322448 437.002 -0.396898 436.582C-0.35498 436.692 -0.319572 436.805 -0.290858 436.919C-0.217467 437.165 -0.172149 437.419 -0.155776 437.675Z" fill="#F2522E" fill-opacity="0.7"/>
<path d="M11.5607 444.719C11.805 444.77 12.2151 444.855 12.6531 444.911C12.2284 444.982 11.8043 445.039 11.5534 445.075C11.2975 445.108 11.0439 445.156 10.794 445.221C10.5872 445.277 10.3862 445.353 10.1937 445.448C9.86948 445.604 9.57612 445.818 9.32768 446.079C8.86276 446.543 8.54602 447.083 8.02323 447.387C7.74484 447.538 7.44764 447.65 7.13954 447.721C6.99326 447.758 6.84456 447.784 6.69456 447.8C7.76644 448.224 8.92695 448.375 10.0714 448.238C10.9526 448.117 11.7966 447.805 12.5439 447.322C12.8671 447.118 13.1737 446.89 13.4611 446.638C13.7358 446.398 13.9859 446.166 14.2142 445.931C14.4424 445.695 14.6541 445.481 14.8552 445.301C15.0348 445.117 15.2301 444.949 15.4389 444.799C15.4389 444.799 16.019 444.752 16.8814 444.616C17.9387 444.451 18.9826 444.21 20.0052 443.894C21.0322 443.579 22.0346 443.188 23.0044 442.725C23.2035 442.627 23.3865 442.541 23.545 442.461C23.7034 442.381 23.842 442.302 23.9555 442.24L24.3115 442.048L23.9969 441.524L23.6601 441.727L23.2754 441.961C23.1231 442.051 22.9507 442.143 22.7623 442.248C21.8368 442.752 20.8763 443.189 19.8883 443.555C18.8952 443.921 17.8772 444.216 16.8422 444.437C16.4183 444.534 16.0606 444.586 15.8112 444.635C15.6886 444.66 15.5888 444.672 15.5221 444.682L15.4178 444.697C14.5527 444.373 13.6322 443.371 12.5338 442.528C11.9704 442.077 11.3459 441.708 10.679 441.433C9.87925 441.119 9.02658 440.963 8.16761 440.972C8.53758 441.232 8.84208 441.576 9.05713 441.974C9.23235 442.323 9.38535 442.682 9.51521 443.049C9.64363 443.423 9.85163 443.765 10.1248 444.051C10.2917 444.218 10.486 444.355 10.6991 444.456C10.9729 444.583 11.2628 444.672 11.5607 444.719Z" fill="#F2522E" fill-opacity="0.7"/>
<path d="M20.3377 423.769L20.4898 424.174C20.5384 424.302 20.584 424.479 20.66 424.647L20.9245 425.241C21.4097 426.3 22.0016 427.308 22.6909 428.247L23.2838 428.984C23.4685 429.227 23.6653 429.461 23.8736 429.685C24.2871 430.114 24.655 430.535 25.0016 430.86L26.166 431.936L25.7465 432.405L24.5972 431.263C24.2537 430.915 23.8949 430.474 23.4905 430.02C23.2808 429.797 23.1075 429.532 22.9129 429.28L22.3352 428.503C21.6656 427.521 21.0981 426.473 20.6418 425.375L20.3925 424.765C20.3195 424.58 20.28 424.412 20.2374 424.278L20.1097 423.848L20.3377 423.769Z" fill="#F2522E" fill-opacity="0.7"/>
<path d="M21.9811 418.241C22.1635 417.982 22.2851 418.545 22.3034 419.264C22.3148 419.652 22.2965 420.04 22.2486 420.425C22.2091 420.623 22.1909 420.812 22.1361 420.994C22.0893 421.174 22.0176 421.346 21.9233 421.506C21.8047 421.692 21.6527 421.899 21.4946 422.115C21.3365 422.332 21.145 422.557 20.9778 422.767C20.8106 422.977 20.6464 423.166 20.543 423.303L20.3758 423.523C20.0624 422.891 19.904 422.193 19.9137 421.488C19.9212 421.249 19.959 421.013 20.0262 420.784C20.0989 420.588 20.1937 420.401 20.3089 420.227C20.7315 419.563 21.4004 419.115 21.9811 418.241Z" fill="#F2522E" fill-opacity="0.7"/>
<path d="M17.3858 417.799C17.4675 418.088 17.5828 418.366 17.7294 418.628C17.8515 418.848 17.9865 419.06 18.1337 419.264C18.3921 419.642 18.7053 419.95 18.9485 420.294C19.0745 420.469 19.1844 420.656 19.2769 420.851C19.3962 421.069 19.4929 421.299 19.5657 421.537C19.7511 422.228 19.8832 422.933 19.9609 423.644C19.6456 423.537 19.3404 423.401 19.0488 423.239C18.7826 423.096 18.5257 422.937 18.2796 422.761C18.0378 422.598 17.8198 422.403 17.6321 422.179C17.4866 421.992 17.3651 421.787 17.2703 421.57C17.1576 421.324 17.0758 421.065 17.027 420.799C16.9139 420.258 16.876 419.703 16.9145 419.152C16.9936 418.113 17.2763 417.424 17.3858 417.799Z" fill="#F2522E" fill-opacity="0.7"/>
<path d="M22.1433 418.082C22.3075 417.918 22.4716 417.741 22.6358 417.555C22.8 417.37 22.9915 417.178 23.1648 416.977C23.4993 416.581 23.9006 416.148 24.2441 415.7C25.0394 414.751 25.7659 413.747 26.418 412.694C26.3545 412.897 26.2645 413.09 26.1504 413.27C26.0592 413.437 25.9406 413.629 25.7947 413.848C25.6488 414.068 25.5059 414.299 25.3235 414.555C24.3981 415.85 23.3756 417.072 22.2649 418.21C22.2467 418.134 22.2132 418.082 22.1433 418.082Z" fill="#F2522E" fill-opacity="0.7"/>
<path d="M17.2695 417.546C17.2026 417.546 17.154 417.601 17.1236 417.677C16.8806 417.141 16.6922 416.582 16.5611 416.008C16.4942 415.728 16.4365 415.444 16.3878 415.164C16.3392 414.884 16.321 414.613 16.2936 414.339C16.2662 414.065 16.2571 413.797 16.248 413.532C16.2389 413.267 16.248 413.017 16.2632 412.767C16.2747 412.303 16.3153 411.84 16.3848 411.381C16.4517 410.958 16.5216 410.562 16.6037 410.22C16.6858 409.879 16.777 409.59 16.856 409.346C16.9249 409.069 17.027 408.801 17.1601 408.548C16.6362 410.142 16.3793 411.811 16.4 413.489C16.4165 414.245 16.503 414.997 16.6584 415.737C16.7344 416.081 16.8165 416.404 16.9108 416.706C17.005 417.007 17.154 417.29 17.2695 417.546Z" fill="#F2522E" fill-opacity="0.7"/>
<path d="M21.8879 417.814C21.487 418.164 21.0635 418.486 20.6201 418.78L19.8236 419.334C19.7701 418.939 19.7559 418.539 19.781 418.14C19.8092 417.837 19.8651 417.537 19.9482 417.245C20.0888 416.818 20.3333 416.432 20.6596 416.124C20.9704 415.858 21.3018 415.618 21.6508 415.405C22.051 415.145 22.4256 414.847 22.7696 414.515C22.8852 414.4 22.946 414.494 22.9551 414.71C22.9436 415.018 22.906 415.323 22.8426 415.624C22.7554 416.024 22.6395 416.417 22.496 416.8C22.4214 416.991 22.3298 417.174 22.2224 417.348C22.1287 417.516 22.0165 417.672 21.8879 417.814Z" fill="#F2522E" fill-opacity="0.7"/>
<path d="M19.3917 419.328C19.1295 419.126 18.8797 418.909 18.6438 418.676C18.2113 418.278 17.853 417.806 17.5858 417.281C17.4881 417.068 17.4226 416.841 17.3912 416.608C17.362 416.349 17.3528 416.089 17.3639 415.828C17.3847 415.298 17.4768 414.772 17.6375 414.266C17.7418 413.893 17.8984 413.537 18.1027 413.209C18.2455 412.99 18.352 412.935 18.3732 413.127C18.4236 413.662 18.5645 414.186 18.7898 414.674C18.9813 415.103 19.1668 415.46 19.3249 415.853C19.6623 416.636 19.6988 417.492 19.3917 419.328Z" fill="#F2522E" fill-opacity="0.7"/>
<path d="M22.9632 414.375C23.3281 414.113 23.7659 413.79 24.1793 413.431C24.5928 413.072 25.0732 412.669 25.5201 412.24C26.468 411.371 27.3341 410.417 28.1074 409.389C27.7451 410.055 27.2952 410.67 26.7697 411.217C25.6596 412.459 24.4133 413.571 23.0544 414.534C23.0514 414.458 23.0301 414.391 22.9632 414.375Z" fill="#F2522E" fill-opacity="0.7"/>
<path d="M18.1386 412.941C17.7231 410.963 17.7731 408.916 18.2845 406.961C18.6797 405.438 19.1723 404.494 19.2422 404.448C18.6532 405.87 18.2752 407.37 18.1203 408.902C18.0528 409.618 18.0325 410.339 18.0595 411.058C18.0866 411.661 18.1691 412.261 18.3058 412.849C18.2419 412.819 18.1842 412.874 18.1386 412.941Z" fill="#F2522E" fill-opacity="0.7"/>
<path d="M24.4322 410.446C24.6967 410.239 24.6176 410.86 24.3045 411.612C23.9913 412.365 23.5231 413.263 22.9029 413.684C22.4331 413.953 21.9419 414.183 21.4344 414.372L20.7899 414.616L20.5223 414.716C20.5777 414.32 20.662 413.928 20.7747 413.544C20.864 413.251 20.9864 412.97 21.1395 412.706C21.3593 412.308 21.6789 411.974 22.0668 411.737C22.4204 411.53 22.787 411.346 23.1643 411.186C23.6158 410.993 24.0416 410.744 24.4322 410.446Z" fill="#F2522E" fill-opacity="0.7"/>
<path d="M20.1057 414.601C20.1057 414.601 20.0358 414.512 19.9324 414.372C19.829 414.232 19.6892 414.028 19.5433 413.793C19.22 413.313 18.9748 412.785 18.8166 412.228C18.619 411.402 18.9808 410.23 19.3973 409.389C19.8138 408.548 20.2881 408.042 20.279 408.414C20.2701 408.939 20.3335 409.463 20.4675 409.971C20.58 410.412 20.7259 410.805 20.805 411.213C20.8905 411.666 20.8905 412.131 20.805 412.584C20.7445 412.885 20.6622 413.181 20.5587 413.471C20.43 413.856 20.2787 414.233 20.1057 414.601Z" fill="#F2522E" fill-opacity="0.7"/>
<path d="M24.6421 410.327C24.6421 410.327 25.0525 410.114 25.6362 409.736C25.9251 409.547 26.2625 409.319 26.6335 409.054C27.0044 408.789 27.3692 408.49 27.7614 408.14C28.3908 407.589 28.6066 407.488 29.7559 406.008C29.7559 406.087 29.3941 406.745 28.5793 407.598C27.4464 408.749 26.1417 409.717 24.712 410.467C24.7181 410.425 24.7089 410.351 24.6421 410.327Z" fill="#F2522E" fill-opacity="0.7"/>
<path d="M20.2519 408.149C20.1941 408.109 20.1273 408.149 20.0756 408.213C19.896 406.436 20.0886 404.641 20.6411 402.943C21.0515 401.725 21.5015 401.058 21.5684 401.018C20.7323 402.828 20.7414 403.114 20.5377 404C20.4209 404.52 20.3356 405.046 20.2823 405.575C20.1947 406.431 20.1855 407.292 20.255 408.149H20.2519Z" fill="#F2522E" fill-opacity="0.7"/>
<path d="M24.634 409.706C24.4034 409.815 24.1645 409.906 23.9195 409.977C23.6611 410.056 23.3874 410.129 23.1351 410.19C22.6334 410.312 22.223 410.388 22.223 410.388C22.3314 410.019 22.4645 409.658 22.6213 409.307C22.7497 409.044 22.9024 408.794 23.0773 408.56C23.3318 408.205 23.6702 407.918 24.0624 407.726C24.7617 407.372 25.5278 407.278 26.4582 406.66C26.7318 406.474 26.5919 407.074 26.224 407.796C26.034 408.184 25.8037 408.552 25.5369 408.892C25.2958 409.224 24.9882 409.501 24.634 409.706Z" fill="#F2522E" fill-opacity="0.7"/>
<path d="M21.7062 410.163C21.7062 410.163 21.5025 409.8 21.2836 409.316C21.1772 409.072 21.0647 408.801 20.9796 408.527C20.896 408.277 20.8369 408.02 20.8032 407.759C20.7734 407.316 20.8398 406.871 20.9978 406.456C21.1568 406.014 21.3605 405.591 21.6059 405.191C22.068 404.457 22.5423 404.019 22.518 404.363C22.4055 405.517 22.7247 406.252 22.7946 407.043C22.8351 407.482 22.7875 407.924 22.6548 408.344C22.5629 408.624 22.4459 408.895 22.3051 409.154C22.1265 409.503 21.9265 409.839 21.7062 410.163Z" fill="#F2522E" fill-opacity="0.7"/>
<path d="M26.6709 406.562C26.6709 406.562 27.0692 406.376 27.6681 406.032C28.4278 405.597 29.1481 405.095 29.8206 404.534C30.1247 404.266 30.3557 404.101 30.6354 403.827C31.0723 403.385 31.4786 402.914 31.8516 402.417C31.8516 402.49 31.4776 403.169 30.6537 404.01C29.5139 405.142 28.183 406.063 26.7226 406.73C26.7226 406.663 26.7226 406.59 26.6709 406.562Z" fill="#F2522E" fill-opacity="0.7"/>
<path d="M22.491 404.101C22.4363 404.062 22.3724 404.101 22.3177 404.147C22.2399 402.494 22.4729 400.84 23.0048 399.273C23.4001 398.149 23.7983 397.561 23.8652 397.522C23.6019 398.067 23.3694 398.626 23.169 399.197C23.0474 399.575 23.0018 399.837 22.8984 400.248C22.6845 401.128 22.5522 402.027 22.5032 402.931C22.4771 403.321 22.473 403.711 22.491 404.101Z" fill="#F2522E" fill-opacity="0.7"/>
<path d="M24.1567 406.508C25.4337 403.331 26.6528 404.26 28.4831 403.072C29.0273 402.724 27.875 405.414 26.5434 406.002C26.0648 406.188 25.5657 406.317 25.0567 406.386C24.5581 406.474 24.1567 406.508 24.1567 406.508Z" fill="#F2522E" fill-opacity="0.7"/>
<path d="M24.798 400.79C24.5578 402.998 25.8895 403.608 23.7643 406.291C23.7643 406.291 23.5971 405.926 23.4238 405.447C23.2323 404.958 23.1045 404.446 23.0438 403.924C22.9556 402.42 24.874 400.129 24.798 400.79Z" fill="#F2522E" fill-opacity="0.7"/>
<path d="M28.6989 402.98C28.6989 402.98 29.0972 402.8 29.684 402.465C30.4416 402.029 31.1545 401.519 31.8122 400.942C32.4355 400.382 32.6635 400.29 33.7793 398.713C33.7128 398.904 33.6197 399.086 33.5026 399.252C33.2378 399.655 32.942 400.037 32.6179 400.394C31.5199 401.562 30.2026 402.5 28.7415 403.157C28.7567 403.077 28.7567 403.007 28.6989 402.98Z" fill="#F2522E" fill-opacity="0.7"/>
<path d="M24.787 400.556C24.7353 400.516 24.6745 400.556 24.6228 400.589C24.5716 399.043 24.7771 397.499 25.2308 396.02C25.35 395.611 25.5036 395.212 25.6899 394.829C25.7526 394.673 25.8387 394.527 25.9453 394.396C25.5795 395.205 25.316 396.057 25.1609 396.931C24.9802 397.76 24.8674 398.602 24.8234 399.45C24.7687 400.111 24.787 400.556 24.787 400.556Z" fill="#F2522E" fill-opacity="0.7"/>
<path d="M28.8861 402.182C28.0926 402.529 26.5117 402.63 26.5117 402.63C26.5117 402.63 27.1775 401.107 28.0044 400.498C28.6672 400.007 29.7465 399.971 30.838 399.221C31.3853 398.85 30.2239 401.606 28.8861 402.182Z" fill="#F2522E" fill-opacity="0.7"/>
<path d="M26.0737 402.359C26.0737 402.359 25.4656 400.896 25.417 400.031C25.3501 398.575 27.1561 396.376 27.0952 397.013C26.9919 398.28 27.451 399.261 27.3142 400.059C27.1439 401.085 26.0737 402.359 26.0737 402.359Z" fill="#F2522E" fill-opacity="0.7"/>
<path d="M27.7595 400.153V400.111L27.726 400.129C27.726 400.129 27.726 399.727 27.726 399.215C27.7306 398.702 27.7949 398.191 27.9176 397.692C28.2398 396.602 29.985 395.255 30.3498 395.255L30.7177 394.628C30.9184 394.241 31.1677 393.714 31.4109 393.187C31.6541 392.66 31.8669 392.115 31.9825 391.691C32.098 391.268 32.2075 391 32.2075 391V391.049L32.2227 391C32.2227 391 32.1527 391.28 32.0433 391.701C31.9087 392.216 31.7484 392.724 31.5629 393.224C31.3562 393.766 31.1373 394.305 30.9549 394.707L30.6508 395.365C30.8728 395.755 30.7147 397.933 29.8451 398.828C29.4583 399.183 29.0306 399.489 28.5712 399.742C28.1243 399.983 27.7595 400.153 27.7595 400.153Z" fill="#F2522E" fill-opacity="0.7"/>
<path d="M31.0759 399.215C31.0658 399.189 31.0462 399.169 31.0212 399.157C31.6309 398.991 32.1966 398.693 32.6782 398.283C33.571 397.558 34.3145 396.667 34.8672 395.657C34.8058 395.853 34.72 396.04 34.6118 396.215C34.3793 396.6 34.1202 396.968 33.8365 397.317C33.4746 397.751 33.0668 398.144 32.6204 398.49C32.1553 398.85 31.6332 399.129 31.0759 399.316C31.082 399.282 31.082 399.248 31.0759 399.215Z" fill="#F2522E" fill-opacity="0.7"/>
<path d="M26.9039 396.842C26.7814 396.305 26.7373 395.753 26.7732 395.203C26.7974 394.716 26.8635 394.232 26.9708 393.757C27.0382 393.407 27.1327 393.062 27.2536 392.727C27.2858 392.582 27.3434 392.444 27.4238 392.319C27.2657 392.898 27.1198 393.297 27.0803 393.604C27.0407 393.912 27.0073 394.156 26.9617 394.466C26.9188 394.801 26.8975 395.137 26.8979 395.475C26.8916 395.723 26.9028 395.971 26.9313 396.218C26.9504 396.425 26.9912 396.629 27.0529 396.827C27.0299 396.813 27.0028 396.806 26.9758 396.809C26.9488 396.812 26.9235 396.823 26.9039 396.842Z" fill="#F2522E" fill-opacity="0.7"/>
</g>
<defs>
<clipPath id="clip0_1_349">
<rect width="54" height="457" fill="white"/>
</clipPath>
</defs>
</svg>
