<svg width="113" height="304" viewBox="0 0 113 304" fill="none" xmlns="http://www.w3.org/2000/svg">
<path d="M88.7556 25.2598C90.2495 21.9257 92.8891 21.1057 92.8891 21.1057C92.8891 21.1057 94.4559 22.6785 93.1538 25.5839C92.4394 27.1764 91.2381 28.3351 90.2977 29.0568L95.329 26.2819C95.0563 25.8663 94.1212 24.1648 95.2314 21.6882C96.7253 18.3541 99.3649 17.5341 99.3649 17.5341C99.3649 17.5341 100.932 19.1069 99.6296 22.0123C98.9152 23.6048 97.7139 24.7635 96.7735 25.4852L100.486 23.4376C100.778 22.7042 101.695 20.9098 104.066 19.6022C107.606 17.6495 109.783 18.5799 109.783 18.5799C109.783 18.5799 109.409 20.9169 106.314 22.6234C103.22 24.33 100.378 23.7766 100.364 23.7746L96.7515 25.767C97.8643 25.3396 99.5503 24.8958 101.355 25.1524C104.507 25.6012 105.001 27.7655 105.001 27.7655C105.001 27.7655 102.898 29.558 99.2824 29.0452C96.5559 28.658 95.627 26.9132 95.4419 26.4926L90.2797 29.3397C91.3925 28.9124 93.0785 28.4686 94.883 28.7251C98.0336 29.1714 98.5279 31.3357 98.5279 31.3357C98.5279 31.3357 96.4247 33.1282 92.8091 32.6154C90.0826 32.2282 89.1537 30.4834 88.9686 30.0628L84.5043 32.525C85.6171 32.0977 87.3031 31.6539 89.1076 31.9104C92.2582 32.3567 92.7551 34.5196 92.7551 34.5196C92.7551 34.5196 90.6519 36.3121 87.0363 35.7993C84.3098 35.4121 83.381 33.6673 83.1958 33.2467L78.8778 35.6282C79.9906 35.2009 81.6765 34.7571 83.4811 35.0136C86.6291 35.4613 87.1234 37.6256 87.1234 37.6256C87.1234 37.6256 85.0202 39.4181 81.4047 38.9054C78.6781 38.5182 77.7493 36.7733 77.5641 36.3528L73.5232 38.5815L73.4092 38.3747L77.4501 36.146C77.1774 35.7304 76.2423 34.0289 77.3525 31.5523C78.8464 28.2182 81.486 27.3982 81.486 27.3982C81.486 27.3982 83.0528 28.971 81.7508 31.8764C81.0363 33.4689 79.835 34.6276 78.8946 35.3493L83.0818 33.0399C82.8091 32.6244 81.874 30.9229 82.9842 28.4463C84.4781 25.1121 87.1177 24.2922 87.1177 24.2922C87.1177 24.2922 88.6845 25.865 87.3825 28.7704C86.668 30.3629 85.4667 31.5215 84.5263 32.2433L88.8597 29.8532C88.587 29.4377 87.652 27.7362 88.7622 25.2595L88.7556 25.2598Z" fill="#F28B2F" fill-opacity="0.7"/>
<g clip-path="url(#clip0_9_1858)">
<path d="M31.5364 2.62291L29.4543 6.9664C29.4543 6.9664 28.0616 2.71522 24.3536 1.40237C22.587 0.777808 17.8641 0.401374 18.7205 0.476097C18.2946 0.475463 16.8784 4.11905 16.6915 5.80021C16.2543 9.70487 18.945 12.9995 18.945 12.9995L14.1357 12.6105C14.1357 12.6105 15.0019 16.9728 17.6996 18.7938C22.707 22.1762 29.5994 20.6695 30.2431 20.5179L30.249 20.5303C30.249 20.5303 30.2539 20.5233 30.2668 20.5137C30.2829 20.5084 30.2904 20.5095 30.2904 20.5095L30.2845 20.4971C30.7378 20.0191 35.5096 14.8334 35.0993 8.81368C34.8767 5.56765 31.5353 2.63042 31.5353 2.63042L31.5364 2.62291Z" fill="#F28B2F" fill-opacity="0.7"/>
<path d="M24.4125 34.6238C24.2426 34.4459 24.0421 34.2942 23.8109 34.1686C23.9099 32.8807 24.2258 30.682 25.2115 28.1518C26.1124 25.8352 27.3931 23.7308 29.0153 21.8906C31.0413 19.5959 33.6061 17.7127 36.6397 16.2999C38.8954 15.249 41.297 14.7785 43.7768 14.9054C44.1731 14.9247 44.571 14.9595 44.9742 15.0105C45.2776 14.7712 45.5955 14.5378 45.9225 14.321C48.9408 12.3008 52.0888 11.3949 55.2756 11.6208C57.8884 11.8091 60.0039 12.7257 61.3644 13.3985L61.0871 13.9596C59.1682 13.0103 53.329 10.1235 46.2731 14.8393C46.1247 14.9365 45.9832 15.0385 45.8417 15.1405C47.1586 15.3741 48.4901 15.7707 49.8223 16.3206C53.268 17.7485 55.4853 19.7065 55.577 19.7887L55.1597 20.2567C55.1394 20.2384 52.9183 18.2799 49.5665 16.8924C48.4295 16.4245 47.0734 15.986 45.5633 15.7358C45.5561 15.8382 45.5537 15.9336 45.5471 16.0322C45.4615 17.5443 45.4291 18.1103 46.3447 21.051C47.3621 24.3207 48.7105 26.2634 48.7234 26.2806L48.2102 26.6426C48.153 26.5615 46.7879 24.6011 45.7422 21.2354C44.7963 18.1868 44.8316 17.5484 44.9188 15.9983C44.921 15.9565 44.9238 15.911 44.9266 15.8654C42.544 17.9206 41.0906 20.6587 40.596 24.0341C40.163 27.0124 40.6765 29.3929 40.6845 29.4171L40.0698 29.5537C40.0459 29.4545 39.5238 27.0535 39.9689 23.9659C40.2334 22.1466 40.7839 20.4723 41.6029 18.9827C42.3066 17.7061 43.213 16.5662 44.3043 15.5796C42.0341 15.3836 39.4992 15.6623 36.9102 16.8678C30.2252 19.9829 27.1812 24.8453 25.8044 28.3759C24.7393 31.1091 24.4789 33.4805 24.4205 34.6211L24.4125 34.6238Z" fill="#F28B2F" fill-opacity="0.7"/>
<path d="M53.9409 24.8194C51.9242 23.6079 51.2724 20.9945 52.4849 18.9821C53.6975 16.9697 56.3153 16.3204 58.3319 17.5318C60.3486 18.7433 61.0004 21.3567 59.7879 23.3691C58.5753 25.3816 55.9575 26.0309 53.9409 24.8194Z" fill="#F28B2F" fill-opacity="0.7"/>
<path d="M59.8453 17.1466C58.6367 15.9129 58.6584 13.9353 59.8937 12.7296C61.129 11.5239 63.1101 11.5466 64.3186 12.7803C65.5271 14.014 65.5054 15.9916 64.2702 17.1973C63.0349 18.403 61.0538 18.3803 59.8453 17.1466Z" fill="#F28B2F" fill-opacity="0.7"/>
<path d="M55.9396 32.9414C54.2294 32.6927 53.0442 31.1073 53.2924 29.4003C53.5406 27.6932 55.1282 26.511 56.8384 26.7596C58.5487 27.0083 59.7339 28.5937 59.4857 30.3007C59.2375 32.0078 57.6499 33.19 55.9396 32.9414Z" fill="#F28B2F" fill-opacity="0.7"/>
<path d="M61.4798 28.097C60.2386 27.9166 59.3785 26.766 59.5586 25.5271C59.7388 24.2883 60.8909 23.4303 62.1321 23.6108C63.3732 23.7912 64.2334 24.9418 64.0533 26.1806C63.8731 27.4195 62.721 28.2775 61.4798 28.097Z" fill="#F28B2F" fill-opacity="0.7"/>
<path d="M64.0897 23.0259C62.8485 22.8455 61.9884 21.6949 62.1685 20.456C62.3486 19.2172 63.5008 18.3592 64.7419 18.5397C65.9831 18.7201 66.8432 19.8707 66.6631 21.1095C66.483 22.3484 65.3308 23.2064 64.0897 23.0259Z" fill="#F28B2F" fill-opacity="0.7"/>
<path d="M47.8467 30.673C45.518 30.3344 43.9042 28.1756 44.2421 25.8513C44.5801 23.5269 46.7419 21.9171 49.0706 22.2556C51.3993 22.5942 53.0131 24.753 52.6752 27.0774C52.3372 29.4018 50.1755 31.0116 47.8467 30.673Z" fill="#F28B2F" fill-opacity="0.7"/>
<path d="M37.7561 31.1171C37.0719 29.5326 37.8037 27.6952 39.3907 27.0131C40.9776 26.331 42.8187 27.0625 43.5029 28.6469C44.1871 30.2314 43.4552 32.0688 41.8683 32.7509C40.2814 33.4331 38.4403 32.7016 37.7561 31.1171Z" fill="#F28B2F" fill-opacity="0.7"/>
<path d="M50.702 35.6042C49.4608 35.4237 48.6007 34.2731 48.7808 33.0343C48.9609 31.7954 50.1131 30.9374 51.3543 31.1179C52.5954 31.2984 53.4555 32.4489 53.2754 33.6878C53.0953 34.9266 51.9431 35.7846 50.702 35.6042Z" fill="#F28B2F" fill-opacity="0.7"/>
<path d="M44.2282 36.1344C43.1479 35.4979 42.7885 34.108 43.4256 33.03C44.0626 31.9519 45.4548 31.594 46.5351 32.2304C47.6154 32.8669 47.9748 34.2568 47.3377 35.3349C46.7007 36.4129 45.3085 36.7709 44.2282 36.1344Z" fill="#F28B2F" fill-opacity="0.7"/>
<path d="M31.2048 23.9022C34.1182 22.4451 38.3497 23.8264 38.3497 23.8264L35.6583 27.8208C35.6583 27.8208 36.3315 27.7042 37.3438 27.7097C37.1967 27.9296 37.0737 28.1683 36.9717 28.4216C36.1681 30.4383 37.1559 32.7231 39.1729 33.5258C40.312 33.9787 41.534 33.8614 42.5266 33.3163C42.0798 34.7796 42.8238 36.3663 44.2752 36.9412C44.2865 36.9428 44.2972 36.9482 44.3079 36.9536C43.889 37.4596 43.4782 37.9093 43.1398 38.2048C40.1808 40.7929 35.7871 39.9205 35.7871 39.9205L38.5645 43.8597C38.5645 43.8597 34.36 45.3282 31.4196 43.9355C25.9594 41.3452 23.759 34.6515 23.5628 34.0216L23.5478 34.0195C23.5478 34.0195 23.5489 34.012 23.551 33.997C23.5457 33.9809 23.543 33.9728 23.543 33.9728L23.5581 33.975C23.7426 33.3392 25.793 26.6009 31.1978 23.8973L31.2048 23.9022Z" fill="#F28B2F" fill-opacity="0.7"/>
</g>
<g clip-path="url(#clip1_9_1858)">
<path d="M-45.0361 217.839C-44.6433 218.074 -44.2504 218.309 -43.852 218.54L-43.8186 218.492C-43.4052 218.564 -42.9918 218.636 -42.5805 218.693L-42.2334 216.751L-42.4885 216.199C-42.3993 216.22 -42.3086 216.208 -42.2583 216.148C-42.1968 216.081 -42.2019 215.977 -42.2506 215.87L-41.0883 215.635L-26.2898 204.721L-26.2181 204.705L-26.2089 204.682L-26.1766 204.693L-26.1879 204.701L-25.2809 223.156L-24.7429 224.218C-24.8694 224.239 -24.9706 224.308 -24.9845 224.408C-24.9986 224.484 -24.9541 224.561 -24.8719 224.621L-25.5307 224.734L-26.9136 226.179C-26.6262 226.453 -26.337 226.717 -26.044 226.988L-26.0623 227.033C-26.0262 227.05 -25.9844 227.063 -25.9482 227.079C-25.9367 227.096 -25.9233 227.103 -25.9061 227.116L-25.8892 227.105C-25.5241 227.251 -25.1533 227.394 -24.7825 227.536L-24.7402 227.441L-24.738 227.613C-24.2785 227.596 -23.819 227.578 -23.3633 227.555L-23.3622 227.496C-22.9784 227.332 -22.5928 227.159 -22.2168 226.983L-22.9918 225.167L-23.505 224.841C-23.4108 224.809 -23.351 224.751 -23.3407 224.67C-23.3287 224.579 -23.3866 224.495 -23.4838 224.437L-22.6359 223.599L-16.2552 206.445L-7.06107 221.787L-6.08528 222.474C-6.19215 222.547 -6.24357 222.665 -6.20644 222.755C-6.18088 222.829 -6.10646 222.877 -6.01163 222.894L-6.53973 223.306L-7.08392 225.226C-6.70606 225.331 -6.31694 225.428 -5.93346 225.528L-5.92718 225.574C-5.88748 225.571 -5.84216 225.565 -5.80246 225.563C-5.7835 225.566 -5.77016 225.573 -5.75119 225.577L-5.74766 225.558C-5.35277 225.519 -4.95612 225.47 -4.55946 225.421L-4.57024 225.321L-4.48504 225.469C-4.08888 225.239 -3.69273 225.008 -3.30428 224.766L-3.33514 224.721C-3.07272 224.393 -2.81414 224.058 -2.5612 223.727L-4.09667 222.49L-4.70646 222.445C-4.63928 222.375 -4.61389 222.291 -4.63945 222.218C-4.6671 222.129 -4.76611 222.081 -4.87781 222.075L-4.52947 220.943L-6.59332 205.72L-7.14256 204.92L-5.57321 203.843L-5.37503 204.132L8.03907 211.65L9.22489 211.763C9.17346 211.881 9.18457 212.005 9.25545 212.072C9.31476 212.123 9.40187 212.129 9.49219 212.092L9.23927 212.712L9.72257 214.646C10.1091 214.546 10.4861 214.445 10.8688 214.339L10.8958 214.379C10.9296 214.356 10.9633 214.333 11.0027 214.306C11.0139 214.298 11.0385 214.297 11.0536 214.295L11.0421 214.278C11.3701 214.045 11.6942 213.806 12.0089 213.566L11.951 213.481L12.096 213.572C12.3272 213.173 12.5529 212.779 12.7708 212.373L12.7174 212.343C12.78 211.928 12.8427 211.513 12.8959 211.096L10.9469 210.788L10.3979 211.049C10.4156 210.954 10.4013 210.873 10.3381 210.817C10.2711 210.755 10.1671 210.761 10.0638 210.815L9.80828 209.659L-0.982782 195.594L16.7734 195.792L17.8664 195.323C17.8814 195.453 17.9452 195.558 18.04 195.576C18.1159 195.59 18.1967 195.551 18.2544 195.479L18.3313 196.145L19.6824 197.608C19.9739 197.334 20.2598 197.063 20.5419 196.787L20.5819 196.809C20.5985 196.773 20.615 196.737 20.6372 196.697C20.6541 196.685 20.6653 196.677 20.6783 196.66L20.6668 196.643C20.8361 196.287 21.0016 195.926 21.1671 195.564L21.072 195.522L21.2424 195.529C21.259 195.071 21.2662 194.611 21.2639 194.15L21.2053 194.149C21.0582 193.753 20.9149 193.364 20.7622 192.972L18.9074 193.633L18.5506 194.126C18.523 194.037 18.4672 193.968 18.3875 193.948C18.2983 193.927 18.2139 193.985 18.1471 194.08L17.3615 193.188L1.10447 186L16.3708 177.42L17.0829 176.468C17.1562 176.575 17.2685 176.63 17.3571 176.603C17.4305 176.577 17.4787 176.503 17.5002 176.413L17.8952 176.953L19.8006 177.548C19.9148 177.172 20.0252 176.79 20.1356 176.408L20.1848 176.407C20.1824 176.368 20.1761 176.322 20.1737 176.283C20.1772 176.264 20.1846 176.25 20.1881 176.231L20.1692 176.228C20.1394 175.835 20.1058 175.436 20.0665 175.041L19.9625 175.047L20.1147 174.967C19.8956 174.563 19.6709 174.163 19.4462 173.763L19.4012 173.794C19.0797 173.519 18.7565 173.253 18.4276 172.99L17.1476 174.489L17.0876 175.101C17.0167 175.033 16.9349 174.999 16.8614 175.024C16.7729 175.052 16.7211 175.145 16.715 175.257L15.5938 174.877L-2.19704 176.787L6.94373 161.196L7.07575 160.014C7.19372 160.065 7.31668 160.063 7.37999 159.987C7.43029 159.928 7.43671 159.84 7.40906 159.752L8.02175 160.018L9.96451 159.57C9.87431 159.185 9.77463 158.799 9.67881 158.418L9.71819 158.391C9.69504 158.357 9.67189 158.323 9.64489 158.284C9.63717 158.273 9.63685 158.248 9.63475 158.233L9.61788 158.245C9.39027 157.913 9.15704 157.585 8.92203 157.267L8.83766 157.325L8.92846 157.18C8.53564 156.945 8.14281 156.71 7.74436 156.479L7.71094 156.526C7.29755 156.454 6.88804 156.388 6.46727 156.329L6.12011 158.271L6.37522 158.824C6.28602 158.802 6.19537 158.815 6.14508 158.874C6.08353 158.941 6.08305 159.049 6.13739 159.152L4.97507 159.388L-9.51622 170.074L-9.48049 152.088L-9.96017 151.003C-9.82983 150.988 -9.72472 150.924 -9.70705 150.829C-9.69292 150.754 -9.73182 150.673 -9.80447 150.615L-9.13764 150.538L-7.68565 149.17C-7.95617 148.884 -8.23616 148.596 -8.51793 148.318L-8.49962 148.273C-8.53578 148.256 -8.5758 148.234 -8.61759 148.221C-8.62916 148.204 -8.63688 148.193 -8.65408 148.18L-8.67095 148.192C-9.03258 148.026 -9.39422 147.861 -9.752 147.701L-9.79426 147.796L-9.79091 147.62C-10.2507 147.613 -10.7106 147.606 -11.1683 147.614L-11.1694 147.673C-11.5648 147.82 -11.9506 147.969 -12.3421 148.122L-11.667 149.974L-11.1685 150.327C-11.2571 150.355 -11.3263 150.41 -11.3461 150.49C-11.3676 150.579 -11.3059 150.669 -11.2143 150.731L-12.1025 151.522L-19.2865 168.169L-28.42 152.397L-29.3845 151.702C-29.2777 151.629 -29.2224 151.517 -29.2539 151.422C-29.2794 151.349 -29.3539 151.301 -29.4487 151.283L-28.9129 150.882L-28.3459 148.972C-28.7276 148.862 -29.1055 148.757 -29.4928 148.651L-29.4934 148.601C-29.5331 148.604 -29.5785 148.61 -29.6182 148.613C-29.6371 148.609 -29.6505 148.602 -29.6694 148.598L-29.673 148.617C-30.0679 148.656 -30.4666 148.69 -30.8576 148.735L-30.8525 148.839L-30.9377 148.691C-31.3377 148.916 -31.7377 149.141 -32.13 149.377L-32.0991 149.422C-32.3711 149.749 -32.6335 150.078 -32.8903 150.403L-31.3735 151.661L-30.7654 151.715C-30.8326 151.786 -30.8675 151.868 -30.8419 151.941C-30.8143 152.03 -30.7209 152.082 -30.6092 152.088L-30.9765 153.216L-28.7693 171.566L-28.8425 171.616L-44.6462 162.363L-45.8284 162.232C-45.777 162.114 -45.7786 161.991 -45.8551 161.928C-45.9145 161.877 -46.0016 161.871 -46.0901 161.899L-45.8239 161.286L-46.2713 159.344C-46.6561 159.434 -47.0426 159.534 -47.4235 159.63L-47.4698 159.562C-47.5035 159.585 -47.5373 159.608 -47.571 159.632C-47.5823 159.639 -47.6069 159.64 -47.622 159.642L-47.6104 159.659C-47.9423 159.886 -48.2703 160.12 -48.5888 160.355L-48.531 160.439L-48.6759 160.348C-48.911 160.741 -49.1461 161.134 -49.3774 161.533L-49.3296 161.566C-49.4018 161.979 -49.4683 162.389 -49.5271 162.81L-47.5852 163.156L-47.0323 162.901C-47.0539 162.99 -47.0413 163.08 -46.982 163.131C-46.915 163.192 -46.8071 163.193 -46.7038 163.138L-46.4691 164.3L-35.5068 179.157L-53.5373 178.958L-54.6303 179.426C-54.6452 179.296 -54.7091 179.191 -54.8039 179.173C-54.8797 179.159 -54.9606 179.198 -55.0183 179.271L-55.0952 178.604L-56.4502 177.136C-56.7361 177.406 -57.0276 177.681 -57.3096 177.957L-57.3553 177.939C-57.3718 177.975 -57.394 178.015 -57.4106 178.051C-57.4274 178.063 -57.4387 178.07 -57.4517 178.087L-57.4401 178.104C-57.6095 178.46 -57.775 178.822 -57.9405 179.184L-57.851 179.23L-58.0214 179.223C-58.038 179.681 -58.0452 180.14 -58.0429 180.602L-57.9843 180.603C-57.8372 180.998 -57.6939 181.388 -57.5412 181.779L-55.6808 181.115L-55.324 180.622C-55.2964 180.71 -55.2406 180.78 -55.1609 180.799C-55.0717 180.821 -54.9873 180.763 -54.9204 180.667L-54.1349 181.559L-37.6152 188.865L-53.0467 197.542L-53.7588 198.494C-53.8321 198.387 -53.9445 198.332 -54.033 198.359C-54.1065 198.385 -54.1585 198.454 -54.1762 198.549L-54.5711 198.009L-56.4765 197.414C-56.5908 197.79 -56.7012 198.172 -56.8115 198.554L-56.8607 198.555C-56.8583 198.594 -56.852 198.64 -56.8496 198.679C-56.8532 198.698 -56.8605 198.712 -56.8641 198.73L-56.8451 198.734C-56.8115 199.133 -56.7817 199.526 -56.7425 199.921L-56.6385 199.915L-56.7907 199.995C-56.5716 200.399 -56.3469 200.799 -56.1221 201.199L-56.0771 201.168C-55.7557 201.443 -55.4324 201.709 -55.1036 201.972L-53.8236 200.473L-53.7635 199.861C-53.6926 199.929 -53.6108 199.963 -53.5374 199.938C-53.4488 199.91 -53.3971 199.817 -53.391 199.705L-52.2698 200.085L-33.8876 198.108L-43.1062 213.827L-43.2382 215.009C-43.3562 214.958 -43.4791 214.96 -43.5424 215.036C-43.5927 215.096 -43.5992 215.183 -43.5715 215.271L-44.1842 215.005L-46.127 215.453C-46.0368 215.838 -45.9371 216.224 -45.8413 216.605C-45.8181 216.639 -45.795 216.673 -45.768 216.712C-45.7602 216.723 -45.7599 216.748 -45.7578 216.763L-45.741 216.751C-45.5133 217.083 -45.2801 217.411 -45.0451 217.729L-44.9607 217.672L-45.0515 217.817L-45.0361 217.839ZM-53.99 199.182L-53.9823 199.193L-54.0013 199.189L-53.99 199.182ZM-55.1862 179.882L-55.1918 179.886L-55.1957 179.88L-55.1844 179.873L-55.1862 179.882ZM-30.0906 151.385L-30.0871 151.366L-30.0794 151.377L-30.0906 151.385ZM-10.4474 150.353L-10.4361 150.346L-10.4379 150.355L-10.4435 150.359L-10.4474 150.353ZM6.95337 159.196L6.96462 159.189L6.96109 159.208L6.95337 159.196ZM17.37 175.717L17.3623 175.706L17.3813 175.709L17.37 175.717ZM18.4726 194.808L18.4782 194.804L18.4821 194.81L18.4708 194.817L18.4726 194.808ZM-5.35382 222.708L-5.35735 222.727L-5.36507 222.715L-5.35382 222.708ZM-24.2096 224.778L-24.2208 224.786L-24.2247 224.78L-24.2191 224.776L-24.2096 224.778ZM-44.6479 197.883L-34.8048 195.554L-34.5713 196.038C-34.5111 196.163 -34.3214 196.198 -34.1541 196.116C-34.1541 196.116 -34.1541 196.116 -34.1485 196.112L-33.9403 196.548L-33.9673 196.509C-34.0753 196.351 -34.2896 196.317 -34.4471 196.425C-34.5708 196.509 -34.6181 196.658 -34.5803 196.797L-44.6479 197.883ZM-46.1319 196.817L-35.845 192.844L-35.8233 192.911C-35.7838 193.041 -35.5994 193.105 -35.4223 193.05C-35.4167 193.046 -35.4111 193.042 -35.4054 193.038L-35.0298 193.839C-35.0884 193.838 -35.164 193.848 -35.2241 193.881C-35.397 193.967 -35.4857 194.127 -35.4272 194.261L-35.4195 194.272L-46.1358 196.811L-46.1319 196.817ZM-25.8096 203.54L-25.8209 203.547L-22.9399 194.748L-23.1462 193.881C-23.0528 193.933 -22.9731 193.952 -22.9414 193.914C-22.9098 193.876 -22.9392 193.797 -23.0009 193.707L-22.8323 193.724L-19.8347 190.195L-20.7102 194.682L-20.5913 194.807C-20.7276 194.802 -20.8274 194.837 -20.8324 194.89C-20.8373 194.943 -20.7552 195.003 -20.6355 195.044L-21.3701 195.433L-25.924 204.048L-25.9697 204.03L-25.8002 203.541L-25.8096 203.54ZM-22.9548 204.542L-24.6194 204.418L-21.688 198.876L-22.9548 204.542ZM-20.3609 199.231L-20.1536 205.067C-20.1536 205.067 -20.1936 205.045 -20.2182 205.046L-21.6348 204.934L-20.3609 199.231ZM-13.8482 204.033L-15.2879 204.756L-15.3384 198.762L-13.85 204.042L-13.8482 204.033ZM-13.9919 198.434L-11.2709 203.075L-12.5095 203.693L-13.9919 198.434ZM-16.6199 204.032L-18.7384 195.868L-19.3785 195.249C-19.2745 195.244 -19.1954 195.214 -19.1922 195.171C-19.1851 195.133 -19.2311 195.09 -19.3073 195.051L-19.1888 194.995L-18.2599 190.247L-16.5411 194.634L-16.3438 194.68C-16.4281 194.738 -16.4823 194.792 -16.4665 194.839C-16.4508 194.886 -16.3503 194.9 -16.2239 194.879L-16.6859 195.568L-16.6125 204.019L-16.6199 204.032ZM-12.0592 191.616L-15.8123 188.485L-11.0355 189.335L-10.9271 189.227C-10.9294 189.344 -10.9074 189.437 -10.8561 189.451C-10.8087 189.46 -10.7492 189.378 -10.7034 189.264L-10.3621 190.039L-4.98587 193.594L-11.0904 191.63L-11.9141 191.864C-11.8623 191.771 -11.8464 191.685 -11.8808 191.659C-11.9152 191.633 -11.9887 191.659 -12.0748 191.726L-12.0648 191.62L-12.0592 191.616ZM-5.96264 200.309L-5.9472 200.332L-5.97886 200.37C-5.9697 200.347 -5.96231 200.334 -5.96264 200.309ZM-4.42427 197.741C-4.42427 197.741 -4.46927 197.772 -4.48791 197.793L-5.33787 198.905L-9.23426 194.805L-4.4913 197.679L-4.42604 197.75L-4.42427 197.741ZM-7.87286 194.029L-3.30923 195.495L-3.786 196.501L-7.87286 194.029ZM-21.9573 170.076L-20.5277 169.591L-20.665 175.408L-21.9535 170.081L-21.9573 170.076ZM-21.9806 175.781L-24.7335 170.732L-24.7535 170.654L-23.339 170.172L-21.9806 175.781ZM-19.2554 170.529L-18.021 178.647L-17.4414 179.274C-17.5492 179.274 -17.6322 179.298 -17.641 179.345C-17.6445 179.364 -17.6386 179.385 -17.6214 179.398L-17.7549 179.456L-18.5612 183.599L-19.6133 179.557L-19.8149 179.48C-19.7193 179.415 -19.6577 179.348 -19.6752 179.31C-19.691 179.263 -19.7876 179.255 -19.9102 179.281L-19.4373 178.56L-19.2515 170.535L-19.2554 170.529ZM-11.2698 184.037C-11.3112 184.049 -11.3292 184.12 -11.3184 184.22L-11.3528 184.194L-16.2778 185.745L-12.9181 181.984L-12.9583 181.805C-12.8572 181.868 -12.7642 181.895 -12.7325 181.857C-12.7009 181.819 -12.7285 181.73 -12.8036 181.633L-11.9508 181.743L-5.55835 178.845L-10.8777 183.355L-11.1147 184.179C-11.1708 184.085 -11.2283 184.025 -11.2754 184.041L-11.2698 184.037ZM-15.3936 179.184L-10.9845 172.793L-13.9233 179.929L-13.7497 180.76C-13.8469 180.703 -13.9266 180.683 -13.9526 180.718C-13.9843 180.756 -13.9567 180.845 -13.8777 180.948L-14.0653 180.927L-17.1211 184.347L-16.2297 179.774L-16.2412 179.757C-16.1106 179.767 -16.0125 179.741 -16.0037 179.694C-15.9892 179.642 -16.0714 179.583 -16.1855 179.537L-15.3954 179.194L-15.3936 179.184ZM-12.8341 170.688L-11.2219 170.856L-14.688 175.872L-12.8379 170.683L-12.8341 170.688ZM-15.993 175.477L-15.5694 170.283L-14.194 170.431L-15.9912 175.468L-15.993 175.477ZM-9.33811 172.251L-8.31684 172.799L-11.2318 176.858L-9.33811 172.251ZM-7.2573 173.668L-6.12654 174.629L-10.5494 178.251L-7.2573 173.668ZM-5.13593 175.578C-5.13593 175.578 -5.10507 175.623 -5.08964 175.646L-3.88061 176.66L-9.63548 179.269L-5.13593 175.578ZM-3.16749 178.52L-2.58414 179.575L-7.15099 181.89L-3.17135 178.514L-3.16749 178.52ZM-2.01154 180.82L-1.56461 182.291L-7.20229 183.455L-2.01154 180.82ZM-1.26893 183.626L-0.788722 185.182L-6.89536 184.782L-1.26893 183.626ZM-0.847813 189.606L-1.28613 191.089L-6.7013 189.321L-0.847813 189.606ZM-5.87498 187.994L-0.853012 187.054L-0.793927 188.237L-5.87884 187.988L-5.87498 187.994ZM-9.83295 187.41L-10.4494 188.006C-10.4489 187.898 -10.4784 187.819 -10.5163 187.812C-10.5637 187.804 -10.6158 187.872 -10.6542 187.973L-10.7358 187.806L-15.1618 187.022L-10.9 185.686L-10.8563 185.556C-10.8177 185.613 -10.7738 185.64 -10.7418 185.627C-10.6947 185.611 -10.6771 185.516 -10.6976 185.39L-10.0157 185.889L-3.85037 186.29L-9.82732 187.406L-9.83295 187.41ZM-12.7203 192.847L-12.7848 193.694L-9.63871 199.582L-14.162 194.713L-15.0241 194.469C-14.9341 194.408 -14.88 194.354 -14.8957 194.307C-14.9192 194.248 -15.0593 194.237 -15.2196 194.281L-15.0897 194.084L-16.8204 189.657L-13.0635 192.793L-12.924 192.756C-12.9588 192.837 -12.9712 192.904 -12.9368 192.93C-12.8985 192.961 -12.8082 192.924 -12.7147 192.844L-12.7203 192.847ZM-8.97455 202.177L-9.83772 202.861L-12.3944 198.495L-8.97455 202.177ZM-24.9212 182.636L-20.9493 186.147L-26.1259 185.547L-26.1632 185.589C-26.168 185.51 -26.1858 185.447 -26.2238 185.44C-26.2712 185.432 -26.3289 185.504 -26.3803 185.622L-26.6952 184.838L-33.393 180.055L-25.8735 182.587L-25.0516 182.362C-25.1033 182.455 -25.1231 182.535 -25.0887 182.561C-25.0543 182.587 -24.9921 182.569 -24.9133 182.515L-24.9233 182.621L-24.9212 182.636ZM-31.8588 176.745L-31.1025 175.556L-27.5912 179.432L-31.8531 176.741L-31.8588 176.745ZM-28.9586 180.188L-33.4775 178.666L-32.8961 177.705L-28.9547 180.194L-28.9586 180.188ZM-34.2461 193.872L-34.8611 192.566L-29.605 191.449L-34.2461 193.872ZM-29.645 193.006L-33.3277 196.235L-33.82 195.192L-29.6412 193.012L-29.645 193.006ZM-35.2021 191.237L-35.9181 189.735L-29.9365 190.121L-35.2021 191.237ZM-35.4039 185.107L-35.2902 183.681L-30.2927 185.478L-35.3982 185.103L-35.4039 185.107ZM-31.1496 186.786L-35.9483 187.581L-35.8575 186.435L-31.1534 186.78L-31.1496 186.786ZM-27.2869 187.46L-26.6684 186.878C-26.6688 186.986 -26.6489 187.064 -26.6071 187.076C-26.5558 187.091 -26.4964 187.009 -26.4432 186.881L-26.3212 187.095L-21.7737 187.622L-26.0992 189.3C-26.0992 189.3 -26.1431 189.272 -26.1638 189.278C-26.2109 189.294 -26.2191 189.39 -26.2024 189.511L-26.8787 189.007L-33.9169 188.552L-27.2852 187.45L-27.2869 187.46ZM-24.9216 192.957L-32.4973 197.229L-26.0072 191.544L-25.7854 190.722C-25.7292 190.815 -25.6717 190.875 -25.6285 190.854C-25.5965 190.84 -25.5838 190.798 -25.5771 190.736L-25.5504 190.751L-20.7712 188.902L-23.996 192.703L-23.9681 192.816C-24.0614 192.764 -24.1373 192.75 -24.1633 192.784C-24.195 192.823 -24.1635 192.917 -24.0846 193.02L-24.916 192.953L-24.9216 192.957ZM-27.0443 195.687L-30.8224 199.429L-31.9514 198.458L-27.0443 195.687ZM-36.4568 190.204L-36.2059 190.726C-36.3468 190.798 -36.4341 190.924 -36.3966 191.039L-36.2426 191.529L-46.7667 195.59L-37.0894 190.15C-37.0495 190.304 -36.9042 190.42 -36.7398 190.406C-36.6056 190.397 -36.497 190.314 -36.4512 190.2L-36.4568 190.204ZM-46.4463 183.421L-36.8374 186.297L-36.8726 186.644C-36.8878 186.778 -36.7576 186.895 -36.5813 186.923L-36.6102 187.315C-36.6483 187.151 -36.7936 187.036 -36.9619 187.044C-37.1509 187.058 -37.2944 187.222 -37.2806 187.411L-37.2778 187.476L-46.4463 183.421ZM-47.1927 181.766L-36.3526 183.459L-36.3706 183.529C-36.4048 183.66 -36.2855 183.809 -36.0976 183.854C-36.0597 183.861 -36.0313 183.867 -35.9972 183.868L-36.0574 184.612C-36.1132 184.543 -36.2027 184.497 -36.3183 184.485C-36.5058 184.465 -36.671 184.562 -36.6824 184.702L-36.7023 184.914L-47.1945 181.776L-47.1927 181.766ZM-35.6895 180.506L-35.717 180.575C-35.7885 180.748 -35.7083 180.949 -35.5313 181.026C-35.5085 181.035 -35.4896 181.039 -35.4706 181.042L-35.5655 181.447C-35.7247 181.432 -35.8656 181.504 -35.8963 181.616L-36.0184 182.113L-47.1353 180.379L-35.6895 180.506ZM-29.8729 184.173L-35.0586 182.306L-34.7009 180.729L-29.8729 184.173ZM-33.6721 177.104L-33.8892 177.427C-33.9635 177.536 -33.9103 177.698 -33.7727 177.802L-34.0356 178.239C-34.0298 178.102 -34.1073 177.965 -34.2481 177.905C-34.3794 177.846 -34.5284 177.882 -34.6198 177.978L-40.7299 169.699L-33.676 177.099L-33.6721 177.104ZM-40.5455 167.894L-31.9626 174.749L-32.0224 174.806C-32.1233 174.9 -32.1095 175.089 -31.9789 175.231C-31.9175 175.297 -31.8508 175.334 -31.7862 175.356L-32.2015 176.004C-32.2196 175.918 -32.2831 175.837 -32.3748 175.776C-32.5313 175.668 -32.7242 175.677 -32.8002 175.795L-32.8948 175.934L-40.5512 167.898L-40.5455 167.894ZM-29.9528 172.493C-29.993 172.604 -29.9819 172.728 -29.9068 172.826C-29.8451 172.916 -29.7443 172.954 -29.6477 172.962L-30.1139 173.621C-30.1139 173.621 -30.1332 173.593 -30.1409 173.582C-30.2714 173.44 -30.4555 173.401 -30.5564 173.495L-30.9154 173.815L-39.7984 166.728L-29.9451 172.505L-29.9528 172.493ZM-29.129 173.417L-26.6048 178.482L-30.0508 174.678C-30.0171 174.654 -29.991 174.62 -29.9594 174.582L-29.1234 173.413L-29.129 173.417ZM-21.9311 179.543L-21.1016 179.751C-21.1916 179.813 -21.2475 179.876 -21.2356 179.918C-21.222 179.95 -21.1802 179.962 -21.1215 179.963L-19.7805 185.113L-23.8882 181.489L-24.0316 181.522C-23.9798 181.428 -23.9657 181.352 -24.0001 181.326C-24.0383 181.295 -24.1286 181.332 -24.2222 181.413L-24.1253 180.577L-27.9983 172.798L-21.9367 179.547L-21.9311 179.543ZM-27.2491 171.647L-26.1201 171.038L-23.528 175.793L-27.2452 171.653L-27.2491 171.647ZM-28.6626 160.7L-26.3083 170.1L-26.6756 170.228C-26.8017 170.274 -26.8581 170.445 -26.8028 170.622L-27.1955 170.833C-27.1955 170.833 -27.2186 170.799 -27.2302 170.782C-27.2842 170.704 -27.3793 170.662 -27.4703 170.65L-28.6721 160.699L-28.6626 160.7ZM-27.6151 159.213L-23.5856 169.258L-23.7178 169.282C-23.8499 169.307 -23.9235 169.465 -23.9022 169.64L-24.4673 169.83C-24.4673 169.83 -24.4673 169.83 -24.4712 169.824C-24.536 169.645 -24.6925 169.538 -24.8187 169.583L-24.9975 169.648L-27.6113 159.218L-27.6151 159.213ZM-26.394 158.557L-20.7413 168.315C-20.8541 168.368 -20.9322 168.471 -20.9418 168.602C-20.9494 168.747 -20.8701 168.875 -20.7444 168.938L-21.4828 169.188C-21.523 169.009 -21.657 168.886 -21.7891 168.91L-22.2118 168.993L-26.394 158.557ZM-18.0415 169.754L-16.8938 169.703L-17.2981 174.636L-18.0415 169.754ZM-13.8981 159.13L-16.7247 168.9L-16.9709 168.879C-17.058 168.873 -17.1424 168.931 -17.1885 169.02L-17.6782 169.042C-17.624 168.988 -17.5853 168.912 -17.5789 168.825C-17.5681 168.636 -17.7085 168.467 -17.8978 168.457L-17.9224 168.457L-13.8963 159.12L-13.8981 159.13ZM-12.2451 158.368L-13.8619 169.359L-13.9605 169.336C-14.0972 169.306 -14.2431 169.431 -14.2823 169.615C-14.295 169.656 -14.2926 169.696 -14.2901 169.736L-14.9002 169.666C-14.8405 169.609 -14.7943 169.519 -14.7844 169.413C-14.768 169.22 -14.8665 169.064 -15.0049 169.044L-15.3232 169.014L-12.2395 158.364L-12.2451 158.368ZM-10.8878 169.932L-10.9412 169.902C-11.1108 169.812 -11.3142 169.877 -11.4085 170.041C-11.4251 170.077 -11.436 170.11 -11.4431 170.148L-11.8807 170.1C-11.8714 169.945 -11.9412 169.819 -12.0588 169.793L-12.5238 169.682L-10.871 158.417L-10.8934 169.936L-10.8878 169.932ZM-0.45022 165.045L-7.83442 172.079L-8.11522 171.875C-8.21069 171.808 -8.34843 171.837 -8.4606 171.938L-8.69688 171.811C-8.59112 171.796 -8.49164 171.736 -8.43813 171.634C-8.34766 171.464 -8.40714 171.257 -8.57671 171.166L-8.67958 171.113L-0.45022 165.045ZM1.36257 165.215L-5.5239 173.843L-5.62742 173.741C-5.72321 173.649 -5.90451 173.674 -6.03146 173.803L-6.48489 173.419C-6.38847 173.27 -6.3946 173.093 -6.50341 173.019L-6.68102 172.892L1.37029 165.227L1.36257 165.215ZM-3.26705 175.843L-3.32491 175.758C-3.42168 175.593 -3.63239 175.539 -3.79375 175.642C-3.83874 175.672 -3.87812 175.699 -3.90207 175.749L-4.23687 175.466C-4.14398 175.336 -4.13468 175.181 -4.22276 175.101L-4.53506 174.802L2.52448 165.956L-3.27268 175.846L-3.26705 175.843ZM8.02788 177.016L-1.63607 179.305L-1.73204 179.057C-1.78108 178.925 -1.96334 178.876 -2.14222 178.941C-2.14222 178.941 -2.14222 178.941 -2.14784 178.945L-2.37465 178.53C-2.27179 178.583 -2.14498 178.587 -2.03987 178.523C-1.88976 178.429 -1.83546 178.243 -1.90941 178.087L8.02226 177.02L8.02788 177.016ZM9.50806 178.076L-0.545515 181.956L-0.597928 181.71C-0.626225 181.573 -0.80319 181.496 -0.988014 181.54C-1.01823 181.544 -1.04073 181.559 -1.06708 181.569L-1.17978 181.2C-1.06728 181.123 -1.00462 180.997 -1.04561 180.901L-1.15734 180.606L9.50243 178.08L9.50806 178.076ZM0.206434 184.896L0.178438 184.494C0.164598 184.305 0.00562971 184.158 -0.183377 184.171C-0.247666 184.174 -0.311628 184.202 -0.358395 184.242L-0.44939 183.94C-0.274049 183.895 -0.156571 183.764 -0.18487 183.627L-0.249515 183.315L10.1541 179.295L0.208202 184.887L0.206434 184.896ZM9.73276 191.269L0.146628 188.402L0.180677 188.114C0.201557 187.976 0.0636456 187.847 -0.127777 187.822L-0.143229 187.51C-0.0937248 187.534 -0.0424515 187.548 0.012355 187.543C0.201361 187.53 0.348726 187.371 0.334888 187.182L0.332149 187.117L9.72713 191.273L9.73276 191.269ZM10.4791 192.924L-0.37997 191.228L-0.312971 191C-0.284048 190.898 -0.342242 190.789 -0.452822 190.724L-0.318819 190.268C-0.182851 190.249 -0.0703529 190.172 -0.0603986 190.066L-0.024258 189.793L10.4812 192.939L10.4791 192.924ZM-1.07708 194.179L-0.9172 193.821C-0.840069 193.644 -0.916425 193.448 -1.08776 193.368C-1.16957 193.333 -1.25668 193.326 -1.33576 193.356L-1.2416 193.035C-1.05934 193.083 -0.880461 193.019 -0.840614 192.884L-0.750316 192.557L10.4235 194.302L-1.07532 194.169L-1.07708 194.179ZM-7.0927 190.632L-1.77445 192.367L-2.20505 193.861L-7.0927 190.632ZM-2.98169 197.239L-2.80363 196.968C-2.72762 196.849 -2.7924 196.671 -2.95458 196.567C-2.98512 196.547 -3.0118 196.532 -3.04411 196.521L-2.65572 195.7L-2.53984 195.737L-2.65007 195.986C-2.73106 196.157 -2.64697 196.364 -2.4795 196.439C-2.3387 196.5 -2.18409 196.46 -2.08702 196.36L4.00338 204.297L-2.98554 197.233L-2.98169 197.239ZM3.8703 206.116L-4.47779 199.712L-4.34729 199.565C-4.25409 199.46 -4.29251 199.271 -4.43604 199.146C-4.48201 199.103 -4.53924 199.068 -4.59614 199.058L-4.28373 198.645C-4.13135 198.722 -3.96308 198.714 -3.88884 198.605L-3.76462 198.413L3.86081 206.115L3.8703 206.116ZM-6.60474 201.833L-6.36143 201.633C-6.21165 201.514 -6.19559 201.296 -6.31486 201.147C-6.35344 201.09 -6.42014 201.053 -6.48089 201.037L-6.21317 200.68C-6.22698 200.78 -6.18004 200.897 -6.07476 200.99C-5.93122 201.115 -5.74366 201.135 -5.65045 201.03L-5.39124 200.744L3.1576 207.308L-6.60474 201.833ZM-7.37354 201.062L-10.2035 195.768L-6.5085 199.659L-6.43712 199.907C-6.48421 199.923 -6.52744 199.944 -6.55524 199.988L-7.37354 201.062ZM-6.92342 213.414L-9.52039 203.685L-9.2086 203.512C-9.10526 203.458 -9.07313 203.312 -9.1204 203.171L-8.99874 203.071C-9.00339 203.148 -8.97397 203.227 -8.92205 203.291C-8.79716 203.437 -8.58501 203.457 -8.43523 203.337L-8.30232 203.23L-6.92342 213.414ZM-7.94419 214.917L-12.1458 204.874L-11.7505 204.727C-11.6187 204.678 -11.57 204.496 -11.6348 204.317C-11.6701 204.217 -11.7315 204.152 -11.8021 204.109L-10.9375 203.681L-10.9297 203.693L-11.2528 203.873C-11.373 203.939 -11.3989 204.13 -11.3077 204.299C-11.2109 204.464 -11.0396 204.545 -10.9194 204.479L-10.7503 204.388L-7.94209 214.932L-7.94419 214.917ZM-9.15372 215.59L-15.0225 205.806L-14.7846 205.767C-14.5977 205.738 -14.4714 205.56 -14.5003 205.373C-14.5108 205.298 -14.5532 205.236 -14.6069 205.182L-13.9096 204.836C-13.9785 204.916 -13.9994 205.054 -13.9465 205.192C-13.8817 205.371 -13.7195 205.474 -13.5878 205.425L-13.4352 205.37L-9.15548 215.599L-9.15372 215.59ZM-17.7151 204.908L-18.7943 205.276L-18.9806 200.037L-17.7151 204.908ZM-21.2094 215.839L-18.9468 206.199L-18.2446 206.222C-18.1083 206.228 -17.9911 206.073 -17.986 205.888C-17.9867 205.838 -17.9929 205.793 -18.0048 205.752L-17.7638 205.669C-17.8214 205.742 -17.8486 205.835 -17.8322 205.931C-17.8155 206.052 -17.7253 206.147 -17.6207 206.191L-21.2168 215.853L-21.2094 215.839ZM-22.8234 216.682L-21.7985 205.865L-21.5993 205.902C-21.4761 205.925 -21.347 205.812 -21.3019 205.649L-20.4364 205.716C-20.4364 205.716 -20.4526 205.777 -20.4541 205.811C-20.4581 205.938 -20.4132 206.039 -20.3406 206.097L-22.8234 216.682ZM-24.7675 205.239L-24.7352 205.25C-24.5849 205.313 -24.4173 205.256 -24.3244 205.126L-23.7108 205.176C-23.7108 205.176 -23.7108 205.176 -23.7164 205.18C-23.7518 205.37 -23.6606 205.539 -23.5279 205.563L-23.1524 205.628L-24.2022 216.71L-24.7675 205.239ZM-27.8909 202.52L-27.8323 202.232L-25.4003 198.132L-27.0718 203.231L-27.8909 202.52ZM-28.9084 201.399L-29.9514 200.493L-26.1191 196.698L-28.9084 201.399ZM-35.6468 209.917L-28.5897 203.189L-28.139 203.509C-28.0568 203.568 -27.936 203.551 -27.8386 203.476L-27.4329 203.826C-27.4385 203.83 -27.442 203.849 -27.4438 203.859L-35.6507 209.911L-35.6468 209.917ZM-37.4596 209.746L-30.7722 201.371L-30.753 201.399C-30.6477 201.492 -30.459 201.454 -30.3264 201.321C-30.2835 201.275 -30.2483 201.218 -30.2338 201.167L-29.5162 201.791C-29.603 201.809 -29.6873 201.867 -29.7524 201.953C-29.8601 202.109 -29.8614 202.301 -29.7487 202.38L-37.4747 209.749L-37.4596 209.746ZM-38.631 209.004L-32.8856 199.207C-32.775 199.272 -32.6275 199.27 -32.515 199.192C-32.4418 199.142 -32.3936 199.068 -32.3795 198.992L-31.7997 199.487C-31.9002 199.474 -32.0169 199.521 -32.1083 199.616C-32.237 199.754 -32.2629 199.946 -32.1632 200.043L-31.7628 200.421L-38.6233 209.015L-38.631 209.004Z" fill="#F2522E" fill-opacity="0.7"/>
<path fill-rule="evenodd" clip-rule="evenodd" d="M-23.94 224.46C-23.9228 225.052 -23.371 225.435 -23.1039 225.896C-20.5999 230.281 -22.8352 235.958 -20.2624 239.684C-15.5797 246.461 -3.7445 244.841 0.743559 251.346C1.12548 251.903 3.06617 255.467 2.96973 255.326C2.58781 254.77 3.33789 252.824 2.86338 252.133C-5.42395 240.138 -19.7567 246.052 -20.3999 229.234C-20.4671 227.436 -21.6562 226.788 -22.7546 225.839C-22.9824 225.639 -24.0649 224.315 -23.9362 224.466L-23.94 224.46Z" fill="#F2522E" fill-opacity="0.7"/>
<path fill-rule="evenodd" clip-rule="evenodd" d="M18.0547 194.946C19.4686 199.02 36.7232 216.597 39.0896 216.139L41.9996 215.582C42.462 215.496 41.6228 214.84 41.4159 214.502C35.3962 204.607 18.9785 209.652 17.8862 195.508C17.7193 193.323 17.2445 192.607 18.0547 194.946Z" fill="#F2522E" fill-opacity="0.7"/>
<path fill-rule="evenodd" clip-rule="evenodd" d="M6.7677 158.818C8.64804 161.39 13.4741 171.873 23.0276 177.863C24.1607 178.574 34.5234 179.354 38.2508 182.544C38.5435 182.79 38.7091 183.296 39.0924 183.24L42.2345 182.78C42.6083 182.722 42.1598 181.996 41.8588 181.689C30.489 170.23 11.7789 183.365 6.5321 159.03C6.36472 158.243 6.21668 158.064 6.77156 158.824L6.7677 158.818Z" fill="#F2522E" fill-opacity="0.7"/>
<path fill-rule="evenodd" clip-rule="evenodd" d="M-4.06958 223.398C1.4253 228.923 6.37731 242.362 8.21504 246.584C8.59731 247.455 8.84197 247.932 8.93197 247.87C9.23009 247.666 9.61163 245.75 10.3525 242.959C10.5793 242.084 7.09277 235.917 4.00748 231.203C1.6772 227.65 -0.328651 225.173 -3.91759 222.872C-6.59455 221.152 -5.63771 221.836 -4.07135 223.407L-4.06958 223.398Z" fill="#F2522E" fill-opacity="0.7"/>
</g>
<defs>
<clipPath id="clip0_9_1858">
<rect width="53.2" height="41.5134" fill="white" transform="matrix(-0.989595 -0.143882 -0.143882 0.989595 68.6191 7.65454)"/>
</clipPath>
<clipPath id="clip1_9_1858">
<rect width="92.1382" height="138.923" fill="white" transform="translate(-73.0205 177.051) rotate(-34.4538)"/>
</clipPath>
</defs>
</svg>
