<svg width="75" height="585" viewBox="0 0 75 585" fill="none" xmlns="http://www.w3.org/2000/svg">
<g clip-path="url(#clip0_1_666)">
<path d="M-18.184 325.348C-18.184 325.348 -17.5739 325.131 -16.6369 324.73C-15.6998 324.329 -14.3921 323.835 -12.9987 323.237C-11.6052 322.64 -10.1055 322.03 -8.7542 321.446C-7.60659 320.929 -6.41284 320.521 -5.18874 320.227C-3.34777 319.772 -1.69257 320.409 0.3036 321.02C1.37104 321.348 2.46803 321.57 3.57881 321.683C4.9705 321.829 6.37694 321.728 7.73356 321.385C8.50559 321.184 8.2147 321.541 7.31978 322.174C5.89093 323.074 4.41746 323.9 2.90503 324.65C-0.838706 326.454 -5.57394 328.128 -7.60409 328.302C-8.77848 328.398 -9.96059 328.327 -11.1148 328.09C-12.2959 327.837 -13.4533 327.485 -14.5745 327.035C-15.6216 326.632 -16.515 326.208 -17.1449 325.896C-17.7747 325.585 -18.184 325.348 -18.184 325.348Z" fill="white" fill-opacity="0.2"/>
<path d="M-2.83145 306.305C-3.43411 307.379 -3.89467 308.527 -4.20155 309.72C-4.44102 310.749 -4.61638 311.791 -4.72662 312.841C-4.99292 314.778 -5.2099 316.504 -6.48472 317.878C-7.39242 318.704 -8.38518 319.431 -9.44631 320.048C-10.7512 320.815 -12.0992 321.505 -13.4837 322.116C-14.8372 322.723 -16.151 323.158 -17.0836 323.513C-17.5926 323.708 -18.1113 323.877 -18.6376 324.019L-18.2163 322.967C-17.9609 322.308 -17.5992 321.39 -17.1372 320.4C-16.6752 319.411 -16.2046 318.393 -15.6774 317.392C-15.2201 316.457 -14.6406 315.587 -13.9543 314.805C-12.7569 313.57 -9.50218 311.019 -6.84604 308.93C-5.53462 307.846 -4.38159 306.893 -3.61559 306.388C-2.84958 305.883 -2.50583 305.706 -2.83145 306.305Z" fill="white" fill-opacity="0.2"/>
<path d="M-3.7072 318.622L-2.3041 317.739C-1.43067 317.209 -0.302447 316.394 0.976155 315.593C3.50307 313.942 6.3743 311.985 8.12496 311.253C9.87563 310.52 11.6036 310.884 13.6444 311.149C16.12 311.595 18.6711 311.334 21.0057 310.397C21.7287 310.098 21.505 310.485 20.6651 311.275C20.228 311.637 19.706 312.153 19.0419 312.692C18.3778 313.23 17.579 313.773 16.7411 314.359C15.9032 314.944 15.0273 315.562 14.1211 316.129C13.2149 316.697 12.2836 317.221 11.4146 317.705C10.6281 318.164 9.81515 318.576 8.98 318.939C8.37861 319.214 7.76137 319.454 7.13156 319.656C6.58679 319.806 6.03025 319.909 5.46798 319.964C4.86489 320.017 4.25913 320.034 3.65406 320.013C2.4718 319.968 1.29445 319.836 0.131486 319.619C-0.798739 319.461 -1.71999 319.254 -2.62842 318.999C-3.3007 318.765 -3.7072 318.622 -3.7072 318.622Z" fill="white" fill-opacity="0.2"/>
<path d="M8.27564 297.103C7.51029 299.278 7.2028 301.587 7.37251 303.886C7.42899 305.866 7.52213 307.644 6.41805 309.186C5.31397 310.728 2.72888 312.928 0.239689 314.612C-1.00531 315.428 -2.15226 316.194 -3.03284 316.677L-4.50396 317.477L-4.29284 316.364C-4.15615 315.664 -3.94589 314.744 -3.71082 313.686C-3.47575 312.628 -3.17925 311.476 -2.8263 310.406C-2.64721 309.874 -2.4472 309.368 -2.25351 308.866C-2.06579 308.4 -1.83745 307.951 -1.57113 307.524C-1.26461 307.051 -0.923285 306.601 -0.549973 306.179C-0.0984945 305.667 0.414415 305.062 0.966439 304.414C1.51846 303.765 2.13053 303.099 2.7415 302.445C3.35246 301.791 3.93424 301.076 4.5094 300.43C5.08456 299.784 5.62997 299.205 6.13515 298.681C6.64034 298.156 7.04114 297.687 7.37609 297.356C8.17462 296.632 8.5236 296.461 8.27564 297.103Z" fill="white" fill-opacity="0.2"/>
<path d="M8.94825 309.783C9.068 309.696 9.18225 309.602 9.29035 309.501C9.51209 309.317 9.80903 309.019 10.1798 308.68C10.934 307.993 11.9744 307.058 13.118 306.081C14.2617 305.104 15.4156 303.958 16.5559 303.016C17.4826 302.17 18.4714 301.396 19.514 300.699C21.1625 299.752 22.9408 299.893 24.9693 299.859C26.078 299.884 27.1866 299.81 28.2821 299.638C29.6406 299.401 30.9455 298.922 32.1346 298.224C33.4931 297.442 31.4706 299.924 28.4781 302.664C25.4856 305.404 21.5789 308.366 19.7638 309.163C18.7067 309.625 17.5861 309.926 16.4396 310.054C15.2515 310.184 14.0556 310.228 12.8611 310.186C11.7567 310.139 10.7608 310.056 10.0626 309.971C9.36439 309.887 8.94825 309.783 8.94825 309.783Z" fill="white" fill-opacity="0.2"/>
<path d="M17.8376 286.662C17.5449 287.879 17.4121 289.128 17.4424 290.38C17.4958 291.448 17.6226 292.512 17.8218 293.564C18.1645 295.542 18.44 297.244 17.6047 298.905C17.02 299.991 16.3023 300.999 15.4684 301.908C14.4958 302.989 13.3766 304.138 12.3031 305.174C11.2297 306.211 10.1287 307.046 9.35472 307.696C8.96827 308.016 8.6515 308.278 8.4361 308.456C8.2207 308.634 8.09399 308.738 8.09399 308.738L8.11589 307.59C8.13692 306.879 8.17808 305.896 8.25753 304.817C8.33699 303.739 8.47155 302.572 8.68266 301.459C8.81121 300.392 9.07168 299.346 9.45809 298.344C10.2162 296.757 12.644 293.268 14.6009 290.371C16.5579 287.474 18.1476 285.307 17.8376 286.662Z" fill="white" fill-opacity="0.2"/>
<path d="M20.5029 298.814C20.5029 298.814 20.9332 298.341 21.5816 297.538C22.2301 296.736 23.1184 295.681 24.1134 294.55C25.8361 292.361 27.733 290.315 29.7856 288.433C32.8131 286.123 36.8485 288.055 41.9914 284.37C42.6249 283.847 42.4913 284.33 41.9106 285.279C40.9639 286.644 39.9464 287.959 38.8623 289.217C38.2392 289.999 37.5224 290.783 36.79 291.548C36.0575 292.314 35.3378 293.069 34.6478 293.756C33.5489 294.851 32.3505 295.842 31.0683 296.715C29.319 297.862 26.5887 298.401 24.3836 298.635C23.2753 298.751 22.2967 298.792 21.5886 298.812C20.8805 298.832 20.5029 298.814 20.5029 298.814Z" fill="white" fill-opacity="0.2"/>
<path d="M27.5923 286.833C27.0247 288.625 24.9945 291.433 23.1307 293.72C22.1641 294.86 21.2433 295.888 20.5656 296.629C19.888 297.371 19.4241 297.829 19.4241 297.829L19.2987 296.695C19.2197 295.993 19.121 295.008 19.0605 293.928C18.8504 291.739 18.9801 289.531 19.445 287.382C19.9225 286.093 20.4789 284.836 21.1112 283.616C21.5146 282.813 21.9074 281.998 22.3107 281.195C22.714 280.393 23.1658 279.572 23.5259 278.794C24.3378 277.195 25.0653 275.869 25.5697 275.047C26.0741 274.225 26.3562 273.959 26.2974 274.637C25.5881 280.182 28.8093 283.311 27.5923 286.833Z" fill="white" fill-opacity="0.2"/>
<path d="M30.4799 286.303L33.3377 281.915C34.1487 280.754 34.9382 279.451 35.7257 278.352C36.3915 277.383 37.1325 276.467 37.9418 275.614C39.2045 274.368 40.8312 274.079 42.7058 273.639C44.9993 273.176 47.1279 272.109 48.8717 270.548C49.9702 269.555 48.5677 272.207 46.5328 275.371C45.4507 276.926 44.245 278.616 43.093 280.048C42.1826 281.172 41.1868 282.223 40.1145 283.192C38.6004 284.444 36.1193 285.247 34.1119 285.733C32.9179 286.017 31.7035 286.207 30.4799 286.303Z" fill="white" fill-opacity="0.2"/>
<path d="M33.2545 263.053C33.2623 265.242 33.7649 267.401 34.7247 269.367C35.4251 271.081 36.0824 272.575 35.7192 274.304C35.4225 275.42 34.9887 276.495 34.4279 277.504C33.7921 278.798 33.0801 280.052 32.2956 281.261C31.5298 282.438 30.8232 283.544 30.2624 284.285C29.9913 284.68 29.7596 284.967 29.5872 285.184L29.328 285.516C29.328 285.516 28.9341 283.954 28.5022 281.933C28.05 279.91 27.9252 277.827 28.1328 275.765C28.4214 274.489 28.8158 273.239 29.3118 272.028C29.8592 270.509 30.4582 268.756 31.0762 267.232C32.2177 264.134 33.2601 261.769 33.2545 263.053Z" fill="white" fill-opacity="0.2"/>
<path d="M38.4321 273.5L39.1092 272.151C39.523 271.361 40.0743 270.17 40.7173 268.935C42.0052 266.505 43.3518 263.643 44.498 262.333C45.6441 261.023 47.1045 260.52 48.8642 259.876C49.8311 259.55 50.7656 259.135 51.6555 258.636C52.7214 257.98 53.6778 257.161 54.4899 256.208C54.9615 255.669 54.9344 256.075 54.5977 257.036C54.0854 258.447 53.4729 259.819 52.7649 261.142C51.3107 264.095 49.5206 266.87 47.4303 269.412C45.8162 270.801 43.9444 271.859 41.9218 272.525C40.7799 272.922 39.6144 273.248 38.4321 273.5Z" fill="white" fill-opacity="0.2"/>
<path d="M42.1147 261.341C41.62 263.802 40.7703 266.178 39.5924 268.395C38.9915 269.617 38.4394 270.756 37.9425 271.561C37.4455 272.366 37.1783 272.843 37.1783 272.843C37.1783 272.843 36.6009 271.369 36.0611 269.501C35.3692 267.607 35.0166 265.606 35.0193 263.59C35.1002 261.945 36.1143 258.163 36.8655 255.057C37.2983 253.516 37.6307 252.111 37.8888 251.3C38.147 250.49 38.3861 250.185 38.459 250.829C38.5835 251.969 38.8723 253.084 39.3165 254.141C39.6835 255.033 40.1098 255.899 40.5928 256.733C41.4624 258.265 42.2937 259.646 42.1147 261.341Z" fill="white" fill-opacity="0.2"/>
<path d="M43.7041 260.868C43.0634 259.812 42.6224 258.647 42.4031 257.432C41.9456 254.896 42.2558 252.282 43.2937 249.924C43.7992 248.599 45.4747 245.839 46.9659 243.114C47.7714 241.765 48.4885 240.426 49.1171 239.341C49.5468 238.543 50.0585 237.791 50.6441 237.098C50.9419 237.956 51.1392 238.845 51.232 239.748C51.4589 241.229 51.5855 242.724 51.611 244.223C51.7538 246.96 51.6077 249.704 51.1751 252.411C50.6295 255.099 49.1536 257.508 47.0074 259.214C46.0317 259.987 44.9071 260.55 43.7041 260.868Z" fill="white" fill-opacity="0.2"/>
<path d="M4.55433 267.084C4.11162 266.029 3.73833 264.945 3.43688 263.84C3.08616 262.715 2.79595 261.85 2.77754 262.085C3.37441 263.948 3.64519 265.9 3.57792 267.856C3.50421 269.527 3.32051 271.192 3.02804 272.839C2.76502 274.262 2.64199 275.707 2.66071 277.153C2.6983 277.881 2.80593 278.604 2.98212 279.312C3.19287 280.114 3.48481 280.892 3.85343 281.635C4.0106 281.957 4.84215 281.034 5.58399 279.824C6.22874 278.785 6.72707 277.662 7.06482 276.487C7.7004 273.424 7.26798 271.849 6.72824 270.668C6.18849 269.486 5.37153 268.624 4.55433 267.084Z" fill="white" fill-opacity="0.2"/>
<path d="M16.4798 269.663C14.9927 271.175 13.8305 271.629 12.6494 272.473C11.4684 273.317 10.2775 274.531 8.20953 277.043C7.81275 277.547 6.88198 278.927 6.06058 280.119C5.23917 281.312 4.50735 282.339 4.85366 282.414C5.70021 282.59 6.57279 282.599 7.42297 282.442C8.25331 282.287 9.04759 281.979 9.76529 281.533C11.3853 280.479 12.7479 279.075 13.7524 277.423C15.0069 275.431 16.077 273.329 16.9494 271.142C17.9323 268.788 18.8673 266.227 19.9238 263.462C19.9488 263.118 19.5031 264.335 18.8301 265.792C18.2342 267.187 17.4428 268.491 16.4798 269.663Z" fill="white" fill-opacity="0.2"/>
<path d="M5.87104 258.945C5.57875 258.55 5.31763 258.133 5.09005 257.698L4.27854 256.173L3.64839 254.975C3.48029 254.695 3.37682 254.554 3.39437 254.669C3.83331 255.51 4.20534 256.384 4.507 257.283C4.78016 258.125 4.99741 258.984 5.15733 259.854C5.4742 261.531 5.59448 263.119 5.72149 264.56C6.01493 267.472 6.40789 269.81 8.77288 272.103C8.87449 272.226 9.04952 272.016 9.2269 271.629C9.42984 271.114 9.59382 270.585 9.71744 270.045C9.98004 268.976 10.1121 267.878 10.1108 266.776C10.074 266.155 9.99357 265.536 9.8702 264.926C9.78271 264.454 9.6558 263.991 9.49083 263.54C9.26305 262.879 8.92258 262.262 8.48452 261.717C8.10974 261.264 7.70319 260.839 7.26794 260.444C6.77486 259.971 6.30851 259.47 5.87104 258.945Z" fill="white" fill-opacity="0.2"/>
<path d="M17.1106 258.928C16.6896 259.579 16.1997 260.183 15.6495 260.729C15.1885 261.202 14.7455 261.596 14.308 262.082C13.8107 262.642 13.3725 263.253 13.0003 263.904C12.7834 264.297 12.5511 264.742 12.2983 265.256C12.0454 265.77 11.7892 266.357 11.4939 267.023C11.2856 267.551 10.8337 268.987 10.4618 270.246C10.2907 270.787 10.1486 271.337 10.0361 271.893C9.95412 272.316 9.95476 272.575 10.1121 272.554C13.368 272.077 15.2277 269.564 16.3892 266.052C17.0064 264.111 17.4796 262.128 17.8051 260.117L18.3944 256.718C18.5061 256.128 18.5903 255.527 18.7008 254.912C18.8112 254.297 18.9586 253.663 19.0487 253.039C19.0274 252.888 18.9798 253.096 18.8851 253.504L18.4522 255.228C18.2864 255.937 18.0796 256.635 17.8331 257.32C17.6534 257.881 17.4111 258.421 17.1106 258.928Z" fill="white" fill-opacity="0.2"/>
<path d="M5.65313 251.182C4.97352 250.466 4.35181 249.698 3.79388 248.884C3.16276 248.075 2.69489 247.448 2.75876 247.634C3.02856 247.999 3.28434 248.362 3.52546 248.731C3.76658 249.1 3.96053 249.483 4.16533 249.862C4.55223 250.592 4.88894 251.348 5.1731 252.124C5.74272 253.591 6.10658 255.068 6.50333 256.381C7.30318 259.016 8.13426 261.126 10.7368 262.653C10.9804 262.806 11.1389 261.789 11.1431 260.608C11.1478 260.019 11.119 259.429 11.057 258.843C11.0277 258.419 10.9605 257.999 10.8563 257.587C10.1288 255.087 9.32376 254.021 8.49119 253.289C8.07866 252.941 7.64509 252.618 7.19295 252.323C6.65271 251.981 6.13809 251.599 5.65313 251.182Z" fill="white" fill-opacity="0.2"/>
<path d="M15.7771 249.385C15.4945 250.028 15.152 250.644 14.7541 251.223C14.4108 251.721 14.0632 252.152 13.755 252.653C13.1353 253.652 12.629 254.952 12.099 257.565C12.0467 257.822 11.9991 258.294 11.9404 258.848C11.8817 259.401 11.8393 260.044 11.7977 260.641C11.7285 261.836 11.7031 262.866 11.974 262.765C14.7647 261.632 15.8983 259.101 16.3185 255.81C16.7387 252.519 16.5212 248.528 16.6303 243.8C16.5558 243.539 16.5297 244.576 16.4463 245.848C16.3629 247.12 16.1299 248.633 15.7771 249.385Z" fill="white" fill-opacity="0.2"/>
<path d="M4.35252 244.449C3.64606 243.916 2.98517 243.324 2.37667 242.681C1.71389 242.06 1.22275 241.569 1.29559 241.735C2.38444 242.802 3.30854 244.025 4.03753 245.364C4.38502 245.994 4.72746 246.602 4.99537 247.214C5.26328 247.826 5.58097 248.397 5.82862 248.961C6.92754 251.192 7.98561 252.952 10.5362 253.862C10.8028 253.958 10.7351 253.018 10.5721 251.964C10.4141 251.082 10.1756 250.217 9.85936 249.38C8.86139 247.278 7.96979 246.46 7.15458 245.92C6.33936 245.381 5.46538 245.168 4.35252 244.449Z" fill="white" fill-opacity="0.2"/>
<path d="M13.3074 241.39C12.9082 242.866 12.3676 243.586 11.9767 244.557C11.5857 245.528 11.3056 246.75 11.2138 249.135C11.2335 250.047 11.3018 250.958 11.4185 251.862C11.5152 252.946 11.6778 253.891 11.9107 253.743C14.1696 252.289 14.7869 249.915 14.6917 246.961C14.5964 244.007 13.8604 240.537 13.297 236.316C13.2014 236.091 13.3163 237.018 13.4071 238.164C13.5111 239.24 13.4776 240.324 13.3074 241.39Z" fill="white" fill-opacity="0.2"/>
<path d="M2.94563 239.184C2.27922 238.805 1.6437 238.374 1.04501 237.896C0.413689 237.43 -0.092492 237.1 -0.00489522 237.221C2.2802 238.856 3.56378 241.115 4.76192 242.889C5.04423 243.326 5.35044 243.748 5.67917 244.152C5.97471 244.541 6.30956 244.898 6.67842 245.218C7.45563 245.891 8.39615 246.349 9.40567 246.544C9.63804 246.59 9.491 245.781 9.18874 244.894C8.94944 244.158 8.63822 243.448 8.25959 242.774C7.15801 241.101 6.28948 240.49 5.51843 240.121C4.74738 239.752 3.9737 239.676 2.94563 239.184Z" fill="white" fill-opacity="0.2"/>
<path d="M10.0378 235.58C9.87333 236.558 9.61805 237.519 9.27527 238.45C9.02659 239.336 8.95833 240.408 9.17048 242.45C9.23014 242.795 9.42181 243.845 9.68008 244.749C9.93835 245.654 10.1459 246.458 10.3259 246.309C11.146 245.616 11.7068 244.665 11.9166 243.611C12.022 243.075 12.0718 242.528 12.0652 241.981C12.0404 241.383 11.9781 240.787 11.8786 240.196C11.4351 237.68 10.4002 234.801 9.40641 231.254C9.26988 231.089 9.53171 231.842 9.73375 232.819C9.95738 233.721 10.0596 234.65 10.0378 235.58Z" fill="white" fill-opacity="0.2"/>
<path d="M0.948538 234.829C0.659713 234.739 0.380854 234.619 0.116309 234.472C-0.189644 234.306 -0.515951 234.13 -0.836568 233.97C-1.43391 233.67 -1.8849 233.43 -1.79917 233.533C-1.28763 233.798 -0.797523 234.103 -0.333296 234.444C0.103398 234.8 0.522254 235.157 0.912437 235.519L1.97269 236.65C2.31701 237.011 2.60772 237.417 2.92412 237.736C4.16656 239.111 5.3232 240.156 7.31906 240.272C7.52602 240.288 7.27866 239.607 6.92633 238.878C6.62278 238.296 6.27828 237.737 5.89544 237.204C5.44996 236.701 4.95088 236.248 4.40708 235.853C4.05299 235.605 3.65926 235.42 3.24286 235.305C2.89488 235.213 2.5418 235.141 2.18544 235.09C1.82765 235.025 1.42784 234.955 0.948538 234.829Z" fill="white" fill-opacity="0.2"/>
<path d="M6.59796 230.842C6.61846 231.307 6.58093 231.773 6.48625 232.228C6.41328 232.632 6.34042 232.996 6.2879 233.369C6.24129 233.821 6.2438 234.277 6.29538 234.728C6.37477 235.422 6.51155 236.109 6.70431 236.781C6.89867 237.42 7.13414 238.045 7.40923 238.654C7.71626 239.414 8.0248 240.083 8.16023 239.919C9.47609 238.387 9.4028 236.599 8.72386 234.523C8.04492 232.448 6.81955 230.096 5.50763 227.194C5.39015 227.052 5.6758 227.701 5.98339 228.494C6.15006 228.907 6.28631 229.332 6.39107 229.766C6.49285 230.118 6.56211 230.478 6.59796 230.842Z" fill="white" fill-opacity="0.2"/>
<path d="M-2.61346 226.251C-2.61346 226.251 -2.61346 226.251 -2.59759 226.27C-2.0599 226.655 -1.55749 227.086 -1.09633 227.56C-0.731812 227.992 -0.394292 228.446 -0.0856948 228.92C0.189604 229.377 0.38468 229.823 0.617952 230.276C0.851224 230.729 1.00885 231.122 1.19001 231.528C1.37071 231.926 1.58052 232.309 1.81774 232.676C2.04924 233.069 2.33001 233.432 2.65326 233.754C3.03883 234.129 3.45328 234.473 3.89275 234.782C4.14201 234.951 4.41929 235.122 4.72842 235.292C5.03755 235.462 5.34471 235.654 5.70539 235.839C5.7701 235.123 5.73522 234.401 5.60177 233.694C5.51205 233.124 5.33353 232.572 5.0727 232.057C4.84324 231.611 4.56069 231.194 4.2312 230.815C3.89871 230.469 3.53559 230.153 3.14629 229.873C1.52109 228.738 -0.329867 227.978 -2.61346 226.251Z" fill="white" fill-opacity="0.2"/>
<path d="M-6.87372 291.033L-6.38271 290.807C-6.07534 290.655 -5.62011 290.472 -5.10539 290.18C-3.83253 289.514 -2.6104 288.755 -1.4489 287.909C-0.29855 287.057 0.786785 286.119 1.7981 285.105C2.22775 284.703 2.53186 284.322 2.77004 284.079C3.00821 283.836 3.13216 283.681 3.13216 283.681L2.85825 283.437L2.19808 284.075C1.78497 284.489 1.1505 285.041 0.378261 285.669C-1.53481 287.177 -3.63624 288.43 -5.87288 289.395C-8.10021 290.33 -10.4274 291.007 -12.8089 291.412L-14.1394 291.623C-14.5388 291.664 -14.8854 291.706 -15.1708 291.736L-16.0666 291.832L-15.8619 293.538L-14.6595 293.336C-13.9434 293.233 -12.9995 292.999 -12.0506 292.787C-11.1016 292.576 -10.1729 292.277 -9.48887 292.026L-8.65696 291.743L-8.3452 291.621C-7.5442 291.98 -6.70788 292.255 -5.84983 292.441C-5.40359 292.543 -4.94137 292.625 -4.46385 292.694C-3.98632 292.763 -3.50038 292.781 -3.01314 292.784C-0.841988 292.834 1.31937 292.477 3.35941 291.732C5.64078 290.897 7.75359 289.659 9.59699 288.076C11.5075 286.447 13.1116 284.49 14.3335 282.296C15.3178 280.408 16.153 278.446 16.8314 276.427C14.9442 280.152 12.2769 283.427 9.01098 286.027C8.38678 286.545 7.7202 286.949 7.12496 287.346C6.52972 287.743 5.91049 288.056 5.35505 288.33C4.7996 288.603 4.22893 288.85 3.70104 289.056C3.17316 289.261 2.65937 289.428 2.19024 289.572C1.7211 289.715 1.2304 289.825 0.790027 289.925C0.367708 290.03 -0.0598165 290.113 -0.490806 290.173L-1.65359 290.33C-2.03521 290.368 -2.40282 290.408 -2.76277 290.442C-4.14284 290.564 -5.5152 290.761 -6.87372 291.033Z" fill="white" fill-opacity="0.2"/>
<path d="M16.9146 339.567C16.9146 339.567 17.1363 339.556 17.4694 339.51C17.8025 339.465 18.2742 339.44 18.6951 339.374C19.1161 339.308 19.586 339.251 19.9232 339.205C20.2603 339.159 20.4804 339.116 20.4804 339.116L20.473 338.974C20.473 338.974 20.253 339.018 19.9199 339.064C19.5868 339.109 19.1414 339.173 18.6959 339.232C18.2503 339.292 17.8082 339.339 17.4905 339.372C17.1729 339.404 16.9355 339.425 16.9355 339.425L16.9146 339.567Z" fill="white" fill-opacity="0.2"/>
<path d="M14.185 326.887L14.2439 327.009L14.6398 326.851C14.8694 326.758 15.1783 326.637 15.4822 326.496L16.3074 326.122C16.5325 326.021 16.6779 325.941 16.6779 325.941L16.6112 325.823C16.6112 325.823 16.4658 325.903 16.2405 326C16.0151 326.096 15.7153 326.237 15.4153 326.374C15.1152 326.511 14.8103 326.632 14.5769 326.729L14.185 326.887Z" fill="white" fill-opacity="0.2"/>
<path d="M21.8242 325.718C21.5032 326.621 21.6062 327.752 21.3371 328.878C21.068 330.005 20.4437 331.218 18.5744 332.116C18.1811 332.327 17.4574 332.635 16.7342 332.952C17.5135 332.859 18.3029 332.806 18.7436 332.73C20.8191 332.457 22.0972 332.864 23.1561 333.488C24.2151 334.113 25.0079 334.905 26.0741 335.202C26.642 335.345 27.228 335.402 27.8128 335.37C28.0955 335.364 28.3777 335.342 28.6582 335.306C26.9233 336.584 24.8913 337.398 22.7543 337.671C21.1276 337.857 19.48 337.68 17.9298 337.153C15.1327 336.214 13.2418 334.508 11.6486 333.947L11.6415 333.81C13.0588 332.847 14.2522 330.682 15.821 328.663C16.6182 327.604 17.5566 326.66 18.6101 325.857C19.8821 324.937 21.3183 324.27 22.8411 323.89C22.7048 324.059 22.579 324.235 22.4643 324.419C22.2076 324.83 21.9931 325.265 21.8242 325.718Z" fill="white" fill-opacity="0.2"/>
<path d="M28.6966 335.373L30.3882 334.711L32.0639 333.977L32.0286 333.841L30.3609 334.575L28.6772 335.233L28.6966 335.373Z" fill="white" fill-opacity="0.2"/>
<path d="M22.7983 323.839L22.8846 323.944L23.918 323.142C24.409 322.712 24.904 322.282 24.904 322.282L24.8061 322.186L23.8313 323.03L22.7983 323.839Z" fill="white" fill-opacity="0.2"/>
<path d="M29.4597 320.95C29.4209 321.918 29.7898 322.955 29.858 324.116C29.9263 325.278 29.6146 326.596 28.0355 327.948C27.6867 328.237 27.1033 328.757 26.4642 329.215C27.2109 328.962 27.9352 328.665 28.3711 328.497C30.3019 327.693 31.6469 327.753 32.8396 328.071C34.0322 328.39 35.0231 328.949 36.1168 328.917C36.7079 328.89 37.2926 328.782 37.8543 328.596C38.3307 328.43 38.6461 328.276 38.6461 328.276C37.3208 330.012 35.5686 331.375 33.5602 332.233C32.0225 332.849 30.365 333.108 28.7128 332.989C28.0085 332.946 27.3087 332.847 26.62 332.693C25.9614 332.542 25.3597 332.395 24.7842 332.21C24.2088 332.026 23.679 331.863 23.1874 331.735C22.7394 331.597 22.2798 331.5 21.8144 331.446L21.7631 331.315C22.9098 330.042 23.5331 327.64 24.5321 325.311C25.0252 324.1 25.6755 322.959 26.4663 321.918C27.4181 320.724 28.5829 319.717 29.9017 318.949C29.8249 319.15 29.76 319.356 29.7073 319.566C29.5728 320.016 29.4897 320.48 29.4597 320.95Z" fill="white" fill-opacity="0.2"/>
<path d="M38.71 328.325C38.71 328.325 38.8971 328.19 39.1732 327.982C39.4494 327.773 39.8147 327.492 40.1714 327.198C40.528 326.904 40.8928 326.611 41.1558 326.383L41.5925 325.996L41.5213 325.87L41.0889 326.261C40.8299 326.488 40.4649 326.778 40.1083 327.072C39.3994 327.667 38.651 328.199 38.651 328.199L38.71 328.325Z" fill="white" fill-opacity="0.2"/>
<path d="M29.847 318.895L29.9602 318.975C29.9602 318.975 30.3585 318.473 30.7144 317.932C30.8907 317.669 31.0918 317.415 31.1984 317.212L31.4032 316.874L31.2826 316.807L31.0818 317.145C30.9548 317.346 30.7739 317.598 30.5976 317.862C30.4214 318.126 30.2453 318.394 30.0973 318.579L29.847 318.895Z" fill="white" fill-opacity="0.2"/>
<path d="M35.1777 315.792C35.3308 316.564 35.7447 317.453 35.991 318.464C36.3182 319.614 36.2914 320.836 35.9139 321.97C37.0525 321.499 38.2684 321.243 39.5002 321.214C40.5102 321.229 41.5189 321.136 42.5092 320.937C43.0714 320.77 43.6038 320.516 44.0869 320.184C44.3258 320.029 44.556 319.862 44.7764 319.683C44.0188 321.499 42.8417 323.11 41.3416 324.383C40.1674 325.355 38.7957 326.06 37.3218 326.448C34.6666 327.156 32.3057 326.756 30.5477 326.682C31.0625 324.993 31.1499 322.699 31.6032 320.447C31.8265 319.284 32.1973 318.154 32.7063 317.085C33.3279 315.845 34.1408 314.711 35.1151 313.724C35.0894 313.938 35.0749 314.154 35.0717 314.369C35.0632 314.846 35.0987 315.322 35.1777 315.792Z" fill="white" fill-opacity="0.2"/>
<path d="M44.8215 319.737L44.9202 319.615C44.985 319.538 45.0763 319.428 45.1742 319.29L45.9305 318.284C46.2106 317.918 46.4657 317.536 46.6529 317.247L46.9717 316.77L46.8736 316.67L46.5547 317.147C46.3633 317.432 46.1163 317.813 45.8362 318.18L45.0797 319.182C44.9715 319.337 44.8551 319.486 44.731 319.628L44.8215 319.737Z" fill="white" fill-opacity="0.2"/>
<path d="M35.0453 313.691L35.177 313.737C35.2356 313.614 35.2857 313.487 35.3271 313.357L35.6319 312.532C35.7497 312.231 35.8386 311.919 35.9126 311.709L36.03 311.323L35.8951 311.293L35.7775 311.676C35.7086 311.906 35.6197 312.218 35.5009 312.499L35.196 313.323C35.1575 313.439 35.118 313.534 35.0929 313.596L35.0453 313.691Z" fill="white" fill-opacity="0.2"/>
<path d="M39.4474 311.796C39.6885 312.444 39.8758 313.111 40.0073 313.79C40.1747 314.552 40.2677 315.329 40.285 316.109C40.9493 315.669 41.6521 315.29 42.3847 314.977C43.1744 314.616 43.9658 314.288 44.4391 314.061C44.9476 313.806 45.4179 313.481 45.836 313.095C46.0338 312.909 46.2206 312.711 46.3955 312.504C45.6798 315.777 44.0015 317.866 42.259 319.028C41.4453 319.574 40.5498 319.986 39.6061 320.25C38.7669 320.469 37.9103 320.614 37.046 320.686C36.972 319.881 36.8757 319.036 36.8397 318.185C36.7742 317.305 36.7785 316.422 36.8525 315.543C37.0256 313.734 37.5944 311.916 39.0097 309.667C39.0224 309.896 39.0477 310.124 39.0856 310.351C39.1508 310.845 39.2722 311.33 39.4474 311.796Z" fill="white" fill-opacity="0.2"/>
<path d="M46.458 312.553L46.7121 312.075C46.871 311.788 47.0814 311.401 47.2468 311.004L47.7562 309.913C47.8159 309.795 47.8689 309.674 47.9152 309.549L47.9728 309.413L47.8555 309.334L47.7981 309.474C47.7622 309.561 47.712 309.685 47.6429 309.834C47.5006 310.129 47.3191 310.527 47.1333 310.921L46.86 311.497L46.6025 311.988L46.3444 312.466L46.458 312.553Z" fill="white" fill-opacity="0.2"/>
<path d="M38.9593 309.658L39.0976 309.675L39.1856 309.266L39.2765 308.837L39.3554 308.331L39.501 307.397C39.5228 307.271 39.5294 307.165 39.5375 307.088L39.5315 306.971L39.3944 306.978L39.3803 307.096C39.3724 307.2 39.3589 307.303 39.3398 307.406L39.198 308.335C39.151 308.677 39.0878 309.016 39.032 309.266L38.9593 309.658Z" fill="white" fill-opacity="0.2"/>
<path d="M46.0353 309.003C45.8593 309.563 45.6156 310.098 45.3095 310.598C44.9987 311.092 44.6332 311.549 44.2201 311.961C43.4465 312.732 42.5393 313.356 41.5427 313.803C41.437 313.323 41.3089 312.8 41.2213 312.279C41.1337 311.757 41.0783 311.234 41.0264 310.699C40.9881 310.175 40.9866 309.65 41.0217 309.126C41.0497 308.615 41.1389 308.109 41.2873 307.62C41.4651 307.002 41.7496 306.421 42.1279 305.901C42.4691 305.386 42.9126 304.898 43.323 304.315C43.7996 303.674 44.1901 302.974 44.4843 302.232C44.6672 301.771 44.8103 301.296 44.9119 300.81C45.0221 300.231 45.0943 299.645 45.1282 299.056C45.0901 299.646 45.0897 300.237 45.127 300.827C45.155 301.368 45.1805 301.86 45.2529 302.322C45.3782 303.142 45.5471 303.956 45.759 304.759C45.9482 305.447 46.0964 306.145 46.2028 306.851C46.2862 307.573 46.2293 308.304 46.0353 309.003Z" fill="white" fill-opacity="0.2"/>
<path d="M7.97587 333.85C7.52794 333.942 6.77617 334.099 5.9731 334.201C6.7518 334.331 7.52923 334.436 7.98933 334.501C8.45844 334.561 8.92338 334.651 9.38145 334.769C9.76067 334.872 10.1292 335.012 10.4822 335.185C11.0765 335.471 11.6143 335.863 12.0698 336.34C12.9222 337.19 13.5028 338.179 14.4613 338.736C14.9717 339.011 15.5165 339.217 16.0814 339.348C16.3496 339.415 16.6222 339.463 16.8972 339.492C14.9321 340.269 12.8045 340.545 10.7063 340.294C9.09079 340.073 7.54341 339.5 6.17336 338.616C5.58088 338.243 5.01863 337.825 4.49183 337.364C3.98812 336.925 3.52959 336.5 3.11116 336.068C2.69273 335.637 2.3046 335.245 1.93594 334.916C1.6067 334.579 1.24861 334.271 0.865767 333.997C0.865767 333.997 -0.197668 333.91 -1.77882 333.661C-3.71712 333.359 -5.63109 332.917 -7.50578 332.34C-9.3886 331.761 -11.2264 331.045 -13.0044 330.198C-13.3694 330.018 -13.7049 329.862 -13.9954 329.715C-14.2859 329.568 -14.54 329.424 -14.748 329.309L-15.4007 328.959L-14.8239 327.999L-14.2065 328.371L-13.5012 328.8C-13.2219 328.963 -12.906 329.133 -12.5605 329.325C-10.8638 330.248 -9.1029 331.048 -7.29141 331.718C-5.47079 332.389 -3.60451 332.929 -1.70685 333.333C-0.92968 333.511 -0.274002 333.607 0.183319 333.696C0.407947 333.741 0.591009 333.764 0.713193 333.782L0.90453 333.809C2.49062 333.217 4.17807 331.382 6.19178 329.837C7.22474 329.012 8.36967 328.337 9.59227 327.833C11.0586 327.258 12.6218 326.971 14.1966 326.987C13.5183 327.465 12.9601 328.093 12.5658 328.823C12.2446 329.461 11.9641 330.119 11.726 330.792C11.4905 331.477 11.1092 332.103 10.6084 332.626C10.3023 332.932 9.94622 333.183 9.55549 333.368C9.05358 333.601 8.52205 333.763 7.97587 333.85Z" fill="white" fill-opacity="0.2"/>
<path d="M20.2386 35.6456C19.598 37.5974 19.3439 39.6482 18.8488 41.6009C18.4082 43.6137 17.3767 45.4545 15.8867 46.8872C14.982 47.6549 13.8932 48.1735 12.7294 48.391C11.5656 48.6085 10.3676 48.5172 9.25557 48.1264C8.91998 48.0344 8.60722 47.8751 8.33631 47.6581C8.06541 47.4411 7.84202 47.171 7.67972 46.8641C7.52994 46.4272 7.48483 45.9604 7.54797 45.5011C7.82826 42.4775 8.87288 39.568 10.5837 37.0458C12.2946 34.5235 14.6156 32.4714 17.3286 31.0821" fill="white" fill-opacity="0.2"/>
<path d="M18.0805 31.1468C15.925 32.4828 13.7746 33.8369 11.6294 35.2093C10.1935 36.104 8.66957 37.0385 7.0331 37.1197C6.27197 37.1257 5.52222 37.0323 4.80287 36.8419C3.64601 36.5697 2.32718 36.1195 2.04066 34.9722C1.75414 33.8249 2.67514 32.5868 3.61924 31.7091C7.20022 28.4319 11.7415 26.4619 16.3977 26.166" fill="white" fill-opacity="0.2"/>
<path d="M15.3666 26.0326C13.5632 26.6155 11.779 27.1796 9.94359 27.6402C6.94336 28.4251 3.73011 28.9928 0.949492 27.8366C-0.261079 27.3072 -1.41881 26.0758 -0.942338 24.7937C-0.599979 24.0867 -0.015716 23.5148 0.698924 23.1872C3.04196 21.8888 5.60385 21.082 8.21762 20.8194C10.8314 20.5569 13.4383 20.8445 15.8685 21.6635" fill="white" fill-opacity="0.2"/>
<path d="M15.139 22.3709L9.40614 21.8061C7.69192 21.708 6.00812 21.3906 4.39572 20.8617C2.77436 20.3201 1.45403 19.1672 0.707102 17.6409C0.529864 17.3575 0.419789 17.0353 0.38481 16.6975C0.349831 16.3596 0.390818 16.0146 0.504811 15.6871C0.618802 15.3596 0.802966 15.0579 1.04406 14.8036C1.28515 14.5494 1.57717 14.3489 1.89909 14.2166C3.40864 13.5316 5.05963 13.273 6.66524 13.4701C10.5266 13.7278 14.1993 15.0093 17.3076 17.1836" fill="white" fill-opacity="0.2"/>
<path d="M16.4278 16.1633C12.4893 13.6843 8.37986 11.0309 6.09817 6.97908C5.62215 6.20976 5.31893 5.35171 5.21055 4.4673C5.16075 4.02615 5.21268 3.58404 5.36233 3.17515C5.51198 2.76626 5.75535 2.40155 6.07361 2.10922C6.47166 1.82288 6.93877 1.64248 7.43349 1.58403C7.92821 1.52558 8.43524 1.59089 8.90962 1.77416C10.291 2.33096 11.5214 3.2284 12.4818 4.37979C15.7617 7.72309 18.8324 11.6983 19.3959 16.2604" fill="white" fill-opacity="0.2"/>
<path d="M24.6731 24.6921C32.1831 22.0445 42.4752 24.4106 48.1005 30.1805C49.5245 31.6321 50.6853 33.3178 52.0975 34.7693C54.6206 37.2666 57.8098 38.9851 61.2821 39.7183C64.7544 40.4515 68.3621 40.1683 71.6717 38.9026" stroke="white" stroke-opacity="0.2" stroke-miterlimit="10"/>
<path d="M39.8895 35.0635C38.2347 36.6125 36.7108 38.2956 35.3328 40.096C33.6398 42.3506 31.8595 44.7403 31.5802 47.5901C35.9765 47.8671 39.9422 45.0558 42.8306 41.793C45.3143 38.9885 47.3931 35.423 46.9374 31.6498L46.7437 29.3502C46.6704 30.1791 46.3832 30.9705 45.91 31.6473C45.1692 32.4844 42.1617 32.9016 39.8895 35.0635Z" fill="white" fill-opacity="0.2"/>
<path d="M40.8153 17.6619C39.6798 14.4301 39.4972 10.8964 40.2883 7.46538C43.2986 9.50645 45.6705 12.3365 47.1624 15.6674C48.6543 18.9983 49.2129 22.7111 48.7814 26.4276C48.723 27.172 48.5112 27.9044 48.1593 28.5786C47.8834 29.0226 47.5653 29.4405 47.2097 29.826C44.3141 26.2453 42.1453 22.1196 40.8153 17.6619Z" fill="white" fill-opacity="0.2"/>
<path d="M40.3881 24.8515C39.2137 25.2301 38.0112 25.8785 36.8878 26.739C36.1774 27.2243 35.4876 27.7645 34.8296 28.3508C34.025 29.1263 33.2766 29.9562 32.5994 30.8237C31.9854 31.5616 31.43 32.2503 30.8433 32.9615" stroke="white" stroke-opacity="0.2" stroke-width="0.99" stroke-linecap="round" stroke-linejoin="round"/>
<path d="M38.767 24.4928C35.2216 22.1304 32.3542 18.751 30.6641 14.9427" stroke="white" stroke-opacity="0.2" stroke-miterlimit="10"/>
<path d="M30.792 31.0214C29.5444 31.5726 28.5034 32.4263 27.7392 33.5248C26.9751 34.6233 26.5056 35.941 26.3626 37.3889C26.2879 39.1335 26.4502 40.9404 26.8454 42.7637C29.0624 42.0944 30.7252 40.5242 31.5076 38.361C32.2599 36.1976 32.065 33.604 30.9624 31.1031" fill="white" fill-opacity="0.2"/>
<path d="M32.0526 15.5273C30.2703 15.1151 29.1096 13.3629 28.4925 11.5957C27.7026 9.24091 27.7207 6.4989 29.2349 4.68879C29.7326 4.75534 30.2168 4.92687 30.655 5.19188C31.0932 5.45689 31.4753 5.80926 31.7757 6.22534C32.902 7.53804 33.5868 9.15933 33.7243 10.8388C33.7877 11.6707 33.6854 12.4968 33.4231 13.2688C33.1609 14.0409 32.7441 14.7434 32.197 15.3355" fill="white" fill-opacity="0.2"/>
<path d="M-1.8887 29.3314C-1.60927 29.622 -1.39562 29.9691 -1.26238 30.3489C-1.12914 30.7288 -1.07945 31.1325 -1.11669 31.5325C-1.15393 31.9324 -1.27724 32.3192 -1.47818 32.6663C-1.67912 33.0134 -1.95295 33.3127 -2.28095 33.5437C-2.81785 33.9188 -3.47116 34.0915 -4.12546 34.0314C-4.77976 33.9713 -5.39295 33.6823 -5.85671 33.2153C-6.18168 32.8709 -6.41556 32.4511 -6.53702 31.9942C-6.65847 31.5374 -6.66363 31.058 -6.55202 30.5998C-6.44042 30.1416 -6.21559 29.7193 -5.89807 29.3713C-5.58055 29.0232 -5.18043 28.7606 -4.73423 28.6074C-4.24061 28.4542 -3.71345 28.4407 -3.21118 28.5685C-2.70892 28.6963 -2.25118 28.9604 -1.8887 29.3314Z" fill="white" fill-opacity="0.2"/>
<path d="M22.521 36.2577L20.7807 38.2134C20.7807 38.2134 15.2684 34.78 13.4249 26.3682C11.5814 17.9563 17.9278 11.8706 17.9278 11.8706C17.9278 11.8706 22.4289 18.5136 23.4664 21.8873" fill="white" fill-opacity="0.2"/>
<path d="M19.4656 14.3928C17.6347 18.4774 17.0122 22.9683 17.6732 27.3234C17.9123 29.8196 18.8355 32.1817 20.3422 34.1522L20.484 34.2967C20.6848 34.5014 20.8797 34.7001 21.0746 34.8988C21.2614 35.0795 21.4594 35.2482 21.6677 35.404C22.849 33.9645 24.5896 31.0098 24.5104 26.2251C24.2725 21.6887 22.6551 17.3735 19.873 13.8524L19.4656 14.3928Z" fill="white" fill-opacity="0.2"/>
<path d="M20.6534 36.3979C20.6534 36.3979 9.03109 26.7358 18.9023 12.8613" stroke="#FAF2E1" stroke-linecap="round" stroke-linejoin="round"/>
<path d="M-13.0656 72.9788C-13.3658 76.0514 -6.77535 71.7632 -5.20395 69.1046C-4.25605 67.2866 -3.7375 65.2765 -3.68808 63.2285C-3.56171 61.5249 -3.60906 59.6327 -4.75754 58.359C-5.19818 57.8315 -5.7569 57.415 -6.38864 57.143C-7.66479 56.6553 -12.2252 54.2056 -18.18 58.4431C-24.1348 62.6806 -11.9685 61.8428 -13.0656 72.9788Z" fill="white" fill-opacity="0.2"/>
<path d="M-3.47008 84.9579C-3.45718 84.97 -3.44153 84.9789 -3.42446 84.9837C-3.11211 84.6243 -2.88216 84.2011 -2.75075 83.7438C-2.42992 83.0938 -2.088 82.311 -1.89293 81.8188C-1.53645 81.1392 -1.31917 80.3956 -1.25382 79.6317C-1.1935 79.0704 -1.23928 78.503 -1.38876 77.959C-1.52165 77.4501 -1.70977 76.9643 -1.87447 76.4796C-2.0527 75.9625 -2.11275 75.412 -2.05022 74.8682C-1.78436 73.5564 -1.27799 72.3046 -0.556643 71.1759C-0.212266 70.5692 0.132973 70.0354 0.360954 69.6762C0.588935 69.3171 0.725794 69.1715 0.619885 69.2201C-0.430131 70.8257 -1.54118 72.475 -2.45632 74.1508C-3.32525 75.6862 -4.02372 77.3117 -4.53928 78.9981C-4.75607 79.685 -4.9012 80.3924 -4.97236 81.1089C-5.05455 81.6913 -5.05329 82.2823 -4.96861 82.8641C-4.91837 83.312 -4.75434 83.7395 -4.49207 84.106C-4.22981 84.4724 -3.87802 84.7657 -3.47008 84.9579Z" fill="white" fill-opacity="0.2"/>
<path d="M5.6408 82.7811C5.17614 82.68 4.72282 82.5328 4.28756 82.3418C3.83793 82.1425 3.37737 81.9688 2.90807 81.8213C2.40264 81.6661 1.86715 81.6342 1.34634 81.728C0.664241 81.9153 0.0383502 82.2671 -0.476326 82.7523C-0.838325 83.1141 -1.38441 83.7152 -1.83112 84.258C-2.13454 84.6043 -2.35676 85.0139 -2.48153 85.4568L-2.43591 85.4825C-2.0551 85.6982 -1.63231 85.8298 -1.19599 85.8685C-0.759668 85.9073 -0.319931 85.8522 0.0936549 85.7071C0.570309 85.5634 1.03875 85.3937 1.49686 85.1987C1.98227 84.9911 2.45905 84.7243 2.99649 84.5099C4.04183 83.9988 5.13571 83.5936 6.26167 83.3006C7.37102 83.0158 8.52639 82.9595 9.65738 83.135C9.71915 83.1217 9.59351 83.0989 9.34681 83.0559L8.33816 82.986C7.46995 82.8809 6.42653 82.9359 5.6408 82.7811Z" fill="white" fill-opacity="0.2"/>
<path d="M0.142658 79.8306C0.154924 79.8436 0.17082 79.8526 0.188278 79.8564C0.315883 79.8863 0.727075 79.4379 1.19388 78.8704C1.66069 78.3028 2.28543 77.6799 2.62648 77.2702C3.19332 76.7143 3.65576 76.0615 3.99176 75.3427C4.25483 74.8101 4.43234 74.2395 4.51779 73.652C4.69809 72.549 4.62132 71.4212 5.22463 70.3585C5.55302 69.8085 5.93345 69.2911 6.3607 68.8136C6.8554 68.2767 7.38096 67.7691 7.93471 67.2933C8.9879 66.3402 9.8776 65.7706 9.65468 65.8555C8.92169 66.3931 8.16305 67.0608 7.42957 67.6524C7.05179 67.9571 6.6713 68.224 6.31571 68.5532L5.16881 69.5016C4.81384 69.8191 4.45037 70.1197 4.11426 70.4359C3.77816 70.752 3.46103 71.1089 3.13602 71.4374C2.81101 71.7658 2.52632 72.0869 2.2325 72.4028C1.93869 72.7187 1.70097 73.0844 1.45338 73.4144C0.586484 74.5075 -0.0523704 75.7628 -0.42536 77.106C-0.648441 78.2631 -0.479322 79.1539 0.142658 79.8306Z" fill="white" fill-opacity="0.2"/>
<path d="M9.70148 79.3281C8.74857 78.9583 8.00958 78.3178 7.06297 77.8732C6.56479 77.6318 6.01815 77.5062 5.46401 77.5059C4.73373 77.556 4.02457 77.7738 3.3917 78.1422C2.80821 78.5239 2.24478 78.9355 1.70366 79.3752C1.19371 79.8702 0.794844 80.3074 0.838115 80.4223C0.849289 80.4338 0.863536 80.4418 0.879169 80.4455C1.63822 80.9443 2.55955 81.1354 3.45582 80.9797C4.52376 80.8541 5.58325 80.6642 6.62851 80.411L7.48416 80.2198L8.39271 80.0946C8.6912 80.0464 8.99166 80.0053 9.29928 79.9623C9.60689 79.9192 9.92375 79.9235 10.2607 79.9031L11.1943 79.8824C11.5166 79.895 11.8381 79.9239 12.1574 79.9688C12.7909 80.0233 13.4168 80.1448 14.0244 80.331C13.5573 80.1466 13.0678 80.0239 12.5686 79.9662L11.0778 79.6419C10.6117 79.5719 10.1517 79.467 9.70148 79.3281Z" fill="white" fill-opacity="0.2"/>
<path d="M5.58166 75.1574C5.61248 75.2411 5.79643 75.1824 6.05954 75.0479C6.18752 74.9817 6.34015 74.8932 6.50512 74.7936C6.67009 74.6941 6.85072 74.6094 7.04232 74.4948C7.77962 74.0981 8.55502 73.6025 8.77004 73.4891C9.47906 73.1448 10.1187 72.673 10.6567 72.0972C11.0703 71.6595 11.4128 71.1599 11.672 70.6166C11.9242 70.1085 12.1186 69.5858 12.3526 69.0674C12.4676 68.8062 12.5994 68.5527 12.7473 68.3085C12.9035 68.0615 13.0833 67.8302 13.284 67.6177C13.7196 67.188 14.193 66.7982 14.6983 66.453C14.9886 66.2495 15.2931 66.0421 15.6016 65.8489C15.9101 65.6557 16.2044 65.5088 16.4902 65.345C17.653 64.7188 18.6087 64.277 18.3825 64.3359C15.1848 65.9568 11.5447 67.5506 8.93344 69.4547C8.32365 69.8905 7.74581 70.3693 7.20435 70.8874C6.75344 71.3439 6.34866 71.8436 5.9959 72.3793C5.84769 72.6024 5.71531 72.8356 5.59974 73.0772C5.52749 73.3204 5.48046 73.5704 5.4594 73.8232C5.38364 74.2712 5.42577 74.731 5.58166 75.1574Z" fill="white" fill-opacity="0.2"/>
<path d="M9.25582 74.7146C9.03217 74.769 8.21781 75.0679 7.46658 75.3723C7.28413 75.4423 7.1058 75.5225 6.93247 75.6127C6.77269 75.7032 6.63175 75.7922 6.51487 75.8707C6.28308 76.0349 6.15399 76.1668 6.21144 76.2354C6.49999 76.5777 6.85976 76.8529 7.2658 77.0421C7.46794 77.1368 7.67748 77.2149 7.89235 77.2756C8.11637 77.348 8.35728 77.4119 8.59881 77.464C9.11117 77.5612 9.63031 77.6189 10.1517 77.6366C10.6976 77.662 11.3074 77.7234 11.906 77.7303C14.348 77.8331 17.2529 78.0227 19.8221 79.1431C19.3316 78.9031 18.822 78.7038 18.2986 78.5473L17.532 78.2527L16.7622 77.9743C16.2874 77.8002 15.8273 77.5885 15.3863 77.3414C15.1619 77.2063 14.9477 77.0551 14.7454 76.8889C14.5517 76.7313 14.3632 76.5645 14.1728 76.3906C13.7998 76.0266 13.4079 75.6825 12.9987 75.3597C12.5478 75.0057 12.0262 74.7521 11.4689 74.6157C10.7328 74.4929 9.97864 74.5266 9.25582 74.7146Z" fill="white" fill-opacity="0.2"/>
<path d="M11.2953 72.603C11.1858 72.987 14.2363 72.2407 14.7346 72.2332C16.2438 71.9735 17.6569 71.3162 18.828 70.3292C19.3466 69.8933 19.8334 69.4816 20.3384 69.0802C20.8565 68.669 21.4161 68.3129 22.008 68.0175C22.6183 67.7289 23.2558 67.5019 23.9111 67.3398C24.6262 67.1415 25.3869 66.9689 26.0689 66.8181C27.4266 66.5491 28.4634 66.4422 28.246 66.4218C26.4128 66.7112 24.516 67.0491 22.7098 67.2695C20.9677 67.5362 19.2406 67.8934 17.5354 68.3397C16.0959 68.6989 14.7176 69.2703 13.446 70.035C12.4583 70.6227 11.6998 71.5284 11.2953 72.603Z" fill="white" fill-opacity="0.2"/>
<path d="M11.6767 73.8313C12.5172 74.4869 13.5207 74.9019 14.5799 75.032C15.8471 75.2317 17.1258 75.3506 18.4084 75.3881C19.8021 75.4166 21.3536 75.5704 22.9246 75.7111C24.5478 75.9168 26.1486 76.269 27.7077 76.7632C27.1004 76.522 26.4754 76.3279 25.8381 76.1827C25.2567 76.0288 24.6016 75.8454 23.9732 75.647C23.3448 75.4485 22.7365 75.2253 22.2766 75.0377C21.7175 74.791 21.1842 74.4897 20.6846 74.1381C20.1752 73.7767 19.6434 73.448 19.0923 73.154C17.795 72.4036 16.2572 72.1819 14.7984 72.5349C14.2963 72.5705 11.3507 73.5989 11.6767 73.8313Z" fill="white" fill-opacity="0.2"/>
<path d="M30.1472 71.7194C29.0587 71.5203 27.9817 71.2636 26.9206 70.9503C25.9894 70.6824 25.04 70.4821 24.0796 70.351C23.6008 70.2809 23.1171 70.2493 22.633 70.2565C22.1172 70.2838 21.604 70.3503 21.0982 70.4555C20.5302 70.5713 19.972 70.7313 19.4288 70.934C18.7962 71.2153 18.1835 71.5393 17.5949 71.9038L16.7676 72.0026C16.231 72.0669 15.4332 72.2305 14.4533 72.4178C11.6984 72.9462 9.03586 73.8777 6.55178 75.1821C3.03464 77.0965 0.0710418 79.8858 -2.05135 83.279C-3.24807 85.1823 -4.24122 87.2057 -5.01441 89.3158C-5.23278 89.8491 -5.41404 90.3913 -5.58877 90.9432C-5.7635 91.495 -5.95647 92.0366 -6.12207 92.5937C-6.41814 93.7096 -6.77931 94.8128 -7.00436 95.9627C-8.08371 100.486 -8.76274 105.078 -9.44656 109.36C-10.1304 113.643 -10.817 117.622 -11.661 120.977C-12.3147 123.668 -13.1802 126.303 -14.2492 128.858C-14.4587 129.312 -14.6468 129.718 -14.8039 130.069C-14.961 130.42 -15.1313 130.709 -15.2542 130.947C-15.5131 131.403 -15.6282 131.67 -15.6282 131.67L-14.6383 132.229L-14.2553 131.469C-14.1207 131.232 -13.9524 130.936 -13.8103 130.558C-13.6683 130.181 -13.4658 129.771 -13.2577 129.298C-12.2051 126.673 -11.3612 123.969 -10.7338 121.212C-9.93883 117.805 -9.30174 113.786 -8.68758 109.488C-8.07342 105.19 -7.46072 100.609 -6.45744 96.1031C-6.23103 94.972 -5.90957 93.8644 -5.63237 92.7499C-5.48107 92.1968 -5.29721 91.6501 -5.13222 91.1047C-4.96724 90.5594 -4.79769 90.0166 -4.5845 89.4925C-3.86455 87.3919 -2.92111 85.3742 -1.77037 83.4739C0.274366 80.0867 3.16222 77.2851 6.61145 75.3423C9.06816 74.0007 11.7081 73.0263 14.4469 72.4503C15.4365 72.2565 16.2142 72.0754 16.7513 71.9994L17.5896 71.8707C18.2336 72.0797 18.8898 72.2493 19.5546 72.3786C20.1041 72.5194 20.6632 72.6199 21.2275 72.6793C21.7132 72.7514 22.2039 72.7849 22.695 72.7796C23.1578 72.7698 23.6199 72.7353 24.0792 72.6762C24.9813 72.5835 25.8881 72.3128 26.8642 72.1535C27.9492 71.9446 29.0454 71.7997 30.1472 71.7194Z" fill="white" fill-opacity="0.2"/>
<path d="M-3.43981 109.923C-5.15843 111.157 -7.48935 110.328 -8.78392 113.765C-9.16494 114.755 -9.86655 116.925 -9.70529 117.118L-9.65512 117.147C-7.8679 117.596 -6.367 115.992 -4.88827 113.695C-3.40955 111.398 -1.95298 108.408 -0.0622116 106.181C0.092165 105.792 -2.016 108.89 -3.43981 109.923Z" fill="white" fill-opacity="0.2"/>
<path d="M-2.49831 103.762C-4.21383 104.937 -6.56238 104.086 -7.82836 107.515C-8.19112 108.515 -8.84589 110.688 -8.66059 110.871C-8.64654 110.884 -8.62928 110.894 -8.61041 110.899C-6.81036 111.284 -5.37654 109.66 -3.93086 107.41C-2.48517 105.161 -1.01788 102.279 0.959428 100.282C0.547741 100.662 0.165677 101.072 -0.183415 101.51C-0.86757 102.345 -1.64415 103.101 -2.49831 103.762Z" fill="white" fill-opacity="0.2"/>
<path d="M-1.33722 97.7549C-3.11698 98.7674 -5.43384 97.8498 -6.79832 101.187C-7.19301 102.169 -7.86344 104.327 -7.67358 104.512C-7.65968 104.526 -7.64236 104.536 -7.6234 104.541C-5.8363 104.948 -4.40371 103.348 -2.89922 101.186C-1.39472 99.0237 0.220378 96.4121 2.29754 94.7484C1.86437 95.0561 1.46342 95.4068 1.10083 95.7951C0.344413 96.5154 -0.471139 97.1709 -1.33722 97.7549Z" fill="white" fill-opacity="0.2"/>
<path d="M4.01478 89.9359C3.5585 90.1273 3.12204 90.3629 2.71168 90.6394C1.89853 91.2061 1.03615 91.6986 0.134947 92.1112C-0.777427 92.4872 -1.78743 92.3984 -2.78425 92.5942C-3.78107 92.79 -4.75164 93.2898 -5.56543 94.9144C-6.01943 95.8627 -6.82337 97.9688 -6.62957 98.1686L-6.57483 98.1996C-4.79279 98.6583 -3.30398 97.1501 -1.67584 95.2267C-1.25885 94.7574 -0.862197 94.2285 -0.417957 93.7326C0.026283 93.2366 0.477675 92.7386 0.9356 92.2503C1.39353 91.7621 1.92258 91.3502 2.42107 90.939L2.80082 90.6416L3.20868 90.3901C3.46847 90.2296 3.73675 90.086 4.01478 89.9359Z" fill="white" fill-opacity="0.2"/>
<path d="M-6.16743 91.5316C-6.1485 91.5345 -6.12915 91.5331 -6.11084 91.5274C-5.872 91.1183 -5.72606 90.662 -5.68333 90.1906C-5.53573 89.4848 -5.3351 88.6644 -5.25013 88.1221C-5.10163 87.3814 -5.07743 86.6214 -5.17853 85.8733C-5.29155 85.3229 -5.50074 84.7968 -5.79653 84.3192C-6.32221 83.4197 -7.0549 82.7045 -7.29565 81.5684C-7.40383 80.9802 -7.42201 80.3788 -7.34957 79.7849C-7.30083 79.0809 -7.2035 78.3811 -7.05828 77.6903C-6.74395 76.3619 -6.39438 75.3003 -6.52187 75.5355C-6.75148 76.46 -7.04162 77.3744 -7.2732 78.2918C-7.50478 79.2092 -7.71811 80.1369 -7.90814 81.0235C-8.09817 81.9101 -8.24072 82.7875 -8.34568 83.6197C-8.45063 84.452 -8.50491 85.2588 -8.53466 86.001C-8.56967 88.9813 -7.95983 91.0911 -6.16743 91.5316Z" fill="white" fill-opacity="0.2"/>
<path d="M2.36785 87.0769C1.4275 87.2263 0.450796 86.9515 -0.570676 86.9466C-1.09591 86.9356 -1.61582 87.056 -2.08299 87.2969C-2.72293 87.6367 -3.25753 88.1452 -3.62851 88.7671C-3.9992 89.3401 -4.33637 89.9341 -4.63834 90.5459C-4.87407 90.9429 -5.01568 91.3884 -5.05228 91.8482C-5.03977 91.8637 -5.02183 91.8738 -5.0021 91.8766C-4.58211 92.0171 -4.13582 92.0623 -3.69579 92.0087C-3.25575 91.9551 -2.83304 91.8042 -2.45846 91.5669C-2.24209 91.4482 -2.03283 91.317 -1.83175 91.174C-1.61442 91.0317 -1.39496 90.8786 -1.17335 90.7147C-0.722831 90.3668 -0.290554 90.0087 0.153312 89.6089L1.58193 88.4401C2.06747 88.0518 2.60258 87.7036 3.1071 87.3561C3.62821 87.0446 4.1685 86.7664 4.72472 86.5231C5.2643 86.3163 5.82313 86.1639 6.39287 86.0681C6.49546 85.9935 5.91684 86.1425 5.03776 86.3325C4.60279 86.4301 4.15178 86.609 3.67328 86.7302C3.19478 86.8514 2.74759 87.0024 2.36785 87.0769Z" fill="white" fill-opacity="0.2"/>
<path d="M33.5902 554.421C34.6861 555.831 35.4959 557.441 35.9742 559.162C36.4583 560.669 36.9348 561.911 38.1165 562.759C38.8156 563.212 39.574 563.567 40.3703 563.813L39.819 563.689C40.2691 563.819 40.6641 563.927 41.0703 564.061C40.0021 563.854 38.9213 563.719 37.8351 563.657C36.3677 563.616 35.1806 564.428 33.7579 565.135C32.0337 566.135 30.0568 566.614 28.0663 566.514C27.4349 566.477 27.7085 566.703 28.535 567.071C28.9454 567.249 29.4892 567.48 30.1373 567.693C30.7854 567.905 31.5347 568.112 32.3198 568.325C32.7148 568.433 33.1146 568.546 33.5303 568.639L34.7953 568.876C35.6369 569.031 36.4696 569.186 37.2535 569.292C38.497 569.45 39.7518 569.5 41.004 569.443C41.7829 569.326 42.5438 569.111 43.2686 568.802C44.0322 568.497 44.7632 568.116 45.4505 567.665C46.4508 567.02 47.3961 566.293 48.2766 565.492C48.2766 565.492 48.3436 565.499 48.4697 565.523L49.023 565.576C49.4998 565.615 50.1775 565.674 50.9939 565.751C51.8104 565.828 52.7669 565.843 53.7911 565.873C54.3004 565.882 54.8258 565.92 55.3773 565.908L57.0068 565.841L58.6643 565.789L60.24 565.621C61.2589 565.501 62.2205 565.432 63.0263 565.257L65.7308 564.778L65.4197 563.463L62.7939 564.072C62.009 564.279 61.0739 564.395 60.0776 564.565C59.5766 564.644 59.0581 564.725 58.5317 564.815L56.9272 564.959L55.3148 565.113C54.7873 565.145 54.2613 565.147 53.7545 565.164C52.7392 565.182 51.7895 565.237 50.9795 565.181L48.9691 565.103C48.4948 565.091 48.2117 565.043 48.2117 565.043C47.8467 564.507 47.0343 563.359 46.1303 562.224C45.3195 561.086 44.3532 560.067 43.2597 559.197C42.3994 558.632 41.4989 558.131 40.5656 557.697C40.0024 557.402 39.3881 557.08 38.7826 556.757L37.8768 556.299L36.9947 555.813C36.4355 555.512 35.8763 555.211 35.3987 554.978C34.921 554.745 34.5039 554.497 34.1805 554.351C33.5503 554.048 33.2553 554.015 33.5902 554.421Z" fill="white" fill-opacity="0.2"/>
<path d="M35.8732 563.084C35.8732 563.084 35.411 562.92 34.7012 562.616C33.9913 562.312 33.0006 561.937 31.945 561.485C30.8893 561.033 29.7532 560.57 28.7295 560.128C27.8601 559.736 26.9557 559.427 26.0284 559.205C24.6337 558.86 23.3798 559.342 21.8676 559.805C21.0589 560.053 20.2278 560.222 19.3864 560.307C18.332 560.418 17.2666 560.341 16.2388 560.081C15.654 559.929 15.8743 560.2 16.5523 560.68C17.6348 561.361 18.751 561.987 19.8968 562.555C22.7329 563.922 26.3202 565.19 27.8582 565.322C28.7479 565.395 29.6434 565.341 30.5178 565.161C31.4126 564.97 32.2894 564.703 33.1388 564.362C33.9321 564.056 34.6089 563.735 35.086 563.499C35.5632 563.264 35.8732 563.084 35.8732 563.084Z" fill="white" fill-opacity="0.2"/>
<path d="M24.2427 548.658C24.6993 549.471 25.0482 550.341 25.2807 551.245C25.4621 552.024 25.5949 552.814 25.6785 553.609C25.8802 555.077 26.0446 556.384 27.0103 557.425C27.698 558.051 28.4501 558.602 29.254 559.069C30.2425 559.65 31.2637 560.173 32.3126 560.635C33.3379 561.095 34.3332 561.425 35.0397 561.694C35.4253 561.842 35.8183 561.97 36.217 562.077L35.8979 561.28C35.7044 560.781 35.4303 560.086 35.0803 559.336C34.7303 558.586 34.3739 557.815 33.9744 557.056C33.628 556.348 33.189 555.689 32.6691 555.097C31.7619 554.161 29.2963 552.229 27.2841 550.646C26.2906 549.825 25.4171 549.103 24.8368 548.721C24.2565 548.338 23.9961 548.204 24.2427 548.658Z" fill="white" fill-opacity="0.2"/>
<path d="M24.9058 557.988L23.8428 557.32C23.1811 556.918 22.3264 556.301 21.3578 555.694C19.4435 554.443 17.2683 552.961 15.9421 552.406C14.6158 551.851 13.3068 552.126 11.7607 552.327C9.88526 552.665 7.9526 552.468 6.18404 551.758C5.63631 551.531 5.80577 551.825 6.44202 552.423C6.77318 552.697 7.16862 553.088 7.67173 553.496C8.17484 553.904 8.77998 554.315 9.41475 554.759C10.0495 555.203 10.7131 555.67 11.3996 556.1C12.0861 556.53 12.7916 556.928 13.4499 557.294C14.0458 557.642 14.6616 557.954 15.2943 558.229C15.7499 558.437 16.2175 558.619 16.6946 558.772C17.1073 558.886 17.529 558.964 17.9549 559.006C18.4118 559.046 18.8707 559.058 19.3291 559.043C20.2247 559.009 21.1167 558.909 21.9977 558.744C22.7024 558.624 23.4003 558.468 24.0885 558.274C24.5978 558.097 24.9058 557.988 24.9058 557.988Z" fill="white" fill-opacity="0.2"/>
<path d="M15.8278 541.687C16.4077 543.334 16.6406 545.084 16.512 546.825C16.4692 548.325 16.3987 549.672 17.2351 550.84C18.0715 552.008 20.0299 553.675 21.9157 554.951C22.8588 555.569 23.7277 556.15 24.3948 556.515L25.5093 557.121L25.3494 556.278C25.2458 555.748 25.0865 555.051 24.9084 554.249C24.7304 553.448 24.5057 552.575 24.2384 551.765C24.1027 551.362 23.9512 550.978 23.8044 550.598C23.6622 550.245 23.4892 549.904 23.2875 549.581C23.0553 549.223 22.7967 548.882 22.5139 548.562C22.1718 548.174 21.7833 547.716 21.3651 547.225C20.9469 546.734 20.4832 546.229 20.0204 545.734C19.5575 545.238 19.1168 544.696 18.681 544.207C18.2453 543.717 17.8321 543.279 17.4494 542.882C17.0667 542.485 16.7631 542.129 16.5093 541.879C15.9044 541.33 15.64 541.2 15.8278 541.687Z" fill="white" fill-opacity="0.2"/>
<path d="M15.3215 551.293C15.2307 551.227 15.1442 551.155 15.0623 551.078C14.8943 550.94 14.6694 550.713 14.3885 550.457C13.8171 549.936 13.029 549.228 12.1626 548.488C11.2961 547.748 10.422 546.88 9.5581 546.166C8.85607 545.525 8.10699 544.939 7.31718 544.411C6.06832 543.693 4.72108 543.8 3.18436 543.774C2.34449 543.793 1.50462 543.737 0.674695 543.606C-0.354426 543.427 -1.34299 543.065 -2.24383 542.535C-3.27297 541.943 -1.74082 543.824 0.526219 545.899C2.79326 547.975 5.75283 550.219 7.12791 550.822C7.92874 551.173 8.77767 551.4 9.6462 551.498C10.5463 551.596 11.4523 551.63 12.3572 551.598C13.1939 551.562 13.9484 551.499 14.4773 551.435C15.0062 551.371 15.3215 551.293 15.3215 551.293Z" fill="white" fill-opacity="0.2"/>
<path d="M8.58217 533.777C8.80386 534.698 8.90449 535.645 8.88153 536.593C8.84107 537.403 8.74504 538.209 8.5941 539.005C8.33452 540.504 8.12583 541.793 8.75861 543.052C9.20158 543.874 9.74523 544.638 10.377 545.326C11.1138 546.145 11.9617 547.016 12.7749 547.801C13.5881 548.586 14.4222 549.219 15.0085 549.712C15.3013 549.954 15.5413 550.152 15.7045 550.287C15.8676 550.422 15.9636 550.501 15.9636 550.501L15.947 549.631C15.9311 549.093 15.8999 548.348 15.8397 547.531C15.7795 546.713 15.6776 545.829 15.5177 544.986C15.4203 544.178 15.223 543.386 14.9302 542.626C14.3559 541.425 12.5167 538.782 11.0342 536.587C9.55164 534.392 8.34731 532.75 8.58217 533.777Z" fill="white" fill-opacity="0.2"/>
<path d="M6.56261 542.982C6.56261 542.982 6.23665 542.624 5.74541 542.016C5.25417 541.408 4.58117 540.609 3.82741 539.752C2.52236 538.094 1.08529 536.544 -0.4697 535.118C-2.7632 533.368 -5.82037 534.832 -9.71643 532.04C-10.1964 531.644 -10.0951 532.01 -9.65521 532.729C-8.93807 533.763 -8.16724 534.759 -7.34591 535.712C-6.87387 536.304 -6.33088 536.899 -5.77601 537.478C-5.22113 538.058 -4.67586 538.63 -4.15312 539.151C-3.32063 539.98 -2.41282 540.731 -1.44142 541.392C-0.116176 542.261 1.95223 542.67 3.6227 542.847C4.46232 542.935 5.20366 542.966 5.7401 542.981C6.27655 542.996 6.56261 542.982 6.56261 542.982Z" fill="white" fill-opacity="0.2"/>
<path d="M1.1923 533.906C1.62229 535.264 3.16031 537.391 4.57226 539.124C5.30452 539.987 6.00214 540.766 6.51549 541.327C7.02884 541.889 7.38025 542.236 7.38025 542.236L7.47529 541.377C7.5351 540.845 7.60992 540.099 7.65572 539.281C7.81491 537.623 7.71665 535.95 7.36444 534.322C7.00274 533.346 6.58118 532.393 6.10216 531.469C5.79662 530.861 5.499 530.243 5.19346 529.635C4.88792 529.027 4.54565 528.405 4.27287 527.816C3.65783 526.605 3.10666 525.6 2.72454 524.977C2.34242 524.354 2.12874 524.153 2.17324 524.667C2.71063 528.868 0.270353 531.238 1.1923 533.906Z" fill="white" fill-opacity="0.2"/>
<path d="M-0.99364 533.505L-3.1586 530.181C-3.77298 529.301 -4.3711 528.314 -4.96773 527.482C-5.47212 526.747 -6.03347 526.054 -6.64659 525.407C-7.60316 524.463 -8.83547 524.245 -10.2556 523.911C-11.9931 523.56 -13.6057 522.752 -14.9267 521.569C-15.7589 520.817 -14.6964 522.826 -13.1548 525.223C-12.3351 526.402 -11.4217 527.682 -10.549 528.766C-9.8593 529.617 -9.1049 530.414 -8.29253 531.148C-7.14546 532.096 -5.26586 532.705 -3.74517 533.073C-2.84058 533.288 -1.92063 533.433 -0.99364 533.505Z" fill="white" fill-opacity="0.2"/>
<path d="M-3.09701 515.891C-3.1029 517.549 -3.48368 519.185 -4.21081 520.674C-4.74145 521.973 -5.23935 523.104 -4.96418 524.414C-4.73942 525.26 -4.41083 526.074 -3.98593 526.839C-3.50433 527.819 -2.96494 528.769 -2.37062 529.685C-1.79046 530.576 -1.25516 531.414 -0.830279 531.976C-0.62493 532.275 -0.449427 532.492 -0.31879 532.657L-0.122418 532.908C-0.122418 532.908 0.17601 531.725 0.503188 530.194C0.845785 528.661 0.940263 527.083 0.78302 525.521C0.564387 524.554 0.265631 523.607 -0.110152 522.69C-0.524886 521.539 -0.978663 520.211 -1.44681 519.057C-2.31155 516.71 -3.10131 514.918 -3.09701 515.891Z" fill="white" fill-opacity="0.2"/>
<path d="M-9.80854 514.594C-9.43376 516.459 -8.79007 518.259 -7.89767 519.938C-7.44248 520.864 -7.02424 521.726 -6.64776 522.336C-6.27127 522.946 -6.06884 523.308 -6.06884 523.308C-6.06884 523.308 -5.63144 522.191 -5.22246 520.776C-4.69832 519.341 -4.43117 517.825 -4.43328 516.298C-4.49458 515.051 -5.26277 512.187 -5.83185 509.834C-6.15979 508.666 -6.41156 507.602 -6.60714 506.987C-6.80272 506.373 -6.98386 506.143 -7.03909 506.63C-7.13339 507.494 -7.35221 508.339 -7.68872 509.139C-7.96669 509.815 -8.2897 510.471 -8.65556 511.103C-9.31433 512.264 -9.94412 513.31 -9.80854 514.594Z" fill="white" fill-opacity="0.2"/>
<path d="M9.28792 573.857C9.28792 573.857 9.11997 573.848 8.86761 573.813C8.61525 573.779 8.25796 573.76 7.93905 573.71C7.62015 573.66 7.26412 573.617 7.00871 573.582C6.7533 573.548 6.58661 573.514 6.58661 573.514L6.59215 573.407C6.59215 573.407 6.75885 573.441 7.0112 573.475C7.26356 573.51 7.60094 573.558 7.93848 573.603C8.27603 573.648 8.611 573.684 8.85161 573.708C9.09223 573.733 9.27208 573.749 9.27208 573.749L9.28792 573.857Z" fill="white" fill-opacity="0.2"/>
<path d="M11.3551 564.25L11.3105 564.343L11.0106 564.223C10.8366 564.153 10.6026 564.061 10.3724 563.954L9.74723 563.671C9.57667 563.594 9.46655 563.533 9.46655 563.533L9.51709 563.444C9.51709 563.444 9.62721 563.505 9.79793 563.578C9.96865 563.651 10.1958 563.758 10.4231 563.862C10.6504 563.966 10.8814 564.057 11.0582 564.131L11.3551 564.25Z" fill="white" fill-opacity="0.2"/>
<path d="M5.56522 563.365C5.80847 564.049 5.73042 564.906 5.93427 565.759C6.13811 566.612 6.61105 567.532 8.02722 568.212C8.32516 568.371 8.87339 568.605 9.42131 568.845C8.83094 568.774 8.23287 568.734 7.89901 568.677C6.3267 568.47 5.35847 568.778 4.55623 569.251C3.75399 569.725 3.1534 570.325 2.34565 570.549C1.91547 570.658 1.47147 570.701 1.02851 570.677C0.814308 570.672 0.600512 570.656 0.388006 570.629C1.70232 571.597 3.24175 572.213 4.86065 572.42C6.09298 572.561 7.34116 572.427 8.51554 572.028C10.6345 571.316 12.0671 570.024 13.274 569.599L13.2794 569.495C12.2057 568.765 11.3016 567.125 10.1131 565.596C9.50918 564.794 8.79825 564.079 8.00019 563.47C7.03653 562.773 5.94853 562.267 4.79489 561.98C4.89815 562.108 4.99348 562.242 5.08034 562.381C5.27484 562.692 5.43731 563.021 5.56522 563.365Z" fill="white" fill-opacity="0.2"/>
<path d="M0.364381 570.679L-0.91711 570.178L-2.18659 569.622L-2.15984 569.519L-0.896466 570.075L0.379079 570.573L0.364381 570.679Z" fill="white" fill-opacity="0.2"/>
<path d="M4.82798 561.942L4.76264 562.021L3.97973 561.414C3.60778 561.088 3.23278 560.762 3.23278 560.762L3.30696 560.689L4.04538 561.328L4.82798 561.942Z" fill="white" fill-opacity="0.2"/>
<path d="M-0.214944 559.752C-0.185575 560.486 -0.465061 561.272 -0.516735 562.151C-0.56841 563.031 -0.332302 564.03 0.863957 565.054C1.1282 565.273 1.57017 565.667 2.05437 566.014C1.48865 565.822 0.939936 565.598 0.609717 565.47C-0.852995 564.861 -1.87192 564.906 -2.77544 565.148C-3.67896 565.389 -4.42964 565.813 -5.25817 565.788C-5.70599 565.768 -6.1489 565.686 -6.57448 565.545C-6.9354 565.419 -7.17432 565.303 -7.17432 565.303C-6.1703 566.618 -4.84287 567.651 -3.32139 568.3C-2.15646 568.767 -0.900817 568.963 0.350854 568.873C0.884418 568.841 1.41455 568.766 1.93631 568.649C2.43525 568.534 2.89112 568.423 3.32703 568.283C3.76294 568.143 4.16431 568.02 4.53678 567.923C4.87615 567.819 5.2243 567.745 5.57693 567.704L5.61574 567.605C4.74707 566.641 4.27484 564.821 3.51803 563.056C3.1445 562.139 2.65184 561.275 2.05275 560.486C1.33172 559.581 0.449256 558.819 -0.549837 558.237C-0.491617 558.389 -0.442439 558.545 -0.402559 558.704C-0.300626 559.045 -0.237684 559.397 -0.214944 559.752Z" fill="white" fill-opacity="0.2"/>
<path d="M16.0581 569.525C16.3974 569.595 16.9669 569.714 17.5753 569.791C16.9854 569.889 16.3964 569.969 16.0479 570.018C15.6925 570.064 15.3403 570.132 14.9932 570.221C14.706 570.299 14.4267 570.405 14.1594 570.536C13.7091 570.753 13.3017 571.05 12.9566 571.412C12.3109 572.055 11.871 572.805 11.1449 573.227C10.7582 573.435 10.3455 573.591 9.91755 573.69C9.71438 573.741 9.50785 573.777 9.29952 573.799C10.7882 574.388 12.4001 574.597 13.9896 574.407C15.2134 574.24 16.3857 573.806 17.4236 573.135C17.8724 572.853 18.2984 572.536 18.6975 572.187C19.0791 571.855 19.4264 571.533 19.7434 571.206C20.0604 570.879 20.3545 570.582 20.6337 570.333C20.8832 570.077 21.1544 569.844 21.4445 569.636C21.4445 569.636 22.2501 569.571 23.4479 569.382C24.9163 569.153 26.3663 568.819 27.7865 568.381C29.2129 567.943 30.6052 567.4 31.9521 566.758C32.2286 566.622 32.4828 566.504 32.7029 566.393C32.923 566.282 33.1154 566.172 33.273 566.085L33.7675 565.82L33.3305 565.092L32.8627 565.374L32.3285 565.699C32.1169 565.823 31.8775 565.952 31.6158 566.097C30.3305 566.797 28.9964 567.402 27.6241 567.91C26.2449 568.418 24.831 568.827 23.3934 569.134C22.8047 569.269 22.3079 569.341 21.9615 569.409C21.7913 569.443 21.6526 569.46 21.5601 569.474L21.4151 569.494C20.2135 569.045 18.9352 567.655 17.4096 566.485C16.6271 565.86 15.7597 565.348 14.8335 564.967C13.7227 564.531 12.5384 564.314 11.3454 564.326C11.8593 564.688 12.2822 565.164 12.5809 565.717C12.8242 566.2 13.0367 566.699 13.2171 567.209C13.3955 567.728 13.6843 568.202 14.0638 568.598C14.2956 568.829 14.5654 569.02 14.8614 569.16C15.2416 569.336 15.6443 569.459 16.0581 569.525Z" fill="white" fill-opacity="0.2"/>
<path d="M28.245 540.461L28.4561 541.023C28.5237 541.201 28.587 541.446 28.6926 541.678L29.06 542.502C29.7339 543.972 30.5559 545.37 31.5133 546.673L32.3368 547.696C32.5933 548.033 32.8667 548.358 33.156 548.668C33.7302 549.264 34.2412 549.847 34.7226 550.299L36.3398 551.791L35.7571 552.441L34.161 550.857C33.6838 550.375 33.1855 549.762 32.6239 549.133C32.3325 548.824 32.0919 548.456 31.8216 548.106L31.0193 547.028C30.0892 545.666 29.3011 544.211 28.6673 542.688L28.321 541.843C28.2197 541.585 28.1648 541.353 28.1057 541.167L27.9283 540.571L28.245 540.461Z" fill="white" fill-opacity="0.2"/>
<path d="M30.5283 532.791C30.7817 532.432 30.9506 533.214 30.9759 534.211C30.9918 534.749 30.9663 535.287 30.8999 535.821C30.845 536.096 30.8197 536.358 30.7437 536.611C30.6786 536.861 30.5791 537.1 30.4481 537.321C30.2834 537.579 30.0722 537.867 29.8527 538.167C29.6331 538.467 29.3671 538.779 29.1348 539.071C28.9026 539.362 28.6745 539.624 28.531 539.815L28.2987 540.119C27.8635 539.242 27.6434 538.275 27.6569 537.296C27.6674 536.965 27.7199 536.637 27.8131 536.32C27.9141 536.048 28.0459 535.788 28.2058 535.547C28.7928 534.625 29.7218 534.004 30.5283 532.791Z" fill="white" fill-opacity="0.2"/>
<path d="M24.1461 532.179C24.2595 532.579 24.4197 532.965 24.6232 533.328C24.7929 533.633 24.9804 533.928 25.1848 534.211C25.5438 534.735 25.9787 535.162 26.3165 535.64C26.4915 535.883 26.6442 536.142 26.7726 536.413C26.9382 536.715 27.0726 537.034 27.1737 537.364C27.4312 538.323 27.6147 539.301 27.7227 540.288C27.2847 540.138 26.8608 539.95 26.4559 539.726C26.0861 539.527 25.7293 539.306 25.3875 539.062C25.0516 538.837 24.7489 538.565 24.4881 538.255C24.2861 537.996 24.1173 537.712 23.9856 537.41C23.8291 537.069 23.7156 536.71 23.6478 536.341C23.4906 535.59 23.438 534.82 23.4916 534.055C23.6013 532.614 23.9941 531.659 24.1461 532.179Z" fill="white" fill-opacity="0.2"/>
<path d="M30.7544 532.572C30.9824 532.343 31.2104 532.098 31.4384 531.841C31.6664 531.583 31.9325 531.317 32.1732 531.038C32.6377 530.488 33.1951 529.888 33.6722 529.267C34.7767 527.951 35.7857 526.557 36.6914 525.096C36.6032 525.378 36.4783 525.646 36.3198 525.895C36.1931 526.127 36.0285 526.394 35.8258 526.698C35.6231 527.002 35.4246 527.323 35.1712 527.678C33.886 529.474 32.4659 531.169 30.9233 532.749C30.8979 532.643 30.8515 532.572 30.7544 532.572Z" fill="white" fill-opacity="0.2"/>
<path d="M23.9844 531.828C23.8915 531.828 23.8239 531.904 23.7817 532.01C23.4442 531.266 23.1825 530.49 23.0005 529.694C22.9076 529.305 22.8274 528.912 22.7598 528.523C22.6922 528.135 22.6669 527.759 22.6289 527.378C22.5909 526.998 22.5782 526.626 22.5656 526.258C22.5529 525.891 22.5656 525.544 22.5867 525.198C22.6027 524.554 22.6591 523.912 22.7556 523.275C22.8485 522.688 22.9456 522.138 23.0596 521.665C23.1736 521.192 23.3003 520.79 23.4101 520.452C23.5058 520.067 23.6476 519.696 23.8324 519.345C23.1047 521.556 22.748 523.872 22.7767 526.199C22.7996 527.248 22.9197 528.292 23.1356 529.318C23.2412 529.795 23.3552 530.243 23.4861 530.662C23.617 531.08 23.8239 531.473 23.9844 531.828Z" fill="white" fill-opacity="0.2"/>
<path d="M30.3987 532.2C29.8418 532.685 29.2536 533.132 28.6379 533.539L27.5315 534.309C27.4573 533.76 27.4375 533.205 27.4724 532.652C27.5115 532.232 27.5893 531.816 27.7047 531.41C27.8999 530.817 28.2395 530.283 28.6928 529.855C29.1243 529.486 29.5847 529.152 30.0694 528.857C30.6252 528.496 31.1455 528.083 31.6233 527.623C31.7837 527.463 31.8682 527.594 31.8809 527.894C31.8649 528.32 31.8126 528.744 31.7246 529.162C31.6035 529.716 31.4426 530.261 31.2432 530.793C31.1396 531.057 31.0124 531.312 30.8632 531.553C30.7331 531.786 30.5773 532.002 30.3987 532.2Z" fill="white" fill-opacity="0.2"/>
<path d="M26.9312 534.3C26.567 534.02 26.2201 533.718 25.8925 533.396C25.2917 532.843 24.7941 532.188 24.423 531.46C24.2873 531.164 24.1963 530.849 24.1527 530.527C24.1121 530.167 24.0994 529.806 24.1147 529.445C24.1437 528.708 24.2715 527.979 24.4948 527.277C24.6396 526.76 24.8572 526.266 25.1408 525.811C25.3393 525.506 25.4871 525.43 25.5167 525.696C25.5867 526.44 25.7823 527.166 26.0952 527.843C26.3612 528.439 26.6188 528.933 26.8384 529.479C27.3071 530.565 27.3577 531.752 26.9312 534.3Z" fill="white" fill-opacity="0.2"/>
<path d="M31.8924 527.429C32.3991 527.065 33.0072 526.617 33.5814 526.119C34.1557 525.62 34.8229 525.062 35.4436 524.466C36.7601 523.261 37.963 521.937 39.0371 520.511C38.5339 521.436 37.909 522.288 37.1791 523.047C35.6373 524.77 33.9064 526.313 32.0191 527.648C32.0148 527.543 31.9853 527.45 31.8924 527.429Z" fill="white" fill-opacity="0.2"/>
<path d="M25.1918 525.438C24.6148 522.695 24.6842 519.855 25.3945 517.143C25.9434 515.03 26.6275 513.72 26.7246 513.657C25.9065 515.629 25.3816 517.711 25.1664 519.835C25.0726 520.829 25.0444 521.829 25.082 522.827C25.1197 523.664 25.2342 524.496 25.424 525.312C25.3354 525.269 25.2551 525.345 25.1918 525.438Z" fill="white" fill-opacity="0.2"/>
<path d="M33.9326 521.977C34.3 521.69 34.1902 522.552 33.7552 523.596C33.3203 524.64 32.67 525.886 31.8086 526.469C31.1561 526.843 30.4739 527.163 29.769 527.424L28.8738 527.762L28.5022 527.902C28.5791 527.352 28.6963 526.808 28.8527 526.275C28.9768 525.87 29.1468 525.48 29.3595 525.113C29.6647 524.56 30.1086 524.097 30.6474 523.769C31.1384 523.481 31.6476 523.226 32.1717 523.004C32.7987 522.736 33.3901 522.391 33.9326 521.977Z" fill="white" fill-opacity="0.2"/>
<path d="M27.924 527.741C27.924 527.741 27.8269 527.619 27.6834 527.424C27.5398 527.23 27.3456 526.947 27.1429 526.622C26.6939 525.955 26.3533 525.222 26.1336 524.45C25.8592 523.304 26.3617 521.677 26.9402 520.511C27.5187 519.345 28.1774 518.643 28.1647 519.159C28.1523 519.887 28.2404 520.614 28.4265 521.318C28.5828 521.931 28.7855 522.476 28.8953 523.042C29.0141 523.671 29.0141 524.316 28.8953 524.944C28.8112 525.362 28.6969 525.773 28.5532 526.174C28.3744 526.708 28.1643 527.232 27.924 527.741Z" fill="white" fill-opacity="0.2"/>
<path d="M34.2237 521.812C34.2237 521.812 34.7937 521.517 35.6045 520.993C36.0056 520.731 36.4743 520.414 36.9895 520.046C37.5047 519.678 38.0114 519.264 38.5561 518.778C39.4302 518.014 39.73 517.874 41.3262 515.82C41.3262 515.93 40.8237 516.843 39.692 518.026C38.1186 519.624 36.3065 520.967 34.3208 522.007C34.3292 521.948 34.3166 521.846 34.2237 521.812Z" fill="white" fill-opacity="0.2"/>
<path d="M28.1267 518.791C28.0464 518.736 27.9536 518.791 27.8818 518.88C27.6324 516.415 27.8999 513.925 28.6672 511.569C29.2372 509.879 29.8622 508.953 29.9551 508.898C28.7938 511.409 28.8065 511.806 28.5236 513.035C28.3614 513.756 28.243 514.485 28.1689 515.22C28.0472 516.407 28.0345 517.602 28.1309 518.791H28.1267Z" fill="white" fill-opacity="0.2"/>
<path d="M34.2125 520.95C33.8924 521.102 33.5605 521.228 33.2202 521.326C32.8613 521.436 32.4813 521.538 32.1308 521.622C31.434 521.791 30.864 521.897 30.864 521.897C31.0145 521.385 31.1993 520.884 31.4172 520.397C31.5955 520.033 31.8075 519.686 32.0505 519.361C32.404 518.868 32.874 518.471 33.4187 518.204C34.3899 517.713 35.454 517.582 36.7461 516.725C37.1262 516.467 36.9319 517.299 36.421 518.301C36.157 518.84 35.8372 519.35 35.4667 519.822C35.1317 520.282 34.7046 520.666 34.2125 520.95Z" fill="white" fill-opacity="0.2"/>
<path d="M30.1466 521.584C30.1466 521.584 29.8637 521.082 29.5597 520.41C29.4119 520.072 29.2556 519.696 29.1374 519.315C29.0213 518.969 28.9393 518.612 28.8925 518.25C28.8511 517.635 28.9433 517.018 29.1628 516.442C29.3835 515.83 29.6665 515.242 30.0073 514.688C30.6491 513.67 31.3079 513.061 31.2741 513.539C31.1178 515.14 31.5612 516.159 31.6583 517.257C31.7145 517.866 31.6484 518.479 31.4641 519.062C31.3365 519.45 31.174 519.827 30.9785 520.186C30.7304 520.669 30.4525 521.136 30.1466 521.584Z" fill="white" fill-opacity="0.2"/>
<path d="M37.0409 516.59C37.0409 516.59 37.5941 516.332 38.426 515.854C39.4812 515.25 40.4815 514.554 41.4156 513.775C41.8379 513.403 42.1588 513.175 42.5473 512.795C43.154 512.182 43.7183 511.528 44.2363 510.838C44.2363 510.94 43.7169 511.882 42.5726 513.048C40.9896 514.619 39.1411 515.897 37.1127 516.822C37.1127 516.729 37.1127 516.628 37.0409 516.59Z" fill="white" fill-opacity="0.2"/>
<path d="M31.2359 513.175C31.1599 513.12 31.0712 513.175 30.9952 513.239C30.8871 510.945 31.2108 508.651 31.9495 506.477C32.4985 504.918 33.0516 504.103 33.1445 504.048C32.7788 504.804 32.4559 505.579 32.1775 506.372C32.0086 506.896 31.9453 507.259 31.8017 507.83C31.5046 509.051 31.3209 510.297 31.2528 511.553C31.2165 512.093 31.2109 512.635 31.2359 513.175Z" fill="white" fill-opacity="0.2"/>
<path d="M33.5495 516.514C35.323 512.106 37.0163 513.395 39.5584 511.747C40.3142 511.265 38.7138 514.997 36.8643 515.812C36.1995 516.071 35.5064 516.25 34.7994 516.345C34.1069 516.467 33.5495 516.514 33.5495 516.514Z" fill="white" fill-opacity="0.2"/>
<path d="M34.4413 508.582C34.1077 511.646 35.9572 512.491 33.0056 516.214C33.0056 516.214 32.7733 515.707 32.5326 515.043C32.2666 514.364 32.0892 513.654 32.0048 512.93C31.8823 510.843 34.5468 507.665 34.4413 508.582Z" fill="white" fill-opacity="0.2"/>
<path d="M39.858 511.62C39.858 511.62 40.4112 511.371 41.2261 510.906C42.2784 510.3 43.2685 509.593 44.182 508.793C45.0476 508.015 45.3643 507.889 46.9141 505.7C46.8218 505.966 46.6924 506.218 46.5298 506.448C46.1619 507.007 45.7511 507.537 45.301 508.032C43.776 509.652 41.9464 510.955 39.9171 511.865C39.9383 511.755 39.9382 511.658 39.858 511.62Z" fill="white" fill-opacity="0.2"/>
<path d="M34.4263 508.256C34.3545 508.202 34.2701 508.256 34.1983 508.303C34.1272 506.158 34.4126 504.016 35.0428 501.964C35.2084 501.396 35.4217 500.844 35.6804 500.312C35.7674 500.095 35.8871 499.893 36.0352 499.712C35.5271 500.834 35.1611 502.015 34.9457 503.228C34.6948 504.378 34.538 505.547 34.477 506.723C34.401 507.64 34.4263 508.256 34.4263 508.256Z" fill="white" fill-opacity="0.2"/>
<path d="M40.1181 510.513C39.016 510.995 36.8202 511.134 36.8202 511.134C36.8202 511.134 37.745 509.021 38.8935 508.176C39.8141 507.496 41.3131 507.445 42.8291 506.406C43.5891 505.89 41.9761 509.714 40.1181 510.513Z" fill="white" fill-opacity="0.2"/>
<path d="M36.2122 510.758C36.2122 510.758 35.3676 508.73 35.3001 507.529C35.2072 505.509 37.7154 502.458 37.631 503.342C37.4874 505.1 38.125 506.46 37.935 507.567C37.6985 508.992 36.2122 510.758 36.2122 510.758Z" fill="white" fill-opacity="0.2"/>
<path d="M38.5531 507.699V507.639L38.5066 507.665C38.5066 507.665 38.5066 507.107 38.5066 506.397C38.513 505.685 38.6023 504.976 38.7727 504.284C39.2203 502.771 41.6441 500.903 42.1508 500.903L42.6617 500.033C42.9404 499.496 43.2867 498.765 43.6245 498.034C43.9623 497.303 44.2579 496.547 44.4184 495.959C44.5788 495.372 44.7308 495 44.7308 495V495.068L44.752 495C44.752 495 44.6548 495.389 44.5028 495.972C44.316 496.687 44.0933 497.392 43.8356 498.085C43.5485 498.837 43.2445 499.585 42.9911 500.143L42.5688 501.056C42.8771 501.596 42.6575 504.618 41.4498 505.86C40.9125 506.352 40.3186 506.777 39.6805 507.128C39.0598 507.462 38.5531 507.699 38.5531 507.699Z" fill="white" fill-opacity="0.2"/>
<path d="M43.1601 506.397C43.1461 506.361 43.1189 506.333 43.0841 506.317C43.9309 506.086 44.7166 505.672 45.3855 505.104C46.6255 504.099 47.6581 502.861 48.4258 501.461C48.3406 501.733 48.2214 501.993 48.0711 502.235C47.7481 502.769 47.3883 503.28 46.9943 503.764C46.4916 504.366 45.9253 504.911 45.3052 505.391C44.6592 505.89 43.9341 506.277 43.1601 506.536C43.1686 506.49 43.1686 506.443 43.1601 506.397Z" fill="white" fill-opacity="0.2"/>
<path d="M37.3658 503.105C37.1956 502.36 37.1344 501.594 37.1842 500.831C37.2178 500.156 37.3097 499.484 37.4587 498.824C37.5523 498.339 37.6836 497.861 37.8514 497.396C37.8961 497.195 37.9762 497.003 38.0879 496.83C37.8683 497.632 37.6656 498.186 37.6107 498.613C37.5558 499.04 37.5094 499.378 37.4461 499.809C37.3865 500.273 37.3569 500.74 37.3574 501.208C37.3487 501.552 37.3642 501.896 37.4038 502.239C37.4304 502.525 37.487 502.809 37.5727 503.084C37.5408 503.064 37.5031 503.055 37.4656 503.059C37.4281 503.063 37.393 503.079 37.3658 503.105Z" fill="white" fill-opacity="0.2"/>
</g>
<defs>
<clipPath id="clip0_1_666">
<rect width="75" height="585" fill="white"/>
</clipPath>
</defs>
</svg>
