<svg width="88" height="523" viewBox="0 0 88 523" fill="none" xmlns="http://www.w3.org/2000/svg">
<path d="M14.6554 461.315C21.536 452.211 19.7993 443.757 19.7993 443.757C19.7993 443.757 13.1175 441.846 7.11189 449.783C3.82405 454.136 2.45853 459.165 1.90171 462.828L1.90171 444.885C3.45284 445.005 9.53801 444.992 14.6554 438.223C21.536 429.119 19.7993 420.665 19.7993 420.665C19.7993 420.665 13.1175 418.754 7.11189 426.691C3.82405 431.044 2.45853 436.073 1.90171 439.736V426.505C3.47935 424.607 7.00583 419.391 7.00583 410.938C7.00583 398.29 1.1593 393.738 1.1593 393.738C1.1593 393.738 -4.68724 398.277 -4.68724 409.305C-4.68724 420.334 1.13278 427.274 1.1593 427.314V440.187C0.642256 436.498 -0.683489 431.216 -4.11717 426.677C-10.1228 418.741 -16.8046 420.652 -16.8046 420.652C-16.8046 420.652 -18.5413 429.106 -11.6607 438.21C-6.46374 445.085 -0.272509 444.992 1.1593 444.859L1.1593 463.266C0.642256 459.577 -0.683489 454.295 -4.11717 449.756C-10.1228 441.82 -16.8046 443.731 -16.8046 443.731C-16.8046 443.731 -18.5413 452.185 -11.6607 461.289C-6.46374 468.163 -0.272509 468.07 1.1593 467.938V483.85C0.642256 480.16 -0.683489 474.878 -4.11717 470.34C-10.1228 462.404 -16.8046 464.315 -16.8046 464.315C-16.8046 464.315 -18.5413 472.768 -11.6607 481.872C-6.46374 488.747 -0.272509 488.654 1.1593 488.521V503.916C0.642256 500.227 -0.683489 494.945 -4.11717 490.406C-10.1228 482.47 -16.8046 484.381 -16.8046 484.381C-16.8046 484.381 -18.5413 492.834 -11.6607 501.939C-6.46374 508.813 -0.272509 508.72 1.1593 508.587V523H1.90171V508.601C3.45284 508.72 9.53801 508.707 14.6554 501.939C21.536 492.834 19.7993 484.381 19.7993 484.381C19.7993 484.381 13.1175 482.47 7.11189 490.406C3.82405 494.759 2.45853 499.789 1.90171 503.451V488.521C3.45284 488.641 9.53801 488.627 14.6554 481.859C21.536 472.755 19.7993 464.301 19.7993 464.301C19.7993 464.301 13.1175 462.39 7.11189 470.326C3.82405 474.679 2.45853 479.709 1.90171 483.372V467.924C3.45284 468.044 9.53801 468.031 14.6554 461.262V461.315Z" fill="#F2522E" fill-opacity="0.7"/>
<path d="M14.6554 330.069C21.536 320.965 19.7993 312.511 19.7993 312.511C19.7993 312.511 13.1175 310.6 7.11189 318.536C3.82405 322.889 2.45853 327.919 1.90171 331.582L1.90171 313.639C3.45284 313.759 9.53801 313.746 14.6554 306.977C21.536 297.873 19.7993 289.419 19.7993 289.419C19.7993 289.419 13.1175 287.508 7.11189 295.444C3.82405 299.797 2.45853 304.827 1.90171 308.49V295.259C3.47935 293.361 7.00583 288.145 7.00583 279.691C7.00583 267.044 1.1593 262.492 1.1593 262.492C1.1593 262.492 -4.68724 267.031 -4.68724 278.059C-4.68724 289.088 1.13278 296.028 1.1593 296.068V308.941C0.642256 305.252 -0.683489 299.97 -4.11717 295.431C-10.1228 287.495 -16.8046 289.406 -16.8046 289.406C-16.8046 289.406 -18.5413 297.86 -11.6607 306.964C-6.46374 313.838 -0.272509 313.746 1.1593 313.613L1.1593 332.02C0.642256 328.331 -0.683489 323.049 -4.11717 318.51C-10.1228 310.574 -16.8046 312.485 -16.8046 312.485C-16.8046 312.485 -18.5413 320.939 -11.6607 330.043C-6.46374 336.917 -0.272509 336.824 1.1593 336.692V352.604C0.642256 348.914 -0.683489 343.632 -4.11717 339.094C-10.1228 331.157 -16.8046 333.068 -16.8046 333.068C-16.8046 333.068 -18.5413 341.522 -11.6607 350.626C-6.46374 357.501 -0.272509 357.408 1.1593 357.275V372.67C0.642256 368.98 -0.683489 363.699 -4.11717 359.16C-10.1228 351.224 -16.8046 353.135 -16.8046 353.135C-16.8046 353.135 -18.5413 361.588 -11.6607 370.692C-6.46374 377.567 -0.272509 377.474 1.1593 377.341V391.754H1.90171V377.355C3.45284 377.474 9.53801 377.461 14.6554 370.692C21.536 361.588 19.7993 353.135 19.7993 353.135C19.7993 353.135 13.1175 351.224 7.11189 359.16C3.82405 363.513 2.45853 368.543 1.90171 372.205V357.275C3.45284 357.395 9.53801 357.381 14.6554 350.613C21.536 341.509 19.7993 333.055 19.7993 333.055C19.7993 333.055 13.1175 331.144 7.11189 339.08C3.82405 343.433 2.45853 348.463 1.90171 352.126V336.678C3.45284 336.798 9.53801 336.784 14.6554 330.016V330.069Z" fill="#F2522E" fill-opacity="0.7"/>
<path d="M14.6554 198.823C21.536 189.719 19.7993 181.265 19.7993 181.265C19.7993 181.265 13.1175 179.354 7.11189 187.291C3.82405 191.644 2.45853 196.673 1.90171 200.336L1.90171 182.393C3.45284 182.513 9.53801 182.5 14.6554 175.731C21.536 166.627 19.7993 158.173 19.7993 158.173C19.7993 158.173 13.1175 156.262 7.11189 164.199C3.82405 168.552 2.45853 173.581 1.90171 177.244V164.013C3.47935 162.115 7.00583 156.899 7.00583 148.446C7.00583 135.798 1.1593 131.246 1.1593 131.246C1.1593 131.246 -4.68724 135.785 -4.68724 146.813C-4.68724 157.842 1.13278 164.783 1.1593 164.822V177.695C0.642256 174.006 -0.683489 168.724 -4.11717 164.185C-10.1228 156.249 -16.8046 158.16 -16.8046 158.16C-16.8046 158.16 -18.5413 166.614 -11.6607 175.718C-6.46374 182.593 -0.272509 182.5 1.1593 182.367L1.1593 200.774C0.642256 197.085 -0.683489 191.803 -4.11717 187.264C-10.1228 179.328 -16.8046 181.239 -16.8046 181.239C-16.8046 181.239 -18.5413 189.693 -11.6607 198.797C-6.46374 205.671 -0.272509 205.578 1.1593 205.446V221.358C0.642256 217.668 -0.683489 212.387 -4.11717 207.848C-10.1228 199.912 -16.8046 201.823 -16.8046 201.823C-16.8046 201.823 -18.5413 210.276 -11.6607 219.38C-6.46374 226.255 -0.272509 226.162 1.1593 226.029V241.424C0.642256 237.735 -0.683489 232.453 -4.11717 227.914C-10.1228 219.978 -16.8046 221.889 -16.8046 221.889C-16.8046 221.889 -18.5413 230.343 -11.6607 239.447C-6.46374 246.321 -0.272509 246.228 1.1593 246.096V260.508H1.90171V246.109C3.45284 246.228 9.53801 246.215 14.6554 239.447C21.536 230.343 19.7993 221.889 19.7993 221.889C19.7993 221.889 13.1175 219.978 7.11189 227.914C3.82405 232.267 2.45853 237.297 1.90171 240.96V226.029C3.45284 226.149 9.53801 226.136 14.6554 219.367C21.536 210.263 19.7993 201.809 19.7993 201.809C19.7993 201.809 13.1175 199.898 7.11189 207.835C3.82405 212.187 2.45853 217.217 1.90171 220.88V205.432C3.45284 205.552 9.53801 205.539 14.6554 198.77V198.823Z" fill="#F2522E" fill-opacity="0.7"/>
<path d="M14.6554 67.5772C21.536 58.4731 19.7993 50.0194 19.7993 50.0194C19.7993 50.0194 13.1175 48.1083 7.11189 56.0445C3.82405 60.3975 2.45853 65.4273 1.90171 69.0901L1.90171 51.1474C3.45284 51.2668 9.53801 51.2536 14.6554 44.4852C21.536 35.3812 19.7993 26.9274 19.7993 26.9274C19.7993 26.9274 13.1175 25.0163 7.11189 32.9525C3.82405 37.3055 2.45853 42.3353 1.90171 45.9982V32.7667C3.47935 30.8689 7.00583 25.6533 7.00583 17.1995C7.00583 4.55204 1.1593 0 1.1593 0C1.1593 0 -4.68724 4.53877 -4.68724 15.5672C-4.68724 26.5956 1.13278 33.5365 1.1593 33.5763V46.4494C0.642256 42.76 -0.683489 37.478 -4.11717 32.9393C-10.1228 25.003 -16.8046 26.9141 -16.8046 26.9141C-16.8046 26.9141 -18.5413 35.3679 -11.6607 44.472C-6.46374 51.3465 -0.272509 51.2536 1.1593 51.1209L1.1593 69.5281C0.642256 65.8387 -0.683489 60.5567 -4.11717 56.018C-10.1228 48.0818 -16.8046 49.9928 -16.8046 49.9928C-16.8046 49.9928 -18.5413 58.4466 -11.6607 67.5507C-6.46374 74.4252 -0.272509 74.3323 1.1593 74.1996V90.1118C0.642256 86.4224 -0.683489 81.1404 -4.11717 76.6017C-10.1228 68.6655 -16.8046 70.5765 -16.8046 70.5765C-16.8046 70.5765 -18.5413 79.0303 -11.6607 88.1344C-6.46374 95.0089 -0.272509 94.916 1.1593 94.7833V110.178C0.642256 106.489 -0.683489 101.207 -4.11717 96.6678C-10.1228 88.7316 -16.8046 90.6427 -16.8046 90.6427C-16.8046 90.6427 -18.5413 99.0964 -11.6607 108.201C-6.46374 115.075 -0.272509 114.982 1.1593 114.849V129.262H1.90171V114.863C3.45284 114.982 9.53801 114.969 14.6554 108.201C21.536 99.0964 19.7993 90.6427 19.7993 90.6427C19.7993 90.6427 13.1175 88.7316 7.11189 96.6678C3.82405 101.021 2.45853 106.051 1.90171 109.713V94.7833C3.45284 94.9027 9.53801 94.8895 14.6554 88.1211C21.536 79.017 19.7993 70.5632 19.7993 70.5632C19.7993 70.5632 13.1175 68.6522 7.11189 76.5884C3.82405 80.9414 2.45853 85.9712 1.90171 89.634V74.1863C3.45284 74.3057 9.53801 74.2925 14.6554 67.5241V67.5772Z" fill="#F2522E" fill-opacity="0.7"/>
<path d="M77.1856 418.402C78.1584 418.503 79.0141 417.928 79.1007 417.113C79.1873 416.303 78.4691 415.559 77.4963 415.457C76.5235 415.355 75.6679 415.931 75.5813 416.746C75.4947 417.556 76.2128 418.3 77.1856 418.402Z" fill="#F28B2F" fill-opacity="0.7"/>
<path d="M71.536 414.952C72.1064 413.878 73.339 412.487 75.9721 411.784C79.2216 410.918 81.702 411.651 83.2044 412.421C84.0754 412.869 84.7222 413.368 85.1449 413.745C85.3996 412.303 85.4709 410.245 85.588 409.868C85.751 409.349 80.9991 405.294 72.1879 408.651C68.2102 410.164 69.4121 411.071 70.2016 412.741C70.5938 413.567 71.1846 414.311 71.536 414.952Z" fill="#F28B2F" fill-opacity="0.7"/>
<path d="M85.9141 418.401C84.2792 417.163 84.1671 415.869 84.7579 415.003C84.87 414.84 84.9617 414.57 85.0431 414.244C84.1366 413.338 81.0908 410.846 76.1301 412.171C73.2881 412.93 72.1931 414.519 71.7754 415.533C71.8315 415.747 71.8366 415.946 71.7653 416.129C71.7296 416.226 71.643 416.323 71.5259 416.42C71.5259 416.44 71.5259 416.45 71.5259 416.45H71.4953C70.7874 417 69.0506 417.545 69.0506 417.545C69.0506 417.545 68.2764 407.036 55.406 407C42.3726 406.964 36.4136 413.694 34.2337 416.063C32.0589 418.432 33.3017 419.731 35.0486 421.432C36.7956 423.134 40.8905 427.856 40.8905 427.856C40.8905 427.856 41.7767 428.575 42.5763 428.121C43.3709 427.668 43.8904 426.522 46.9615 426.843C50.0327 427.164 52.0904 429.787 51.963 432.981C51.8255 436.267 49.0956 438.285 45.841 437.678C42.5916 437.072 39.77 435.365 36.9484 434.785C34.0351 434.184 33.6174 434.097 32.7261 435.437C31.8348 436.777 30.8468 438.891 31.0199 439.268C31.1931 439.645 31.7177 439.767 33.8415 439.91C35.9654 440.052 41.3183 441.351 43.2282 444.25C44.145 445.641 44.8479 450.098 48.3367 452.518C50.5573 454.057 54.1582 456.879 59.1291 458.453C58.3448 459.156 57.8354 460.048 57.7285 461.046C57.5808 462.432 58.2378 463.772 59.4092 464.801C51.795 464.877 46.0091 467.017 45.6679 470.226C45.2553 474.128 53.0377 478.138 63.0508 479.182C73.064 480.226 81.5238 477.903 81.9363 474.001C82.2877 470.71 76.8126 467.348 69.0913 465.748C70.4054 464.979 71.2916 463.828 71.4342 462.472C71.5564 461.331 71.1337 460.226 70.329 459.294C79.5069 457.882 82.0687 452.274 82.7665 448.585C83.4948 444.724 83.0466 438.763 80.388 433.771C79.8125 432.686 80.4084 433.017 80.4084 433.017C80.4084 433.017 84.3759 434.505 82.4762 429.945C81.045 426.501 79.3795 425.355 79.9958 422.558C80.6121 419.761 81.8599 419.593 83.449 419.848C85.0381 420.108 85.0126 420.719 86.4285 420.785C87.8444 420.847 87.5439 419.644 85.909 418.406L85.9141 418.401ZM77.49 414.963C79.074 415.126 80.2403 416.333 80.1028 417.658C79.9602 418.982 78.5646 419.919 76.9807 419.756C75.3967 419.593 74.2304 418.386 74.3679 417.061C74.5105 415.737 75.906 414.8 77.49 414.963ZM47.5014 411.59C49.1007 410.908 55.3245 410.576 59.832 414.815C64.5635 419.272 62.679 424.076 62.679 424.076C62.679 424.076 61.8743 425.156 61.7877 424.616C61.7012 424.081 62.2614 417.27 54.8916 414.805C49.3961 412.966 45.9938 414.377 45.9938 414.377C45.9938 414.377 45.0873 412.609 47.4963 411.585L47.5014 411.59ZM45.3012 417.061C46.931 416.088 50.1193 415.564 54.4128 417.892C58.961 420.358 59.3787 424.968 59.3787 424.968L58.6707 425.431C58.6707 425.431 55.9866 417.235 44.4404 418.814C43.2384 418.738 44.853 417.331 45.3012 417.067V417.061ZM45.6068 423.924C44.8326 424.025 45.8207 422.726 46.1008 422.461C47.1143 421.494 49.1465 420.668 51.9834 421.891C54.9884 423.19 55.4111 426.695 55.4111 426.695L54.9731 427.143C54.9731 427.143 52.9766 421.173 45.6068 423.924ZM55.6759 445.08C55.0444 445.014 54.5758 444.53 54.6318 444.005C54.6879 443.476 55.2481 443.099 55.8797 443.165C56.5112 443.231 56.9798 443.715 56.9238 444.24C56.8677 444.77 56.3075 445.147 55.6759 445.08ZM59.6486 444.765C58.8235 444.678 58.2174 444.051 58.2887 443.364C58.36 442.676 59.0884 442.187 59.9135 442.273C60.7386 442.36 61.3446 442.987 61.2733 443.674C61.202 444.362 60.4737 444.851 59.6486 444.765ZM64.5737 444.658C63.4736 444.545 62.6587 443.705 62.7554 442.783C62.8522 441.861 63.825 441.209 64.9251 441.321C66.0253 441.433 66.8402 442.273 66.7434 443.195C66.6466 444.118 65.6738 444.77 64.5737 444.658ZM70.6295 445.228C69.3053 445.091 68.3223 444.082 68.4394 442.971C68.5566 441.861 69.728 441.076 71.0522 441.214C72.3764 441.351 73.3594 442.36 73.2372 443.471C73.12 444.581 71.9486 445.366 70.6244 445.228H70.6295ZM75.8653 440.628C75.6361 440.913 75.2082 441.035 74.811 440.923C64.9862 438.172 54.0105 441.382 48.953 442.895C48.571 443.007 48.3061 442.548 48.6576 442.38C59.8574 437.113 73.2474 437.306 75.5444 437.928C77.3321 438.412 76.4713 439.864 75.8653 440.628ZM80.118 432.105C80.118 432.105 79.7666 432.737 79.186 431.687C78.3558 430.185 78.2336 426.476 78.2336 426.476C78.7989 431.672 80.118 432.11 80.118 432.11V432.105Z" fill="#F28B2F" fill-opacity="0.7"/>
</svg>
